<svg width="388" height="280" viewBox="0 0 388 280" fill="none" xmlns="http://www.w3.org/2000/svg">
<path opacity="0.1" d="M-163.479 0.246094H-180.521V16.0306M-163.479 0.246094V16.0306M-163.479 0.246094H-146.437M-163.479 16.0306H-180.521M-163.479 16.0306V31.8151M-163.479 16.0306H-146.437M-180.521 16.0306V31.8151M-163.479 31.8151H-180.521M-163.479 31.8151V47.5996M-163.479 31.8151H-146.437M-180.521 31.8151V47.5996M-163.479 47.5996H-180.521M-163.479 47.5996V63.3841M-163.479 47.5996H-146.437M-180.521 47.5996V63.3841M-163.479 63.3841H-180.521M-163.479 63.3841V79.1686M-163.479 63.3841H-146.437M-180.521 63.3841V79.1686M-163.479 79.1686H-180.521M-163.479 79.1686V94.9531M-163.479 79.1686H-146.437M-180.521 79.1686V94.9531M-163.479 94.9531H-180.521M-163.479 94.9531V110.738M-163.479 94.9531H-146.437M-180.521 94.9531V110.738M-163.479 110.738H-180.521M-163.479 110.738V126.522M-163.479 110.738H-146.437M-180.521 110.738V126.522M-163.479 126.522H-180.521M-163.479 126.522V142.307M-163.479 126.522H-146.437M-180.521 126.522V142.307M-163.479 142.307H-180.521M-163.479 142.307V158.091M-163.479 142.307H-146.437M-180.521 142.307V158.091M-163.479 158.091H-180.521M-163.479 158.091V173.876M-163.479 158.091H-146.437M-180.521 158.091V173.876M-163.479 173.876H-180.521M-163.479 173.876V189.66M-163.479 173.876H-146.437M-180.521 173.876V189.66M-163.479 189.66H-180.521M-163.479 189.66V205.445M-163.479 189.66H-146.437M-180.521 189.66V205.445M-163.479 205.445H-180.521M-163.479 205.445V221.229M-163.479 205.445H-146.437M-180.521 205.445V221.229M-163.479 221.229H-180.521M-163.479 221.229V237.014M-163.479 221.229H-146.437M-180.521 221.229V237.014M-163.479 237.014H-180.521M-163.479 237.014V252.798M-163.479 237.014H-146.437M-180.521 237.014V252.798M-163.479 252.798H-180.521M-163.479 252.798V268.583M-163.479 252.798H-146.437M-180.521 252.798V268.583M-163.479 268.583H-180.521M-163.479 268.583V284.367M-163.479 268.583H-146.437M-180.521 268.583V284.367M-163.479 284.367H-180.521M-163.479 284.367V300.152M-163.479 284.367H-146.437M-180.521 284.367V300.152H-163.479M-163.479 300.152H-146.437M-146.437 0.246094V16.0306M-146.437 0.246094H-129.395M-146.437 16.0306V31.8151M-146.437 16.0306H-129.395M-146.437 31.8151V47.5996M-146.437 31.8151H-129.395M-146.437 47.5996V63.3841M-146.437 47.5996H-129.395M-146.437 63.3841V79.1686M-146.437 63.3841H-129.395M-146.437 79.1686V94.9531M-146.437 79.1686H-129.395M-146.437 94.9531V110.738M-146.437 94.9531H-129.395M-146.437 110.738V126.522M-146.437 110.738H-129.395M-146.437 126.522V142.307M-146.437 126.522H-129.395M-146.437 142.307V158.091M-146.437 142.307H-129.395M-146.437 158.091V173.876M-146.437 158.091H-129.395M-146.437 173.876V189.66M-146.437 173.876H-129.395M-146.437 189.66V205.445M-146.437 189.66H-129.395M-146.437 205.445V221.229M-146.437 205.445H-129.395M-146.437 221.229V237.014M-146.437 221.229H-129.395M-146.437 237.014V252.798M-146.437 237.014H-129.395M-146.437 252.798V268.583M-146.437 252.798H-129.395M-146.437 268.583V284.367M-146.437 268.583H-129.395M-146.437 284.367V300.152M-146.437 284.367H-129.395M-146.437 300.152H-129.395M-129.395 0.246094V16.0306M-129.395 0.246094H-112.352M-129.395 16.0306V31.8151M-129.395 16.0306H-112.352M-129.395 31.8151V47.5996M-129.395 31.8151H-112.352M-129.395 47.5996V63.3841M-129.395 47.5996H-112.352M-129.395 63.3841V79.1686M-129.395 63.3841H-112.352M-129.395 79.1686V94.9531M-129.395 79.1686H-112.352M-129.395 94.9531V110.738M-129.395 94.9531H-112.352M-129.395 110.738V126.522M-129.395 110.738H-112.352M-129.395 126.522V142.307M-129.395 126.522H-112.352M-129.395 142.307V158.091M-129.395 142.307H-112.352M-129.395 158.091V173.876M-129.395 158.091H-112.352M-129.395 173.876V189.66M-129.395 173.876H-112.352M-129.395 189.66V205.445M-129.395 189.66H-112.352M-129.395 205.445V221.229M-129.395 205.445H-112.352M-129.395 221.229V237.014M-129.395 221.229H-112.352M-129.395 237.014V252.798M-129.395 237.014H-112.352M-129.395 252.798V268.583M-129.395 252.798H-112.352M-129.395 268.583V284.367M-129.395 268.583H-112.352M-129.395 284.367V300.152M-129.395 284.367H-112.352M-129.395 300.152H-112.352M-112.352 0.246094V16.0306M-112.352 0.246094H-95.31M-112.352 16.0306V31.8151M-112.352 16.0306H-95.31M-112.352 31.8151V47.5996M-112.352 31.8151H-95.31M-112.352 47.5996V63.3841M-112.352 47.5996H-95.31M-112.352 63.3841V79.1686M-112.352 63.3841H-95.31M-112.352 79.1686V94.9531M-112.352 79.1686H-95.31M-112.352 94.9531V110.738M-112.352 94.9531H-95.31M-112.352 110.738V126.522M-112.352 110.738H-95.31M-112.352 126.522V142.307M-112.352 126.522H-95.31M-112.352 142.307V158.091M-112.352 142.307H-95.31M-112.352 158.091V173.876M-112.352 158.091H-95.31M-112.352 173.876V189.66M-112.352 173.876H-95.31M-112.352 189.66V205.445M-112.352 189.66H-95.31M-112.352 205.445V221.229M-112.352 205.445H-95.31M-112.352 221.229V237.014M-112.352 221.229H-95.31M-112.352 237.014V252.798M-112.352 237.014H-95.31M-112.352 252.798V268.583M-112.352 252.798H-95.31M-112.352 268.583V284.367M-112.352 268.583H-95.31M-112.352 284.367V300.152M-112.352 284.367H-95.31M-112.352 300.152H-95.31M-95.31 0.246094V16.0306M-95.31 0.246094H-78.2677M-95.31 16.0306V31.8151M-95.31 16.0306H-78.2677M-95.31 31.8151V47.5996M-95.31 31.8151H-78.2677M-95.31 47.5996V63.3841M-95.31 47.5996H-78.2677M-95.31 63.3841V79.1686M-95.31 63.3841H-78.2677M-95.31 79.1686V94.9531M-95.31 79.1686H-78.2677M-95.31 94.9531V110.738M-95.31 94.9531H-78.2677M-95.31 110.738V126.522M-95.31 110.738H-78.2677M-95.31 126.522V142.307M-95.31 126.522H-78.2677M-95.31 142.307V158.091M-95.31 142.307H-78.2677M-95.31 158.091V173.876M-95.31 158.091H-78.2677M-95.31 173.876V189.66M-95.31 173.876H-78.2677M-95.31 189.66V205.445M-95.31 189.66H-78.2677M-95.31 205.445V221.229M-95.31 205.445H-78.2677M-95.31 221.229V237.014M-95.31 221.229H-78.2677M-95.31 237.014V252.798M-95.31 237.014H-78.2677M-95.31 252.798V268.583M-95.31 252.798H-78.2677M-95.31 268.583V284.367M-95.31 268.583H-78.2677M-95.31 284.367V300.152M-95.31 284.367H-78.2677M-95.31 300.152H-78.2677M-78.2677 0.246094V16.0306M-78.2677 0.246094H-61.2254M-78.2677 16.0306V31.8151M-78.2677 16.0306H-61.2254M-78.2677 31.8151V47.5996M-78.2677 31.8151H-61.2254M-78.2677 47.5996V63.3841M-78.2677 47.5996H-61.2254M-78.2677 63.3841V79.1686M-78.2677 63.3841H-61.2254M-78.2677 79.1686V94.9531M-78.2677 79.1686H-61.2254M-78.2677 94.9531V110.738M-78.2677 94.9531H-61.2254M-78.2677 110.738V126.522M-78.2677 110.738H-61.2254M-78.2677 126.522V142.307M-78.2677 126.522H-61.2254M-78.2677 142.307V158.091M-78.2677 142.307H-61.2254M-78.2677 158.091V173.876M-78.2677 158.091H-61.2254M-78.2677 173.876V189.66M-78.2677 173.876H-61.2254M-78.2677 189.66V205.445M-78.2677 189.66H-61.2254M-78.2677 205.445V221.229M-78.2677 205.445H-61.2254M-78.2677 221.229V237.014M-78.2677 221.229H-61.2254M-78.2677 237.014V252.798M-78.2677 237.014H-61.2254M-78.2677 252.798V268.583M-78.2677 252.798H-61.2254M-78.2677 268.583V284.367M-78.2677 268.583H-61.2254M-78.2677 284.367V300.152M-78.2677 284.367H-61.2254M-78.2677 300.152H-61.2254M-61.2254 0.246094V16.0306M-61.2254 0.246094H-44.1831M-61.2254 16.0306V31.8151M-61.2254 16.0306H-44.1831M-61.2254 31.8151V47.5996M-61.2254 31.8151H-44.1831M-61.2254 47.5996V63.3841M-61.2254 47.5996H-44.1831M-61.2254 63.3841V79.1686M-61.2254 63.3841H-44.1831M-61.2254 79.1686V94.9531M-61.2254 79.1686H-44.1831M-61.2254 94.9531V110.738M-61.2254 94.9531H-44.1831M-61.2254 110.738V126.522M-61.2254 110.738H-44.1831M-61.2254 126.522V142.307M-61.2254 126.522H-44.1831M-61.2254 142.307V158.091M-61.2254 142.307H-44.1831M-61.2254 158.091V173.876M-61.2254 158.091H-44.1831M-61.2254 173.876V189.66M-61.2254 173.876H-44.1831M-61.2254 189.66V205.445M-61.2254 189.66H-44.1831M-61.2254 205.445V221.229M-61.2254 205.445H-44.1831M-61.2254 221.229V237.014M-61.2254 221.229H-44.1831M-61.2254 237.014V252.798M-61.2254 237.014H-44.1831M-61.2254 252.798V268.583M-61.2254 252.798H-44.1831M-61.2254 268.583V284.367M-61.2254 268.583H-44.1831M-61.2254 284.367V300.152M-61.2254 284.367H-44.1831M-61.2254 300.152H-44.1831M-44.1831 0.246094V16.0306M-44.1831 0.246094H-27.1408M-44.1831 16.0306V31.8151M-44.1831 16.0306H-27.1408M-44.1831 31.8151V47.5996M-44.1831 31.8151H-27.1408M-44.1831 47.5996V63.3841M-44.1831 47.5996H-27.1408M-44.1831 63.3841V79.1686M-44.1831 63.3841H-27.1408M-44.1831 79.1686V94.9531M-44.1831 79.1686H-27.1408M-44.1831 94.9531V110.738M-44.1831 94.9531H-27.1408M-44.1831 110.738V126.522M-44.1831 110.738H-27.1408M-44.1831 126.522V142.307M-44.1831 126.522H-27.1408M-44.1831 142.307V158.091M-44.1831 142.307H-27.1408M-44.1831 158.091V173.876M-44.1831 158.091H-27.1408M-44.1831 173.876V189.66M-44.1831 173.876H-27.1408M-44.1831 189.66V205.445M-44.1831 189.66H-27.1408M-44.1831 205.445V221.229M-44.1831 205.445H-27.1408M-44.1831 221.229V237.014M-44.1831 221.229H-27.1408M-44.1831 237.014V252.798M-44.1831 237.014H-27.1408M-44.1831 252.798V268.583M-44.1831 252.798H-27.1408M-44.1831 268.583V284.367M-44.1831 268.583H-27.1408M-44.1831 284.367V300.152M-44.1831 284.367H-27.1408M-44.1831 300.152H-27.1408M-27.1408 0.246094V16.0306M-27.1408 0.246094H-10.0985M-27.1408 16.0306V31.8151M-27.1408 16.0306H-10.0985M-27.1408 31.8151V47.5996M-27.1408 31.8151H-10.0985M-27.1408 47.5996V63.3841M-27.1408 47.5996H-10.0985M-27.1408 63.3841V79.1686M-27.1408 63.3841H-10.0985M-27.1408 79.1686V94.9531M-27.1408 79.1686H-10.0985M-27.1408 94.9531V110.738M-27.1408 94.9531H-10.0985M-27.1408 110.738V126.522M-27.1408 110.738H-10.0985M-27.1408 126.522V142.307M-27.1408 126.522H-10.0985M-27.1408 142.307V158.091M-27.1408 142.307H-10.0985M-27.1408 158.091V173.876M-27.1408 158.091H-10.0985M-27.1408 173.876V189.66M-27.1408 173.876H-10.0985M-27.1408 189.66V205.445M-27.1408 189.66H-10.0985M-27.1408 205.445V221.229M-27.1408 205.445H-10.0985M-27.1408 221.229V237.014M-27.1408 221.229H-10.0985M-27.1408 237.014V252.798M-27.1408 237.014H-10.0985M-27.1408 252.798V268.583M-27.1408 252.798H-10.0985M-27.1408 268.583V284.367M-27.1408 268.583H-10.0985M-27.1408 284.367V300.152M-27.1408 284.367H-10.0985M-27.1408 300.152H-10.0985M-10.0985 0.246094V16.0306M-10.0985 0.246094H6.94377M-10.0985 16.0306V31.8151M-10.0985 16.0306H6.94377M-10.0985 31.8151V47.5996M-10.0985 31.8151H6.94377M-10.0985 47.5996V63.3841M-10.0985 47.5996H6.94377M-10.0985 63.3841V79.1686M-10.0985 63.3841H6.94377M-10.0985 79.1686V94.9531M-10.0985 79.1686H6.94377M-10.0985 94.9531V110.738M-10.0985 94.9531H6.94377M-10.0985 110.738V126.522M-10.0985 110.738H6.94377M-10.0985 126.522V142.307M-10.0985 126.522H6.94377M-10.0985 142.307V158.091M-10.0985 142.307H6.94377M-10.0985 158.091V173.876M-10.0985 158.091H6.94377M-10.0985 173.876V189.66M-10.0985 173.876H6.94377M-10.0985 189.66V205.445M-10.0985 189.66H6.94377M-10.0985 205.445V221.229M-10.0985 205.445H6.94377M-10.0985 221.229V237.014M-10.0985 221.229H6.94377M-10.0985 237.014V252.798M-10.0985 237.014H6.94377M-10.0985 252.798V268.583M-10.0985 252.798H6.94377M-10.0985 268.583V284.367M-10.0985 268.583H6.94377M-10.0985 284.367V300.152M-10.0985 284.367H6.94377M-10.0985 300.152H6.94377M6.94377 0.246094V16.0306M6.94377 0.246094H23.9861M6.94377 16.0306V31.8151M6.94377 16.0306H23.9861M6.94377 31.8151V47.5996M6.94377 31.8151H23.9861M6.94377 47.5996V63.3841M6.94377 47.5996H23.9861M6.94377 63.3841V79.1686M6.94377 63.3841H23.9861M6.94377 79.1686V94.9531M6.94377 79.1686H23.9861M6.94377 94.9531V110.738M6.94377 94.9531H23.9861M6.94377 110.738V126.522M6.94377 110.738H23.9861M6.94377 126.522V142.307M6.94377 126.522H23.9861M6.94377 142.307V158.091M6.94377 142.307H23.9861M6.94377 158.091V173.876M6.94377 158.091H23.9861M6.94377 173.876V189.66M6.94377 173.876H23.9861M6.94377 189.66V205.445M6.94377 189.66H23.9861M6.94377 205.445V221.229M6.94377 205.445H23.9861M6.94377 221.229V237.014M6.94377 221.229H23.9861M6.94377 237.014V252.798M6.94377 237.014H23.9861M6.94377 252.798V268.583M6.94377 252.798H23.9861M6.94377 268.583V284.367M6.94377 268.583H23.9861M6.94377 284.367V300.152M6.94377 284.367H23.9861M6.94377 300.152H23.9861M23.9861 0.246094V16.0306M23.9861 0.246094H41.0284M23.9861 16.0306V31.8151M23.9861 16.0306H41.0284M23.9861 31.8151V47.5996M23.9861 31.8151H41.0284M23.9861 47.5996V63.3841M23.9861 47.5996H41.0284M23.9861 63.3841V79.1686M23.9861 63.3841H41.0284M23.9861 79.1686V94.9531M23.9861 79.1686H41.0284M23.9861 94.9531V110.738M23.9861 94.9531H41.0284M23.9861 110.738V126.522M23.9861 110.738H41.0284M23.9861 126.522V142.307M23.9861 126.522H41.0284M23.9861 142.307V158.091M23.9861 142.307H41.0284M23.9861 158.091V173.876M23.9861 158.091H41.0284M23.9861 173.876V189.66M23.9861 173.876H41.0284M23.9861 189.66V205.445M23.9861 189.66H41.0284M23.9861 205.445V221.229M23.9861 205.445H41.0284M23.9861 221.229V237.014M23.9861 221.229H41.0284M23.9861 237.014V252.798M23.9861 237.014H41.0284M23.9861 252.798V268.583M23.9861 252.798H41.0284M23.9861 268.583V284.367M23.9861 268.583H41.0284M23.9861 284.367V300.152M23.9861 284.367H41.0284M23.9861 300.152H41.0284M41.0284 0.246094V16.0306M41.0284 0.246094H58.0707M41.0284 16.0306V31.8151M41.0284 16.0306H58.0707M41.0284 31.8151V47.5996M41.0284 31.8151H58.0707M41.0284 47.5996V63.3841M41.0284 47.5996H58.0707M41.0284 63.3841V79.1686M41.0284 63.3841H58.0707M41.0284 79.1686V94.9531M41.0284 79.1686H58.0707M41.0284 94.9531V110.738M41.0284 94.9531H58.0707M41.0284 110.738V126.522M41.0284 110.738H58.0707M41.0284 126.522V142.307M41.0284 126.522H58.0707M41.0284 142.307V158.091M41.0284 142.307H58.0707M41.0284 158.091V173.876M41.0284 158.091H58.0707M41.0284 173.876V189.66M41.0284 173.876H58.0707M41.0284 189.66V205.445M41.0284 189.66H58.0707M41.0284 205.445V221.229M41.0284 205.445H58.0707M41.0284 221.229V237.014M41.0284 221.229H58.0707M41.0284 237.014V252.798M41.0284 237.014H58.0707M41.0284 252.798V268.583M41.0284 252.798H58.0707M41.0284 268.583V284.367M41.0284 268.583H58.0707M41.0284 284.367V300.152M41.0284 284.367H58.0707M41.0284 300.152H58.0707M58.0707 0.246094V16.0306M58.0707 0.246094H75.113M58.0707 16.0306V31.8151M58.0707 16.0306H75.113M58.0707 31.8151V47.5996M58.0707 31.8151H75.113M58.0707 47.5996V63.3841M58.0707 47.5996H75.113M58.0707 63.3841V79.1686M58.0707 63.3841H75.113M58.0707 79.1686V94.9531M58.0707 79.1686H75.113M58.0707 94.9531V110.738M58.0707 94.9531H75.113M58.0707 110.738V126.522M58.0707 110.738H75.113M58.0707 126.522V142.307M58.0707 126.522H75.113M58.0707 142.307V158.091M58.0707 142.307H75.113M58.0707 158.091V173.876M58.0707 158.091H75.113M58.0707 173.876V189.66M58.0707 173.876H75.113M58.0707 189.66V205.445M58.0707 189.66H75.113M58.0707 205.445V221.229M58.0707 205.445H75.113M58.0707 221.229V237.014M58.0707 221.229H75.113M58.0707 237.014V252.798M58.0707 237.014H75.113M58.0707 252.798V268.583M58.0707 252.798H75.113M58.0707 268.583V284.367M58.0707 268.583H75.113M58.0707 284.367V300.152M58.0707 284.367H75.113M58.0707 300.152H75.113M75.113 0.246094V16.0306M75.113 0.246094H92.1553M75.113 16.0306V31.8151M75.113 16.0306H92.1553M75.113 31.8151V47.5996M75.113 31.8151H92.1553M75.113 47.5996V63.3841M75.113 47.5996H92.1553M75.113 63.3841V79.1686M75.113 63.3841H92.1553M75.113 79.1686V94.9531M75.113 79.1686H92.1553M75.113 94.9531V110.738M75.113 94.9531H92.1553M75.113 110.738V126.522M75.113 110.738H92.1553M75.113 126.522V142.307M75.113 126.522H92.1553M75.113 142.307V158.091M75.113 142.307H92.1553M75.113 158.091V173.876M75.113 158.091H92.1553M75.113 173.876V189.66M75.113 173.876H92.1553M75.113 189.66V205.445M75.113 189.66H92.1553M75.113 205.445V221.229M75.113 205.445H92.1553M75.113 221.229V237.014M75.113 221.229H92.1553M75.113 237.014V252.798M75.113 237.014H92.1553M75.113 252.798V268.583M75.113 252.798H92.1553M75.113 268.583V284.367M75.113 268.583H92.1553M75.113 284.367V300.152M75.113 284.367H92.1553M75.113 300.152H92.1553M92.1553 0.246094V16.0306M92.1553 0.246094H109.198M92.1553 16.0306V31.8151M92.1553 16.0306H109.198M92.1553 31.8151V47.5996M92.1553 31.8151H109.198M92.1553 47.5996V63.3841M92.1553 47.5996H109.198M92.1553 63.3841V79.1686M92.1553 63.3841H109.198M92.1553 79.1686V94.9531M92.1553 79.1686H109.198M92.1553 94.9531V110.738M92.1553 94.9531H109.198M92.1553 110.738V126.522M92.1553 110.738H109.198M92.1553 126.522V142.307M92.1553 126.522H109.198M92.1553 142.307V158.091M92.1553 142.307H109.198M92.1553 158.091V173.876M92.1553 158.091H109.198M92.1553 173.876V189.66M92.1553 173.876H109.198M92.1553 189.66V205.445M92.1553 189.66H109.198M92.1553 205.445V221.229M92.1553 205.445H109.198M92.1553 221.229V237.014M92.1553 221.229H109.198M92.1553 237.014V252.798M92.1553 237.014H109.198M92.1553 252.798V268.583M92.1553 252.798H109.198M92.1553 268.583V284.367M92.1553 268.583H109.198M92.1553 284.367V300.152M92.1553 284.367H109.198M92.1553 300.152H109.198M109.198 0.246094V16.0306M109.198 0.246094H126.24M109.198 16.0306V31.8151M109.198 16.0306H126.24M109.198 31.8151V47.5996M109.198 31.8151H126.24M109.198 47.5996V63.3841M109.198 47.5996H126.24M109.198 63.3841V79.1686M109.198 63.3841H126.24M109.198 79.1686V94.9531M109.198 79.1686H126.24M109.198 94.9531V110.738M109.198 94.9531H126.24M109.198 110.738V126.522M109.198 110.738H126.24M109.198 126.522V142.307M109.198 126.522H126.24M109.198 142.307V158.091M109.198 142.307H126.24M109.198 158.091V173.876M109.198 158.091H126.24M109.198 173.876V189.66M109.198 173.876H126.24M109.198 189.66V205.445M109.198 189.66H126.24M109.198 205.445V221.229M109.198 205.445H126.24M109.198 221.229V237.014M109.198 221.229H126.24M109.198 237.014V252.798M109.198 237.014H126.24M109.198 252.798V268.583M109.198 252.798H126.24M109.198 268.583V284.367M109.198 268.583H126.24M109.198 284.367V300.152M109.198 284.367H126.24M109.198 300.152H126.24M126.24 0.246094V16.0306M126.24 0.246094H143.282M126.24 16.0306V31.8151M126.24 16.0306H143.282M126.24 31.8151V47.5996M126.24 31.8151H143.282M126.24 47.5996V63.3841M126.24 47.5996H143.282M126.24 63.3841V79.1686M126.24 63.3841H143.282M126.24 79.1686V94.9531M126.24 79.1686H143.282M126.24 94.9531V110.738M126.24 94.9531H143.282M126.24 110.738V126.522M126.24 110.738H143.282M126.24 126.522V142.307M126.24 126.522H143.282M126.24 142.307V158.091M126.24 142.307H143.282M126.24 158.091V173.876M126.24 158.091H143.282M126.24 173.876V189.66M126.24 173.876H143.282M126.24 189.66V205.445M126.24 189.66H143.282M126.24 205.445V221.229M126.24 205.445H143.282M126.24 221.229V237.014M126.24 221.229H143.282M126.24 237.014V252.798M126.24 237.014H143.282M126.24 252.798V268.583M126.24 252.798H143.282M126.24 268.583V284.367M126.24 268.583H143.282M126.24 284.367V300.152M126.24 284.367H143.282M126.24 300.152H143.282M143.282 0.246094V16.0306M143.282 0.246094H160.324M143.282 16.0306V31.8151M143.282 16.0306H160.324M143.282 31.8151V47.5996M143.282 31.8151H160.324M143.282 47.5996V63.3841M143.282 47.5996H160.324M143.282 63.3841V79.1686M143.282 63.3841H160.324M143.282 79.1686V94.9531M143.282 79.1686H160.324M143.282 94.9531V110.738M143.282 94.9531H160.324M143.282 110.738V126.522M143.282 110.738H160.324M143.282 126.522V142.307M143.282 126.522H160.324M143.282 142.307V158.091M143.282 142.307H160.324M143.282 158.091V173.876M143.282 158.091H160.324M143.282 173.876V189.66M143.282 173.876H160.324M143.282 189.66V205.445M143.282 189.66H160.324M143.282 205.445V221.229M143.282 205.445H160.324M143.282 221.229V237.014M143.282 221.229H160.324M143.282 237.014V252.798M143.282 237.014H160.324M143.282 252.798V268.583M143.282 252.798H160.324M143.282 268.583V284.367M143.282 268.583H160.324M143.282 284.367V300.152M143.282 284.367H160.324M143.282 300.152H160.324M160.324 0.246094V16.0306M160.324 0.246094H177.367M160.324 16.0306V31.8151M160.324 16.0306H177.367M160.324 31.8151V47.5996M160.324 31.8151H177.367M160.324 47.5996V63.3841M160.324 47.5996H177.367M160.324 63.3841V79.1686M160.324 63.3841H177.367M160.324 79.1686V94.9531M160.324 79.1686H177.367M160.324 94.9531V110.738M160.324 94.9531H177.367M160.324 110.738V126.522M160.324 110.738H177.367M160.324 126.522V142.307M160.324 126.522H177.367M160.324 142.307V158.091M160.324 142.307H177.367M160.324 158.091V173.876M160.324 158.091H177.367M160.324 173.876V189.66M160.324 173.876H177.367M160.324 189.66V205.445M160.324 189.66H177.367M160.324 205.445V221.229M160.324 205.445H177.367M160.324 221.229V237.014M160.324 221.229H177.367M160.324 237.014V252.798M160.324 237.014H177.367M160.324 252.798V268.583M160.324 252.798H177.367M160.324 268.583V284.367M160.324 268.583H177.367M160.324 284.367V300.152M160.324 284.367H177.367M160.324 300.152H177.367M177.367 0.246094V16.0306M177.367 0.246094H194.409M177.367 16.0306V31.8151M177.367 16.0306H194.409M177.367 31.8151V47.5996M177.367 31.8151H194.409M177.367 47.5996V63.3841M177.367 47.5996H194.409M177.367 63.3841V79.1686M177.367 63.3841H194.409M177.367 79.1686V94.9531M177.367 79.1686H194.409M177.367 94.9531V110.738M177.367 94.9531H194.409M177.367 110.738V126.522M177.367 110.738H194.409M177.367 126.522V142.307M177.367 126.522H194.409M177.367 142.307V158.091M177.367 142.307H194.409M177.367 158.091V173.876M177.367 158.091H194.409M177.367 173.876V189.66M177.367 173.876H194.409M177.367 189.66V205.445M177.367 189.66H194.409M177.367 205.445V221.229M177.367 205.445H194.409M177.367 221.229V237.014M177.367 221.229H194.409M177.367 237.014V252.798M177.367 237.014H194.409M177.367 252.798V268.583M177.367 252.798H194.409M177.367 268.583V284.367M177.367 268.583H194.409M177.367 284.367V300.152M177.367 284.367H194.409M177.367 300.152H194.409M194.409 0.246094V16.0306M194.409 0.246094H211.451M194.409 16.0306V31.8151M194.409 16.0306H211.451M194.409 31.8151V47.5996M194.409 31.8151H211.451M194.409 47.5996V63.3841M194.409 47.5996H211.451M194.409 63.3841V79.1686M194.409 63.3841H211.451M194.409 79.1686V94.9531M194.409 79.1686H211.451M194.409 94.9531V110.738M194.409 94.9531H211.451M194.409 110.738V126.522M194.409 110.738H211.451M194.409 126.522V142.307M194.409 126.522H211.451M194.409 142.307V158.091M194.409 142.307H211.451M194.409 158.091V173.876M194.409 158.091H211.451M194.409 173.876V189.66M194.409 173.876H211.451M194.409 189.66V205.445M194.409 189.66H211.451M194.409 205.445V221.229M194.409 205.445H211.451M194.409 221.229V237.014M194.409 221.229H211.451M194.409 237.014V252.798M194.409 237.014H211.451M194.409 252.798V268.583M194.409 252.798H211.451M194.409 268.583V284.367M194.409 268.583H211.451M194.409 284.367V300.152M194.409 284.367H211.451M194.409 300.152H211.451M211.451 0.246094V16.0306M211.451 0.246094H228.494M211.451 16.0306V31.8151M211.451 16.0306H228.494M211.451 31.8151V47.5996M211.451 31.8151H228.494M211.451 47.5996V63.3841M211.451 47.5996H228.494M211.451 63.3841V79.1686M211.451 63.3841H228.494M211.451 79.1686V94.9531M211.451 79.1686H228.494M211.451 94.9531V110.738M211.451 94.9531H228.494M211.451 110.738V126.522M211.451 110.738H228.494M211.451 126.522V142.307M211.451 126.522H228.494M211.451 142.307V158.091M211.451 142.307H228.494M211.451 158.091V173.876M211.451 158.091H228.494M211.451 173.876V189.66M211.451 173.876H228.494M211.451 189.66V205.445M211.451 189.66H228.494M211.451 205.445V221.229M211.451 205.445H228.494M211.451 221.229V237.014M211.451 221.229H228.494M211.451 237.014V252.798M211.451 237.014H228.494M211.451 252.798V268.583M211.451 252.798H228.494M211.451 268.583V284.367M211.451 268.583H228.494M211.451 284.367V300.152M211.451 284.367H228.494M211.451 300.152H228.494M228.494 0.246094V16.0306M228.494 0.246094H245.536M228.494 16.0306V31.8151M228.494 16.0306H245.536M228.494 31.8151V47.5996M228.494 31.8151H245.536M228.494 47.5996V63.3841M228.494 47.5996H245.536M228.494 63.3841V79.1686M228.494 63.3841H245.536M228.494 79.1686V94.9531M228.494 79.1686H245.536M228.494 94.9531V110.738M228.494 94.9531H245.536M228.494 110.738V126.522M228.494 110.738H245.536M228.494 126.522V142.307M228.494 126.522H245.536M228.494 142.307V158.091M228.494 142.307H245.536M228.494 158.091V173.876M228.494 158.091H245.536M228.494 173.876V189.66M228.494 173.876H245.536M228.494 189.66V205.445M228.494 189.66H245.536M228.494 205.445V221.229M228.494 205.445H245.536M228.494 221.229V237.014M228.494 221.229H245.536M228.494 237.014V252.798M228.494 237.014H245.536M228.494 252.798V268.583M228.494 252.798H245.536M228.494 268.583V284.367M228.494 268.583H245.536M228.494 284.367V300.152M228.494 284.367H245.536M228.494 300.152H245.536M245.536 0.246094V16.0306M245.536 0.246094H262.578M245.536 16.0306V31.8151M245.536 16.0306H262.578M245.536 31.8151V47.5996M245.536 31.8151H262.578M245.536 47.5996V63.3841M245.536 47.5996H262.578M245.536 63.3841V79.1686M245.536 63.3841H262.578M245.536 79.1686V94.9531M245.536 79.1686H262.578M245.536 94.9531V110.738M245.536 94.9531H262.578M245.536 110.738V126.522M245.536 110.738H262.578M245.536 126.522V142.307M245.536 126.522H262.578M245.536 142.307V158.091M245.536 142.307H262.578M245.536 158.091V173.876M245.536 158.091H262.578M245.536 173.876V189.66M245.536 173.876H262.578M245.536 189.66V205.445M245.536 189.66H262.578M245.536 205.445V221.229M245.536 205.445H262.578M245.536 221.229V237.014M245.536 221.229H262.578M245.536 237.014V252.798M245.536 237.014H262.578M245.536 252.798V268.583M245.536 252.798H262.578M245.536 268.583V284.367M245.536 268.583H262.578M245.536 284.367V300.152M245.536 284.367H262.578M245.536 300.152H262.578M262.578 0.246094V16.0306M262.578 0.246094H279.621M262.578 16.0306V31.8151M262.578 16.0306H279.621M262.578 31.8151V47.5996M262.578 31.8151H279.621M262.578 47.5996V63.3841M262.578 47.5996H279.621M262.578 63.3841V79.1686M262.578 63.3841H279.621M262.578 79.1686V94.9531M262.578 79.1686H279.621M262.578 94.9531V110.738M262.578 94.9531H279.621M262.578 110.738V126.522M262.578 110.738H279.621M262.578 126.522V142.307M262.578 126.522H279.621M262.578 142.307V158.091M262.578 142.307H279.621M262.578 158.091V173.876M262.578 158.091H279.621M262.578 173.876V189.66M262.578 173.876H279.621M262.578 189.66V205.445M262.578 189.66H279.621M262.578 205.445V221.229M262.578 205.445H279.621M262.578 221.229V237.014M262.578 221.229H279.621M262.578 237.014V252.798M262.578 237.014H279.621M262.578 252.798V268.583M262.578 252.798H279.621M262.578 268.583V284.367M262.578 268.583H279.621M262.578 284.367V300.152M262.578 284.367H279.621M262.578 300.152H279.621M279.621 0.246094V16.0306M279.621 0.246094H296.663M279.621 16.0306V31.8151M279.621 16.0306H296.663M279.621 31.8151V47.5996M279.621 31.8151H296.663M279.621 47.5996V63.3841M279.621 47.5996H296.663M279.621 63.3841V79.1686M279.621 63.3841H296.663M279.621 79.1686V94.9531M279.621 79.1686H296.663M279.621 94.9531V110.738M279.621 94.9531H296.663M279.621 110.738V126.522M279.621 110.738H296.663M279.621 126.522V142.307M279.621 126.522H296.663M279.621 142.307V158.091M279.621 142.307H296.663M279.621 158.091V173.876M279.621 158.091H296.663M279.621 173.876V189.66M279.621 173.876H296.663M279.621 189.66V205.445M279.621 189.66H296.663M279.621 205.445V221.229M279.621 205.445H296.663M279.621 221.229V237.014M279.621 221.229H296.663M279.621 237.014V252.798M279.621 237.014H296.663M279.621 252.798V268.583M279.621 252.798H296.663M279.621 268.583V284.367M279.621 268.583H296.663M279.621 284.367V300.152M279.621 284.367H296.663M279.621 300.152H296.663M296.663 0.246094V16.0306M296.663 0.246094H313.705M296.663 16.0306V31.8151M296.663 16.0306H313.705M296.663 31.8151V47.5996M296.663 31.8151H313.705M296.663 47.5996V63.3841M296.663 47.5996H313.705M296.663 63.3841V79.1686M296.663 63.3841H313.705M296.663 79.1686V94.9531M296.663 79.1686H313.705M296.663 94.9531V110.738M296.663 94.9531H313.705M296.663 110.738V126.522M296.663 110.738H313.705M296.663 126.522V142.307M296.663 126.522H313.705M296.663 142.307V158.091M296.663 142.307H313.705M296.663 158.091V173.876M296.663 158.091H313.705M296.663 173.876V189.66M296.663 173.876H313.705M296.663 189.66V205.445M296.663 189.66H313.705M296.663 205.445V221.229M296.663 205.445H313.705M296.663 221.229V237.014M296.663 221.229H313.705M296.663 237.014V252.798M296.663 237.014H313.705M296.663 252.798V268.583M296.663 252.798H313.705M296.663 268.583V284.367M296.663 268.583H313.705M296.663 284.367V300.152M296.663 284.367H313.705M296.663 300.152H313.705M313.705 0.246094V16.0306M313.705 0.246094H330.747M313.705 16.0306V31.8151M313.705 16.0306H330.747M313.705 31.8151V47.5996M313.705 31.8151H330.747M313.705 47.5996V63.3841M313.705 47.5996H330.747M313.705 63.3841V79.1686M313.705 63.3841H330.747M313.705 79.1686V94.9531M313.705 79.1686H330.747M313.705 94.9531V110.738M313.705 94.9531H330.747M313.705 110.738V126.522M313.705 110.738H330.747M313.705 126.522V142.307M313.705 126.522H330.747M313.705 142.307V158.091M313.705 142.307H330.747M313.705 158.091V173.876M313.705 158.091H330.747M313.705 173.876V189.66M313.705 173.876H330.747M313.705 189.66V205.445M313.705 189.66H330.747M313.705 205.445V221.229M313.705 205.445H330.747M313.705 221.229V237.014M313.705 221.229H330.747M313.705 237.014V252.798M313.705 237.014H330.747M313.705 252.798V268.583M313.705 252.798H330.747M313.705 268.583V284.367M313.705 268.583H330.747M313.705 284.367V300.152M313.705 284.367H330.747M313.705 300.152H330.747M330.747 0.246094V16.0306M330.747 0.246094H347.79M330.747 16.0306V31.8151M330.747 16.0306H347.79M330.747 31.8151V47.5996M330.747 31.8151H347.79M330.747 47.5996V63.3841M330.747 47.5996H347.79M330.747 63.3841V79.1686M330.747 63.3841H347.79M330.747 79.1686V94.9531M330.747 79.1686H347.79M330.747 94.9531V110.738M330.747 94.9531H347.79M330.747 110.738V126.522M330.747 110.738H347.79M330.747 126.522V142.307M330.747 126.522H347.79M330.747 142.307V158.091M330.747 142.307H347.79M330.747 158.091V173.876M330.747 158.091H347.79M330.747 173.876V189.66M330.747 173.876H347.79M330.747 189.66V205.445M330.747 189.66H347.79M330.747 205.445V221.229M330.747 205.445H347.79M330.747 221.229V237.014M330.747 221.229H347.79M330.747 237.014V252.798M330.747 237.014H347.79M330.747 252.798V268.583M330.747 252.798H347.79M330.747 268.583V284.367M330.747 268.583H347.79M330.747 284.367V300.152M330.747 284.367H347.79M330.747 300.152H347.79M347.79 0.246094V16.0306M347.79 0.246094H364.832M347.79 16.0306V31.8151M347.79 16.0306H364.832M347.79 31.8151V47.5996M347.79 31.8151H364.832M347.79 47.5996V63.3841M347.79 47.5996H364.832M347.79 63.3841V79.1686M347.79 63.3841H364.832M347.79 79.1686V94.9531M347.79 79.1686H364.832M347.79 94.9531V110.738M347.79 94.9531H364.832M347.79 110.738V126.522M347.79 110.738H364.832M347.79 126.522V142.307M347.79 126.522H364.832M347.79 142.307V158.091M347.79 142.307H364.832M347.79 158.091V173.876M347.79 158.091H364.832M347.79 173.876V189.66M347.79 173.876H364.832M347.79 189.66V205.445M347.79 189.66H364.832M347.79 205.445V221.229M347.79 205.445H364.832M347.79 221.229V237.014M347.79 221.229H364.832M347.79 237.014V252.798M347.79 237.014H364.832M347.79 252.798V268.583M347.79 252.798H364.832M347.79 268.583V284.367M347.79 268.583H364.832M347.79 284.367V300.152M347.79 284.367H364.832M347.79 300.152H364.832M364.832 0.246094V16.0306M364.832 0.246094H381.874M364.832 16.0306V31.8151M364.832 16.0306H381.874M364.832 31.8151V47.5996M364.832 31.8151H381.874M364.832 47.5996V63.3841M364.832 47.5996H381.874M364.832 63.3841V79.1686M364.832 63.3841H381.874M364.832 79.1686V94.9531M364.832 79.1686H381.874M364.832 94.9531V110.738M364.832 94.9531H381.874M364.832 110.738V126.522M364.832 110.738H381.874M364.832 126.522V142.307M364.832 126.522H381.874M364.832 142.307V158.091M364.832 142.307H381.874M364.832 158.091V173.876M364.832 158.091H381.874M364.832 173.876V189.66M364.832 173.876H381.874M364.832 189.66V205.445M364.832 189.66H381.874M364.832 205.445V221.229M364.832 205.445H381.874M364.832 221.229V237.014M364.832 221.229H381.874M364.832 237.014V252.798M364.832 237.014H381.874M364.832 252.798V268.583M364.832 252.798H381.874M364.832 268.583V284.367M364.832 268.583H381.874M364.832 284.367V300.152M364.832 284.367H381.874M364.832 300.152H381.874M381.874 0.246094V16.0306M381.874 0.246094H398.917M381.874 16.0306V31.8151M381.874 16.0306H398.917M381.874 31.8151V47.5996M381.874 31.8151H398.917M381.874 47.5996V63.3841M381.874 47.5996H398.917M381.874 63.3841V79.1686M381.874 63.3841H398.917M381.874 79.1686V94.9531M381.874 79.1686H398.917M381.874 94.9531V110.738M381.874 94.9531H398.917M381.874 110.738V126.522M381.874 110.738H398.917M381.874 126.522V142.307M381.874 126.522H398.917M381.874 142.307V158.091M381.874 142.307H398.917M381.874 158.091V173.876M381.874 158.091H398.917M381.874 173.876V189.66M381.874 173.876H398.917M381.874 189.66V205.445M381.874 189.66H398.917M381.874 205.445V221.229M381.874 205.445H398.917M381.874 221.229V237.014M381.874 221.229H398.917M381.874 237.014V252.798M381.874 237.014H398.917M381.874 252.798V268.583M381.874 252.798H398.917M381.874 268.583V284.367M381.874 268.583H398.917M381.874 284.367V300.152M381.874 284.367H398.917M381.874 300.152H398.917M398.917 0.246094V16.0306M398.917 0.246094H415.959M398.917 16.0306V31.8151M398.917 16.0306H415.959M398.917 31.8151V47.5996M398.917 31.8151H415.959M398.917 47.5996V63.3841M398.917 47.5996H415.959M398.917 63.3841V79.1686M398.917 63.3841H415.959M398.917 79.1686V94.9531M398.917 79.1686H415.959M398.917 94.9531V110.738M398.917 94.9531H415.959M398.917 110.738V126.522M398.917 110.738H415.959M398.917 126.522V142.307M398.917 126.522H415.959M398.917 142.307V158.091M398.917 142.307H415.959M398.917 158.091V173.876M398.917 158.091H415.959M398.917 173.876V189.66M398.917 173.876H415.959M398.917 189.66V205.445M398.917 189.66H415.959M398.917 205.445V221.229M398.917 205.445H415.959M398.917 221.229V237.014M398.917 221.229H415.959M398.917 237.014V252.798M398.917 237.014H415.959M398.917 252.798V268.583M398.917 252.798H415.959M398.917 268.583V284.367M398.917 268.583H415.959M398.917 284.367V300.152M398.917 284.367H415.959M398.917 300.152H415.959M415.959 0.246094V16.0306M415.959 0.246094H433.001M415.959 16.0306V31.8151M415.959 16.0306H433.001M415.959 31.8151V47.5996M415.959 31.8151H433.001M415.959 47.5996V63.3841M415.959 47.5996H433.001M415.959 63.3841V79.1686M415.959 63.3841H433.001M415.959 79.1686V94.9531M415.959 79.1686H433.001M415.959 94.9531V110.738M415.959 94.9531H433.001M415.959 110.738V126.522M415.959 110.738H433.001M415.959 126.522V142.307M415.959 126.522H433.001M415.959 142.307V158.091M415.959 142.307H433.001M415.959 158.091V173.876M415.959 158.091H433.001M415.959 173.876V189.66M415.959 173.876H433.001M415.959 189.66V205.445M415.959 189.66H433.001M415.959 205.445V221.229M415.959 205.445H433.001M415.959 221.229V237.014M415.959 221.229H433.001M415.959 237.014V252.798M415.959 237.014H433.001M415.959 252.798V268.583M415.959 252.798H433.001M415.959 268.583V284.367M415.959 268.583H433.001M415.959 284.367V300.152M415.959 284.367H433.001M415.959 300.152H433.001M433.001 0.246094V16.0306M433.001 0.246094H450.043M433.001 16.0306V31.8151M433.001 16.0306H450.043M433.001 31.8151V47.5996M433.001 31.8151H450.043M433.001 47.5996V63.3841M433.001 47.5996H450.043M433.001 63.3841V79.1686M433.001 63.3841H450.043M433.001 79.1686V94.9531M433.001 79.1686H450.043M433.001 94.9531V110.738M433.001 94.9531H450.043M433.001 110.738V126.522M433.001 110.738H450.043M433.001 126.522V142.307M433.001 126.522H450.043M433.001 142.307V158.091M433.001 142.307H450.043M433.001 158.091V173.876M433.001 158.091H450.043M433.001 173.876V189.66M433.001 173.876H450.043M433.001 189.66V205.445M433.001 189.66H450.043M433.001 205.445V221.229M433.001 205.445H450.043M433.001 221.229V237.014M433.001 221.229H450.043M433.001 237.014V252.798M433.001 237.014H450.043M433.001 252.798V268.583M433.001 252.798H450.043M433.001 268.583V284.367M433.001 268.583H450.043M433.001 284.367V300.152M433.001 284.367H450.043M433.001 300.152H450.043M450.043 0.246094V16.0306M450.043 0.246094H467.086M450.043 16.0306V31.8151M450.043 16.0306H467.086M450.043 31.8151V47.5996M450.043 31.8151H467.086M450.043 47.5996V63.3841M450.043 47.5996H467.086M450.043 63.3841V79.1686M450.043 63.3841H467.086M450.043 79.1686V94.9531M450.043 79.1686H467.086M450.043 94.9531V110.738M450.043 94.9531H467.086M450.043 110.738V126.522M450.043 110.738H467.086M450.043 126.522V142.307M450.043 126.522H467.086M450.043 142.307V158.091M450.043 142.307H467.086M450.043 158.091V173.876M450.043 158.091H467.086M450.043 173.876V189.66M450.043 173.876H467.086M450.043 189.66V205.445M450.043 189.66H467.086M450.043 205.445V221.229M450.043 205.445H467.086M450.043 221.229V237.014M450.043 221.229H467.086M450.043 237.014V252.798M450.043 237.014H467.086M450.043 252.798V268.583M450.043 252.798H467.086M450.043 268.583V284.367M450.043 268.583H467.086M450.043 284.367V300.152M450.043 284.367H467.086M450.043 300.152H467.086M467.086 0.246094V16.0306M467.086 0.246094H484.128M467.086 16.0306V31.8151M467.086 16.0306H484.128M467.086 31.8151V47.5996M467.086 31.8151H484.128M467.086 47.5996V63.3841M467.086 47.5996H484.128M467.086 63.3841V79.1686M467.086 63.3841H484.128M467.086 79.1686V94.9531M467.086 79.1686H484.128M467.086 94.9531V110.738M467.086 94.9531H484.128M467.086 110.738V126.522M467.086 110.738H484.128M467.086 126.522V142.307M467.086 126.522H484.128M467.086 142.307V158.091M467.086 142.307H484.128M467.086 158.091V173.876M467.086 158.091H484.128M467.086 173.876V189.66M467.086 173.876H484.128M467.086 189.66V205.445M467.086 189.66H484.128M467.086 205.445V221.229M467.086 205.445H484.128M467.086 221.229V237.014M467.086 221.229H484.128M467.086 237.014V252.798M467.086 237.014H484.128M467.086 252.798V268.583M467.086 252.798H484.128M467.086 268.583V284.367M467.086 268.583H484.128M467.086 284.367V300.152M467.086 284.367H484.128M467.086 300.152H484.128M484.128 0.246094V16.0306M484.128 0.246094H501.17M484.128 16.0306V31.8151M484.128 16.0306H501.17M484.128 31.8151V47.5996M484.128 31.8151H501.17M484.128 47.5996V63.3841M484.128 47.5996H501.17M484.128 63.3841V79.1686M484.128 63.3841H501.17M484.128 79.1686V94.9531M484.128 79.1686H501.17M484.128 94.9531V110.738M484.128 94.9531H501.17M484.128 110.738V126.522M484.128 110.738H501.17M484.128 126.522V142.307M484.128 126.522H501.17M484.128 142.307V158.091M484.128 142.307H501.17M484.128 158.091V173.876M484.128 158.091H501.17M484.128 173.876V189.66M484.128 173.876H501.17M484.128 189.66V205.445M484.128 189.66H501.17M484.128 205.445V221.229M484.128 205.445H501.17M484.128 221.229V237.014M484.128 221.229H501.17M484.128 237.014V252.798M484.128 237.014H501.17M484.128 252.798V268.583M484.128 252.798H501.17M484.128 268.583V284.367M484.128 268.583H501.17M484.128 284.367V300.152M484.128 284.367H501.17M484.128 300.152H501.17M501.17 0.246094V16.0306M501.17 0.246094H518.213M501.17 16.0306V31.8151M501.17 16.0306H518.213M501.17 31.8151V47.5996M501.17 31.8151H518.213M501.17 47.5996V63.3841M501.17 47.5996H518.213M501.17 63.3841V79.1686M501.17 63.3841H518.213M501.17 79.1686V94.9531M501.17 79.1686H518.213M501.17 94.9531V110.738M501.17 94.9531H518.213M501.17 110.738V126.522M501.17 110.738H518.213M501.17 126.522V142.307M501.17 126.522H518.213M501.17 142.307V158.091M501.17 142.307H518.213M501.17 158.091V173.876M501.17 158.091H518.213M501.17 173.876V189.66M501.17 173.876H518.213M501.17 189.66V205.445M501.17 189.66H518.213M501.17 205.445V221.229M501.17 205.445H518.213M501.17 221.229V237.014M501.17 221.229H518.213M501.17 237.014V252.798M501.17 237.014H518.213M501.17 252.798V268.583M501.17 252.798H518.213M501.17 268.583V284.367M501.17 268.583H518.213M501.17 284.367V300.152M501.17 284.367H518.213M501.17 300.152H518.213M518.213 0.246094V16.0306M518.213 0.246094H535.255M518.213 16.0306V31.8151M518.213 16.0306H535.255M518.213 31.8151V47.5996M518.213 31.8151H535.255M518.213 47.5996V63.3841M518.213 47.5996H535.255M518.213 63.3841V79.1686M518.213 63.3841H535.255M518.213 79.1686V94.9531M518.213 79.1686H535.255M518.213 94.9531V110.738M518.213 94.9531H535.255M518.213 110.738V126.522M518.213 110.738H535.255M518.213 126.522V142.307M518.213 126.522H535.255M518.213 142.307V158.091M518.213 142.307H535.255M518.213 158.091V173.876M518.213 158.091H535.255M518.213 173.876V189.66M518.213 173.876H535.255M518.213 189.66V205.445M518.213 189.66H535.255M518.213 205.445V221.229M518.213 205.445H535.255M518.213 221.229V237.014M518.213 221.229H535.255M518.213 237.014V252.798M518.213 237.014H535.255M518.213 252.798V268.583M518.213 252.798H535.255M518.213 268.583V284.367M518.213 268.583H535.255M518.213 284.367V300.152M518.213 284.367H535.255M518.213 300.152H535.255M535.255 0.246094V16.0306M535.255 0.246094H552.297M535.255 16.0306V31.8151M535.255 16.0306H552.297M535.255 31.8151V47.5996M535.255 31.8151H552.297M535.255 47.5996V63.3841M535.255 47.5996H552.297M535.255 63.3841V79.1686M535.255 63.3841H552.297M535.255 79.1686V94.9531M535.255 79.1686H552.297M535.255 94.9531V110.738M535.255 94.9531H552.297M535.255 110.738V126.522M535.255 110.738H552.297M535.255 126.522V142.307M535.255 126.522H552.297M535.255 142.307V158.091M535.255 142.307H552.297M535.255 158.091V173.876M535.255 158.091H552.297M535.255 173.876V189.66M535.255 173.876H552.297M535.255 189.66V205.445M535.255 189.66H552.297M535.255 205.445V221.229M535.255 205.445H552.297M535.255 221.229V237.014M535.255 221.229H552.297M535.255 237.014V252.798M535.255 237.014H552.297M535.255 252.798V268.583M535.255 252.798H552.297M535.255 268.583V284.367M535.255 268.583H552.297M535.255 284.367V300.152M535.255 284.367H552.297M535.255 300.152H552.297M552.297 0.246094V16.0306M552.297 0.246094H569.34V16.0306M552.297 16.0306V31.8151M552.297 16.0306H569.34M552.297 31.8151V47.5996M552.297 31.8151H569.34M552.297 47.5996V63.3841M552.297 47.5996H569.34M552.297 63.3841V79.1686M552.297 63.3841H569.34M552.297 79.1686V94.9531M552.297 79.1686H569.34M552.297 94.9531V110.738M552.297 94.9531H569.34M552.297 110.738V126.522M552.297 110.738H569.34M552.297 126.522V142.307M552.297 126.522H569.34M552.297 142.307V158.091M552.297 142.307H569.34M552.297 158.091V173.876M552.297 158.091H569.34M552.297 173.876V189.66M552.297 173.876H569.34M552.297 189.66V205.445M552.297 189.66H569.34M552.297 205.445V221.229M552.297 205.445H569.34M552.297 221.229V237.014M552.297 221.229H569.34M552.297 237.014V252.798M552.297 237.014H569.34M552.297 252.798V268.583M552.297 252.798H569.34M552.297 268.583V284.367M552.297 268.583H569.34M552.297 284.367V300.152M552.297 284.367H569.34M552.297 300.152H569.34V284.367M569.34 16.0306V31.8151M569.34 31.8151V47.5996M569.34 47.5996V63.3841M569.34 63.3841V79.1686M569.34 79.1686V94.9531M569.34 94.9531V110.738M569.34 110.738V126.522M569.34 126.522V142.307M569.34 142.307V158.091M569.34 158.091V173.876M569.34 173.876V189.66M569.34 189.66V205.445M569.34 205.445V221.229M569.34 221.229V237.014M569.34 237.014V252.798M569.34 252.798V268.583M569.34 268.583V284.367" stroke="url(#paint0_radial_2279_2031)" stroke-width="0.222535"/>
<defs>
<radialGradient id="paint0_radial_2279_2031" cx="0" cy="0" r="1" gradientUnits="userSpaceOnUse" gradientTransform="translate(194.409 150.199) rotate(90) scale(149.953 302.763)">
<stop stop-color="#FFF8E0"/>
<stop offset="1" stop-color="#FFF8E0" stop-opacity="0.2"/>
</radialGradient>
</defs>
</svg>