<svg width="33" height="32" viewBox="0 0 33 32" fill="none" xmlns="http://www.w3.org/2000/svg">
<rect x="0.833333" y="0.333333" width="31.3333" height="31.3333" rx="15.6667" stroke="white" stroke-width="0.666667"/>
<g clip-path="url(#clip0_886_5714)">
<path d="M18.704 24.3335C18.483 24.3335 18.271 24.2457 18.1148 24.0894C17.9585 23.9331 17.8707 23.7212 17.8707 23.5002V21.3335C17.8966 21.0843 17.8699 20.8324 17.7924 20.5941C17.7149 20.3558 17.5883 20.1365 17.4207 19.9502C17.3169 19.8376 17.2462 19.6987 17.2162 19.5486C17.1862 19.3986 17.1981 19.2431 17.2506 19.0994C17.3031 18.9556 17.3942 18.8291 17.5139 18.7337C17.6335 18.6383 17.7772 18.5777 17.929 18.5585C19.9624 18.3168 21.8374 17.6668 21.8374 14.1418C21.838 13.4836 21.6437 12.8398 21.279 12.2918C20.9425 11.7874 20.8196 11.1701 20.9374 10.5752C21.0125 10.1871 21.0125 9.78823 20.9374 9.40016C20.3134 9.61114 19.7258 9.91756 19.1957 10.3085C19.0955 10.3797 18.9807 10.4278 18.8597 10.4494C18.7387 10.471 18.6144 10.4656 18.4957 10.4335C16.9918 10.0085 15.3996 10.0085 13.8957 10.4335C13.777 10.4656 13.6527 10.471 13.5317 10.4494C13.4107 10.4278 13.2959 10.3797 13.1957 10.3085C12.6623 9.91303 12.0685 9.6063 11.4374 9.40016C11.3581 9.78782 11.3581 10.1875 11.4374 10.5752C11.5466 11.1775 11.4182 11.7988 11.079 12.3085C10.7159 12.8603 10.5219 13.5062 10.5207 14.1668C10.5207 17.4085 12.0874 18.2752 14.4374 18.5752C14.5911 18.5942 14.7365 18.6558 14.8572 18.753C14.978 18.8501 15.0692 18.979 15.1207 19.1252C15.1691 19.267 15.1785 19.4192 15.1477 19.5659C15.1169 19.7125 15.0471 19.8482 14.9457 19.9585C14.7836 20.1317 14.6592 20.3367 14.5803 20.5605C14.5014 20.7842 14.4698 21.0219 14.4874 21.2585V23.5002C14.4874 23.7212 14.3996 23.9331 14.2433 24.0894C14.087 24.2457 13.875 24.3335 13.654 24.3335C13.433 24.3335 13.221 24.2457 13.0648 24.0894C12.9085 23.9331 12.8207 23.7212 12.8207 23.5002V23.0252C12.0018 23.1193 11.1724 23.0096 10.4062 22.7057C9.63997 22.4019 8.96077 21.9133 8.42902 21.2835C8.15569 20.9805 7.82775 20.7318 7.46235 20.5502C7.3562 20.5228 7.25648 20.4748 7.16888 20.4089C7.08127 20.343 7.00751 20.2605 6.95179 20.1661C6.89608 20.0717 6.8595 19.9672 6.84416 19.8587C6.82881 19.7501 6.83499 19.6396 6.86235 19.5335C6.88971 19.4273 6.93771 19.3276 7.00361 19.24C7.06951 19.1524 7.15202 19.0787 7.24642 19.0229C7.34083 18.9672 7.44528 18.9306 7.55383 18.9153C7.66237 18.9 7.77287 18.9061 7.87902 18.9335C8.52006 19.167 9.09285 19.5565 9.54569 20.0668C10.379 20.9002 11.2124 21.6335 12.7957 21.3335C12.7678 20.8861 12.8331 20.4377 12.9874 20.0168C11.2707 19.5835 8.82069 18.3502 8.82069 14.1835C8.81849 13.1965 9.10844 12.231 9.65402 11.4085C9.75536 11.2567 9.79416 11.0716 9.76235 10.8918C9.59396 9.99231 9.68947 9.06328 10.0374 8.21683C10.0846 8.10397 10.1562 8.0029 10.2469 7.9208C10.3376 7.83871 10.4453 7.7776 10.5624 7.74183C10.8457 7.6585 11.8624 7.49183 13.7874 8.74183C15.3457 8.36683 16.9707 8.36683 18.529 8.74183C20.454 7.49183 21.4707 7.65016 21.7457 7.74183C21.8627 7.7776 21.9704 7.83871 22.0611 7.9208C22.1519 8.0029 22.2234 8.10397 22.2707 8.21683C22.6193 9.06602 22.7148 9.99792 22.5457 10.9002C22.5286 10.9815 22.528 11.0653 22.5437 11.1469C22.5594 11.2284 22.5913 11.3061 22.6374 11.3752C23.1845 12.2 23.4745 13.1687 23.4707 14.1585C23.4707 18.3835 21.0374 19.6085 19.304 19.9918C19.4567 20.439 19.519 20.912 19.4874 21.3835V23.5002C19.4877 23.7128 19.4068 23.9175 19.2612 24.0724C19.1156 24.2273 18.9163 24.3207 18.704 24.3335Z" fill="white"/>
</g>
<defs>
<clipPath id="clip0_886_5714">
<rect width="20" height="20" fill="white" transform="translate(5.16992 6)"/>
</clipPath>
</defs>
</svg>
