<svg width="32" height="32" viewBox="0 0 32 32" fill="none" xmlns="http://www.w3.org/2000/svg">
<rect x="0.333333" y="0.333333" width="31.3333" height="31.3333" rx="15.6667" stroke="#5438DC" stroke-width="0.666667"/>
<g clip-path="url(#clip0_578_827)">
<path d="M19.5341 24.333C19.3131 24.333 19.1011 24.2452 18.9448 24.0889C18.7886 23.9326 18.7008 23.7207 18.7008 23.4997V21.333C18.7267 21.0838 18.7 20.8319 18.6225 20.5936C18.545 20.3553 18.4183 20.136 18.2508 19.9497C18.147 19.8372 18.0763 19.6982 18.0463 19.5482C18.0163 19.3981 18.0282 19.2426 18.0807 19.0989C18.1332 18.9551 18.2243 18.8286 18.3439 18.7332C18.4636 18.6378 18.6073 18.5772 18.7591 18.558C20.7924 18.3163 22.6674 17.6663 22.6674 14.1413C22.6681 13.4831 22.4738 12.8393 22.1091 12.2913C21.7726 11.7869 21.6497 11.1696 21.7674 10.5747C21.8425 10.1866 21.8425 9.78774 21.7674 9.39967C21.1434 9.61065 20.5559 9.91707 20.0258 10.308C19.9255 10.3792 19.8108 10.4273 19.6898 10.4489C19.5687 10.4705 19.4444 10.4651 19.3258 10.433C17.8219 10.0081 16.2297 10.0081 14.7258 10.433C14.6071 10.4651 14.4828 10.4705 14.3618 10.4489C14.2407 10.4273 14.126 10.3792 14.0258 10.308C13.4924 9.91254 12.8986 9.60581 12.2674 9.39967C12.1882 9.78733 12.1882 10.187 12.2674 10.5747C12.3767 11.1771 12.2482 11.7983 11.9091 12.308C11.546 12.8599 11.3519 13.5057 11.3508 14.1663C11.3508 17.408 12.9174 18.2747 15.2674 18.5747C15.4212 18.5938 15.5666 18.6553 15.6873 18.7525C15.808 18.8496 15.8993 18.9785 15.9508 19.1247C15.9992 19.2665 16.0085 19.4187 15.9777 19.5654C15.9469 19.712 15.8772 19.8477 15.7758 19.958C15.6137 20.1313 15.4893 20.3362 15.4104 20.56C15.3315 20.7837 15.2998 21.0214 15.3174 21.258V23.4997C15.3174 23.7207 15.2296 23.9326 15.0734 24.0889C14.9171 24.2452 14.7051 24.333 14.4841 24.333C14.2631 24.333 14.0511 24.2452 13.8948 24.0889C13.7386 23.9326 13.6508 23.7207 13.6508 23.4997V23.0247C12.8319 23.1188 12.0025 23.0091 11.2362 22.7053C10.47 22.4014 9.79084 21.9128 9.2591 21.283C8.98577 20.98 8.65783 20.7313 8.29243 20.5497C8.18628 20.5223 8.08656 20.4743 7.99895 20.4084C7.91135 20.3425 7.83759 20.26 7.78187 20.1656C7.72616 20.0712 7.68958 19.9667 7.67424 19.8582C7.65889 19.7497 7.66507 19.6392 7.69243 19.533C7.71979 19.4269 7.76779 19.3271 7.83369 19.2395C7.89959 19.1519 7.98209 19.0782 8.0765 19.0224C8.17091 18.9667 8.27536 18.9302 8.3839 18.9148C8.49244 18.8995 8.60295 18.9056 8.7091 18.933C9.35014 19.1665 9.92293 19.556 10.3758 20.0663C11.2091 20.8997 12.0424 21.633 13.6258 21.333C13.5979 20.8856 13.6632 20.4373 13.8174 20.0163C12.1008 19.583 9.65076 18.3497 9.65076 14.183C9.64857 13.196 9.93852 12.2305 10.4841 11.408C10.5854 11.2562 10.6242 11.0711 10.5924 10.8913C10.424 9.99182 10.5195 9.06279 10.8674 8.21634C10.9147 8.10348 10.9862 8.00241 11.077 7.92032C11.1677 7.83822 11.2754 7.77712 11.3924 7.74134C11.6758 7.65801 12.6924 7.49134 14.6174 8.74134C16.1757 8.36634 17.8008 8.36634 19.3591 8.74134C21.2841 7.49134 22.3008 7.64967 22.5758 7.74134C22.6928 7.77712 22.8005 7.83822 22.8912 7.92032C22.982 8.00241 23.0535 8.10348 23.1008 8.21634C23.4493 9.06554 23.5448 9.99743 23.3758 10.8997C23.3587 10.981 23.358 11.0648 23.3738 11.1464C23.3895 11.228 23.4214 11.3056 23.4674 11.3747C24.0146 12.1995 24.3046 13.1682 24.3008 14.158C24.3008 18.383 21.8674 19.608 20.1341 19.9913C20.2868 20.4385 20.3491 20.9116 20.3174 21.383V23.4997C20.3178 23.7123 20.2369 23.917 20.0913 24.0719C19.9457 24.2269 19.7463 24.3202 19.5341 24.333Z" fill="#5438DC"/>
</g>
<defs>
<clipPath id="clip0_578_827">
<rect width="20" height="20" fill="white" transform="translate(6 6)"/>
</clipPath>
</defs>
</svg>
