<svg width="96" height="32" viewBox="0 0 96 32" fill="none" xmlns="http://www.w3.org/2000/svg">
<path d="M27.3954 0H4.09399C1.83294 0 0 1.86266 0 4.16037V27.8396C0 30.1373 1.83294 32 4.09399 32H27.3954C29.6565 32 31.4894 30.1373 31.4894 27.8396V4.16037C31.4894 1.86266 29.6565 0 27.3954 0Z" fill="url(#paint0_linear_896_8591)"/>
<path d="M5.40234 15.8094V22.7735C5.40234 24.9987 8.04962 26.1128 9.59751 24.5399L13.0074 21.0747C13.9633 20.1032 13.9679 18.5287 13.0165 17.5512L9.60657 14.0522C8.0617 12.467 5.40234 13.578 5.40234 15.8094Z" fill="white"/>
<path d="M26.0855 10.179V19.7949C26.0855 22.8673 22.4309 24.405 20.2926 22.2335L15.5855 17.45C14.2656 16.1088 14.2596 13.9342 15.5734 12.5853L20.2805 7.75428C22.4128 5.56591 26.0855 7.10053 26.0855 10.1805V10.179Z" fill="#D5D4FF"/>
<path d="M78.8196 28.9324L78.8105 5.44646C78.8105 5.12112 78.9374 4.80806 79.1654 4.57786L81.2675 2.44627C81.6964 2.01043 82.4304 2.31583 82.4349 2.93274V13.2285H82.6448C83.0571 12.8694 83.2307 12.6699 83.495 12.4674C83.9918 12.0883 84.4252 11.8075 85.1093 11.4683C85.8025 11.1246 86.6814 10.9051 87.7959 10.9051C89.2441 10.9051 90.5368 11.2765 91.6739 12.0208C92.811 12.7651 93.7051 13.8363 94.3544 15.2374C95.0053 16.6385 95.33 18.3235 95.33 20.294C95.33 22.2644 95.0068 23.9525 94.3604 25.3567C93.7141 26.7609 92.8262 27.8412 91.6966 28.5963C90.567 29.3513 89.2788 29.7304 87.8306 29.7304C86.7403 29.7304 85.8508 29.5447 85.1622 29.1733C84.4736 28.8019 83.9344 28.3661 83.5448 27.8673C83.1552 27.3686 82.8562 26.9251 82.6463 26.5383H82.3548V28.8986C82.3548 29.3575 81.9894 29.7288 81.5379 29.7288H79.6034C79.173 29.7288 78.8226 29.3743 78.8226 28.9354L78.8196 28.9324ZM82.8049 20.2556C82.8049 21.537 82.9876 22.6619 83.3546 23.6272C83.72 24.5924 84.1897 25.4012 84.8828 25.9429C85.576 26.4846 86.1846 26.701 87.1888 26.701C88.193 26.701 88.9632 26.4186 89.6639 25.8524C90.3646 25.2861 90.8962 24.5172 91.2586 23.5443C91.6211 22.5713 91.8023 21.4756 91.8023 20.2571C91.8023 19.0386 91.6256 17.9751 91.2707 17.0175C90.9158 16.0599 90.3873 15.3049 89.682 14.7509C88.9768 14.1969 88.0994 13.9207 87.0484 13.9207C85.9973 13.9207 85.3781 14.1846 84.7363 14.7831C83.9586 15.5075 83.7019 15.9863 83.344 16.9362C82.9861 17.8861 82.8064 18.9941 82.8064 20.2602L82.8049 20.2556Z" fill="#111111"/>
<path d="M70.9453 29.0599V14.1556C70.9453 13.7075 71.1311 13.2855 71.4406 12.9663C72.0749 12.3141 72.9206 11.4669 73.3389 11.0311C73.4778 10.8869 73.6621 10.8009 73.8599 10.7871C74.1921 10.7871 74.4972 11.1094 74.4972 11.4608V29.0614C74.4972 29.4128 74.2268 29.6968 73.8946 29.6968H71.5494C71.2171 29.6968 70.9468 29.4128 70.9468 29.0614L70.9453 29.0599Z" fill="#111111"/>
<path d="M51.2667 21.988C50.9329 21.3726 50.4904 20.8478 49.9498 20.4304C49.4258 20.0252 48.8489 19.6938 48.2343 19.4451C47.6378 19.2042 47.0458 19.0093 46.4795 18.8681L44.7761 18.4185C44.4499 18.3356 44.1056 18.2282 43.7507 18.0977C43.4109 17.9734 43.0893 17.8138 42.7933 17.6251C42.523 17.4517 42.3025 17.2353 42.1394 16.9805C41.9853 16.7381 41.9098 16.4526 41.9098 16.1073C41.9098 15.6884 42.0261 15.3262 42.2632 14.9993C42.5063 14.6648 42.8597 14.3932 43.3143 14.1952C43.7839 13.9911 44.3563 13.8867 45.0132 13.8867C45.9268 13.8867 46.6879 14.0924 47.2769 14.496C47.7254 14.8044 48.0108 15.1988 48.1512 15.7022C48.2766 16.1534 48.6979 16.4695 49.1736 16.4695H50.3394C50.6113 16.4695 50.8831 16.3882 51.0885 16.2071C51.3875 15.9462 51.5173 15.5549 51.4449 15.1774C51.315 14.5006 51.0462 13.8745 50.649 13.3143C50.0903 12.5271 49.3186 11.9009 48.3566 11.4544C47.4052 11.0124 46.2998 10.7883 45.0706 10.7883C43.8413 10.7883 42.7419 11.0139 41.7664 11.4574C40.7787 11.9071 39.9829 12.5485 39.4 13.3604C38.8095 14.186 38.509 15.162 38.509 16.2623C38.509 17.6051 38.962 18.7039 39.8576 19.5265C40.7123 20.3137 41.8796 20.9169 43.3279 21.3174L45.3877 21.8883C45.9902 22.0494 46.5354 22.2382 47.0111 22.4469C47.452 22.6418 47.8039 22.8873 48.0561 23.1758C48.2841 23.4367 48.3959 23.7728 48.3959 24.201C48.3959 24.689 48.2585 25.1018 47.9791 25.4624C47.6891 25.8353 47.2799 26.1315 46.7649 26.3433C46.2334 26.5627 45.6142 26.6732 44.9256 26.6732C44.2989 26.6732 43.7175 26.5781 43.1995 26.3893C42.7027 26.2098 42.2919 25.9305 41.9778 25.5622C41.7588 25.3043 41.6108 25.0066 41.5263 24.6521C41.41 24.1687 40.9841 23.8311 40.4903 23.8311H39.2354C39.027 23.8311 38.8171 23.8756 38.6419 23.9892C38.2477 24.2424 38.0665 24.6936 38.1481 25.1294C38.2946 25.9044 38.583 26.6057 39.0073 27.215C39.5857 28.0467 40.3921 28.6943 41.4054 29.1424C42.4037 29.5829 43.5936 29.8054 44.9437 29.8054C46.2938 29.8054 47.5804 29.566 48.5877 29.0949C49.61 28.6161 50.4059 27.95 50.951 27.1137C51.4992 26.2742 51.7771 25.3028 51.7771 24.2255C51.7771 23.3677 51.6049 22.6142 51.2652 21.9865L51.2667 21.988Z" fill="#111111"/>
<path d="M70.5898 3.33466V6.37935C70.5898 7.3523 71.7013 7.83878 72.3507 7.15127L73.7808 5.63659C74.1825 5.2115 74.184 4.52399 73.7838 4.09583L72.3537 2.56581C71.7058 1.87216 70.5898 2.35863 70.5898 3.33466Z" fill="#111111"/>
<path d="M63.994 11.1585C63.402 10.9083 62.7904 10.7871 62.1894 10.7871C60.9979 10.7871 59.8411 11.2659 58.9441 12.1775L54.3956 16.7998C53.0878 18.3451 53.0198 19.9059 53.1376 20.8067C53.1391 20.8205 53.1406 20.8619 53.1437 20.8757C53.2116 21.3499 53.787 22.174 54.1237 21.8395C54.4137 21.5525 54.7233 21.244 54.8682 21.0983C55.1506 20.8143 55.4466 20.5105 55.646 20.3079C55.7834 20.1683 55.8921 20.0041 55.9797 19.8276C55.9857 19.8153 56.1836 19.5068 56.3089 19.3795L60.8574 14.7572C60.9511 14.6528 61.6714 14.0451 62.5095 14.3106C63.2495 14.5454 63.3371 15.1746 63.3341 15.5583V21.2932H58.3265C57.8492 21.2932 57.3887 21.4911 57.0655 21.8487L55.9661 22.9674C55.6188 23.3511 55.9268 24.0371 56.4403 24.0447C56.4448 24.0447 56.4478 24.0447 56.4524 24.0447H63.3356V29.2134C63.3356 29.5418 63.5968 29.8073 63.92 29.8073H66.2683C66.5914 29.8073 66.8527 29.5418 66.8527 29.2134V15.6135C66.8527 13.686 65.7503 11.8982 63.997 11.16L63.994 11.1585Z" fill="#111111"/>
<path d="M27.3954 0H4.09399C1.83294 0 0 1.86266 0 4.16037V27.8396C0 30.1373 1.83294 32 4.09399 32H27.3954C29.6565 32 31.4894 30.1373 31.4894 27.8396V4.16037C31.4894 1.86266 29.6565 0 27.3954 0Z" fill="url(#paint1_linear_896_8591)"/>
<path d="M5.40234 15.8094V22.7735C5.40234 24.9987 8.04962 26.1128 9.59751 24.5399L13.0074 21.0747C13.9633 20.1032 13.9679 18.5287 13.0165 17.5512L9.60657 14.0522C8.0617 12.467 5.40234 13.578 5.40234 15.8094Z" fill="white"/>
<path d="M26.0855 10.179V19.7949C26.0855 22.8673 22.4309 24.405 20.2926 22.2335L15.5855 17.45C14.2656 16.1088 14.2596 13.9342 15.5734 12.5853L20.2805 7.75428C22.4128 5.56591 26.0855 7.10053 26.0855 10.1805V10.179Z" fill="#D5D4FF"/>
<defs>
<linearGradient id="paint0_linear_896_8591" x1="29.7845" y1="30.3242" x2="0.281723" y2="1.1774" gradientUnits="userSpaceOnUse">
<stop stop-color="#6F03E0"/>
<stop offset="1" stop-color="#2D11A5"/>
</linearGradient>
<linearGradient id="paint1_linear_896_8591" x1="29.7845" y1="30.3242" x2="0.281723" y2="1.1774" gradientUnits="userSpaceOnUse">
<stop stop-color="#6F03E0"/>
<stop offset="1" stop-color="#2D11A5"/>
</linearGradient>
</defs>
</svg>
