<svg width="96" height="32" viewBox="0 0 96 32" fill="none" xmlns="http://www.w3.org/2000/svg">
<path d="M27.8954 0H4.59399C2.33294 0 0.5 1.86266 0.5 4.16037V27.8396C0.5 30.1373 2.33294 32 4.59399 32H27.8954C30.1565 32 31.9894 30.1373 31.9894 27.8396V4.16037C31.9894 1.86266 30.1565 0 27.8954 0Z" fill="url(#paint0_linear_886_5688)"/>
<path d="M5.90234 15.8094V22.7735C5.90234 24.9987 8.54962 26.1128 10.0975 24.5399L13.5074 21.0747C14.4633 20.1032 14.4679 18.5287 13.5165 17.5512L10.1066 14.0522C8.5617 12.467 5.90234 13.578 5.90234 15.8094Z" fill="white"/>
<path d="M26.5855 10.179V19.7949C26.5855 22.8673 22.9309 24.405 20.7926 22.2335L16.0855 17.45C14.7656 16.1088 14.7596 13.9342 16.0734 12.5853L20.7805 7.75428C22.9128 5.56591 26.5855 7.10053 26.5855 10.1805V10.179Z" fill="#D5D4FF"/>
<path d="M79.3196 28.9324L79.3105 5.44646C79.3105 5.12112 79.4374 4.80806 79.6654 4.57786L81.7675 2.44627C82.1964 2.01043 82.9304 2.31583 82.9349 2.93274V13.2285H83.1448C83.5571 12.8694 83.7307 12.6699 83.995 12.4674C84.4918 12.0883 84.9252 11.8075 85.6093 11.4683C86.3025 11.1246 87.1814 10.9051 88.2959 10.9051C89.7441 10.9051 91.0368 11.2765 92.1739 12.0208C93.311 12.7651 94.2051 13.8363 94.8544 15.2374C95.5053 16.6385 95.83 18.3235 95.83 20.294C95.83 22.2644 95.5068 23.9525 94.8604 25.3567C94.2141 26.7609 93.3262 27.8412 92.1966 28.5963C91.067 29.3513 89.7788 29.7304 88.3306 29.7304C87.2403 29.7304 86.3508 29.5447 85.6622 29.1733C84.9736 28.8019 84.4344 28.3661 84.0448 27.8673C83.6552 27.3686 83.3562 26.9251 83.1463 26.5383H82.8548V28.8986C82.8548 29.3575 82.4894 29.7288 82.0379 29.7288H80.1034C79.673 29.7288 79.3226 29.3743 79.3226 28.9354L79.3196 28.9324ZM83.3049 20.2556C83.3049 21.537 83.4876 22.6619 83.8546 23.6272C84.22 24.5924 84.6897 25.4012 85.3828 25.9429C86.076 26.4846 86.6846 26.701 87.6888 26.701C88.693 26.701 89.4632 26.4186 90.1639 25.8524C90.8646 25.2861 91.3962 24.5172 91.7586 23.5443C92.1211 22.5713 92.3023 21.4756 92.3023 20.2571C92.3023 19.0386 92.1256 17.9751 91.7707 17.0175C91.4158 16.0599 90.8873 15.3049 90.182 14.7509C89.4768 14.1969 88.5994 13.9207 87.5484 13.9207C86.4973 13.9207 85.8781 14.1846 85.2363 14.7831C84.4586 15.5075 84.2019 15.9863 83.844 16.9362C83.4861 17.8861 83.3064 18.9941 83.3064 20.2602L83.3049 20.2556Z" fill="white"/>
<path d="M71.4453 29.0599V14.1556C71.4453 13.7075 71.6311 13.2855 71.9406 12.9663C72.5749 12.3141 73.4206 11.4669 73.8389 11.0311C73.9778 10.8869 74.1621 10.8009 74.3599 10.7871C74.6921 10.7871 74.9972 11.1094 74.9972 11.4608V29.0614C74.9972 29.4128 74.7268 29.6968 74.3946 29.6968H72.0494C71.7171 29.6968 71.4468 29.4128 71.4468 29.0614L71.4453 29.0599Z" fill="white"/>
<path d="M51.7667 21.988C51.4329 21.3726 50.9904 20.8478 50.4498 20.4304C49.9258 20.0252 49.3489 19.6938 48.7343 19.4451C48.1378 19.2042 47.5458 19.0093 46.9795 18.8681L45.2761 18.4185C44.9499 18.3356 44.6056 18.2282 44.2507 18.0977C43.9109 17.9734 43.5893 17.8138 43.2933 17.6251C43.023 17.4517 42.8025 17.2353 42.6394 16.9805C42.4853 16.7381 42.4098 16.4526 42.4098 16.1073C42.4098 15.6884 42.5261 15.3262 42.7632 14.9993C43.0063 14.6648 43.3597 14.3932 43.8143 14.1952C44.2839 13.9911 44.8563 13.8867 45.5132 13.8867C46.4268 13.8867 47.1879 14.0924 47.7769 14.496C48.2254 14.8044 48.5108 15.1988 48.6512 15.7022C48.7766 16.1534 49.1979 16.4695 49.6736 16.4695H50.8394C51.1113 16.4695 51.3831 16.3882 51.5885 16.2071C51.8875 15.9462 52.0173 15.5549 51.9449 15.1774C51.815 14.5006 51.5462 13.8745 51.149 13.3143C50.5903 12.5271 49.8186 11.9009 48.8566 11.4544C47.9052 11.0124 46.7998 10.7883 45.5706 10.7883C44.3413 10.7883 43.2419 11.0139 42.2664 11.4574C41.2787 11.9071 40.4829 12.5485 39.9 13.3604C39.3095 14.186 39.009 15.162 39.009 16.2623C39.009 17.6051 39.462 18.7039 40.3576 19.5265C41.2123 20.3137 42.3796 20.9169 43.8279 21.3174L45.8877 21.8883C46.4902 22.0494 47.0354 22.2382 47.5111 22.4469C47.952 22.6418 48.3039 22.8873 48.5561 23.1758C48.7841 23.4367 48.8959 23.7728 48.8959 24.201C48.8959 24.689 48.7585 25.1018 48.4791 25.4624C48.1891 25.8353 47.7799 26.1315 47.2649 26.3433C46.7334 26.5627 46.1142 26.6732 45.4256 26.6732C44.7989 26.6732 44.2175 26.5781 43.6995 26.3893C43.2027 26.2098 42.7919 25.9305 42.4778 25.5622C42.2588 25.3043 42.1108 25.0066 42.0263 24.6521C41.91 24.1687 41.4841 23.8311 40.9903 23.8311H39.7354C39.527 23.8311 39.3171 23.8756 39.1419 23.9892C38.7477 24.2424 38.5665 24.6936 38.6481 25.1294C38.7946 25.9044 39.083 26.6057 39.5073 27.215C40.0857 28.0467 40.8921 28.6943 41.9054 29.1424C42.9037 29.5829 44.0936 29.8054 45.4437 29.8054C46.7938 29.8054 48.0804 29.566 49.0877 29.0949C50.11 28.6161 50.9059 27.95 51.451 27.1137C51.9992 26.2742 52.2771 25.3028 52.2771 24.2255C52.2771 23.3677 52.1049 22.6142 51.7652 21.9865L51.7667 21.988Z" fill="white"/>
<path d="M71.0898 3.33466V6.37935C71.0898 7.3523 72.2013 7.83878 72.8507 7.15127L74.2808 5.63659C74.6825 5.2115 74.684 4.52399 74.2838 4.09583L72.8537 2.56581C72.2058 1.87216 71.0898 2.35863 71.0898 3.33466Z" fill="white"/>
<path d="M64.494 11.1585C63.902 10.9083 63.2904 10.7871 62.6894 10.7871C61.4979 10.7871 60.3411 11.2659 59.4441 12.1775L54.8956 16.7998C53.5878 18.3451 53.5198 19.9059 53.6376 20.8067C53.6391 20.8205 53.6406 20.8619 53.6437 20.8757C53.7116 21.3499 54.287 22.174 54.6237 21.8395C54.9137 21.5525 55.2233 21.244 55.3682 21.0983C55.6506 20.8143 55.9466 20.5105 56.146 20.3079C56.2834 20.1683 56.3921 20.0041 56.4797 19.8276C56.4857 19.8153 56.6836 19.5068 56.8089 19.3795L61.3574 14.7572C61.4511 14.6528 62.1714 14.0451 63.0095 14.3106C63.7495 14.5454 63.8371 15.1746 63.8341 15.5583V21.2932H58.8265C58.3492 21.2932 57.8887 21.4911 57.5655 21.8487L56.4661 22.9674C56.1188 23.3511 56.4268 24.0371 56.9403 24.0447C56.9448 24.0447 56.9478 24.0447 56.9524 24.0447H63.8356V29.2134C63.8356 29.5418 64.0968 29.8073 64.42 29.8073H66.7683C67.0914 29.8073 67.3527 29.5418 67.3527 29.2134V15.6135C67.3527 13.686 66.2503 11.8982 64.497 11.16L64.494 11.1585Z" fill="white"/>
<path d="M27.8954 0H4.59399C2.33294 0 0.5 1.86266 0.5 4.16037V27.8396C0.5 30.1373 2.33294 32 4.59399 32H27.8954C30.1565 32 31.9894 30.1373 31.9894 27.8396V4.16037C31.9894 1.86266 30.1565 0 27.8954 0Z" fill="url(#paint1_linear_886_5688)"/>
<path d="M5.90234 15.8094V22.7735C5.90234 24.9987 8.54962 26.1128 10.0975 24.5399L13.5074 21.0747C14.4633 20.1032 14.4679 18.5287 13.5165 17.5512L10.1066 14.0522C8.5617 12.467 5.90234 13.578 5.90234 15.8094Z" fill="white"/>
<path d="M26.5855 10.179V19.7949C26.5855 22.8673 22.9309 24.405 20.7926 22.2335L16.0855 17.45C14.7656 16.1088 14.7596 13.9342 16.0734 12.5853L20.7805 7.75428C22.9128 5.56591 26.5855 7.10053 26.5855 10.1805V10.179Z" fill="#D5D4FF"/>
<defs>
<linearGradient id="paint0_linear_886_5688" x1="30.2845" y1="30.3242" x2="0.781723" y2="1.1774" gradientUnits="userSpaceOnUse">
<stop stop-color="#6F03E0"/>
<stop offset="1" stop-color="#2D11A5"/>
</linearGradient>
<linearGradient id="paint1_linear_886_5688" x1="30.2845" y1="30.3242" x2="0.781723" y2="1.1774" gradientUnits="userSpaceOnUse">
<stop stop-color="#6F03E0"/>
<stop offset="1" stop-color="#2D11A5"/>
</linearGradient>
</defs>
</svg>
