<svg width="64" height="64" viewBox="0 0 64 64" fill="none" xmlns="http://www.w3.org/2000/svg">
<path d="M9.33398 53.3337C8.26732 53.3337 7.33398 52.9337 6.53398 52.1337C5.73398 51.3337 5.33398 50.4003 5.33398 49.3337V14.667C5.33398 13.6003 5.73398 12.667 6.53398 11.867C7.33398 11.067 8.26732 10.667 9.33398 10.667H54.6673C55.734 10.667 56.6673 11.067 57.4673 11.867C58.2673 12.667 58.6673 13.6003 58.6673 14.667V49.3337C58.6673 50.4003 58.2673 51.3337 57.4673 52.1337C56.6673 52.9337 55.734 53.3337 54.6673 53.3337H9.33398ZM9.33398 49.3337H54.6673V20.267H9.33398V49.3337ZM24.0673 34.8003L18.534 29.267C18.134 28.867 17.9451 28.4003 17.9673 27.867C17.9895 27.3337 18.2007 26.867 18.6006 26.467C19.0007 26.067 19.4673 25.867 20.0007 25.867C20.534 25.867 21.0007 26.067 21.4007 26.467L28.334 33.4003C28.734 33.8003 28.934 34.267 28.934 34.8003C28.934 35.3337 28.734 35.8003 28.334 36.2003L21.4007 43.1337C21.0007 43.5337 20.534 43.7337 20.0007 43.7337C19.4673 43.7337 19.0007 43.5337 18.6006 43.1337C18.2007 42.7337 18.0007 42.267 18.0007 41.7337C18.0007 41.2003 18.2007 40.7337 18.6006 40.3337L24.0673 34.8003ZM34.6673 44.8003C34.0895 44.8003 33.6118 44.6114 33.234 44.2337C32.8562 43.8559 32.6673 43.3781 32.6673 42.8003C32.6673 42.2225 32.8562 41.7448 33.234 41.367C33.6118 40.9892 34.0895 40.8003 34.6673 40.8003H45.334C45.9118 40.8003 46.3895 40.9892 46.7673 41.367C47.1451 41.7448 47.334 42.2225 47.334 42.8003C47.334 43.3781 47.1451 43.8559 46.7673 44.2337C46.3895 44.6114 45.9118 44.8003 45.334 44.8003H34.6673Z" fill="#191919"/>
</svg>
