<svg width="373" height="674" viewBox="0 0 373 674" fill="none" xmlns="http://www.w3.org/2000/svg">
<g opacity="0.2">
<mask id="path-1-inside-1_2058_1555" fill="white">
<path d="M186.456 0.963867C188.595 5.70939 198.613 26.8966 212.803 40.3945L228.843 55.6689L226.337 72.875H219.57C219.57 72.875 214.038 66.0209 209.984 68.7695C205.931 71.5181 202.591 74.0582 202.452 79.3467C202.313 84.6353 202.452 93.5596 202.452 93.5596V175.394C202.48 175.442 207.704 184.402 219.744 189.798C231.818 195.208 243.334 196.078 243.334 196.078H259.861V230.298C259.861 230.298 259.18 230.244 257.978 230.224C255.795 231.654 254.373 233.194 253.52 234.246C249.971 238.665 249.309 243.657 249.083 245.449C249.091 245.445 260.688 239.968 265.714 236.751C271.507 233.046 278.554 225.983 283.494 211.23C284.538 206.707 285.633 198.965 283.424 189.937C282.693 186.996 281.58 184.178 281.58 184.178C280.85 182.369 280.101 180.803 279.423 179.533L279.458 179.516C289.148 173.288 298.785 166.972 308.336 160.57C316.165 154.325 325.455 145.366 333.544 132.944C355.17 99.793 353.488 64.8585 352.115 51.4639C356.944 61.5326 360.151 70.2666 362.267 76.7012C372.826 108.868 372.687 134.928 372.443 143.14C372.235 150.62 371.609 156.309 371.261 159.632C367.451 195.364 354.612 222.05 346.035 236.907C352.437 248.372 355.742 264.656 355.742 286.054C355.742 330.429 313.089 369.164 312.982 369.262C304.892 377.612 295.985 387.963 287.199 400.472C278.484 412.893 271.838 424.723 266.741 435.091C267.872 420.426 267.662 408.614 267.315 400.872C266.41 381.37 264.305 363.868 261.365 348.82C268.602 345.48 278.24 340.262 288.399 332.225C292.557 328.937 301.743 321.594 309.798 310.982C324.011 292.264 328.377 271.753 329.804 258.653C318.148 271.405 307.031 278.712 299.064 283.009C292.035 286.801 289.408 287.201 267.715 296.474C250.927 303.641 242.472 307.295 239.045 310.409C225.284 322.917 218.465 345.776 226.433 354.631C229.494 358.041 234.626 358.737 239.341 358.546C239.283 358.608 232.882 366.243 230.068 370.428C227.094 374.846 223.893 381.736 223.162 392.365V614.852L186.283 673.94V674L186.265 673.97L186.246 674V673.94L149.367 614.852V392.365C148.637 381.736 145.436 374.847 142.461 370.428C139.649 366.245 133.253 358.616 133.189 358.546C137.903 358.737 143.035 358.041 146.097 354.631C154.064 345.776 147.244 322.917 133.483 310.409C130.056 307.295 121.602 303.641 104.815 296.474C83.1208 287.201 80.4932 286.801 73.4649 283.009C65.4972 278.712 54.3813 271.405 42.7256 258.653C44.1522 271.753 48.5185 292.264 62.7315 310.982C70.7861 321.594 79.9711 328.937 84.129 332.225C94.2886 340.262 103.927 345.48 111.164 348.82C108.224 363.868 106.119 381.37 105.214 400.872C104.866 408.614 104.657 420.426 105.788 435.091C100.691 424.723 94.0457 412.893 85.3301 400.472C76.5448 387.963 67.6374 377.612 59.5479 369.262C59.4857 369.205 16.7874 330.452 16.7872 286.054C16.7872 264.656 20.0922 248.372 26.4942 236.907C17.9176 222.05 5.07853 195.364 1.26861 159.632C0.155219 149.211 -3.46325 115.687 10.2627 76.7012C17.0185 57.5357 20.0326 52.0993 20.4151 51.4424C19.042 64.8212 17.3475 99.7753 38.9854 132.944C47.0747 145.365 56.364 154.325 64.1924 160.57C73.7432 166.972 83.3814 173.288 93.0713 179.516L93.1065 179.533C92.4281 180.803 91.6799 182.369 90.9493 184.178C90.9493 184.178 89.8352 186.996 89.1045 189.937C86.8952 198.965 87.9914 206.707 89.0352 211.23C93.9758 225.982 101.021 233.045 106.815 236.751C111.842 239.969 123.446 245.449 123.446 245.449C123.22 243.692 122.524 238.752 119.01 234.246C118.173 233.186 116.81 231.669 114.761 230.221C113.432 230.237 112.666 230.296 112.645 230.298V196.078H129.171C129.171 196.078 140.687 195.208 152.761 189.798C164.834 184.387 170.054 175.394 170.054 175.394V93.5596C170.054 93.5596 170.193 84.6353 170.054 79.3467C169.915 74.0582 166.574 71.5182 162.521 68.7695C158.467 66.0209 152.935 72.875 152.935 72.875H146.168L143.69 55.8574C143.546 55.7925 143.484 55.7568 143.484 55.7568C143.484 55.7568 144.689 54.5875 147.305 52.1992L159.702 40.3945C173.889 26.8988 183.906 5.71602 186.047 0.96582V0.0390625C186.077 0.107826 186.146 0.264568 186.252 0.50293C186.358 0.264781 186.427 0.108053 186.457 0.0390625L186.456 0.963867ZM352.115 51.4639C352.101 51.4332 352.086 51.4018 352.071 51.3711H352.107C352.11 51.4017 352.112 51.433 352.115 51.4639ZM20.4151 51.4424C20.4175 51.4187 20.4205 51.3946 20.4229 51.3711H20.4571C20.4571 51.3711 20.4433 51.3939 20.4151 51.4424ZM186.047 0.0390625C186.036 0.014742 186.03 0.00180139 186.029 0H186.047V0.0390625ZM186.457 0.0390625L186.458 0H186.476C186.475 0.00184952 186.468 0.0145545 186.457 0.0390625Z"/>
</mask>
<path d="M186.456 0.963867L185.456 0.962811L185.456 1.17827L185.544 1.37471L186.456 0.963867ZM212.803 40.3945L213.492 39.6704L213.492 39.67L212.803 40.3945ZM228.843 55.6689L229.832 55.8131L229.907 55.3014L229.532 54.9448L228.843 55.6689ZM226.337 72.875V73.875H227.202L227.327 73.0191L226.337 72.875ZM219.57 72.875L218.792 73.5031L219.092 73.875H219.57V72.875ZM209.984 68.7695L209.423 67.9419L209.984 68.7695ZM202.452 79.3467L201.453 79.3204L202.452 79.3467ZM202.452 93.5596H203.452V93.5518L203.452 93.544L202.452 93.5596ZM202.452 175.394H201.452V175.663L201.588 175.896L202.452 175.394ZM219.744 189.798L219.335 190.71L219.744 189.798ZM243.334 196.078L243.259 197.075L243.296 197.078H243.334V196.078ZM259.861 196.078H260.861V195.078H259.861V196.078ZM259.861 230.298L259.783 231.295L260.861 231.38V230.298H259.861ZM257.978 230.224L257.995 229.224L257.687 229.219L257.429 229.387L257.978 230.224ZM253.52 234.246L252.743 233.616L252.74 233.62L253.52 234.246ZM249.083 245.449L248.091 245.324L247.863 247.131L249.51 246.353L249.083 245.449ZM265.714 236.751L265.175 235.909L265.175 235.909L265.714 236.751ZM283.494 211.23L284.442 211.548L284.458 211.502L284.469 211.455L283.494 211.23ZM283.424 189.937L284.395 189.699L284.394 189.695L283.424 189.937ZM281.58 184.178L282.51 183.81L282.507 183.803L281.58 184.178ZM279.423 179.533L278.976 178.639L278.057 179.098L278.541 180.004L279.423 179.533ZM279.458 179.516L279.905 180.41L279.953 180.386L279.999 180.357L279.458 179.516ZM308.336 160.57L308.893 161.401L308.927 161.378L308.96 161.352L308.336 160.57ZM333.544 132.944L332.706 132.398L332.706 132.399L333.544 132.944ZM362.267 76.7012L363.217 76.3893L363.217 76.3888L362.267 76.7012ZM372.443 143.14L371.444 143.11L371.444 143.112L372.443 143.14ZM371.261 159.632L372.255 159.738L372.255 159.736L371.261 159.632ZM346.035 236.907L345.169 236.407L344.885 236.899L345.162 237.395L346.035 236.907ZM355.742 286.054H356.742H355.742ZM312.982 369.262L312.309 368.521L312.286 368.543L312.263 368.566L312.982 369.262ZM287.199 400.472L286.381 399.897L286.381 399.897L287.199 400.472ZM266.741 435.091L265.744 435.014L267.639 435.532L266.741 435.091ZM267.315 400.872L268.314 400.827L268.313 400.826L267.315 400.872ZM261.365 348.82L260.946 347.912L260.233 348.241L260.384 349.012L261.365 348.82ZM288.399 332.225L287.779 331.44L287.779 331.44L288.399 332.225ZM309.798 310.982L309.001 310.378L309.001 310.378L309.798 310.982ZM329.804 258.653L330.798 258.762L331.129 255.721L329.066 257.979L329.804 258.653ZM299.064 283.009L298.589 282.129L298.589 282.129L299.064 283.009ZM267.715 296.474L268.108 297.393L268.108 297.393L267.715 296.474ZM239.045 310.409L238.372 309.669L238.372 309.669L239.045 310.409ZM226.433 354.631L227.177 353.963L227.176 353.962L226.433 354.631ZM239.341 358.546L240.074 359.226L241.725 357.448L239.3 357.547L239.341 358.546ZM230.068 370.428L230.898 370.986L230.898 370.986L230.068 370.428ZM223.162 392.365L222.165 392.297L222.162 392.331V392.365H223.162ZM223.162 614.852L224.01 615.381L224.162 615.138V614.852H223.162ZM186.283 673.94L185.435 673.411L185.283 673.654V673.94H186.283ZM186.283 674L185.431 674.523L187.283 677.545V674H186.283ZM186.265 673.97L187.117 673.447L186.265 672.056L185.412 673.447L186.265 673.97ZM186.246 674H185.246V677.545L187.099 674.523L186.246 674ZM186.246 673.94H187.246V673.654L187.094 673.411L186.246 673.94ZM149.367 614.852H148.367V615.138L148.519 615.381L149.367 614.852ZM149.367 392.365H150.367V392.331L150.365 392.297L149.367 392.365ZM142.461 370.428L141.631 370.986L141.631 370.986L142.461 370.428ZM133.189 358.546L133.229 357.547L130.824 357.449L132.452 359.222L133.189 358.546ZM146.097 354.631L145.353 353.962L145.353 353.963L146.097 354.631ZM133.483 310.409L134.156 309.669L134.156 309.669L133.483 310.409ZM104.815 296.474L104.421 297.393L104.422 297.393L104.815 296.474ZM73.4649 283.009L73.9398 282.129L73.9396 282.129L73.4649 283.009ZM42.7256 258.653L43.4638 257.979L41.4004 255.721L41.7315 258.762L42.7256 258.653ZM62.7315 310.982L63.528 310.378L63.5279 310.378L62.7315 310.982ZM84.129 332.225L84.7494 331.44L84.7492 331.44L84.129 332.225ZM111.164 348.82L112.146 349.012L112.296 348.241L111.583 347.912L111.164 348.82ZM105.214 400.872L104.215 400.826L104.215 400.827L105.214 400.872ZM105.788 435.091L104.891 435.532L106.785 435.014L105.788 435.091ZM85.3301 400.472L86.1487 399.897L86.1485 399.897L85.3301 400.472ZM59.5479 369.262L60.2661 368.566L60.2437 368.543L60.2198 368.521L59.5479 369.262ZM16.7872 286.054H15.7872H16.7872ZM26.4942 236.907L27.3673 237.395L27.6441 236.899L27.3602 236.407L26.4942 236.907ZM1.26861 159.632L2.26297 159.526L2.26295 159.526L1.26861 159.632ZM10.2627 76.7012L9.31963 76.3687L9.3195 76.3691L10.2627 76.7012ZM38.9854 132.944L39.8234 132.399L39.8229 132.398L38.9854 132.944ZM64.1924 160.57L63.5688 161.352L63.6012 161.378L63.6356 161.401L64.1924 160.57ZM93.0713 179.516L92.5307 180.357L92.576 180.386L92.6241 180.41L93.0713 179.516ZM93.1065 179.533L93.9885 180.004L94.4726 179.098L93.5537 178.639L93.1065 179.533ZM90.9493 184.178L90.022 183.803L90.0193 183.81L90.9493 184.178ZM89.1045 189.937L88.1341 189.695L88.1332 189.699L89.1045 189.937ZM89.0352 211.23L88.0608 211.455L88.0717 211.502L88.087 211.548L89.0352 211.23ZM106.815 236.751L107.354 235.909L107.353 235.909L106.815 236.751ZM123.446 245.449L123.019 246.353L124.671 247.134L124.438 245.322L123.446 245.449ZM119.01 234.246L119.798 233.631L119.795 233.626L119.01 234.246ZM114.761 230.221L115.338 229.404L115.073 229.217L114.748 229.221L114.761 230.221ZM112.645 230.298H111.645V231.38L112.723 231.295L112.645 230.298ZM112.645 196.078V195.078H111.645V196.078H112.645ZM129.171 196.078V197.078H129.209L129.246 197.075L129.171 196.078ZM152.761 189.798L153.17 190.71L152.761 189.798ZM170.054 175.394L170.919 175.896L171.054 175.663V175.394H170.054ZM170.054 93.5596L169.054 93.544L169.054 93.5518V93.5596H170.054ZM170.054 79.3467L171.053 79.3204L170.054 79.3467ZM162.521 68.7695L163.082 67.9419L162.521 68.7695ZM152.935 72.875V73.875H153.413L153.713 73.5031L152.935 72.875ZM146.168 72.875L145.178 73.0191L145.303 73.875H146.168V72.875ZM143.69 55.8574L144.679 55.7133L144.6 55.1724L144.102 54.9467L143.69 55.8574ZM143.484 55.7568L142.788 55.0394L141.837 55.9622L142.985 56.6234L143.484 55.7568ZM147.305 52.1992L147.979 52.9378L147.987 52.9307L147.994 52.9234L147.305 52.1992ZM159.702 40.3945L159.013 39.67L159.013 39.6703L159.702 40.3945ZM186.047 0.96582L186.959 1.37668L187.047 1.18074V0.96582H186.047ZM186.252 0.50293L185.338 0.908279L186.252 2.96992L187.166 0.908284L186.252 0.50293ZM352.071 51.3711V50.3711H350.482L351.17 51.804L352.071 51.3711ZM352.107 51.3711L353.101 51.2685L353.009 50.3711H352.107V51.3711ZM20.4229 51.3711V50.3711H19.5207L19.4282 51.2685L20.4229 51.3711ZM20.4571 51.3711L21.3133 51.8877L22.2284 50.3711H20.4571V51.3711ZM186.029 0V-1H184.515L185.11 0.39263L186.029 0ZM186.047 0H187.047V-1H186.047V0ZM186.458 0V-1H185.483L185.458 -0.0249922L186.458 0ZM186.476 0L187.395 0.392636L187.99 -1H186.476V0ZM186.456 0.963867L185.544 1.37471C187.685 6.12501 197.77 27.4743 212.114 41.1191L212.803 40.3945L213.492 39.67C199.457 26.3188 189.504 5.29377 187.368 0.553029L186.456 0.963867ZM212.803 40.3945L212.113 41.1187L228.153 56.3931L228.843 55.6689L229.532 54.9448L213.492 39.6704L212.803 40.3945ZM228.843 55.6689L227.853 55.5248L225.347 72.7309L226.337 72.875L227.327 73.0191L229.832 55.8131L228.843 55.6689ZM226.337 72.875V71.875H219.57V72.875V73.875H226.337V72.875ZM219.57 72.875C220.349 72.2469 220.348 72.2467 220.348 72.2464C220.348 72.2463 220.348 72.246 220.348 72.2458C220.347 72.2453 220.347 72.2447 220.346 72.244C220.345 72.2426 220.344 72.2408 220.342 72.2385C220.338 72.2341 220.333 72.228 220.327 72.2204C220.314 72.2051 220.297 72.1836 220.274 72.1564C220.228 72.1018 220.162 72.0242 220.077 71.9276C219.909 71.7345 219.665 71.4645 219.36 71.1505C218.754 70.5256 217.891 69.7117 216.884 68.9819C215.886 68.2583 214.691 67.5766 213.421 67.278C212.124 66.973 210.717 67.0643 209.423 67.9419L209.984 68.7695L210.546 69.5972C211.278 69.1004 212.083 69.0178 212.963 69.2249C213.871 69.4383 214.819 69.9548 215.711 70.6012C216.593 71.2412 217.368 71.9692 217.925 72.5435C218.202 72.8291 218.422 73.0731 218.572 73.2441C218.647 73.3295 218.703 73.3965 218.741 73.441C218.759 73.4633 218.773 73.4799 218.782 73.4904C218.786 73.4957 218.789 73.4994 218.791 73.5015C218.792 73.5026 218.792 73.5033 218.793 73.5035C218.793 73.5037 218.793 73.5037 218.793 73.5036C218.793 73.5036 218.793 73.5035 218.793 73.5034C218.792 73.5033 218.792 73.5031 219.57 72.875ZM209.984 68.7695L209.423 67.9419C205.383 70.6813 201.606 73.478 201.453 79.3204L202.452 79.3467L203.452 79.373C203.576 74.6384 206.479 72.3549 210.546 69.5972L209.984 68.7695ZM202.452 79.3467L201.453 79.3204C201.383 81.982 201.383 85.549 201.4 88.4424C201.409 89.8908 201.422 91.1736 201.433 92.0943C201.438 92.5547 201.443 92.9247 201.447 93.1797C201.448 93.3072 201.45 93.4059 201.451 93.4728C201.451 93.5063 201.452 93.5318 201.452 93.549C201.452 93.5576 201.452 93.5641 201.452 93.5685C201.452 93.5707 201.452 93.5723 201.452 93.5734C201.452 93.574 201.452 93.5744 201.452 93.5747C201.452 93.5749 201.452 93.575 201.452 93.575C201.452 93.5751 201.452 93.5752 202.452 93.5596C203.452 93.544 203.452 93.544 203.452 93.5439C203.452 93.5438 203.452 93.5437 203.452 93.5436C203.452 93.5434 203.452 93.543 203.452 93.5424C203.452 93.5414 203.452 93.5398 203.452 93.5377C203.452 93.5334 203.452 93.5271 203.452 93.5186C203.451 93.5017 203.451 93.4765 203.451 93.4433C203.45 93.3769 203.448 93.2788 203.446 93.1519C203.443 92.8982 203.438 92.5296 203.433 92.0707C203.422 91.1529 203.409 89.8741 203.4 88.4304C203.383 85.5395 203.383 82 203.452 79.373L202.452 79.3467ZM202.452 93.5596H201.452V175.394H202.452H203.452V93.5596H202.452ZM202.452 175.394L201.588 175.896C201.666 176.03 207.023 185.193 219.335 190.71L219.744 189.798L220.153 188.885C208.384 183.611 203.295 174.854 203.317 174.891L202.452 175.394ZM219.744 189.798L219.335 190.71C225.458 193.454 231.43 195.043 235.867 195.947C238.087 196.399 239.928 196.68 241.216 196.849C241.86 196.934 242.367 196.99 242.715 197.025C242.888 197.043 243.022 197.055 243.114 197.063C243.16 197.067 243.195 197.07 243.219 197.072C243.231 197.073 243.241 197.074 243.247 197.074C243.251 197.075 243.253 197.075 243.255 197.075C243.256 197.075 243.257 197.075 243.257 197.075C243.258 197.075 243.258 197.075 243.258 197.075C243.258 197.075 243.259 197.075 243.334 196.078C243.409 195.081 243.41 195.081 243.41 195.081C243.41 195.081 243.41 195.081 243.41 195.081C243.41 195.081 243.409 195.081 243.409 195.081C243.408 195.081 243.406 195.081 243.404 195.081C243.399 195.08 243.392 195.08 243.382 195.079C243.362 195.077 243.331 195.075 243.29 195.071C243.206 195.064 243.081 195.052 242.917 195.035C242.587 195.002 242.1 194.948 241.476 194.866C240.228 194.703 238.434 194.429 236.266 193.987C231.926 193.103 226.104 191.552 220.153 188.885L219.744 189.798ZM243.334 196.078V197.078H259.861V196.078V195.078H243.334V196.078ZM259.861 196.078H258.861V230.298H259.861H260.861V196.078H259.861ZM259.861 230.298C259.94 229.301 259.94 229.301 259.94 229.301C259.94 229.301 259.94 229.301 259.94 229.301C259.94 229.301 259.94 229.301 259.94 229.301C259.939 229.301 259.939 229.301 259.939 229.301C259.938 229.301 259.937 229.301 259.936 229.301C259.935 229.301 259.932 229.3 259.929 229.3C259.922 229.3 259.913 229.299 259.902 229.298C259.878 229.296 259.845 229.294 259.801 229.291C259.714 229.286 259.586 229.278 259.42 229.27C259.09 229.253 258.608 229.234 257.995 229.224L257.978 230.224L257.961 231.223C258.55 231.234 259.01 231.252 259.321 231.267C259.476 231.275 259.594 231.282 259.671 231.287C259.71 231.29 259.739 231.292 259.758 231.293C259.767 231.294 259.774 231.294 259.778 231.294C259.78 231.295 259.782 231.295 259.782 231.295C259.783 231.295 259.783 231.295 259.783 231.295C259.783 231.295 259.783 231.295 259.783 231.295C259.783 231.295 259.783 231.295 259.783 231.295C259.783 231.295 259.783 231.295 259.783 231.295C259.783 231.295 259.783 231.295 259.861 230.298ZM257.978 230.224L257.429 229.387C255.137 230.89 253.64 232.509 252.743 233.616L253.52 234.246L254.296 234.876C255.105 233.878 256.454 232.418 258.526 231.06L257.978 230.224ZM253.52 234.246L252.74 233.62C249.006 238.269 248.321 243.503 248.091 245.324L249.083 245.449L250.075 245.574C250.298 243.811 250.935 239.061 254.299 234.872L253.52 234.246ZM249.083 245.449L249.51 246.353C249.518 246.35 252.427 244.976 255.965 243.199C259.491 241.429 263.69 239.234 266.253 237.593L265.714 236.751L265.175 235.909C262.711 237.486 258.6 239.638 255.068 241.412C253.309 242.295 251.706 243.078 250.543 243.641C249.379 244.203 248.656 244.545 248.656 244.545L249.083 245.449ZM265.714 236.751L266.253 237.593C272.252 233.756 279.434 226.501 284.442 211.548L283.494 211.23L282.546 210.913C277.673 225.464 270.762 232.335 265.175 235.909L265.714 236.751ZM283.494 211.23L284.469 211.455C285.534 206.841 286.654 198.93 284.395 189.699L283.424 189.937L282.453 190.174C284.612 199 283.543 206.574 282.52 211.006L283.494 211.23ZM283.424 189.937L284.394 189.695C284.019 188.186 283.548 186.717 283.173 185.629C282.985 185.083 282.821 184.631 282.702 184.314C282.643 184.156 282.596 184.031 282.563 183.946C282.546 183.903 282.533 183.87 282.524 183.847C282.52 183.835 282.517 183.827 282.514 183.821C282.513 183.818 282.512 183.815 282.511 183.813C282.511 183.813 282.511 183.812 282.511 183.811C282.511 183.811 282.51 183.811 282.51 183.811C282.51 183.811 282.51 183.811 282.51 183.811C282.51 183.811 282.51 183.81 281.58 184.178C280.65 184.545 280.65 184.545 280.65 184.545V184.545C280.65 184.545 280.65 184.545 280.65 184.545C280.65 184.545 280.65 184.546 280.65 184.546C280.651 184.547 280.652 184.549 280.652 184.551C280.654 184.556 280.657 184.563 280.661 184.573C280.669 184.593 280.681 184.624 280.696 184.664C280.727 184.744 280.772 184.862 280.829 185.014C280.942 185.317 281.101 185.754 281.283 186.281C281.647 187.337 282.098 188.747 282.453 190.178L283.424 189.937ZM281.58 184.178L282.507 183.803C281.763 181.961 281 180.363 280.305 179.062L279.423 179.533L278.541 180.004C279.203 181.243 279.936 182.777 280.653 184.552L281.58 184.178ZM279.423 179.533L279.87 180.428L279.905 180.41L279.458 179.516L279.011 178.621L278.976 178.639L279.423 179.533ZM279.458 179.516L279.999 180.357C289.694 174.126 299.336 167.807 308.893 161.401L308.336 160.57L307.779 159.74C298.234 166.138 288.602 172.45 278.917 178.674L279.458 179.516ZM308.336 160.57L308.96 161.352C316.851 155.057 326.221 146.021 334.382 133.49L333.544 132.944L332.706 132.399C324.688 144.71 315.478 153.593 307.712 159.789L308.336 160.57ZM333.544 132.944L334.382 133.491C356.196 100.051 354.491 64.8349 353.11 51.3619L352.115 51.4639L351.121 51.5658C352.485 64.8821 354.145 99.5347 332.706 132.398L333.544 132.944ZM352.115 51.4639L351.214 51.8963C356.02 61.9172 359.211 70.6095 361.317 77.0136L362.267 76.7012L363.217 76.3888C361.091 69.9237 357.869 61.1479 353.017 51.0314L352.115 51.4639ZM362.267 76.7012L361.317 77.0131C371.827 109.028 371.686 134.961 371.444 143.11L372.443 143.14L373.443 143.169C373.688 134.895 373.826 108.707 363.217 76.3893L362.267 76.7012ZM372.443 143.14L371.444 143.112C371.236 150.55 370.614 156.206 370.266 159.528L371.261 159.632L372.255 159.736C372.603 156.412 373.233 150.69 373.443 143.168L372.443 143.14ZM371.261 159.632L370.266 159.526C366.476 195.075 353.703 221.625 345.169 236.407L346.035 236.907L346.901 237.407C355.521 222.476 368.426 195.654 372.255 159.738L371.261 159.632ZM346.035 236.907L345.162 237.395C351.446 248.648 354.742 264.737 354.742 286.054H355.742H356.742C356.742 264.574 353.428 248.095 346.908 236.42L346.035 236.907ZM355.742 286.054H354.742C354.742 307.939 344.214 328.511 333.583 343.688C322.966 358.846 312.335 368.498 312.309 368.521L312.982 369.262L313.654 370.002C313.736 369.928 324.485 360.163 335.221 344.835C345.944 329.527 356.742 308.543 356.742 286.054H355.742ZM312.982 369.262L312.263 368.566C304.142 376.949 295.2 387.341 286.381 399.897L287.199 400.472L288.018 401.046C296.769 388.586 305.642 378.275 313.7 369.958L312.982 369.262ZM287.199 400.472L286.381 399.897C277.631 412.367 270.96 424.243 265.844 434.65L266.741 435.091L267.639 435.532C272.717 425.202 279.336 413.418 288.018 401.046L287.199 400.472ZM266.741 435.091L267.738 435.168C268.873 420.452 268.663 408.598 268.314 400.827L267.315 400.872L266.316 400.917C266.662 408.629 266.871 420.399 265.744 435.014L266.741 435.091ZM267.315 400.872L268.313 400.826C267.407 381.281 265.297 363.73 262.347 348.629L261.365 348.82L260.384 349.012C263.313 364.007 265.413 381.46 266.316 400.918L267.315 400.872ZM261.365 348.82L261.784 349.728C269.075 346.363 278.784 341.106 289.02 333.009L288.399 332.225L287.779 331.44C277.696 339.417 268.13 344.597 260.946 347.912L261.365 348.82ZM288.399 332.225L289.02 333.009C293.19 329.711 302.459 322.305 310.594 311.587L309.798 310.982L309.001 310.378C301.027 320.884 291.925 328.162 287.779 331.44L288.399 332.225ZM309.798 310.982L310.594 311.587C324.959 292.668 329.361 271.957 330.798 258.762L329.804 258.653L328.81 258.545C327.394 271.549 323.062 291.859 309.001 310.378L309.798 310.982ZM329.804 258.653L329.066 257.979C317.498 270.634 306.476 277.875 298.589 282.129L299.064 283.009L299.538 283.889C307.586 279.549 318.797 272.177 330.542 259.328L329.804 258.653ZM299.064 283.009L298.589 282.129C291.61 285.894 289.115 286.239 267.322 295.554L267.715 296.474L268.108 297.393C289.702 288.163 292.46 287.708 299.538 283.889L299.064 283.009ZM267.715 296.474L267.322 295.554C258.935 299.135 252.604 301.849 247.942 304.058C243.306 306.254 240.209 308 238.372 309.669L239.045 310.409L239.717 311.149C241.308 309.704 244.152 308.066 248.798 305.865C253.417 303.677 259.707 300.98 268.108 297.393L267.715 296.474ZM239.045 310.409L238.372 309.669C231.343 316.059 226.106 325.066 223.63 333.612C222.392 337.888 221.833 342.088 222.11 345.819C222.386 349.545 223.504 352.871 225.689 355.3L226.433 354.631L227.176 353.962C225.377 351.963 224.36 349.111 224.104 345.67C223.849 342.234 224.361 338.277 225.551 334.168C227.934 325.944 232.987 317.268 239.718 311.149L239.045 310.409ZM226.433 354.631L225.689 355.299C229.073 359.067 234.622 359.738 239.381 359.545L239.341 358.546L239.3 357.547C234.63 357.736 229.916 357.014 227.177 353.963L226.433 354.631ZM239.341 358.546L238.608 357.865C238.521 357.959 232.085 365.635 229.238 369.87L230.068 370.428L230.898 370.986C232.279 368.932 234.558 366.007 236.518 363.567C238.486 361.116 240.075 359.225 240.074 359.226L239.341 358.546ZM230.068 370.428L229.239 369.869C226.171 374.426 222.908 381.483 222.165 392.297L223.162 392.365L224.16 392.434C224.878 381.989 228.016 375.267 230.898 370.986L230.068 370.428ZM223.162 392.365H222.162V614.852H223.162H224.162V392.365H223.162ZM223.162 614.852L222.314 614.322L185.435 673.411L186.283 673.94L187.132 674.47L224.01 615.381L223.162 614.852ZM186.283 673.94H185.283V674H186.283H187.283V673.94H186.283ZM186.283 674L187.136 673.477L187.117 673.447L186.265 673.97L185.412 674.492L185.431 674.523L186.283 674ZM186.265 673.97L185.412 673.447L185.394 673.477L186.246 674L187.099 674.523L187.117 674.492L186.265 673.97ZM186.246 674H187.246V673.94H186.246H185.246V674H186.246ZM186.246 673.94L187.094 673.411L150.216 614.322L149.367 614.852L148.519 615.381L185.398 674.47L186.246 673.94ZM149.367 614.852H150.367V392.365H149.367H148.367V614.852H149.367ZM149.367 392.365L150.365 392.297C149.622 381.483 146.358 374.426 143.291 369.869L142.461 370.428L141.631 370.986C144.513 375.267 147.652 381.989 148.37 392.434L149.367 392.365ZM142.461 370.428L143.291 369.87C140.445 365.636 134.015 357.967 133.925 357.87L133.189 358.546L132.452 359.222C132.445 359.214 132.832 359.674 133.498 360.481C134.149 361.268 135.039 362.356 136.015 363.571C137.974 366.01 140.252 368.933 141.631 370.986L142.461 370.428ZM133.189 358.546L133.148 359.545C137.907 359.738 143.457 359.067 146.841 355.299L146.097 354.631L145.353 353.963C142.613 357.014 137.899 357.736 133.229 357.547L133.189 358.546ZM146.097 354.631L146.84 355.3C149.025 352.871 150.143 349.545 150.419 345.818C150.696 342.088 150.137 337.888 148.899 333.612C146.423 325.066 141.186 316.059 134.156 309.669L133.483 310.409L132.811 311.149C139.542 317.268 144.595 325.944 146.978 334.168C148.168 338.277 148.68 342.233 148.425 345.67C148.17 349.111 147.152 351.963 145.353 353.962L146.097 354.631ZM133.483 310.409L134.156 309.669C132.319 308 129.222 306.254 124.587 304.058C119.925 301.849 113.594 299.135 105.207 295.554L104.815 296.474L104.422 297.393C112.822 300.98 119.112 303.677 123.731 305.865C128.377 308.066 131.22 309.704 132.811 311.149L133.483 310.409ZM104.815 296.474L105.208 295.554C83.414 286.239 80.9182 285.894 73.9398 282.129L73.4649 283.009L72.99 283.889C80.0682 287.708 82.8276 288.163 104.421 297.393L104.815 296.474ZM73.4649 283.009L73.9396 282.129C66.0522 277.875 55.0308 270.633 43.4638 257.979L42.7256 258.653L41.9875 259.328C53.7317 272.176 64.9422 279.549 72.9902 283.889L73.4649 283.009ZM42.7256 258.653L41.7315 258.762C43.1684 271.957 47.5703 292.668 61.9351 311.587L62.7315 310.982L63.5279 310.378C49.4668 291.859 45.1359 271.549 43.7198 258.545L42.7256 258.653ZM62.7315 310.982L61.935 311.587C70.0699 322.305 79.3387 329.711 83.5087 333.009L84.129 332.225L84.7492 331.44C80.6035 328.162 71.5023 320.884 63.528 310.378L62.7315 310.982ZM84.129 332.225L83.5085 333.009C93.7443 341.106 103.455 346.363 110.745 349.728L111.164 348.82L111.583 347.912C104.4 344.597 94.833 339.417 84.7494 331.44L84.129 332.225ZM111.164 348.82L110.183 348.629C107.232 363.73 105.122 381.281 104.215 400.826L105.214 400.872L106.213 400.918C107.115 381.46 109.216 364.007 112.146 349.012L111.164 348.82ZM105.214 400.872L104.215 400.827C103.866 408.598 103.656 420.452 104.791 435.168L105.788 435.091L106.785 435.014C105.658 420.399 105.866 408.629 106.213 400.917L105.214 400.872ZM105.788 435.091L106.686 434.65C101.569 424.243 94.8986 412.367 86.1487 399.897L85.3301 400.472L84.5116 401.046C93.1929 413.418 99.8125 425.202 104.891 435.532L105.788 435.091ZM85.3301 400.472L86.1485 399.897C77.3295 387.341 68.3877 376.949 60.2661 368.566L59.5479 369.262L58.8297 369.958C66.8871 378.275 75.76 388.586 84.5118 401.046L85.3301 400.472ZM59.5479 369.262L60.2198 368.521C60.2213 368.522 57.5624 366.11 53.5743 361.801C49.5855 357.491 44.2727 351.29 38.9633 343.712C28.3269 328.533 17.7873 307.951 17.7872 286.054H16.7872H15.7872C15.7873 308.555 26.5969 329.549 37.3253 344.86C48.0669 360.19 58.8164 369.948 58.876 370.002L59.5479 369.262ZM16.7872 286.054H17.7872C17.7872 264.737 21.0833 248.648 27.3673 237.395L26.4942 236.907L25.6211 236.42C19.1011 248.095 15.7872 264.574 15.7872 286.054H16.7872ZM26.4942 236.907L27.3602 236.407C18.8268 221.625 6.05332 195.075 2.26297 159.526L1.26861 159.632L0.274246 159.738C4.10374 195.654 17.0085 222.476 25.6281 237.407L26.4942 236.907ZM1.26861 159.632L2.26295 159.526C1.15367 149.143 -2.44373 115.803 11.206 77.0333L10.2627 76.7012L9.3195 76.3691C-4.48277 115.572 -0.84323 149.279 0.274269 159.738L1.26861 159.632ZM10.2627 76.7012L11.2059 77.0336C17.955 57.8869 20.9444 52.5206 21.2793 51.9456L20.4151 51.4424L19.5509 50.9392C19.1208 51.6779 16.082 57.1844 9.31963 76.3687L10.2627 76.7012ZM20.4151 51.4424L19.4203 51.3403C18.0392 64.7973 16.3219 100.034 38.1479 133.491L38.9854 132.944L39.8229 132.398C18.373 99.5171 20.0448 64.845 21.4099 51.5445L20.4151 51.4424ZM38.9854 132.944L38.1474 133.49C46.3081 146.021 55.6776 155.057 63.5688 161.352L64.1924 160.57L64.8161 159.789C57.0504 153.593 47.8414 144.71 39.8234 132.399L38.9854 132.944ZM64.1924 160.57L63.6356 161.401C73.1922 167.807 82.8358 174.126 92.5307 180.357L93.0713 179.516L93.612 178.674C83.927 172.45 74.2942 166.138 64.7492 159.74L64.1924 160.57ZM93.0713 179.516L92.6241 180.41L92.6593 180.428L93.1065 179.533L93.5537 178.639L93.5186 178.621L93.0713 179.516ZM93.1065 179.533L92.2245 179.062C91.5295 180.363 90.7662 181.961 90.022 183.803L90.9493 184.178L91.8765 184.552C92.5936 182.777 93.3267 181.243 93.9885 180.004L93.1065 179.533ZM90.9493 184.178C90.0193 183.81 90.0192 183.81 90.0192 183.81C90.0192 183.81 90.0192 183.81 90.0191 183.811C90.0191 183.811 90.019 183.811 90.0189 183.811C90.0187 183.812 90.0184 183.812 90.0181 183.813C90.0174 183.815 90.0165 183.817 90.0153 183.82C90.0129 183.826 90.0095 183.835 90.005 183.847C89.9962 183.869 89.9833 183.902 89.9668 183.945C89.9338 184.031 89.8862 184.156 89.827 184.314C89.7087 184.631 89.5437 185.083 89.3556 185.629C88.9803 186.716 88.5091 188.186 88.1341 189.695L89.1045 189.937L90.075 190.178C90.4307 188.747 90.8818 187.337 91.2462 186.281C91.428 185.754 91.5872 185.318 91.7006 185.014C91.7572 184.862 91.8024 184.744 91.8332 184.664C91.8486 184.624 91.8603 184.594 91.8681 184.574C91.872 184.564 91.875 184.556 91.8768 184.552C91.8778 184.549 91.8784 184.547 91.8788 184.546C91.8791 184.546 91.8792 184.546 91.8793 184.545C91.8793 184.545 91.8793 184.545 91.8793 184.545C91.8793 184.545 91.8793 184.545 91.8793 184.545C91.8793 184.545 91.8793 184.545 90.9493 184.178ZM89.1045 189.937L88.1332 189.699C85.8743 198.93 86.9959 206.841 88.0608 211.455L89.0352 211.23L90.0096 211.006C88.9869 206.574 87.9162 199 90.0759 190.174L89.1045 189.937ZM89.0352 211.23L88.087 211.548C93.0949 226.501 100.277 233.756 106.276 237.593L106.815 236.751L107.353 235.909C101.766 232.335 94.8567 225.464 89.9834 210.913L89.0352 211.23ZM106.815 236.751L106.275 237.593C108.839 239.234 113.041 241.43 116.567 243.201C118.337 244.09 119.95 244.877 121.119 245.443C121.704 245.726 122.179 245.953 122.507 246.11C122.671 246.188 122.799 246.249 122.886 246.29C122.929 246.311 122.963 246.327 122.985 246.337C122.996 246.343 123.005 246.347 123.01 246.349C123.013 246.351 123.016 246.352 123.017 246.352C123.018 246.353 123.018 246.353 123.019 246.353C123.019 246.353 123.019 246.353 123.019 246.353C123.019 246.353 123.019 246.353 123.446 245.449C123.873 244.545 123.873 244.545 123.873 244.545C123.873 244.545 123.873 244.545 123.873 244.545C123.873 244.545 123.872 244.544 123.871 244.544C123.87 244.543 123.868 244.542 123.865 244.541C123.86 244.539 123.852 244.535 123.841 244.53C123.819 244.519 123.786 244.504 123.744 244.483C123.658 244.443 123.532 244.383 123.369 244.305C123.043 244.15 122.571 243.924 121.99 243.642C120.827 243.08 119.224 242.297 117.465 241.413C113.932 239.639 109.818 237.486 107.354 235.909L106.815 236.751ZM123.446 245.449L124.438 245.322C124.207 243.525 123.485 238.358 119.798 233.631L119.01 234.246L118.221 234.861C121.563 239.145 122.233 243.859 122.455 245.577L123.446 245.449ZM119.01 234.246L119.795 233.626C118.917 232.514 117.486 230.922 115.338 229.404L114.761 230.221L114.184 231.037C116.134 232.415 117.429 233.858 118.225 234.866L119.01 234.246ZM114.761 230.221L114.748 229.221C113.395 229.238 112.607 229.298 112.566 229.301L112.645 230.298L112.723 231.295C112.723 231.295 112.909 231.28 113.259 231.264C113.609 231.247 114.121 231.229 114.773 231.221L114.761 230.221ZM112.645 230.298H113.645V196.078H112.645H111.645V230.298H112.645ZM112.645 196.078V197.078H129.171V196.078V195.078H112.645V196.078ZM129.171 196.078C129.246 197.075 129.247 197.075 129.247 197.075C129.247 197.075 129.247 197.075 129.248 197.075C129.248 197.075 129.249 197.075 129.25 197.075C129.252 197.075 129.254 197.075 129.258 197.074C129.264 197.074 129.274 197.073 129.286 197.072C129.31 197.07 129.345 197.067 129.391 197.063C129.483 197.055 129.617 197.043 129.79 197.025C130.138 196.99 130.645 196.934 131.289 196.849C132.577 196.68 134.418 196.399 136.638 195.947C141.075 195.043 147.047 193.454 153.17 190.71L152.761 189.798L152.352 188.885C146.401 191.552 140.579 193.103 136.239 193.987C134.071 194.429 132.277 194.703 131.029 194.866C130.405 194.948 129.918 195.002 129.588 195.035C129.424 195.052 129.298 195.064 129.215 195.071C129.174 195.075 129.143 195.077 129.123 195.079C129.113 195.08 129.106 195.08 129.101 195.081C129.099 195.081 129.097 195.081 129.096 195.081C129.096 195.081 129.096 195.081 129.095 195.081C129.095 195.081 129.095 195.081 129.095 195.081C129.095 195.081 129.096 195.081 129.171 196.078ZM152.761 189.798L153.17 190.71C159.347 187.942 163.772 184.257 166.655 181.26C168.097 179.761 169.156 178.433 169.857 177.473C170.208 176.994 170.469 176.606 170.645 176.335C170.733 176.199 170.799 176.093 170.845 176.018C170.868 175.981 170.885 175.952 170.897 175.932C170.903 175.921 170.908 175.913 170.912 175.907C170.914 175.904 170.915 175.902 170.916 175.9C170.917 175.899 170.917 175.898 170.918 175.897C170.918 175.897 170.918 175.896 170.918 175.896C170.918 175.896 170.919 175.896 170.054 175.394C169.189 174.892 169.189 174.891 169.189 174.891C169.189 174.891 169.189 174.891 169.189 174.891C169.189 174.891 169.189 174.891 169.189 174.891C169.189 174.891 169.189 174.892 169.188 174.893C169.186 174.896 169.184 174.901 169.18 174.907C169.171 174.921 169.158 174.943 169.14 174.973C169.103 175.034 169.045 175.126 168.967 175.247C168.81 175.488 168.57 175.845 168.242 176.293C167.587 177.189 166.586 178.447 165.214 179.873C162.469 182.726 158.248 186.243 152.352 188.885L152.761 189.798ZM170.054 175.394H171.054V93.5596H170.054H169.054V175.394H170.054ZM170.054 93.5596C171.054 93.5752 171.054 93.5751 171.054 93.575C171.054 93.575 171.054 93.5749 171.054 93.5747C171.054 93.5744 171.054 93.574 171.054 93.5734C171.054 93.5723 171.054 93.5707 171.054 93.5685C171.054 93.5641 171.054 93.5576 171.054 93.549C171.054 93.5318 171.055 93.5063 171.055 93.4728C171.056 93.4059 171.058 93.3072 171.059 93.1797C171.063 92.9247 171.068 92.5547 171.073 92.0943C171.084 91.1736 171.097 89.8908 171.106 88.4424C171.123 85.549 171.123 81.982 171.053 79.3204L170.054 79.3467L169.054 79.373C169.123 82 169.123 85.5395 169.106 88.4304C169.097 89.8741 169.084 91.1529 169.073 92.0707C169.068 92.5296 169.063 92.8982 169.06 93.1519C169.058 93.2788 169.056 93.3769 169.055 93.4433C169.055 93.4765 169.055 93.5017 169.054 93.5186C169.054 93.5271 169.054 93.5334 169.054 93.5377C169.054 93.5398 169.054 93.5414 169.054 93.5424C169.054 93.543 169.054 93.5434 169.054 93.5436C169.054 93.5437 169.054 93.5438 169.054 93.5439C169.054 93.544 169.054 93.544 170.054 93.5596ZM170.054 79.3467L171.053 79.3204C170.9 73.4779 167.121 70.6812 163.082 67.9419L162.521 68.7695L161.959 69.5972C166.026 72.355 168.93 74.6385 169.054 79.373L170.054 79.3467ZM162.521 68.7695L163.082 67.9419C161.788 67.0643 160.381 66.973 159.084 67.278C157.814 67.5766 156.619 68.2583 155.621 68.9819C154.614 69.7117 153.751 70.5256 153.145 71.1505C152.84 71.4645 152.596 71.7345 152.427 71.9276C152.343 72.0242 152.277 72.1018 152.231 72.1564C152.208 72.1836 152.191 72.2051 152.178 72.2204C152.172 72.228 152.167 72.2341 152.163 72.2385C152.161 72.2408 152.16 72.2426 152.159 72.244C152.158 72.2447 152.158 72.2453 152.157 72.2458C152.157 72.246 152.157 72.2463 152.157 72.2464C152.157 72.2467 152.156 72.2469 152.935 72.875C153.713 73.5031 153.713 73.5033 153.712 73.5034C153.712 73.5035 153.712 73.5036 153.712 73.5036C153.712 73.5037 153.712 73.5037 153.712 73.5035C153.713 73.5033 153.713 73.5026 153.714 73.5015C153.716 73.4994 153.719 73.4957 153.723 73.4904C153.732 73.4799 153.746 73.4633 153.764 73.441C153.801 73.3965 153.858 73.3295 153.933 73.2441C154.083 73.0731 154.303 72.8291 154.58 72.5435C155.137 71.9692 155.912 71.2412 156.794 70.6012C157.686 69.9548 158.634 69.4383 159.542 69.2249C160.422 69.0178 161.227 69.1004 161.959 69.5972L162.521 68.7695ZM152.935 72.875V71.875H146.168V72.875V73.875H152.935V72.875ZM146.168 72.875L147.158 72.7309L144.679 55.7133L143.69 55.8574L142.7 56.0015L145.178 73.0191L146.168 72.875ZM143.69 55.8574L144.102 54.9467C144.044 54.9203 144.007 54.9018 143.988 54.8921C143.978 54.8872 143.973 54.8846 143.973 54.8842C143.972 54.8841 143.973 54.8845 143.975 54.8855C143.976 54.886 143.977 54.8866 143.979 54.8874C143.979 54.8878 143.98 54.8883 143.981 54.8887C143.981 54.889 143.982 54.8892 143.982 54.8895C143.982 54.8896 143.983 54.8897 143.983 54.8899C143.983 54.8899 143.983 54.89 143.983 54.8901C143.983 54.8901 143.983 54.8902 143.983 54.8902C143.983 54.8902 143.984 54.8903 143.484 55.7568C142.985 56.6234 142.985 56.6234 142.986 56.6235C142.986 56.6235 142.986 56.6236 142.986 56.6236C142.986 56.6237 142.986 56.6237 142.986 56.6238C142.986 56.6239 142.987 56.6241 142.987 56.6242C142.987 56.6245 142.988 56.6248 142.988 56.6251C142.989 56.6257 142.991 56.6264 142.992 56.6271C142.994 56.6284 142.997 56.6299 143 56.6315C143.005 56.6347 143.012 56.6384 143.02 56.6426C143.035 56.651 143.055 56.6613 143.079 56.6735C143.126 56.6979 143.192 56.7297 143.277 56.7682L143.69 55.8574ZM143.484 55.7568C144.181 56.4742 144.181 56.4743 144.181 56.4743C144.181 56.4743 144.181 56.4743 144.181 56.4743C144.181 56.4743 144.181 56.4743 144.181 56.4742C144.181 56.4741 144.181 56.474 144.182 56.4737C144.182 56.4733 144.183 56.4725 144.184 56.4715C144.186 56.4695 144.189 56.4663 144.194 56.4619C144.203 56.4533 144.216 56.44 144.235 56.4221C144.272 56.3864 144.328 56.3323 144.404 56.2598C144.556 56.1147 144.787 55.8957 145.099 55.602C145.723 55.0146 146.674 54.1286 147.979 52.9378L147.305 52.1992L146.631 51.4607C145.319 52.6581 144.36 53.5509 143.728 54.1453C143.412 54.4425 143.178 54.6651 143.023 54.8138C142.945 54.8882 142.887 54.9441 142.848 54.9817C142.828 55.0005 142.813 55.0147 142.803 55.0243C142.798 55.0291 142.795 55.0328 142.792 55.0353C142.791 55.0366 142.79 55.0375 142.789 55.0382C142.789 55.0386 142.788 55.0388 142.788 55.039C142.788 55.0391 142.788 55.0392 142.788 55.0393C142.788 55.0393 142.788 55.0394 142.788 55.0394C142.788 55.0394 142.788 55.0394 143.484 55.7568ZM147.305 52.1992L147.994 52.9234L160.392 41.1187L159.702 40.3945L159.013 39.6703L146.615 51.475L147.305 52.1992ZM159.702 40.3945L160.391 41.1191C174.733 27.4766 184.816 6.13163 186.959 1.37668L186.047 0.96582L185.135 0.554958C182.997 5.3004 173.046 26.3211 159.013 39.67L159.702 40.3945ZM186.047 0.96582H187.047V0.0390625H186.047H185.047V0.96582H186.047ZM186.047 0.0390625L185.129 0.434896C185.161 0.50999 185.234 0.67509 185.338 0.908279L186.252 0.50293L187.166 0.0975802C187.058 -0.145955 186.992 -0.294338 186.965 -0.356771L186.047 0.0390625ZM186.252 0.50293L187.166 0.908284C187.269 0.675288 187.343 0.510224 187.375 0.434911L186.457 0.0390625L185.539 -0.356786C185.512 -0.294119 185.446 -0.145727 185.338 0.0975755L186.252 0.50293ZM186.457 0.0390625L185.457 0.0380065L185.456 0.962811L186.456 0.963867L187.456 0.964923L187.457 0.0401185L186.457 0.0390625ZM352.115 51.4639L353.017 51.0314C353.011 51.02 353.006 51.0079 352.998 50.9917C352.991 50.9767 352.982 50.9576 352.973 50.9382L352.071 51.3711L351.17 51.804C351.175 51.8152 351.181 51.8273 351.189 51.8433C351.195 51.8581 351.204 51.8771 351.214 51.8963L352.115 51.4639ZM352.071 51.3711V52.3711H352.107V51.3711V50.3711H352.071V51.3711ZM352.107 51.3711L351.112 51.4737C351.113 51.4819 351.113 51.4913 351.115 51.5078C351.116 51.5221 351.118 51.5436 351.121 51.5658L352.115 51.4639L353.11 51.3619C353.109 51.3533 353.108 51.3437 353.107 51.327C353.105 51.3125 353.104 51.2909 353.101 51.2685L352.107 51.3711ZM20.4151 51.4424L21.4099 51.5445C21.4105 51.5385 21.4113 51.5315 21.4127 51.5189C21.4139 51.5079 21.4158 51.4911 21.4176 51.4737L20.4229 51.3711L19.4282 51.2685C19.4276 51.2746 19.4268 51.2816 19.4253 51.2945C19.4241 51.3057 19.4221 51.3226 19.4203 51.3403L20.4151 51.4424ZM20.4229 51.3711V52.3711H20.4571V51.3711V50.3711H20.4229V51.3711ZM20.4571 51.3711C19.6009 50.8545 19.6009 50.8545 19.6009 50.8545C19.6009 50.8545 19.6008 50.8545 19.6008 50.8545C19.6008 50.8545 19.6008 50.8546 19.6008 50.8546C19.6008 50.8546 19.6008 50.8547 19.6007 50.8547C19.6007 50.8548 19.6006 50.8549 19.6006 50.855C19.6005 50.8552 19.6003 50.8554 19.6002 50.8556C19.5999 50.8561 19.5996 50.8566 19.5992 50.8573C19.5984 50.8586 19.5974 50.8602 19.5962 50.8623C19.5938 50.8663 19.5905 50.8718 19.5864 50.8788C19.5781 50.8928 19.5663 50.9128 19.5509 50.9392L20.4151 51.4424L21.2793 51.9456C21.2921 51.9235 21.3014 51.9078 21.307 51.8983C21.3098 51.8935 21.3117 51.8903 21.3128 51.8886C21.3133 51.8877 21.3136 51.8872 21.3137 51.8871C21.3137 51.887 21.3137 51.887 21.3137 51.8871C21.3136 51.8872 21.3136 51.8873 21.3135 51.8874C21.3135 51.8874 21.3135 51.8875 21.3134 51.8875C21.3134 51.8876 21.3134 51.8876 21.3134 51.8876C21.3133 51.8876 21.3133 51.8877 21.3133 51.8877C21.3133 51.8877 21.3133 51.8877 21.3133 51.8877C21.3133 51.8877 21.3133 51.8877 20.4571 51.3711ZM186.047 0.0390625L186.965 -0.356771C186.957 -0.377021 186.949 -0.393647 186.943 -0.406569C186.94 -0.412979 186.938 -0.417989 186.937 -0.420771C186.936 -0.422866 186.936 -0.42169 186.937 -0.420783C186.937 -0.420171 186.938 -0.417851 186.939 -0.414759C186.94 -0.413143 186.941 -0.410582 186.943 -0.407412C186.944 -0.404502 186.946 -0.399253 186.949 -0.39263L186.029 0L185.11 0.39263C185.113 0.399366 185.115 0.404749 185.116 0.407815C185.118 0.411142 185.119 0.41388 185.12 0.415696C185.121 0.419187 185.123 0.421993 185.123 0.423179C185.124 0.424558 185.124 0.425744 185.125 0.426282C185.125 0.426599 185.125 0.426902 185.125 0.427108C185.125 0.427345 185.125 0.427496 185.125 0.427658C185.126 0.428569 185.126 0.428652 185.126 0.428743C185.126 0.42882 185.127 0.430826 185.129 0.434896L186.047 0.0390625ZM186.029 0V1H186.047V0V-1H186.029V0ZM186.047 0H185.047V0.0390625H186.047H187.047V0H186.047ZM186.457 0.0390625L187.457 0.0640547L187.458 0.0249922L186.458 0L185.458 -0.0249922L185.457 0.0140703L186.457 0.0390625ZM186.458 0V1H186.476V0V-1H186.458V0ZM186.476 0L185.556 -0.392636C185.562 -0.407027 185.567 -0.418389 185.57 -0.424782C185.574 -0.431715 185.576 -0.437323 185.578 -0.440916C185.581 -0.447792 185.584 -0.453033 185.585 -0.454645C185.586 -0.45577 185.586 -0.456649 185.586 -0.457144C185.587 -0.457647 185.587 -0.457999 185.587 -0.458073C185.587 -0.458135 185.587 -0.458152 185.587 -0.457906C185.587 -0.457724 185.586 -0.457348 185.586 -0.456935C185.584 -0.452857 185.58 -0.444779 185.575 -0.434402C185.564 -0.413433 185.552 -0.387543 185.539 -0.356786L186.457 0.0390625L187.375 0.434911C187.373 0.44116 187.369 0.448444 187.365 0.456471C187.364 0.458344 187.364 0.460027 187.363 0.461452C187.362 0.462852 187.362 0.463846 187.362 0.46381C187.362 0.463765 187.362 0.463704 187.362 0.46347C187.362 0.463301 187.362 0.46289 187.362 0.462456C187.363 0.461785 187.364 0.459646 187.365 0.457053C187.366 0.454869 187.369 0.449142 187.373 0.441865C187.375 0.438071 187.377 0.432283 187.381 0.425193C187.384 0.418642 187.389 0.407143 187.395 0.392636L186.476 0Z" fill="#BFBFBF" mask="url(#path-1-inside-1_2058_1555)"/>
</g>
</svg>
