<svg width="64" height="64" viewBox="0 0 64 64" fill="none" xmlns="http://www.w3.org/2000/svg">
<path d="M51.2667 58.1331L43 49.8664L38.5333 54.3331C37.6889 55.1775 36.9 55.2775 36.1667 54.6331C35.4333 53.9886 34.8 53.3997 34.2667 52.8664C33.5111 52.1109 33.1333 51.1775 33.1333 50.0664C33.1333 48.9553 33.5111 48.022 34.2667 47.2664L47.5333 33.9997C48.2889 33.2442 49.2222 32.8664 50.3333 32.8664C51.4444 32.8664 52.3778 33.2442 53.1333 33.9997C53.6667 34.5331 54.2556 35.1664 54.9 35.8997C55.5444 36.6331 55.4444 37.422 54.6 38.2664L50.1333 42.7331L58.3333 50.9997C58.7333 51.3997 58.9333 51.8664 58.9333 52.3997C58.9333 52.9331 58.7333 53.3997 58.3333 53.7997L54.0667 58.1331C53.6667 58.5331 53.2 58.7331 52.6667 58.7331C52.1333 58.7331 51.6667 58.5331 51.2667 58.1331ZM58.0667 16.3331L28.4667 45.9331L29.7333 47.2664C31.0667 48.5997 31.4 49.8664 30.7333 51.0664C30.0667 52.2664 29.2444 53.3553 28.2667 54.3331C27.8667 54.7331 27.4 54.9331 26.8667 54.9331C26.3333 54.9331 25.8667 54.7331 25.4667 54.3331L21 49.8664L12.7333 58.1331C12.3333 58.5331 11.8667 58.7331 11.3333 58.7331C10.8 58.7331 10.3333 58.5331 9.93333 58.1331L5.6 53.7997C5.2 53.3997 5 52.9331 5 52.3997C5 51.8664 5.2 51.3997 5.6 50.9997L13.8667 42.7331L9.4 38.2664C9 37.8664 8.8 37.3997 8.8 36.8664C8.8 36.3331 9 35.8664 9.4 35.4664C10.3778 34.4886 11.4667 33.6664 12.6667 32.9997C13.8667 32.3331 15.1333 32.6664 16.4667 33.9997L17.8 35.2664L46.8 6.26641C47.1556 5.91085 47.5889 5.62196 48.1 5.39974C48.6111 5.17752 49.1333 5.06641 49.6667 5.06641H56.6667C57.2444 5.06641 57.7222 5.2553 58.1 5.63307C58.4778 6.01085 58.6667 6.48863 58.6667 7.06641V14.9331C58.6667 15.1997 58.6222 15.4442 58.5333 15.6664C58.4444 15.8886 58.2889 16.1109 58.0667 16.3331ZM17.1333 27.5331L6.53333 16.9331C6.17778 16.5775 5.88889 16.1442 5.66667 15.6331C5.44444 15.122 5.33333 14.5997 5.33333 14.0664V7.06641C5.33333 6.48863 5.52222 6.01085 5.9 5.63307C6.27778 5.2553 6.75556 5.06641 7.33333 5.06641H14.3333C14.8667 5.06641 15.3889 5.17752 15.9 5.39974C16.4111 5.62196 16.8444 5.91085 17.2 6.26641L27.8 16.8664C28.2 17.2664 28.4 17.7331 28.4 18.2664C28.4 18.7997 28.2 19.2664 27.8 19.6664C27.4 20.0664 26.9333 20.2664 26.4 20.2664C25.8667 20.2664 25.4 20.0664 25 19.6664L14.3333 9.06641H9.33333V14.0664L19.9333 24.7331C20.3333 25.1331 20.5333 25.5997 20.5333 26.1331C20.5333 26.6664 20.3333 27.1331 19.9333 27.5331C19.5333 27.9331 19.0667 28.1331 18.5333 28.1331C18 28.1331 17.5333 27.9331 17.1333 27.5331ZM25.5333 43.0664L54.6667 14.0664V9.06641H49.6667L20.5333 38.0664L25.5333 43.0664Z" fill="#191919"/>
</svg>
