<svg width="64" height="64" viewBox="0 0 64 64" fill="none" xmlns="http://www.w3.org/2000/svg">
<path d="M19.4667 30.267C20.2667 28.667 21.1222 27.0892 22.0333 25.5337C22.9444 23.9781 23.9111 22.4892 24.9333 21.067L19.6667 20.0003L12.4 27.267L19.4667 30.267ZM53.8 9.46701C49.2667 9.68923 45.1778 10.6559 41.5333 12.367C37.8889 14.0781 34.3333 16.667 30.8667 20.1337C29.4889 21.5114 28.0667 23.3114 26.6 25.5337C25.1333 27.7559 23.8222 30.1337 22.6667 32.667L31.5333 41.5337C34.0667 40.3781 36.4444 39.067 38.6667 37.6003C40.8889 36.1337 42.6889 34.7115 44.0667 33.3337C47.5333 29.867 50.1222 26.3226 51.8333 22.7003C53.5444 19.0781 54.5111 15.0003 54.7333 10.467C54.7333 10.3337 54.7111 10.2003 54.6667 10.067C54.6222 9.93367 54.5556 9.82256 54.4667 9.73367C54.3778 9.64478 54.2778 9.57812 54.1667 9.53367C54.0556 9.48923 53.9333 9.46701 53.8 9.46701ZM38 26.267C37.1111 25.3781 36.6667 24.2781 36.6667 22.967C36.6667 21.6559 37.1111 20.5559 38 19.667C38.8889 18.7781 39.9889 18.3337 41.3 18.3337C42.6111 18.3337 43.7111 18.7781 44.6 19.667C45.4889 20.5559 45.9333 21.6559 45.9333 22.967C45.9333 24.2781 45.4889 25.3781 44.6 26.267C43.7111 27.1559 42.6111 27.6003 41.3 27.6003C39.9889 27.6003 38.8889 27.1559 38 26.267ZM33.9333 44.8003L36.9333 51.8003L44.2 44.5337L43.2 39.267C41.7778 40.2892 40.2778 41.267 38.7 42.2003C37.1222 43.1337 35.5333 44.0003 33.9333 44.8003ZM58.8 7.53367C58.9333 13.0892 58.0333 18.2114 56.1 22.9003C54.1667 27.5892 51.1111 32.0226 46.9333 36.2003C46.8889 36.2448 46.8444 36.2781 46.8 36.3003C46.7556 36.3226 46.7111 36.3559 46.6667 36.4003L48.1333 43.7337C48.2667 44.4003 48.2444 45.0448 48.0667 45.667C47.8889 46.2892 47.5556 46.8448 47.0667 47.3337L37.6667 56.7337C37.1778 57.2226 36.5889 57.4003 35.9 57.267C35.2111 57.1337 34.7333 56.7337 34.4667 56.067L29.9333 45.6003L18.6667 34.267L8.13333 29.8003C7.46667 29.5337 7.07778 29.0448 6.96667 28.3337C6.85556 27.6226 7.04444 27.0226 7.53333 26.5337L16.8667 17.2003C17.3556 16.7114 17.9111 16.367 18.5333 16.167C19.1556 15.967 19.8 15.9337 20.4667 16.067L27.8 17.5337C27.8444 17.4892 27.8889 17.4559 27.9333 17.4337C27.9778 17.4114 28.0222 17.3781 28.0667 17.3337C32.2444 13.1559 36.6667 10.1003 41.3333 8.16701C46 6.23367 51.1111 5.33367 56.6667 5.467C56.9333 5.467 57.1889 5.52256 57.4333 5.63367C57.6778 5.74478 57.9111 5.91145 58.1333 6.13367C58.3556 6.35589 58.5222 6.57812 58.6333 6.80034C58.7444 7.02256 58.8 7.267 58.8 7.53367ZM9.93333 42.3337C11.4889 40.7781 13.3889 39.9892 15.6333 39.967C17.8778 39.9448 19.7778 40.7115 21.3333 42.267C22.8889 43.8226 23.6556 45.7226 23.6333 47.967C23.6111 50.2115 22.8222 52.1115 21.2667 53.667C19.1778 55.7559 16.6778 57.0115 13.7667 57.4337C10.8556 57.8559 7.93333 58.267 5 58.667L6.2 49.867C6.6 46.9337 7.84444 44.4226 9.93333 42.3337ZM12.7333 45.2003C11.6667 46.3559 10.9778 47.6892 10.6667 49.2003C10.3556 50.7115 10.0667 52.2448 9.8 53.8003C11.3556 53.5337 12.8889 53.2448 14.4 52.9337C15.9111 52.6226 17.2444 51.9337 18.4 50.867C19.2889 50.1115 19.7333 49.167 19.7333 48.0337C19.7333 46.9003 19.3333 45.9114 18.5333 45.067C17.6889 44.267 16.7 43.867 15.5667 43.867C14.4333 43.867 13.4889 44.3115 12.7333 45.2003Z" fill="#191919"/>
</svg>
