<svg width="162" height="138" viewBox="0 0 162 138" fill="none" xmlns="http://www.w3.org/2000/svg">
<g clip-path="url(#clip0_2058_1575)">
<path d="M101.349 33.7512C110.675 33.7512 118.235 26.1957 118.235 16.8756C118.235 7.55546 110.675 0 101.349 0C92.023 0 84.4629 7.55546 84.4629 16.8756C84.4629 26.1957 92.023 33.7512 101.349 33.7512Z" fill="#C2B8FF"/>
<path d="M119.303 27.3182L161.878 16.1897L119.303 5.32129C119.303 5.32129 122.638 11.0683 122.411 16.3336C122.15 22.3464 119.303 27.3182 119.303 27.3182Z" fill="#C2B8FF"/>
<path d="M110.516 37.5493C106.433 35.617 101.608 36.3811 98.4054 36.6911C95.4471 36.979 89.5304 38.5625 84.5111 41.8734C79.4919 45.1843 74.8438 45.2064 72.6112 44.8023C70.3786 44.3981 63.027 26.0608 60.9384 24.8151C53.5148 20.3692 52.994 31.7469 59.6864 44.5697C66.3787 57.3925 70.4229 59.3414 77.2593 57.9517C81.7744 57.0326 84.8158 56.5731 86.4113 56.9773L74.8992 122.104H87.259C87.198 128.516 87.1592 132.729 87.1592 132.729C87.1592 132.729 83.6746 133.632 81.719 135.304C79.7633 136.976 91.3419 138.354 93.9901 136.826C96.5108 135.376 100.876 123.295 101.303 122.099H104.311L108.494 132.452C108.494 132.452 103.247 134.462 102.666 136.273C102.078 138.083 111.701 138.764 114.355 136.821C115.042 136.317 115.773 130.542 116.41 122.093H137.163C137.169 122.104 127.59 41.4581 110.516 37.5493Z" fill="#C2B8FF"/>
</g>
<path d="M31.9746 12.8578L33.9078 10.793L35.7665 12.8578L33.9078 15.2137L31.9746 12.8578Z" fill="#C2B8FF"/>
<path d="M0 3.1043L2.90629 0L5.70065 3.1043L2.90629 6.64604L0 3.1043Z" fill="#C2B8FF"/>
<path d="M16.9023 45.7109L22.8853 39.3203L28.6378 45.7109L22.8853 53.002L16.9023 45.7109Z" fill="#C2B8FF"/>
<defs>
<clipPath id="clip0_2058_1575">
<rect width="106.872" height="138" fill="white" transform="translate(55)"/>
</clipPath>
</defs>
</svg>
