<svg width="209" height="192" viewBox="0 0 209 192" fill="none" xmlns="http://www.w3.org/2000/svg">
<path d="M110.906 57.4578C123.822 44.545 143.564 64.07 130.851 77.1461C117.982 90.3855 97.9266 70.4309 110.906 57.4578Z" fill="white"/>
<path d="M84.4568 53.8702C107.611 49.9838 106.475 84.376 85.5676 81.1579C70.284 78.8065 70.681 56.1839 84.4568 53.8702Z" fill="white"/>
<path d="M86.4763 110.668C102.539 108.709 108.263 132.911 92.0248 137.82C72.7809 143.639 66.4835 113.108 86.4763 110.668Z" fill="white"/>
<path d="M67.8676 82.5188C88.6946 79.0218 90.808 107.706 73.1472 109.902C54.7627 112.186 52.4307 85.1114 67.8676 82.5188Z" fill="white"/>
<path d="M135.729 82.024C147.569 80.5945 155.88 94.2032 148.622 103.956C142.629 112.007 130.328 111.553 125.282 102.757C120.307 94.0801 125.933 83.2047 135.729 82.024Z" fill="white"/>
<path d="M119.145 110.664C137.477 108.269 140.382 135.886 123.497 138.122C103.68 140.747 101.63 112.95 119.145 110.664Z" fill="white"/>
<path d="M54.3092 116.169C63.2024 114.865 67.2407 127.428 59.4883 131.415C47.6399 137.512 42.1793 117.947 54.3092 116.169Z" fill="white"/>
<path d="M103.58 31.2533C111.875 30.4344 115.858 41.978 108.563 46.3216C96.8274 53.3106 90.3642 32.5572 103.58 31.2533Z" fill="white"/>
<path d="M103.077 144.304C108.92 143.741 113.506 149.677 111.458 155.237C109.003 161.899 100.303 162.542 96.7223 156.43C93.7696 151.386 97.554 144.836 103.077 144.304Z" fill="white"/>
<path d="M152.319 59.3763C161.393 58.1252 165.195 71.6586 156.45 75.1003C144.911 79.6424 140.548 60.9992 152.319 59.3763Z" fill="white"/>
<path d="M49.5811 73.6789C41.492 65.592 55.2075 53.4957 61.9798 63.0421C67.9103 71.4003 56.2679 80.3639 49.5811 73.6789Z" fill="white"/>
<path d="M147.578 129.957C140.866 123.247 149.787 111.601 158.218 117.562C167.576 124.182 155.695 138.069 147.578 129.957Z" fill="white"/>
<path d="M138.725 25.7283C151.337 22.8392 149.97 42.5953 138.503 38.7993C132.053 36.6639 133.081 27.022 138.725 25.7283Z" fill="white"/>
<path d="M139.236 152.857C149.667 150.694 150.885 164.868 142.515 166.189C133.406 167.626 131.413 154.477 139.236 152.857Z" fill="white"/>
<path d="M176.438 89.042C186.741 87.4066 187.696 103.442 176.82 102.492C169.189 101.827 168.94 90.2303 176.438 89.042Z" fill="white"/>
<path d="M62.6482 37.5091C56.1473 30.9523 66.5884 20.6597 72.7979 28.116C78.8088 35.3361 68.2495 43.1566 62.6482 37.5091Z" fill="white"/>
<path d="M66.3587 152.857C75.7947 151.146 77.2673 164.333 70.0502 166.086C59.7498 168.591 57.8827 154.394 66.3587 152.857Z" fill="white"/>
<path d="M29.1655 89.5464C40.4259 87.205 40.6797 104.168 30.1129 102.964C22.4887 102.095 22.4057 90.9532 29.1655 89.5464Z" fill="white"/>
<path d="M99.8391 190.248C94.2303 184.369 104.257 176.38 108.72 183.131C112.66 189.092 104.418 195.049 99.8391 190.248Z" fill="white"/>
<path d="M181.978 135.254C189.466 134.232 190.479 146.004 183.302 146.705C176.067 147.411 174.549 136.269 181.978 135.254Z" fill="white"/>
<path d="M30.1417 46.8933C35.944 52.694 25.7591 61.336 21.3414 53.935C17.8711 48.1218 25.5405 42.2934 30.1417 46.8933Z" fill="white"/>
<path d="M103.061 0.101507C111.107 -1.20485 112.208 10.5147 104.719 11.3286C97.698 12.0898 96.2279 1.21191 103.061 0.101507Z" fill="white"/>
<path d="M180.433 45.3208C189.583 43.2306 190.784 55.8269 182.823 56.2841C176.013 56.676 175.048 46.5492 180.433 45.3208Z" fill="white"/>
<path d="M25.1612 135.758C32.9638 134.492 33.7754 145.211 28.4279 146.578C19.4443 148.877 18.2129 136.886 25.1612 135.758Z" fill="white"/>
<path d="M53.2863 5.61631C59.9279 4.15169 60.8778 14.2106 54.6432 14.5573C49.5646 14.8387 48.1825 6.74178 53.2863 5.61631Z" fill="white"/>
<path d="M207.053 92.604C211.697 97.6812 203.133 103.472 199.974 97.9299C197.185 93.0361 203.975 89.2376 207.053 92.604Z" fill="white"/>
<path d="M157.3 6.68912C161.519 11.3041 153.674 17.4012 150.196 12.0376C147.07 7.21669 154.011 3.08911 157.3 6.68912Z" fill="white"/>
<path d="M153.814 177.46C159.614 176.894 160.727 186.473 154.188 186.416C148.971 186.368 148.348 177.995 153.814 177.46Z" fill="white"/>
<path d="M51.5758 179.028C54.6491 175.667 61.439 179.443 58.6547 184.354C55.4382 190.029 47.1631 183.852 51.5758 179.028Z" fill="white"/>
<path d="M3.5313 92.0506C11.5098 90.2543 10.9419 102.74 3.14431 100.258C-0.386347 99.135 -0.240597 92.8997 3.5313 92.0506Z" fill="white"/>
</svg>
