<svg width="289" height="183" viewBox="0 0 289 183" fill="none" xmlns="http://www.w3.org/2000/svg">
<path d="M115.811 68.5283L139.232 90.2144L144.436 171.754L115.811 68.5283Z" fill="#22BFB0"/>
<path d="M139.23 90.2139L144.435 171.754L162.539 104.431L139.23 90.2139Z" fill="#30DBCE"/>
<path d="M139.23 90.2144L172.193 68.5283L162.539 104.432L139.23 90.2144Z" fill="#59EDE0"/>
<path d="M115.811 68.5283H172.195L139.232 90.2144L115.811 68.5283Z" fill="#7FF4E3"/>
<path d="M115.811 68.528L132.899 45.2197L141.947 68.528H115.811Z" fill="#30DBCE"/>
<path d="M141.951 68.5275L154.807 44.0742L172.199 68.5275H141.951Z" fill="#59EDE0"/>
<path d="M132.896 45.22L141.944 68.5282L154.799 44.0749L144.434 29.4932L132.896 45.22Z" fill="#6BFDEE"/>
<path d="M122.308 117.972L70.0527 68.5273H99.7541L122.308 117.972Z" fill="#59EDE0"/>
<path d="M70.0547 68.5279L52.4629 36.042L99.7561 68.5279H70.0547Z" fill="#6BFDEE"/>
<path d="M70.0529 68.5279L21.4238 55.2299L52.461 36.042L70.0529 68.5279Z" fill="#59EDE0"/>
<path d="M52.4631 36.0424L0 0L37.6124 45.22L52.4631 36.0424Z" fill="#6BFDEE"/>
<path d="M0 0L21.4259 55.2303L37.6124 45.22L0 0Z" fill="#30DBCE"/>
<path d="M21.4238 55.2295L39.033 100.623L79.9851 77.9305L70.0528 68.5274L21.4238 55.2295Z" fill="#22BFB0"/>
<path d="M39.0352 100.624L122.31 117.973L79.9873 77.9316L39.0352 100.624Z" fill="#049E96"/>
<path d="M101.282 159.289L88.166 123.177L116.219 141.506L111.604 155.316L101.282 159.289Z" fill="#30DBCE"/>
<path d="M88.166 123.177L122.309 123.264L116.219 141.506L88.166 123.177Z" fill="#59EDE0"/>
<path d="M101.282 159.288L54.9604 165.1L41.2461 182.406L101.282 159.288Z" fill="#049E96"/>
<path d="M88.1687 123.177L80.674 161.874L54.9629 165.1L88.1687 123.177Z" fill="#22BFB0"/>
<path d="M88.1666 123.177L80.6719 161.874L101.282 159.289L88.1666 123.177Z" fill="#59EDE0"/>
<path d="M166.549 117.972L218.812 68.5273H189.102L166.549 117.972Z" fill="#59EDE0"/>
<path d="M218.815 68.5279L236.407 36.042L189.105 68.5279H218.815Z" fill="#6BFDEE"/>
<path d="M218.814 68.5279L267.443 55.2299L236.406 36.042L218.814 68.5279Z" fill="#59EDE0"/>
<path d="M236.406 36.0424L288.861 0L251.248 45.22L236.406 36.0424Z" fill="#6BFDEE"/>
<path d="M288.862 0L267.445 55.2303L251.25 45.22L288.862 0Z" fill="#30DBCE"/>
<path d="M267.44 55.2295L249.822 100.623L208.879 77.9305L218.811 68.5274L267.44 55.2295Z" fill="#22BFB0"/>
<path d="M249.824 100.624L166.549 117.973L208.88 77.9316L249.824 100.624Z" fill="#049E96"/>
<path d="M187.586 159.289L200.702 123.177L172.648 141.506L177.255 155.316L187.586 159.289Z" fill="#30DBCE"/>
<path d="M200.7 123.177L166.549 123.264L172.647 141.506L200.7 123.177Z" fill="#59EDE0"/>
<path d="M187.588 159.288L233.909 165.1L247.624 182.406L187.588 159.288Z" fill="#049E96"/>
<path d="M200.699 123.177L208.185 161.874L233.905 165.1L200.699 123.177Z" fill="#22BFB0"/>
<path d="M200.704 123.177L208.19 161.874L187.588 159.289L200.704 123.177Z" fill="#59EDE0"/>
</svg>
