<svg width="1000" height="200" viewBox="0 0 1000 200" fill="none" xmlns="http://www.w3.org/2000/svg">
<g clip-path="url(#clip0_1596_1024)">
<mask id="path-1-inside-1_1596_1024" fill="white">
<path d="M976.001 0C989.256 0 1000 10.7452 1000 24V976C1000 989.255 989.256 1000 976.001 1000H24C10.7452 1000 1.12752e-07 989.255 0 976V170.998C0 157.743 10.7452 146.998 24 146.998H184.333C197.588 146.998 208.333 136.253 208.333 122.998V24C208.333 10.7452 219.078 0 232.333 0H976.001Z"/>
</mask>
<path d="M976.001 0C989.256 0 1000 10.7452 1000 24V976C1000 989.255 989.256 1000 976.001 1000H24C10.7452 1000 1.12752e-07 989.255 0 976V170.998C0 157.743 10.7452 146.998 24 146.998H184.333C197.588 146.998 208.333 136.253 208.333 122.998V24C208.333 10.7452 219.078 0 232.333 0H976.001Z" fill="#5438DC"/>
<path d="M1000 24L1001 24L1000 24ZM0 976L-1 976L0 976ZM976.001 0V1C988.704 1 999.001 11.2975 999.001 24L1000 24L1001 24C1001 10.1929 989.808 -1 976.001 -1V0ZM1000 24H999.001V976H1000H1001V24H1000ZM1000 976H999.001C999.001 988.703 988.704 999 976.001 999V1000V1001C989.808 1001 1001 989.807 1001 976H1000ZM976.001 1000V999H24V1000V1001H976.001V1000ZM24 1000V999C11.2975 999 1 988.703 1 976L0 976L-1 976C-1 989.807 10.1929 1001 24 1001V1000ZM0 976H1V170.998H0H-1V976H0ZM24 146.998V147.998H184.333V146.998V145.998H24V146.998ZM208.333 122.998H209.333V24H208.333H207.333V122.998H208.333ZM232.333 0V1H976.001V0V-1H232.333V0ZM208.333 24H209.333C209.333 11.2975 219.63 1 232.333 1V0V-1C218.526 -1 207.333 10.1929 207.333 24H208.333ZM184.333 146.998V147.998C198.14 147.998 209.333 136.805 209.333 122.998H208.333H207.333C207.333 135.701 197.036 145.998 184.333 145.998V146.998ZM0 170.998H1C1 158.295 11.2974 147.998 24 147.998V146.998V145.998C10.1929 145.998 -1 157.191 -1 170.998H0Z" fill="#5438DC" mask="url(#path-1-inside-1_1596_1024)"/>
</g>
<defs>
<clipPath id="clip0_1596_1024">
<rect width="1000" height="200" fill="white"/>
</clipPath>
</defs>
</svg>
