<svg width="402" height="100" viewBox="0 0 402 100" fill="none" xmlns="http://www.w3.org/2000/svg">
<g clip-path="url(#clip0_1329_213)">
<mask id="path-1-inside-1_1329_213" fill="white">
<path d="M378.046 0C391.301 0 402.046 10.7452 402.046 24V459C402.046 472.255 391.301 483 378.046 483H24C10.7452 483 2.41613e-07 472.255 0 459V95C0 81.7452 10.7452 71 24 71H59.7598C73.0146 71 83.7598 60.2548 83.7598 47V24C83.7598 10.7452 94.5049 0 107.76 0H378.046Z"/>
</mask>
<path d="M378.046 0C391.301 0 402.046 10.7452 402.046 24V459C402.046 472.255 391.301 483 378.046 483H24C10.7452 483 2.41613e-07 472.255 0 459V95C0 81.7452 10.7452 71 24 71H59.7598C73.0146 71 83.7598 60.2548 83.7598 47V24C83.7598 10.7452 94.5049 0 107.76 0H378.046Z" fill="#5438DC"/>
<path d="M402.046 24L403.046 24V24L402.046 24ZM24 483L24 484H24V483ZM0 459L-1 459L0 459ZM378.046 0V1C390.748 1 401.046 11.2975 401.046 24L402.046 24L403.046 24C403.046 10.1929 391.853 -1 378.046 -1V0ZM402.046 24H401.046V459H402.046H403.046V24H402.046ZM402.046 459H401.046C401.046 471.703 390.748 482 378.046 482V483V484C391.853 484 403.046 472.807 403.046 459H402.046ZM378.046 483V482H24V483V484H378.046V483ZM24 483L24 482C11.2975 482 1 471.703 1 459L0 459L-1 459C-1 472.807 10.1929 484 24 484L24 483ZM0 459H1V95H0H-1V459H0ZM24 71V72H59.7598V71V70H24V71ZM83.7598 47H84.7598V24H83.7598H82.7598V47H83.7598ZM107.76 0V1H378.046V0V-1H107.76V0ZM83.7598 24H84.7598C84.7598 11.2975 95.0572 1 107.76 1V0V-1C93.9526 -1 82.7598 10.1929 82.7598 24H83.7598ZM59.7598 71V72C73.5669 72 84.7598 60.8071 84.7598 47H83.7598H82.7598C82.7598 59.7025 72.4623 70 59.7598 70V71ZM0 95H1C1 82.2975 11.2975 72 24 72V71V70C10.1929 70 -1 81.1929 -1 95H0Z" fill="#5438DC" mask="url(#path-1-inside-1_1329_213)"/>
</g>
<defs>
<clipPath id="clip0_1329_213">
<rect width="402" height="100" fill="white"/>
</clipPath>
</defs>
</svg>
