<svg width="402" height="100" viewBox="0 0 402 100" fill="none" xmlns="http://www.w3.org/2000/svg">
<g clip-path="url(#clip0_1329_213)">
<path d="M20.984 30.192C20.984 26.5227 21.5813 23.664 22.776 21.616C23.9707 19.5467 26.0613 18.512 29.048 18.512C32.0133 18.512 34.0933 19.5467 35.288 21.616C36.4827 23.664 37.08 26.5227 37.08 30.192C37.08 33.9253 36.4827 36.8267 35.288 38.896C34.0933 40.9653 32.0133 42 29.048 42C26.0613 42 23.9707 40.9653 22.776 38.896C21.5813 36.8267 20.984 33.9253 20.984 30.192ZM34.2 30.192C34.2 28.336 34.072 26.768 33.816 25.488C33.5813 24.1867 33.08 23.1413 32.312 22.352C31.5653 21.5627 30.4773 21.168 29.048 21.168C27.5973 21.168 26.488 21.5627 25.72 22.352C24.9733 23.1413 24.472 24.1867 24.216 25.488C23.9813 26.768 23.864 28.336 23.864 30.192C23.864 32.112 23.9813 33.7227 24.216 35.024C24.472 36.3253 24.9733 37.3707 25.72 38.16C26.488 38.9493 27.5973 39.344 29.048 39.344C30.4773 39.344 31.5653 38.9493 32.312 38.16C33.08 37.3707 33.5813 36.3253 33.816 35.024C34.072 33.7227 34.2 32.112 34.2 30.192ZM40.3098 21.52V18.864H46.3258V42H43.3818V21.52H40.3098Z" fill="white"/>
<mask id="path-2-inside-1_1329_213" fill="white">
<path d="M378.046 0C391.301 0 402.046 10.7452 402.046 24V459C402.046 472.255 391.301 483 378.046 483H24C10.7452 483 2.41613e-07 472.255 0 459V95C0 81.7452 10.7452 71 24 71H59.7598C73.0146 71 83.7598 60.2548 83.7598 47V24C83.7598 10.7452 94.5049 0 107.76 0H378.046Z"/>
</mask>
<path d="M378.046 0C391.301 0 402.046 10.7452 402.046 24V459C402.046 472.255 391.301 483 378.046 483H24C10.7452 483 2.41613e-07 472.255 0 459V95C0 81.7452 10.7452 71 24 71H59.7598C73.0146 71 83.7598 60.2548 83.7598 47V24C83.7598 10.7452 94.5049 0 107.76 0H378.046Z" fill="#5438DC"/>
<path d="M402.046 24L403.046 24V24L402.046 24ZM24 483L24 484H24V483ZM0 459L-1 459L0 459ZM378.046 0V1C390.748 1 401.046 11.2975 401.046 24L402.046 24L403.046 24C403.046 10.1929 391.853 -1 378.046 -1V0ZM402.046 24H401.046V459H402.046H403.046V24H402.046ZM402.046 459H401.046C401.046 471.703 390.748 482 378.046 482V483V484C391.853 484 403.046 472.807 403.046 459H402.046ZM378.046 483V482H24V483V484H378.046V483ZM24 483L24 482C11.2975 482 1 471.703 1 459L0 459L-1 459C-1 472.807 10.1929 484 24 484L24 483ZM0 459H1V95H0H-1V459H0ZM24 71V72H59.7598V71V70H24V71ZM83.7598 47H84.7598V24H83.7598H82.7598V47H83.7598ZM107.76 0V1H378.046V0V-1H107.76V0ZM83.7598 24H84.7598C84.7598 11.2975 95.0572 1 107.76 1V0V-1C93.9526 -1 82.7598 10.1929 82.7598 24H83.7598ZM59.7598 71V72C73.5669 72 84.7598 60.8071 84.7598 47H83.7598H82.7598C82.7598 59.7025 72.4623 70 59.7598 70V71ZM0 95H1C1 82.2975 11.2975 72 24 72V71V70C10.1929 70 -1 81.1929 -1 95H0Z" fill="#5438DC" mask="url(#path-2-inside-1_1329_213)"/>
<g clip-path="url(#clip1_1329_213)">
<path d="M354.58 57.0039L354.24 56.6679L354.177 56.6157C349.248 52.5239 346.851 46.3852 347.601 39.7734L348.482 32L340.919 36.081C332.881 40.418 327.589 48.4526 326.698 57.4365L318.211 54.9585L317.549 56.4716C314.879 62.5663 313.56 68.4169 313.627 73.8612C313.702 79.7997 316.082 85.3681 320.33 89.5409C324.57 93.7059 330.179 95.9999 336.124 95.9999H339.761C352.097 95.9999 362.189 86.06 362.258 73.8412C362.296 66.956 359.784 61.4477 354.58 57.0039ZM337.033 92.2411C332.442 92.2411 328.66 88.5243 328.603 83.9555C328.58 82.0834 328.954 80.0707 329.716 77.955L335.05 79.5121L335.073 77.0292C335.105 73.4247 336.925 70.0961 339.884 68.1152C339.875 71.7817 341.401 75.1327 344.193 77.4828L344.303 77.5912L344.408 77.6874C346.41 79.3871 347.295 81.3231 347.281 83.9647C347.255 88.5287 343.474 92.2411 338.852 92.2411H337.033ZM349.705 89.4022C350.547 87.7738 351.028 85.9335 351.039 83.9862C351.06 80.2611 349.705 77.2787 346.897 74.87L346.722 74.6972L346.659 74.6454C344.411 72.7782 343.361 70.082 343.705 67.0532L344.348 61.3793L338.984 64.2739C335.024 66.4106 332.311 70.227 331.539 74.5717L327.547 73.4062L326.885 74.9189C325.496 78.0898 324.809 81.1459 324.845 84.0028C324.869 85.8969 325.326 87.7216 326.167 89.3632C320.968 86.0892 317.468 80.3432 317.386 73.8144C317.33 69.3544 318.328 64.5458 320.354 59.4995L330.302 62.4042L330.325 59.9213C330.403 51.3344 335.146 43.4668 342.704 39.3891L343.937 38.7231L343.866 39.3501C342.974 47.2158 345.833 54.538 351.712 59.4545L351.987 59.726L352.092 59.8222C356.496 63.5619 358.532 68.0102 358.499 73.8202C358.462 80.3725 354.951 86.1356 349.705 89.4022Z" fill="white"/>
</g>
</g>
<defs>
<clipPath id="clip0_1329_213">
<rect width="402" height="100" fill="white"/>
</clipPath>
<clipPath id="clip1_1329_213">
<rect width="64" height="64" fill="white" transform="translate(306 32)"/>
</clipPath>
</defs>
</svg>
