<svg width="402" height="100" viewBox="0 0 402 100" fill="none" xmlns="http://www.w3.org/2000/svg">
<g clip-path="url(#clip0_1329_215)">
<path d="M20.0309 35.192C20.0309 31.5227 20.6282 28.664 21.8229 26.616C23.0175 24.5467 25.1082 23.512 28.0949 23.512C31.0602 23.512 33.1402 24.5467 34.3349 26.616C35.5295 28.664 36.1269 31.5227 36.1269 35.192C36.1269 38.9253 35.5295 41.8267 34.3349 43.896C33.1402 45.9653 31.0602 47 28.0949 47C25.1082 47 23.0175 45.9653 21.8229 43.896C20.6282 41.8267 20.0309 38.9253 20.0309 35.192ZM33.2469 35.192C33.2469 33.336 33.1189 31.768 32.8629 30.488C32.6282 29.1867 32.1269 28.1413 31.3589 27.352C30.6122 26.5627 29.5242 26.168 28.0949 26.168C26.6442 26.168 25.5349 26.5627 24.7669 27.352C24.0202 28.1413 23.5189 29.1867 23.2629 30.488C23.0282 31.768 22.9109 33.336 22.9109 35.192C22.9109 37.112 23.0282 38.7227 23.2629 40.024C23.5189 41.3253 24.0202 42.3707 24.7669 43.16C25.5349 43.9493 26.6442 44.344 28.0949 44.344C29.5242 44.344 30.6122 43.9493 31.3589 43.16C32.1269 42.3707 32.6282 41.3253 32.8629 40.024C33.1189 38.7227 33.2469 37.112 33.2469 35.192ZM40.0606 29.688C40.21 27.7253 40.9673 26.1893 42.3326 25.08C43.698 23.9707 45.4686 23.416 47.6446 23.416C49.0953 23.416 50.3433 23.6827 51.3886 24.216C52.4553 24.728 53.2553 25.432 53.7886 26.328C54.3433 27.224 54.6206 28.2373 54.6206 29.368C54.6206 30.6907 54.2366 31.832 53.4686 32.792C52.722 33.752 51.7406 34.3707 50.5246 34.648V34.808C51.9113 35.1493 53.01 35.8213 53.8206 36.824C54.6313 37.8267 55.0366 39.1387 55.0366 40.76C55.0366 41.976 54.7593 43.0747 54.2046 44.056C53.65 45.016 52.818 45.7733 51.7086 46.328C50.5993 46.8827 49.266 47.16 47.7086 47.16C45.4473 47.16 43.5913 46.5733 42.1406 45.4C40.69 44.2053 39.8793 42.52 39.7086 40.344H42.5246C42.674 41.624 43.1966 42.6693 44.0926 43.48C44.9886 44.2907 46.1833 44.696 47.6766 44.696C49.17 44.696 50.3006 44.312 51.0686 43.544C51.858 42.7547 52.2526 41.7413 52.2526 40.504C52.2526 38.904 51.7193 37.752 50.6526 37.048C49.586 36.344 47.9753 35.992 45.8206 35.992H45.0846V33.56H45.8526C47.8153 33.5387 49.298 33.2187 50.3006 32.6C51.3033 31.96 51.8046 30.9787 51.8046 29.656C51.8046 28.5253 51.4313 27.6187 50.6846 26.936C49.9593 26.2533 48.914 25.912 47.5486 25.912C46.226 25.912 45.1593 26.2533 44.3486 26.936C43.538 27.6187 43.058 28.536 42.9086 29.688H40.0606Z" fill="white"/>
<mask id="path-2-inside-1_1329_215" fill="white">
<path fill-rule="evenodd" clip-rule="evenodd" d="M24 72C10.7452 72 0 82.7452 0 96V459C0 472.255 10.7452 483 24 483H378.046C391.301 483 402.046 472.255 402.046 459V24C402.046 10.7452 391.301 0 378.046 0H107.759C94.5045 0 83.7593 10.7452 83.7593 24V48C83.7593 61.2548 73.0142 72 59.7593 72H24Z"/>
</mask>
<path fill-rule="evenodd" clip-rule="evenodd" d="M24 72C10.7452 72 0 82.7452 0 96V459C0 472.255 10.7452 483 24 483H378.046C391.301 483 402.046 472.255 402.046 459V24C402.046 10.7452 391.301 0 378.046 0H107.759C94.5045 0 83.7593 10.7452 83.7593 24V48C83.7593 61.2548 73.0142 72 59.7593 72H24Z" fill="#5438DC"/>
<path d="M1 459V96H-1V459H1ZM24 482C11.2975 482 1 471.703 1 459H-1C-1 472.807 10.1929 484 24 484V482ZM378.046 482H24V484H378.046V482ZM401.046 459C401.046 471.703 390.749 482 378.046 482V484C391.853 484 403.046 472.807 403.046 459H401.046ZM401.046 24V459H403.046V24H401.046ZM378.046 1C390.749 1 401.046 11.2975 401.046 24H403.046C403.046 10.1929 391.853 -1 378.046 -1V1ZM107.759 1H378.046V-1H107.759V1ZM82.7593 24V48H84.7593V24H82.7593ZM59.7593 71H24V73H59.7593V71ZM82.7593 48C82.7593 60.7025 72.4619 71 59.7593 71V73C73.5664 73 84.7593 61.8071 84.7593 48H82.7593ZM107.759 -1C93.9522 -1 82.7593 10.1929 82.7593 24H84.7593C84.7593 11.2975 95.0568 1 107.759 1V-1ZM1 96C1 83.2975 11.2975 73 24 73V71C10.1929 71 -1 82.1929 -1 96H1Z" fill="#5438DC" mask="url(#path-2-inside-1_1329_215)"/>
<g clip-path="url(#clip1_1329_215)">
<path d="M364.221 44.8239C360.43 39.3609 355.125 35.3066 348.881 33.0996C347.58 32.6395 346.151 33.3219 345.691 34.6236C345.231 35.9254 345.913 37.3538 347.215 37.8139C358.048 41.6428 365.048 51.8233 365.048 63.7496C365.048 67.0683 364.974 70.03 364.07 72.67C363.783 73.5068 363.107 73.8689 362.73 74.0104C362.005 74.2821 361.174 74.2148 360.508 73.8303L351.02 68.3524L358.851 66.2543C360.184 65.8969 360.976 64.526 360.619 63.1924C360.261 61.8588 358.891 61.0673 357.557 61.4246L343.896 65.0849C342.596 65.433 341.765 66.7891 342.129 68.147L345.789 81.807C346.145 83.137 347.514 83.933 348.851 83.5748C350.185 83.2174 350.976 81.8465 350.619 80.5129L348.521 72.6825L358.008 78.1604C359.985 79.3015 362.345 79.4939 364.484 78.6925C366.531 77.9255 368.104 76.3214 368.8 74.2911C369.954 70.9225 370.048 67.5241 370.048 63.7498C370.048 56.8608 368.033 50.3163 364.221 44.8239Z" fill="white"/>
<path d="M355.918 84.6527C351.067 88.8049 344.887 90.9998 338.048 90.9998C329.968 90.9998 322.414 87.6569 317.325 81.8282C316.74 81.1584 316.764 80.3886 316.831 79.9893C316.959 79.2142 317.42 78.5459 318.096 78.1562L327.576 72.6827L325.478 80.5131C325.121 81.8467 325.912 83.2176 327.246 83.5749C328.588 83.9344 329.953 83.1323 330.308 81.8072L333.968 68.1472C334.329 66.7998 333.514 65.4373 332.2 65.0851L318.54 61.4247C317.206 61.0673 315.835 61.8588 315.478 63.1924C315.121 64.5261 315.912 65.8969 317.246 66.2543L325.076 68.3524L315.596 73.8259C313.621 74.9662 312.273 76.9137 311.898 79.1694C311.539 81.3293 312.144 83.4971 313.559 85.1167C316.56 88.5534 320.208 91.2492 324.403 93.1293C328.653 95.0341 333.244 95.9998 338.048 95.9998C342.028 95.9998 345.869 95.348 349.462 94.0627C353.054 92.7784 356.319 90.8904 359.169 88.4514C360.218 87.5537 360.341 85.9756 359.443 84.9266C358.546 83.8776 356.968 83.7548 355.918 84.6527Z" fill="white"/>
<path d="M311.047 63.7488C311.047 50.5086 319.978 39.5249 332.765 37.0388C333.633 36.8701 334.284 37.2747 334.595 37.5309C335.2 38.0298 335.547 38.7622 335.547 39.5403V50.2133L329.815 44.4811C328.838 43.5047 327.255 43.5047 326.279 44.4811C325.303 45.4573 325.303 47.0403 326.279 48.0166L336.279 58.0166C336.755 58.4914 337.401 58.7488 338.047 58.7488C338.729 58.7488 339.368 58.4623 339.815 58.0166L349.815 48.0166C350.791 47.0403 350.791 45.4573 349.815 44.4811C348.839 43.5047 347.256 43.5047 346.279 44.4811L340.547 50.2133V39.5403C340.547 37.2636 339.537 35.1248 337.775 33.6727C336.09 32.2836 333.916 31.7214 331.811 32.1307C320.792 34.2729 311.761 41.9319 307.96 52.5694C306.69 56.1216 306.047 59.8828 306.047 63.7488C306.047 65.7437 306.229 67.7421 306.589 69.6883C306.84 71.0479 308.145 71.9429 309.502 71.6924C310.859 71.4416 311.757 70.1376 311.506 68.7798C311.201 67.1325 311.047 65.4398 311.047 63.7488Z" fill="white"/>
</g>
</g>
<defs>
<clipPath id="clip0_1329_215">
<rect width="402" height="100" fill="white"/>
</clipPath>
<clipPath id="clip1_1329_215">
<rect width="64" height="64" fill="white" transform="translate(306.047 32)"/>
</clipPath>
</defs>
</svg>
