<svg width="402" height="100" viewBox="0 0 402 100" fill="none" xmlns="http://www.w3.org/2000/svg">
<g clip-path="url(#clip0_1329_214)">
<path d="M24.3199 35.192C24.3199 31.5227 24.9173 28.664 26.1119 26.616C27.3066 24.5467 29.3973 23.512 32.3839 23.512C35.3493 23.512 37.4293 24.5467 38.6239 26.616C39.8186 28.664 40.4159 31.5227 40.4159 35.192C40.4159 38.9253 39.8186 41.8267 38.6239 43.896C37.4293 45.9653 35.3493 47 32.3839 47C29.3973 47 27.3066 45.9653 26.1119 43.896C24.9173 41.8267 24.3199 38.9253 24.3199 35.192ZM37.5359 35.192C37.5359 33.336 37.4079 31.768 37.1519 30.488C36.9173 29.1867 36.4159 28.1413 35.6479 27.352C34.9013 26.5627 33.8133 26.168 32.3839 26.168C30.9333 26.168 29.8239 26.5627 29.0559 27.352C28.3093 28.1413 27.8079 29.1867 27.5519 30.488C27.3173 31.768 27.1999 33.336 27.1999 35.192C27.1999 37.112 27.3173 38.7227 27.5519 40.024C27.8079 41.3253 28.3093 42.3707 29.0559 43.16C29.8239 43.9493 30.9333 44.344 32.3839 44.344C33.8133 44.344 34.9013 43.9493 35.6479 43.16C36.4159 42.3707 36.9173 41.3253 37.1519 40.024C37.4079 38.7227 37.5359 37.112 37.5359 35.192ZM44.0617 44.664C46.771 42.488 48.8937 40.7067 50.4297 39.32C51.9657 37.912 53.2564 36.4507 54.3017 34.936C55.3684 33.4 55.9017 31.896 55.9017 30.424C55.9017 29.0373 55.5604 27.9493 54.8777 27.16C54.2164 26.3493 53.139 25.944 51.6457 25.944C50.195 25.944 49.0644 26.4027 48.2537 27.32C47.4644 28.216 47.0377 29.4213 46.9737 30.936H44.1577C44.243 28.5467 44.9684 26.7013 46.3337 25.4C47.699 24.0987 49.459 23.448 51.6137 23.448C53.811 23.448 55.5497 24.056 56.8297 25.272C58.131 26.488 58.7817 28.1627 58.7817 30.296C58.7817 32.0667 58.2484 33.7947 57.1817 35.48C56.1364 37.144 54.9417 38.616 53.5977 39.896C52.2537 41.1547 50.5364 42.6267 48.4457 44.312H59.4537V46.744H44.0617V44.664Z" fill="white"/>
<mask id="path-2-inside-1_1329_214" fill="white">
<path fill-rule="evenodd" clip-rule="evenodd" d="M24 72C10.7452 72 0 82.7452 0 96V459C0 472.255 10.7452 483 24 483H378.046C391.301 483 402.046 472.255 402.046 459V24C402.046 10.7452 391.301 0 378.046 0H107.759C94.5045 0 83.7593 10.7452 83.7593 24V48C83.7593 61.2548 73.0142 72 59.7593 72H24Z"/>
</mask>
<path fill-rule="evenodd" clip-rule="evenodd" d="M24 72C10.7452 72 0 82.7452 0 96V459C0 472.255 10.7452 483 24 483H378.046C391.301 483 402.046 472.255 402.046 459V24C402.046 10.7452 391.301 0 378.046 0H107.759C94.5045 0 83.7593 10.7452 83.7593 24V48C83.7593 61.2548 73.0142 72 59.7593 72H24Z" fill="#5438DC"/>
<path d="M1 459V96H-1V459H1ZM24 482C11.2975 482 1 471.703 1 459H-1C-1 472.807 10.1929 484 24 484V482ZM378.046 482H24V484H378.046V482ZM401.046 459C401.046 471.703 390.749 482 378.046 482V484C391.853 484 403.046 472.807 403.046 459H401.046ZM401.046 24V459H403.046V24H401.046ZM378.046 1C390.749 1 401.046 11.2975 401.046 24H403.046C403.046 10.1929 391.853 -1 378.046 -1V1ZM107.759 1H378.046V-1H107.759V1ZM82.7593 24V48H84.7593V24H82.7593ZM59.7593 71H24V73H59.7593V71ZM82.7593 48C82.7593 60.7025 72.4619 71 59.7593 71V73C73.5664 73 84.7593 61.8071 84.7593 48H82.7593ZM107.759 -1C93.9522 -1 82.7593 10.1929 82.7593 24H84.7593C84.7593 11.2975 95.0568 1 107.759 1V-1ZM1 96C1 83.2975 11.2975 73 24 73V71C10.1929 71 -1 82.1929 -1 96H1Z" fill="#5438DC" mask="url(#path-2-inside-1_1329_214)"/>
<path fill-rule="evenodd" clip-rule="evenodd" d="M350.631 61.1692C351.462 61.9994 351.462 63.3451 350.631 64.1736L339.165 75.6409C339.505 76.3909 339.695 77.2242 339.695 78.0992C339.695 81.4061 337.006 84.0944 333.7 84.0944C330.395 84.0944 327.705 81.4062 327.705 78.0992C327.705 74.7945 330.395 72.104 333.7 72.104C334.576 72.104 335.408 72.2954 336.16 72.6349L347.625 61.1692C348.455 60.3389 349.801 60.3389 350.631 61.1692ZM333.7 58.4062C336.037 58.4062 338.323 58.8112 340.493 59.6082C341.595 60.0134 342.817 59.4485 343.222 58.3467C343.625 57.2449 343.061 56.0243 341.96 55.6191C339.318 54.6485 336.539 54.1555 333.7 54.1555C320.497 54.1555 309.756 64.8967 309.756 78.0992C309.756 79.2735 310.708 80.2248 311.881 80.2248C313.055 80.2248 314.007 79.2735 314.007 78.0992C314.007 67.2415 322.841 58.4062 333.7 58.4062ZM361.98 84.9493C362.519 82.7194 362.791 80.4147 362.791 78.0992C362.791 62.0595 349.741 49.0075 333.7 49.0075C317.659 49.0075 304.609 62.0596 304.609 78.0992C304.609 80.4147 304.882 82.7194 305.421 84.9493C305.716 86.1715 306.759 86.9916 308.015 86.9916H359.386C360.642 86.9917 361.685 86.1715 361.98 84.9493ZM357.277 54.5235C350.979 48.2252 342.606 44.7568 333.7 44.7568C324.794 44.7568 316.422 48.2251 310.124 54.5235C303.826 60.8211 300.357 69.1937 300.357 78.0992C300.357 80.7511 300.671 83.3914 301.289 85.9484C302.042 89.0648 304.808 91.2423 308.015 91.2423H359.386C362.592 91.2423 365.358 89.0648 366.111 85.9484C366.729 83.3899 367.042 80.7495 367.042 78.0992C367.042 69.1937 363.574 60.8213 357.277 54.5235Z" fill="white"/>
</g>
<defs>
<clipPath id="clip0_1329_214">
<rect width="402" height="100" fill="white"/>
</clipPath>
</defs>
</svg>
