<svg width="65" height="65" viewBox="0 0 65 65" fill="none" xmlns="http://www.w3.org/2000/svg">
<g clip-path="url(#clip0_886_6468)">
<path d="M49.0796 25.7705L48.7397 25.4345L48.6767 25.3823C43.7475 21.2905 41.3506 15.1518 42.1006 8.54002L42.9824 0.766602L35.4189 4.84765C27.3809 9.18455 22.0889 17.2192 21.1983 26.2031L12.7115 23.7251L12.0489 25.2382C9.37895 31.3329 8.05962 37.1835 8.12749 42.6278C8.20171 48.5663 10.5821 54.1347 14.8301 58.3075C19.0699 62.4725 24.6792 64.7665 30.624 64.7665H34.2612C46.5971 64.7665 56.6889 54.8266 56.7578 42.6078C56.7963 35.7226 54.2841 30.2143 49.0796 25.7705ZM31.5327 61.0077C26.9419 61.0077 23.1602 57.2909 23.103 52.7221C23.0796 50.85 23.4536 48.8373 24.2163 46.7216L29.5503 48.2787L29.5728 45.7958C29.6055 42.1913 31.4248 38.8627 34.3838 36.8818C34.375 40.5483 35.9014 43.8993 38.6933 46.2494L38.8032 46.3578L38.9082 46.454C40.9097 48.1537 41.7954 50.0897 41.7807 52.7313C41.7549 57.2953 37.9736 61.0077 33.3516 61.0077H31.5327ZM44.2051 58.1688C45.0473 56.5404 45.5283 54.7001 45.539 52.7528C45.56 49.0277 44.2051 46.0453 41.397 43.6366L41.2222 43.4638L41.1592 43.412C38.9106 41.5448 37.8613 38.8486 38.2046 35.8198L38.8481 30.1459L33.4839 33.0405C29.5239 35.1772 26.811 38.9936 26.0391 43.3383L22.0474 42.1728L21.3848 43.6855C19.9956 46.8564 19.3091 49.9125 19.3452 52.7694C19.3687 54.6635 19.8257 56.4882 20.6665 58.1298C15.4678 54.8559 11.9678 49.1098 11.8858 42.581C11.8301 38.121 12.8282 33.3124 14.8536 28.2661L24.8023 31.1708L24.8247 28.6879C24.9028 20.101 29.646 12.2334 37.2036 8.15575L38.4375 7.48973L38.3662 8.11668C37.4741 15.9824 40.333 23.3046 46.2124 28.2211L46.4868 28.4926L46.5918 28.5888C50.9956 32.3286 53.0317 36.7768 52.9995 42.5868C52.9624 49.1391 49.4507 54.9022 44.2051 58.1688Z" fill="white"/>
</g>
<defs>
<clipPath id="clip0_886_6468">
<rect width="64" height="64" fill="white" transform="translate(0.5 0.766602)"/>
</clipPath>
</defs>
</svg>
