<svg width="106" height="156" viewBox="0 0 106 156" fill="none" xmlns="http://www.w3.org/2000/svg">
<g clip-path="url(#clip0_885_496)">
<path d="M72.5327 61.2675C81 61.2675 87.8641 54.4033 87.8641 45.936C87.8641 37.4686 81 30.6045 72.5327 30.6045C64.0653 30.6045 57.2012 37.4686 57.2012 45.936C57.2012 54.4033 64.0653 61.2675 72.5327 61.2675Z" fill="#C2B8FF"/>
<path d="M89.5226 38.4213L101.278 0.233398L72.5312 27.8935C72.5312 27.8935 78.5622 28.0645 82.5259 30.7606C87.0479 33.844 89.5226 38.4213 89.5226 38.4213Z" fill="#C2B8FF"/>
<path d="M105.056 141.531C105.056 141.531 96.3587 68.2639 80.8612 64.7127C77.1541 62.9572 72.7729 63.6514 69.8656 63.933C67.1796 64.1946 61.8075 65.6332 57.2503 68.6411C52.6931 71.6491 48.0454 79.2796 46.305 80.3862C39.429 84.7674 29.1476 90.5016 28.5491 92.6242C26.869 98.5697 32.9755 98.8564 37.2208 96.3263C48.5182 89.6012 44.796 92.3929 53.181 88.2381C55.9174 86.885 57.6024 85.3056 58.6336 84.2543L48.5232 141.531H59.7452C59.6899 147.356 59.6547 151.184 59.6547 151.184C59.6547 151.184 56.4908 152.004 54.7152 153.523C52.9446 155.042 63.4523 156.294 65.8567 154.906C68.1453 153.588 72.109 142.613 72.4963 141.526H75.2276L79.0253 150.932C79.0253 150.932 74.2618 152.758 73.7337 154.403C73.2055 156.048 81.9376 156.666 84.347 154.901C84.9707 154.443 85.6347 149.197 86.2131 141.521H105.056V141.531Z" fill="#C2B8FF"/>
</g>
<path d="M2.375 103.77L27.2313 94.2939L27.4507 96.0769L3.14195 105.473L2.375 103.77Z" fill="#C2B8FF"/>
<path d="M0.947266 92.377L2.55549 90.6592L4.10178 92.377L2.55549 94.3368L0.947266 92.377Z" fill="#C2B8FF"/>
<path d="M21.1719 109.823L23.5897 107.24L25.9143 109.823L23.5897 112.769L21.1719 109.823Z" fill="#C2B8FF"/>
<path d="M20.2832 80.0142L22.701 77.4316L25.0257 80.0142L22.701 82.9606L20.2832 80.0142Z" fill="#C2B8FF"/>
<defs>
<clipPath id="clip0_885_496">
<rect width="76.7882" height="155.739" fill="white" transform="translate(28.2676 0.233398)"/>
</clipPath>
</defs>
</svg>
