<svg width="1288" height="620" viewBox="0 0 1288 620" fill="none" xmlns="http://www.w3.org/2000/svg">
<path opacity="0.1" d="M-44.2377 0H-77V32.6315M-44.2377 0V32.6315M-44.2377 0H-11.4753M-44.2377 32.6315H-77M-44.2377 32.6315V65.263M-44.2377 32.6315H-11.4753M-77 32.6315V65.263M-44.2377 65.263H-77M-44.2377 65.263V97.8946M-44.2377 65.263H-11.4753M-77 65.263V97.8946M-44.2377 97.8946H-77M-44.2377 97.8946V130.526M-44.2377 97.8946H-11.4753M-77 97.8946V130.526M-44.2377 130.526H-77M-44.2377 130.526V163.158M-44.2377 130.526H-11.4753M-77 130.526V163.158M-44.2377 163.158H-77M-44.2377 163.158V195.789M-44.2377 163.158H-11.4753M-77 163.158V195.789M-44.2377 195.789H-77M-44.2377 195.789V228.421M-44.2377 195.789H-11.4753M-77 195.789V228.421M-44.2377 228.421H-77M-44.2377 228.421V261.052M-44.2377 228.421H-11.4753M-77 228.421V261.052M-44.2377 261.052H-77M-44.2377 261.052V293.684M-44.2377 261.052H-11.4753M-77 261.052V293.684M-44.2377 293.684H-77M-44.2377 293.684V326.315M-44.2377 293.684H-11.4753M-77 293.684V326.315M-44.2377 326.315H-77M-44.2377 326.315V358.947M-44.2377 326.315H-11.4753M-77 326.315V358.947M-44.2377 358.947H-77M-44.2377 358.947V391.578M-44.2377 358.947H-11.4753M-77 358.947V391.578M-44.2377 391.578H-77M-44.2377 391.578V424.21M-44.2377 391.578H-11.4753M-77 391.578V424.21M-44.2377 424.21H-77M-44.2377 424.21V456.841M-44.2377 424.21H-11.4753M-77 424.21V456.841M-44.2377 456.841H-77M-44.2377 456.841V489.473M-44.2377 456.841H-11.4753M-77 456.841V489.473M-44.2377 489.473H-77M-44.2377 489.473V522.104M-44.2377 489.473H-11.4753M-77 489.473V522.104M-44.2377 522.104H-77M-44.2377 522.104V554.736M-44.2377 522.104H-11.4753M-77 522.104V554.736M-44.2377 554.736H-77M-44.2377 554.736V587.367M-44.2377 554.736H-11.4753M-77 554.736V587.367M-44.2377 587.367H-77M-44.2377 587.367V619.999M-44.2377 587.367H-11.4753M-77 587.367V619.999H-44.2377M-44.2377 619.999H-11.4753M-11.4753 0V32.6315M-11.4753 0H21.287M-11.4753 32.6315V65.263M-11.4753 32.6315H21.287M-11.4753 65.263V97.8946M-11.4753 65.263H21.287M-11.4753 97.8946V130.526M-11.4753 97.8946H21.287M-11.4753 130.526V163.158M-11.4753 130.526H21.287M-11.4753 163.158V195.789M-11.4753 163.158H21.287M-11.4753 195.789V228.421M-11.4753 195.789H21.287M-11.4753 228.421V261.052M-11.4753 228.421H21.287M-11.4753 261.052V293.684M-11.4753 261.052H21.287M-11.4753 293.684V326.315M-11.4753 293.684H21.287M-11.4753 326.315V358.947M-11.4753 326.315H21.287M-11.4753 358.947V391.578M-11.4753 358.947H21.287M-11.4753 391.578V424.21M-11.4753 391.578H21.287M-11.4753 424.21V456.841M-11.4753 424.21H21.287M-11.4753 456.841V489.473M-11.4753 456.841H21.287M-11.4753 489.473V522.104M-11.4753 489.473H21.287M-11.4753 522.104V554.736M-11.4753 522.104H21.287M-11.4753 554.736V587.367M-11.4753 554.736H21.287M-11.4753 587.367V619.999M-11.4753 587.367H21.287M-11.4753 619.999H21.287M21.287 0V32.6315M21.287 0H54.0493M21.287 32.6315V65.263M21.287 32.6315H54.0493M21.287 65.263V97.8946M21.287 65.263H54.0493M21.287 97.8946V130.526M21.287 97.8946H54.0493M21.287 130.526V163.158M21.287 130.526H54.0493M21.287 163.158V195.789M21.287 163.158H54.0493M21.287 195.789V228.421M21.287 195.789H54.0493M21.287 228.421V261.052M21.287 228.421H54.0493M21.287 261.052V293.684M21.287 261.052H54.0493M21.287 293.684V326.315M21.287 293.684H54.0493M21.287 326.315V358.947M21.287 326.315H54.0493M21.287 358.947V391.578M21.287 358.947H54.0493M21.287 391.578V424.21M21.287 391.578H54.0493M21.287 424.21V456.841M21.287 424.21H54.0493M21.287 456.841V489.473M21.287 456.841H54.0493M21.287 489.473V522.104M21.287 489.473H54.0493M21.287 522.104V554.736M21.287 522.104H54.0493M21.287 554.736V587.367M21.287 554.736H54.0493M21.287 587.367V619.999M21.287 587.367H54.0493M21.287 619.999H54.0493M54.0493 0V32.6315M54.0493 0H86.8117M54.0493 32.6315V65.263M54.0493 32.6315H86.8117M54.0493 65.263V97.8946M54.0493 65.263H86.8117M54.0493 97.8946V130.526M54.0493 97.8946H86.8117M54.0493 130.526V163.158M54.0493 130.526H86.8117M54.0493 163.158V195.789M54.0493 163.158H86.8117M54.0493 195.789V228.421M54.0493 195.789H86.8117M54.0493 228.421V261.052M54.0493 228.421H86.8117M54.0493 261.052V293.684M54.0493 261.052H86.8117M54.0493 293.684V326.315M54.0493 293.684H86.8117M54.0493 326.315V358.947M54.0493 326.315H86.8117M54.0493 358.947V391.578M54.0493 358.947H86.8117M54.0493 391.578V424.21M54.0493 391.578H86.8117M54.0493 424.21V456.841M54.0493 424.21H86.8117M54.0493 456.841V489.473M54.0493 456.841H86.8117M54.0493 489.473V522.104M54.0493 489.473H86.8117M54.0493 522.104V554.736M54.0493 522.104H86.8117M54.0493 554.736V587.367M54.0493 554.736H86.8117M54.0493 587.367V619.999M54.0493 587.367H86.8117M54.0493 619.999H86.8117M86.8117 0V32.6315M86.8117 0H119.574M86.8117 32.6315V65.263M86.8117 32.6315H119.574M86.8117 65.263V97.8946M86.8117 65.263H119.574M86.8117 97.8946V130.526M86.8117 97.8946H119.574M86.8117 130.526V163.158M86.8117 130.526H119.574M86.8117 163.158V195.789M86.8117 163.158H119.574M86.8117 195.789V228.421M86.8117 195.789H119.574M86.8117 228.421V261.052M86.8117 228.421H119.574M86.8117 261.052V293.684M86.8117 261.052H119.574M86.8117 293.684V326.315M86.8117 293.684H119.574M86.8117 326.315V358.947M86.8117 326.315H119.574M86.8117 358.947V391.578M86.8117 358.947H119.574M86.8117 391.578V424.21M86.8117 391.578H119.574M86.8117 424.21V456.841M86.8117 424.21H119.574M86.8117 456.841V489.473M86.8117 456.841H119.574M86.8117 489.473V522.104M86.8117 489.473H119.574M86.8117 522.104V554.736M86.8117 522.104H119.574M86.8117 554.736V587.367M86.8117 554.736H119.574M86.8117 587.367V619.999M86.8117 587.367H119.574M86.8117 619.999H119.574M119.574 0V32.6315M119.574 0H152.336M119.574 32.6315V65.263M119.574 32.6315H152.336M119.574 65.263V97.8946M119.574 65.263H152.336M119.574 97.8946V130.526M119.574 97.8946H152.336M119.574 130.526V163.158M119.574 130.526H152.336M119.574 163.158V195.789M119.574 163.158H152.336M119.574 195.789V228.421M119.574 195.789H152.336M119.574 228.421V261.052M119.574 228.421H152.336M119.574 261.052V293.684M119.574 261.052H152.336M119.574 293.684V326.315M119.574 293.684H152.336M119.574 326.315V358.947M119.574 326.315H152.336M119.574 358.947V391.578M119.574 358.947H152.336M119.574 391.578V424.21M119.574 391.578H152.336M119.574 424.21V456.841M119.574 424.21H152.336M119.574 456.841V489.473M119.574 456.841H152.336M119.574 489.473V522.104M119.574 489.473H152.336M119.574 522.104V554.736M119.574 522.104H152.336M119.574 554.736V587.367M119.574 554.736H152.336M119.574 587.367V619.999M119.574 587.367H152.336M119.574 619.999H152.336M152.336 0V32.6315M152.336 0H185.099M152.336 32.6315V65.263M152.336 32.6315H185.099M152.336 65.263V97.8946M152.336 65.263H185.099M152.336 97.8946V130.526M152.336 97.8946H185.099M152.336 130.526V163.158M152.336 130.526H185.099M152.336 163.158V195.789M152.336 163.158H185.099M152.336 195.789V228.421M152.336 195.789H185.099M152.336 228.421V261.052M152.336 228.421H185.099M152.336 261.052V293.684M152.336 261.052H185.099M152.336 293.684V326.315M152.336 293.684H185.099M152.336 326.315V358.947M152.336 326.315H185.099M152.336 358.947V391.578M152.336 358.947H185.099M152.336 391.578V424.21M152.336 391.578H185.099M152.336 424.21V456.841M152.336 424.21H185.099M152.336 456.841V489.473M152.336 456.841H185.099M152.336 489.473V522.104M152.336 489.473H185.099M152.336 522.104V554.736M152.336 522.104H185.099M152.336 554.736V587.367M152.336 554.736H185.099M152.336 587.367V619.999M152.336 587.367H185.099M152.336 619.999H185.099M185.099 0V32.6315M185.099 0H217.861M185.099 32.6315V65.263M185.099 32.6315H217.861M185.099 65.263V97.8946M185.099 65.263H217.861M185.099 97.8946V130.526M185.099 97.8946H217.861M185.099 130.526V163.158M185.099 130.526H217.861M185.099 163.158V195.789M185.099 163.158H217.861M185.099 195.789V228.421M185.099 195.789H217.861M185.099 228.421V261.052M185.099 228.421H217.861M185.099 261.052V293.684M185.099 261.052H217.861M185.099 293.684V326.315M185.099 293.684H217.861M185.099 326.315V358.947M185.099 326.315H217.861M185.099 358.947V391.578M185.099 358.947H217.861M185.099 391.578V424.21M185.099 391.578H217.861M185.099 424.21V456.841M185.099 424.21H217.861M185.099 456.841V489.473M185.099 456.841H217.861M185.099 489.473V522.104M185.099 489.473H217.861M185.099 522.104V554.736M185.099 522.104H217.861M185.099 554.736V587.367M185.099 554.736H217.861M185.099 587.367V619.999M185.099 587.367H217.861M185.099 619.999H217.861M217.861 0V32.6315M217.861 0H250.623M217.861 32.6315V65.263M217.861 32.6315H250.623M217.861 65.263V97.8946M217.861 65.263H250.623M217.861 97.8946V130.526M217.861 97.8946H250.623M217.861 130.526V163.158M217.861 130.526H250.623M217.861 163.158V195.789M217.861 163.158H250.623M217.861 195.789V228.421M217.861 195.789H250.623M217.861 228.421V261.052M217.861 228.421H250.623M217.861 261.052V293.684M217.861 261.052H250.623M217.861 293.684V326.315M217.861 293.684H250.623M217.861 326.315V358.947M217.861 326.315H250.623M217.861 358.947V391.578M217.861 358.947H250.623M217.861 391.578V424.21M217.861 391.578H250.623M217.861 424.21V456.841M217.861 424.21H250.623M217.861 456.841V489.473M217.861 456.841H250.623M217.861 489.473V522.104M217.861 489.473H250.623M217.861 522.104V554.736M217.861 522.104H250.623M217.861 554.736V587.367M217.861 554.736H250.623M217.861 587.367V619.999M217.861 587.367H250.623M217.861 619.999H250.623M250.623 0V32.6315M250.623 0H283.386M250.623 32.6315V65.263M250.623 32.6315H283.386M250.623 65.263V97.8946M250.623 65.263H283.386M250.623 97.8946V130.526M250.623 97.8946H283.386M250.623 130.526V163.158M250.623 130.526H283.386M250.623 163.158V195.789M250.623 163.158H283.386M250.623 195.789V228.421M250.623 195.789H283.386M250.623 228.421V261.052M250.623 228.421H283.386M250.623 261.052V293.684M250.623 261.052H283.386M250.623 293.684V326.315M250.623 293.684H283.386M250.623 326.315V358.947M250.623 326.315H283.386M250.623 358.947V391.578M250.623 358.947H283.386M250.623 391.578V424.21M250.623 391.578H283.386M250.623 424.21V456.841M250.623 424.21H283.386M250.623 456.841V489.473M250.623 456.841H283.386M250.623 489.473V522.104M250.623 489.473H283.386M250.623 522.104V554.736M250.623 522.104H283.386M250.623 554.736V587.367M250.623 554.736H283.386M250.623 587.367V619.999M250.623 587.367H283.386M250.623 619.999H283.386M283.386 0V32.6315M283.386 0H316.148M283.386 32.6315V65.263M283.386 32.6315H316.148M283.386 65.263V97.8946M283.386 65.263H316.148M283.386 97.8946V130.526M283.386 97.8946H316.148M283.386 130.526V163.158M283.386 130.526H316.148M283.386 163.158V195.789M283.386 163.158H316.148M283.386 195.789V228.421M283.386 195.789H316.148M283.386 228.421V261.052M283.386 228.421H316.148M283.386 261.052V293.684M283.386 261.052H316.148M283.386 293.684V326.315M283.386 293.684H316.148M283.386 326.315V358.947M283.386 326.315H316.148M283.386 358.947V391.578M283.386 358.947H316.148M283.386 391.578V424.21M283.386 391.578H316.148M283.386 424.21V456.841M283.386 424.21H316.148M283.386 456.841V489.473M283.386 456.841H316.148M283.386 489.473V522.104M283.386 489.473H316.148M283.386 522.104V554.736M283.386 522.104H316.148M283.386 554.736V587.367M283.386 554.736H316.148M283.386 587.367V619.999M283.386 587.367H316.148M283.386 619.999H316.148M316.148 0V32.6315M316.148 0H348.91M316.148 32.6315V65.263M316.148 32.6315H348.91M316.148 65.263V97.8946M316.148 65.263H348.91M316.148 97.8946V130.526M316.148 97.8946H348.91M316.148 130.526V163.158M316.148 130.526H348.91M316.148 163.158V195.789M316.148 163.158H348.91M316.148 195.789V228.421M316.148 195.789H348.91M316.148 228.421V261.052M316.148 228.421H348.91M316.148 261.052V293.684M316.148 261.052H348.91M316.148 293.684V326.315M316.148 293.684H348.91M316.148 326.315V358.947M316.148 326.315H348.91M316.148 358.947V391.578M316.148 358.947H348.91M316.148 391.578V424.21M316.148 391.578H348.91M316.148 424.21V456.841M316.148 424.21H348.91M316.148 456.841V489.473M316.148 456.841H348.91M316.148 489.473V522.104M316.148 489.473H348.91M316.148 522.104V554.736M316.148 522.104H348.91M316.148 554.736V587.367M316.148 554.736H348.91M316.148 587.367V619.999M316.148 587.367H348.91M316.148 619.999H348.91M348.91 0V32.6315M348.91 0H381.673M348.91 32.6315V65.263M348.91 32.6315H381.673M348.91 65.263V97.8946M348.91 65.263H381.673M348.91 97.8946V130.526M348.91 97.8946H381.673M348.91 130.526V163.158M348.91 130.526H381.673M348.91 163.158V195.789M348.91 163.158H381.673M348.91 195.789V228.421M348.91 195.789H381.673M348.91 228.421V261.052M348.91 228.421H381.673M348.91 261.052V293.684M348.91 261.052H381.673M348.91 293.684V326.315M348.91 293.684H381.673M348.91 326.315V358.947M348.91 326.315H381.673M348.91 358.947V391.578M348.91 358.947H381.673M348.91 391.578V424.21M348.91 391.578H381.673M348.91 424.21V456.841M348.91 424.21H381.673M348.91 456.841V489.473M348.91 456.841H381.673M348.91 489.473V522.104M348.91 489.473H381.673M348.91 522.104V554.736M348.91 522.104H381.673M348.91 554.736V587.367M348.91 554.736H381.673M348.91 587.367V619.999M348.91 587.367H381.673M348.91 619.999H381.673M381.673 0V32.6315M381.673 0H414.435M381.673 32.6315V65.263M381.673 32.6315H414.435M381.673 65.263V97.8946M381.673 65.263H414.435M381.673 97.8946V130.526M381.673 97.8946H414.435M381.673 130.526V163.158M381.673 130.526H414.435M381.673 163.158V195.789M381.673 163.158H414.435M381.673 195.789V228.421M381.673 195.789H414.435M381.673 228.421V261.052M381.673 228.421H414.435M381.673 261.052V293.684M381.673 261.052H414.435M381.673 293.684V326.315M381.673 293.684H414.435M381.673 326.315V358.947M381.673 326.315H414.435M381.673 358.947V391.578M381.673 358.947H414.435M381.673 391.578V424.21M381.673 391.578H414.435M381.673 424.21V456.841M381.673 424.21H414.435M381.673 456.841V489.473M381.673 456.841H414.435M381.673 489.473V522.104M381.673 489.473H414.435M381.673 522.104V554.736M381.673 522.104H414.435M381.673 554.736V587.367M381.673 554.736H414.435M381.673 587.367V619.999M381.673 587.367H414.435M381.673 619.999H414.435M414.435 0V32.6315M414.435 0H447.197M414.435 32.6315V65.263M414.435 32.6315H447.197M414.435 65.263V97.8946M414.435 65.263H447.197M414.435 97.8946V130.526M414.435 97.8946H447.197M414.435 130.526V163.158M414.435 130.526H447.197M414.435 163.158V195.789M414.435 163.158H447.197M414.435 195.789V228.421M414.435 195.789H447.197M414.435 228.421V261.052M414.435 228.421H447.197M414.435 261.052V293.684M414.435 261.052H447.197M414.435 293.684V326.315M414.435 293.684H447.197M414.435 326.315V358.947M414.435 326.315H447.197M414.435 358.947V391.578M414.435 358.947H447.197M414.435 391.578V424.21M414.435 391.578H447.197M414.435 424.21V456.841M414.435 424.21H447.197M414.435 456.841V489.473M414.435 456.841H447.197M414.435 489.473V522.104M414.435 489.473H447.197M414.435 522.104V554.736M414.435 522.104H447.197M414.435 554.736V587.367M414.435 554.736H447.197M414.435 587.367V619.999M414.435 587.367H447.197M414.435 619.999H447.197M447.197 0V32.6315M447.197 0H479.96M447.197 32.6315V65.263M447.197 32.6315H479.96M447.197 65.263V97.8946M447.197 65.263H479.96M447.197 97.8946V130.526M447.197 97.8946H479.96M447.197 130.526V163.158M447.197 130.526H479.96M447.197 163.158V195.789M447.197 163.158H479.96M447.197 195.789V228.421M447.197 195.789H479.96M447.197 228.421V261.052M447.197 228.421H479.96M447.197 261.052V293.684M447.197 261.052H479.96M447.197 293.684V326.315M447.197 293.684H479.96M447.197 326.315V358.947M447.197 326.315H479.96M447.197 358.947V391.578M447.197 358.947H479.96M447.197 391.578V424.21M447.197 391.578H479.96M447.197 424.21V456.841M447.197 424.21H479.96M447.197 456.841V489.473M447.197 456.841H479.96M447.197 489.473V522.104M447.197 489.473H479.96M447.197 522.104V554.736M447.197 522.104H479.96M447.197 554.736V587.367M447.197 554.736H479.96M447.197 587.367V619.999M447.197 587.367H479.96M447.197 619.999H479.96M479.96 0V32.6315M479.96 0H512.722M479.96 32.6315V65.263M479.96 32.6315H512.722M479.96 65.263V97.8946M479.96 65.263H512.722M479.96 97.8946V130.526M479.96 97.8946H512.722M479.96 130.526V163.158M479.96 130.526H512.722M479.96 163.158V195.789M479.96 163.158H512.722M479.96 195.789V228.421M479.96 195.789H512.722M479.96 228.421V261.052M479.96 228.421H512.722M479.96 261.052V293.684M479.96 261.052H512.722M479.96 293.684V326.315M479.96 293.684H512.722M479.96 326.315V358.947M479.96 326.315H512.722M479.96 358.947V391.578M479.96 358.947H512.722M479.96 391.578V424.21M479.96 391.578H512.722M479.96 424.21V456.841M479.96 424.21H512.722M479.96 456.841V489.473M479.96 456.841H512.722M479.96 489.473V522.104M479.96 489.473H512.722M479.96 522.104V554.736M479.96 522.104H512.722M479.96 554.736V587.367M479.96 554.736H512.722M479.96 587.367V619.999M479.96 587.367H512.722M479.96 619.999H512.722M512.722 0V32.6315M512.722 0H545.484M512.722 32.6315V65.263M512.722 32.6315H545.484M512.722 65.263V97.8946M512.722 65.263H545.484M512.722 97.8946V130.526M512.722 97.8946H545.484M512.722 130.526V163.158M512.722 130.526H545.484M512.722 163.158V195.789M512.722 163.158H545.484M512.722 195.789V228.421M512.722 195.789H545.484M512.722 228.421V261.052M512.722 228.421H545.484M512.722 261.052V293.684M512.722 261.052H545.484M512.722 293.684V326.315M512.722 293.684H545.484M512.722 326.315V358.947M512.722 326.315H545.484M512.722 358.947V391.578M512.722 358.947H545.484M512.722 391.578V424.21M512.722 391.578H545.484M512.722 424.21V456.841M512.722 424.21H545.484M512.722 456.841V489.473M512.722 456.841H545.484M512.722 489.473V522.104M512.722 489.473H545.484M512.722 522.104V554.736M512.722 522.104H545.484M512.722 554.736V587.367M512.722 554.736H545.484M512.722 587.367V619.999M512.722 587.367H545.484M512.722 619.999H545.484M545.484 0V32.6315M545.484 0H578.247M545.484 32.6315V65.263M545.484 32.6315H578.247M545.484 65.263V97.8946M545.484 65.263H578.247M545.484 97.8946V130.526M545.484 97.8946H578.247M545.484 130.526V163.158M545.484 130.526H578.247M545.484 163.158V195.789M545.484 163.158H578.247M545.484 195.789V228.421M545.484 195.789H578.247M545.484 228.421V261.052M545.484 228.421H578.247M545.484 261.052V293.684M545.484 261.052H578.247M545.484 293.684V326.315M545.484 293.684H578.247M545.484 326.315V358.947M545.484 326.315H578.247M545.484 358.947V391.578M545.484 358.947H578.247M545.484 391.578V424.21M545.484 391.578H578.247M545.484 424.21V456.841M545.484 424.21H578.247M545.484 456.841V489.473M545.484 456.841H578.247M545.484 489.473V522.104M545.484 489.473H578.247M545.484 522.104V554.736M545.484 522.104H578.247M545.484 554.736V587.367M545.484 554.736H578.247M545.484 587.367V619.999M545.484 587.367H578.247M545.484 619.999H578.247M578.247 0V32.6315M578.247 0H611.009M578.247 32.6315V65.263M578.247 32.6315H611.009M578.247 65.263V97.8946M578.247 65.263H611.009M578.247 97.8946V130.526M578.247 97.8946H611.009M578.247 130.526V163.158M578.247 130.526H611.009M578.247 163.158V195.789M578.247 163.158H611.009M578.247 195.789V228.421M578.247 195.789H611.009M578.247 228.421V261.052M578.247 228.421H611.009M578.247 261.052V293.684M578.247 261.052H611.009M578.247 293.684V326.315M578.247 293.684H611.009M578.247 326.315V358.947M578.247 326.315H611.009M578.247 358.947V391.578M578.247 358.947H611.009M578.247 391.578V424.21M578.247 391.578H611.009M578.247 424.21V456.841M578.247 424.21H611.009M578.247 456.841V489.473M578.247 456.841H611.009M578.247 489.473V522.104M578.247 489.473H611.009M578.247 522.104V554.736M578.247 522.104H611.009M578.247 554.736V587.367M578.247 554.736H611.009M578.247 587.367V619.999M578.247 587.367H611.009M578.247 619.999H611.009M611.009 0V32.6315M611.009 0H643.771M611.009 32.6315V65.263M611.009 32.6315H643.771M611.009 65.263V97.8946M611.009 65.263H643.771M611.009 97.8946V130.526M611.009 97.8946H643.771M611.009 130.526V163.158M611.009 130.526H643.771M611.009 163.158V195.789M611.009 163.158H643.771M611.009 195.789V228.421M611.009 195.789H643.771M611.009 228.421V261.052M611.009 228.421H643.771M611.009 261.052V293.684M611.009 261.052H643.771M611.009 293.684V326.315M611.009 293.684H643.771M611.009 326.315V358.947M611.009 326.315H643.771M611.009 358.947V391.578M611.009 358.947H643.771M611.009 391.578V424.21M611.009 391.578H643.771M611.009 424.21V456.841M611.009 424.21H643.771M611.009 456.841V489.473M611.009 456.841H643.771M611.009 489.473V522.104M611.009 489.473H643.771M611.009 522.104V554.736M611.009 522.104H643.771M611.009 554.736V587.367M611.009 554.736H643.771M611.009 587.367V619.999M611.009 587.367H643.771M611.009 619.999H643.771M643.771 0V32.6315M643.771 0H676.534M643.771 32.6315V65.263M643.771 32.6315H676.534M643.771 65.263V97.8946M643.771 65.263H676.534M643.771 97.8946V130.526M643.771 97.8946H676.534M643.771 130.526V163.158M643.771 130.526H676.534M643.771 163.158V195.789M643.771 163.158H676.534M643.771 195.789V228.421M643.771 195.789H676.534M643.771 228.421V261.052M643.771 228.421H676.534M643.771 261.052V293.684M643.771 261.052H676.534M643.771 293.684V326.315M643.771 293.684H676.534M643.771 326.315V358.947M643.771 326.315H676.534M643.771 358.947V391.578M643.771 358.947H676.534M643.771 391.578V424.21M643.771 391.578H676.534M643.771 424.21V456.841M643.771 424.21H676.534M643.771 456.841V489.473M643.771 456.841H676.534M643.771 489.473V522.104M643.771 489.473H676.534M643.771 522.104V554.736M643.771 522.104H676.534M643.771 554.736V587.367M643.771 554.736H676.534M643.771 587.367V619.999M643.771 587.367H676.534M643.771 619.999H676.534M676.534 0V32.6315M676.534 0H709.296M676.534 32.6315V65.263M676.534 32.6315H709.296M676.534 65.263V97.8946M676.534 65.263H709.296M676.534 97.8946V130.526M676.534 97.8946H709.296M676.534 130.526V163.158M676.534 130.526H709.296M676.534 163.158V195.789M676.534 163.158H709.296M676.534 195.789V228.421M676.534 195.789H709.296M676.534 228.421V261.052M676.534 228.421H709.296M676.534 261.052V293.684M676.534 261.052H709.296M676.534 293.684V326.315M676.534 293.684H709.296M676.534 326.315V358.947M676.534 326.315H709.296M676.534 358.947V391.578M676.534 358.947H709.296M676.534 391.578V424.21M676.534 391.578H709.296M676.534 424.21V456.841M676.534 424.21H709.296M676.534 456.841V489.473M676.534 456.841H709.296M676.534 489.473V522.104M676.534 489.473H709.296M676.534 522.104V554.736M676.534 522.104H709.296M676.534 554.736V587.367M676.534 554.736H709.296M676.534 587.367V619.999M676.534 587.367H709.296M676.534 619.999H709.296M709.296 0V32.6315M709.296 0H742.058M709.296 32.6315V65.263M709.296 32.6315H742.058M709.296 65.263V97.8946M709.296 65.263H742.058M709.296 97.8946V130.526M709.296 97.8946H742.058M709.296 130.526V163.158M709.296 130.526H742.058M709.296 163.158V195.789M709.296 163.158H742.058M709.296 195.789V228.421M709.296 195.789H742.058M709.296 228.421V261.052M709.296 228.421H742.058M709.296 261.052V293.684M709.296 261.052H742.058M709.296 293.684V326.315M709.296 293.684H742.058M709.296 326.315V358.947M709.296 326.315H742.058M709.296 358.947V391.578M709.296 358.947H742.058M709.296 391.578V424.21M709.296 391.578H742.058M709.296 424.21V456.841M709.296 424.21H742.058M709.296 456.841V489.473M709.296 456.841H742.058M709.296 489.473V522.104M709.296 489.473H742.058M709.296 522.104V554.736M709.296 522.104H742.058M709.296 554.736V587.367M709.296 554.736H742.058M709.296 587.367V619.999M709.296 587.367H742.058M709.296 619.999H742.058M742.058 0V32.6315M742.058 0H774.821M742.058 32.6315V65.263M742.058 32.6315H774.821M742.058 65.263V97.8946M742.058 65.263H774.821M742.058 97.8946V130.526M742.058 97.8946H774.821M742.058 130.526V163.158M742.058 130.526H774.821M742.058 163.158V195.789M742.058 163.158H774.821M742.058 195.789V228.421M742.058 195.789H774.821M742.058 228.421V261.052M742.058 228.421H774.821M742.058 261.052V293.684M742.058 261.052H774.821M742.058 293.684V326.315M742.058 293.684H774.821M742.058 326.315V358.947M742.058 326.315H774.821M742.058 358.947V391.578M742.058 358.947H774.821M742.058 391.578V424.21M742.058 391.578H774.821M742.058 424.21V456.841M742.058 424.21H774.821M742.058 456.841V489.473M742.058 456.841H774.821M742.058 489.473V522.104M742.058 489.473H774.821M742.058 522.104V554.736M742.058 522.104H774.821M742.058 554.736V587.367M742.058 554.736H774.821M742.058 587.367V619.999M742.058 587.367H774.821M742.058 619.999H774.821M774.821 0V32.6315M774.821 0H807.583M774.821 32.6315V65.263M774.821 32.6315H807.583M774.821 65.263V97.8946M774.821 65.263H807.583M774.821 97.8946V130.526M774.821 97.8946H807.583M774.821 130.526V163.158M774.821 130.526H807.583M774.821 163.158V195.789M774.821 163.158H807.583M774.821 195.789V228.421M774.821 195.789H807.583M774.821 228.421V261.052M774.821 228.421H807.583M774.821 261.052V293.684M774.821 261.052H807.583M774.821 293.684V326.315M774.821 293.684H807.583M774.821 326.315V358.947M774.821 326.315H807.583M774.821 358.947V391.578M774.821 358.947H807.583M774.821 391.578V424.21M774.821 391.578H807.583M774.821 424.21V456.841M774.821 424.21H807.583M774.821 456.841V489.473M774.821 456.841H807.583M774.821 489.473V522.104M774.821 489.473H807.583M774.821 522.104V554.736M774.821 522.104H807.583M774.821 554.736V587.367M774.821 554.736H807.583M774.821 587.367V619.999M774.821 587.367H807.583M774.821 619.999H807.583M807.583 0V32.6315M807.583 0H840.345M807.583 32.6315V65.263M807.583 32.6315H840.345M807.583 65.263V97.8946M807.583 65.263H840.345M807.583 97.8946V130.526M807.583 97.8946H840.345M807.583 130.526V163.158M807.583 130.526H840.345M807.583 163.158V195.789M807.583 163.158H840.345M807.583 195.789V228.421M807.583 195.789H840.345M807.583 228.421V261.052M807.583 228.421H840.345M807.583 261.052V293.684M807.583 261.052H840.345M807.583 293.684V326.315M807.583 293.684H840.345M807.583 326.315V358.947M807.583 326.315H840.345M807.583 358.947V391.578M807.583 358.947H840.345M807.583 391.578V424.21M807.583 391.578H840.345M807.583 424.21V456.841M807.583 424.21H840.345M807.583 456.841V489.473M807.583 456.841H840.345M807.583 489.473V522.104M807.583 489.473H840.345M807.583 522.104V554.736M807.583 522.104H840.345M807.583 554.736V587.367M807.583 554.736H840.345M807.583 587.367V619.999M807.583 587.367H840.345M807.583 619.999H840.345M840.345 0V32.6315M840.345 0H873.108M840.345 32.6315V65.263M840.345 32.6315H873.108M840.345 65.263V97.8946M840.345 65.263H873.108M840.345 97.8946V130.526M840.345 97.8946H873.108M840.345 130.526V163.158M840.345 130.526H873.108M840.345 163.158V195.789M840.345 163.158H873.108M840.345 195.789V228.421M840.345 195.789H873.108M840.345 228.421V261.052M840.345 228.421H873.108M840.345 261.052V293.684M840.345 261.052H873.108M840.345 293.684V326.315M840.345 293.684H873.108M840.345 326.315V358.947M840.345 326.315H873.108M840.345 358.947V391.578M840.345 358.947H873.108M840.345 391.578V424.21M840.345 391.578H873.108M840.345 424.21V456.841M840.345 424.21H873.108M840.345 456.841V489.473M840.345 456.841H873.108M840.345 489.473V522.104M840.345 489.473H873.108M840.345 522.104V554.736M840.345 522.104H873.108M840.345 554.736V587.367M840.345 554.736H873.108M840.345 587.367V619.999M840.345 587.367H873.108M840.345 619.999H873.108M873.108 0V32.6315M873.108 0H905.87M873.108 32.6315V65.263M873.108 32.6315H905.87M873.108 65.263V97.8946M873.108 65.263H905.87M873.108 97.8946V130.526M873.108 97.8946H905.87M873.108 130.526V163.158M873.108 130.526H905.87M873.108 163.158V195.789M873.108 163.158H905.87M873.108 195.789V228.421M873.108 195.789H905.87M873.108 228.421V261.052M873.108 228.421H905.87M873.108 261.052V293.684M873.108 261.052H905.87M873.108 293.684V326.315M873.108 293.684H905.87M873.108 326.315V358.947M873.108 326.315H905.87M873.108 358.947V391.578M873.108 358.947H905.87M873.108 391.578V424.21M873.108 391.578H905.87M873.108 424.21V456.841M873.108 424.21H905.87M873.108 456.841V489.473M873.108 456.841H905.87M873.108 489.473V522.104M873.108 489.473H905.87M873.108 522.104V554.736M873.108 522.104H905.87M873.108 554.736V587.367M873.108 554.736H905.87M873.108 587.367V619.999M873.108 587.367H905.87M873.108 619.999H905.87M905.87 0V32.6315M905.87 0H938.632M905.87 32.6315V65.263M905.87 32.6315H938.632M905.87 65.263V97.8946M905.87 65.263H938.632M905.87 97.8946V130.526M905.87 97.8946H938.632M905.87 130.526V163.158M905.87 130.526H938.632M905.87 163.158V195.789M905.87 163.158H938.632M905.87 195.789V228.421M905.87 195.789H938.632M905.87 228.421V261.052M905.87 228.421H938.632M905.87 261.052V293.684M905.87 261.052H938.632M905.87 293.684V326.315M905.87 293.684H938.632M905.87 326.315V358.947M905.87 326.315H938.632M905.87 358.947V391.578M905.87 358.947H938.632M905.87 391.578V424.21M905.87 391.578H938.632M905.87 424.21V456.841M905.87 424.21H938.632M905.87 456.841V489.473M905.87 456.841H938.632M905.87 489.473V522.104M905.87 489.473H938.632M905.87 522.104V554.736M905.87 522.104H938.632M905.87 554.736V587.367M905.87 554.736H938.632M905.87 587.367V619.999M905.87 587.367H938.632M905.87 619.999H938.632M938.632 0V32.6315M938.632 0H971.395M938.632 32.6315V65.263M938.632 32.6315H971.395M938.632 65.263V97.8946M938.632 65.263H971.395M938.632 97.8946V130.526M938.632 97.8946H971.395M938.632 130.526V163.158M938.632 130.526H971.395M938.632 163.158V195.789M938.632 163.158H971.395M938.632 195.789V228.421M938.632 195.789H971.395M938.632 228.421V261.052M938.632 228.421H971.395M938.632 261.052V293.684M938.632 261.052H971.395M938.632 293.684V326.315M938.632 293.684H971.395M938.632 326.315V358.947M938.632 326.315H971.395M938.632 358.947V391.578M938.632 358.947H971.395M938.632 391.578V424.21M938.632 391.578H971.395M938.632 424.21V456.841M938.632 424.21H971.395M938.632 456.841V489.473M938.632 456.841H971.395M938.632 489.473V522.104M938.632 489.473H971.395M938.632 522.104V554.736M938.632 522.104H971.395M938.632 554.736V587.367M938.632 554.736H971.395M938.632 587.367V619.999M938.632 587.367H971.395M938.632 619.999H971.395M971.395 0V32.6315M971.395 0H1004.16M971.395 32.6315V65.263M971.395 32.6315H1004.16M971.395 65.263V97.8946M971.395 65.263H1004.16M971.395 97.8946V130.526M971.395 97.8946H1004.16M971.395 130.526V163.158M971.395 130.526H1004.16M971.395 163.158V195.789M971.395 163.158H1004.16M971.395 195.789V228.421M971.395 195.789H1004.16M971.395 228.421V261.052M971.395 228.421H1004.16M971.395 261.052V293.684M971.395 261.052H1004.16M971.395 293.684V326.315M971.395 293.684H1004.16M971.395 326.315V358.947M971.395 326.315H1004.16M971.395 358.947V391.578M971.395 358.947H1004.16M971.395 391.578V424.21M971.395 391.578H1004.16M971.395 424.21V456.841M971.395 424.21H1004.16M971.395 456.841V489.473M971.395 456.841H1004.16M971.395 489.473V522.104M971.395 489.473H1004.16M971.395 522.104V554.736M971.395 522.104H1004.16M971.395 554.736V587.367M971.395 554.736H1004.16M971.395 587.367V619.999M971.395 587.367H1004.16M971.395 619.999H1004.16M1004.16 0V32.6315M1004.16 0H1036.92M1004.16 32.6315V65.263M1004.16 32.6315H1036.92M1004.16 65.263V97.8946M1004.16 65.263H1036.92M1004.16 97.8946V130.526M1004.16 97.8946H1036.92M1004.16 130.526V163.158M1004.16 130.526H1036.92M1004.16 163.158V195.789M1004.16 163.158H1036.92M1004.16 195.789V228.421M1004.16 195.789H1036.92M1004.16 228.421V261.052M1004.16 228.421H1036.92M1004.16 261.052V293.684M1004.16 261.052H1036.92M1004.16 293.684V326.315M1004.16 293.684H1036.92M1004.16 326.315V358.947M1004.16 326.315H1036.92M1004.16 358.947V391.578M1004.16 358.947H1036.92M1004.16 391.578V424.21M1004.16 391.578H1036.92M1004.16 424.21V456.841M1004.16 424.21H1036.92M1004.16 456.841V489.473M1004.16 456.841H1036.92M1004.16 489.473V522.104M1004.16 489.473H1036.92M1004.16 522.104V554.736M1004.16 522.104H1036.92M1004.16 554.736V587.367M1004.16 554.736H1036.92M1004.16 587.367V619.999M1004.16 587.367H1036.92M1004.16 619.999H1036.92M1036.92 0V32.6315M1036.92 0H1069.68M1036.92 32.6315V65.263M1036.92 32.6315H1069.68M1036.92 65.263V97.8946M1036.92 65.263H1069.68M1036.92 97.8946V130.526M1036.92 97.8946H1069.68M1036.92 130.526V163.158M1036.92 130.526H1069.68M1036.92 163.158V195.789M1036.92 163.158H1069.68M1036.92 195.789V228.421M1036.92 195.789H1069.68M1036.92 228.421V261.052M1036.92 228.421H1069.68M1036.92 261.052V293.684M1036.92 261.052H1069.68M1036.92 293.684V326.315M1036.92 293.684H1069.68M1036.92 326.315V358.947M1036.92 326.315H1069.68M1036.92 358.947V391.578M1036.92 358.947H1069.68M1036.92 391.578V424.21M1036.92 391.578H1069.68M1036.92 424.21V456.841M1036.92 424.21H1069.68M1036.92 456.841V489.473M1036.92 456.841H1069.68M1036.92 489.473V522.104M1036.92 489.473H1069.68M1036.92 522.104V554.736M1036.92 522.104H1069.68M1036.92 554.736V587.367M1036.92 554.736H1069.68M1036.92 587.367V619.999M1036.92 587.367H1069.68M1036.92 619.999H1069.68M1069.68 0V32.6315M1069.68 0H1102.44M1069.68 32.6315V65.263M1069.68 32.6315H1102.44M1069.68 65.263V97.8946M1069.68 65.263H1102.44M1069.68 97.8946V130.526M1069.68 97.8946H1102.44M1069.68 130.526V163.158M1069.68 130.526H1102.44M1069.68 163.158V195.789M1069.68 163.158H1102.44M1069.68 195.789V228.421M1069.68 195.789H1102.44M1069.68 228.421V261.052M1069.68 228.421H1102.44M1069.68 261.052V293.684M1069.68 261.052H1102.44M1069.68 293.684V326.315M1069.68 293.684H1102.44M1069.68 326.315V358.947M1069.68 326.315H1102.44M1069.68 358.947V391.578M1069.68 358.947H1102.44M1069.68 391.578V424.21M1069.68 391.578H1102.44M1069.68 424.21V456.841M1069.68 424.21H1102.44M1069.68 456.841V489.473M1069.68 456.841H1102.44M1069.68 489.473V522.104M1069.68 489.473H1102.44M1069.68 522.104V554.736M1069.68 522.104H1102.44M1069.68 554.736V587.367M1069.68 554.736H1102.44M1069.68 587.367V619.999M1069.68 587.367H1102.44M1069.68 619.999H1102.44M1102.44 0V32.6315M1102.44 0H1135.21M1102.44 32.6315V65.263M1102.44 32.6315H1135.21M1102.44 65.263V97.8946M1102.44 65.263H1135.21M1102.44 97.8946V130.526M1102.44 97.8946H1135.21M1102.44 130.526V163.158M1102.44 130.526H1135.21M1102.44 163.158V195.789M1102.44 163.158H1135.21M1102.44 195.789V228.421M1102.44 195.789H1135.21M1102.44 228.421V261.052M1102.44 228.421H1135.21M1102.44 261.052V293.684M1102.44 261.052H1135.21M1102.44 293.684V326.315M1102.44 293.684H1135.21M1102.44 326.315V358.947M1102.44 326.315H1135.21M1102.44 358.947V391.578M1102.44 358.947H1135.21M1102.44 391.578V424.21M1102.44 391.578H1135.21M1102.44 424.21V456.841M1102.44 424.21H1135.21M1102.44 456.841V489.473M1102.44 456.841H1135.21M1102.44 489.473V522.104M1102.44 489.473H1135.21M1102.44 522.104V554.736M1102.44 522.104H1135.21M1102.44 554.736V587.367M1102.44 554.736H1135.21M1102.44 587.367V619.999M1102.44 587.367H1135.21M1102.44 619.999H1135.21M1135.21 0V32.6315M1135.21 0H1167.97M1135.21 32.6315V65.263M1135.21 32.6315H1167.97M1135.21 65.263V97.8946M1135.21 65.263H1167.97M1135.21 97.8946V130.526M1135.21 97.8946H1167.97M1135.21 130.526V163.158M1135.21 130.526H1167.97M1135.21 163.158V195.789M1135.21 163.158H1167.97M1135.21 195.789V228.421M1135.21 195.789H1167.97M1135.21 228.421V261.052M1135.21 228.421H1167.97M1135.21 261.052V293.684M1135.21 261.052H1167.97M1135.21 293.684V326.315M1135.21 293.684H1167.97M1135.21 326.315V358.947M1135.21 326.315H1167.97M1135.21 358.947V391.578M1135.21 358.947H1167.97M1135.21 391.578V424.21M1135.21 391.578H1167.97M1135.21 424.21V456.841M1135.21 424.21H1167.97M1135.21 456.841V489.473M1135.21 456.841H1167.97M1135.21 489.473V522.104M1135.21 489.473H1167.97M1135.21 522.104V554.736M1135.21 522.104H1167.97M1135.21 554.736V587.367M1135.21 554.736H1167.97M1135.21 587.367V619.999M1135.21 587.367H1167.97M1135.21 619.999H1167.97M1167.97 0V32.6315M1167.97 0H1200.73M1167.97 32.6315V65.263M1167.97 32.6315H1200.73M1167.97 65.263V97.8946M1167.97 65.263H1200.73M1167.97 97.8946V130.526M1167.97 97.8946H1200.73M1167.97 130.526V163.158M1167.97 130.526H1200.73M1167.97 163.158V195.789M1167.97 163.158H1200.73M1167.97 195.789V228.421M1167.97 195.789H1200.73M1167.97 228.421V261.052M1167.97 228.421H1200.73M1167.97 261.052V293.684M1167.97 261.052H1200.73M1167.97 293.684V326.315M1167.97 293.684H1200.73M1167.97 326.315V358.947M1167.97 326.315H1200.73M1167.97 358.947V391.578M1167.97 358.947H1200.73M1167.97 391.578V424.21M1167.97 391.578H1200.73M1167.97 424.21V456.841M1167.97 424.21H1200.73M1167.97 456.841V489.473M1167.97 456.841H1200.73M1167.97 489.473V522.104M1167.97 489.473H1200.73M1167.97 522.104V554.736M1167.97 522.104H1200.73M1167.97 554.736V587.367M1167.97 554.736H1200.73M1167.97 587.367V619.999M1167.97 587.367H1200.73M1167.97 619.999H1200.73M1200.73 0V32.6315M1200.73 0H1233.49M1200.73 32.6315V65.263M1200.73 32.6315H1233.49M1200.73 65.263V97.8946M1200.73 65.263H1233.49M1200.73 97.8946V130.526M1200.73 97.8946H1233.49M1200.73 130.526V163.158M1200.73 130.526H1233.49M1200.73 163.158V195.789M1200.73 163.158H1233.49M1200.73 195.789V228.421M1200.73 195.789H1233.49M1200.73 228.421V261.052M1200.73 228.421H1233.49M1200.73 261.052V293.684M1200.73 261.052H1233.49M1200.73 293.684V326.315M1200.73 293.684H1233.49M1200.73 326.315V358.947M1200.73 326.315H1233.49M1200.73 358.947V391.578M1200.73 358.947H1233.49M1200.73 391.578V424.21M1200.73 391.578H1233.49M1200.73 424.21V456.841M1200.73 424.21H1233.49M1200.73 456.841V489.473M1200.73 456.841H1233.49M1200.73 489.473V522.104M1200.73 489.473H1233.49M1200.73 522.104V554.736M1200.73 522.104H1233.49M1200.73 554.736V587.367M1200.73 554.736H1233.49M1200.73 587.367V619.999M1200.73 587.367H1233.49M1200.73 619.999H1233.49M1233.49 0V32.6315M1233.49 0H1266.26M1233.49 32.6315V65.263M1233.49 32.6315H1266.26M1233.49 65.263V97.8946M1233.49 65.263H1266.26M1233.49 97.8946V130.526M1233.49 97.8946H1266.26M1233.49 130.526V163.158M1233.49 130.526H1266.26M1233.49 163.158V195.789M1233.49 163.158H1266.26M1233.49 195.789V228.421M1233.49 195.789H1266.26M1233.49 228.421V261.052M1233.49 228.421H1266.26M1233.49 261.052V293.684M1233.49 261.052H1266.26M1233.49 293.684V326.315M1233.49 293.684H1266.26M1233.49 326.315V358.947M1233.49 326.315H1266.26M1233.49 358.947V391.578M1233.49 358.947H1266.26M1233.49 391.578V424.21M1233.49 391.578H1266.26M1233.49 424.21V456.841M1233.49 424.21H1266.26M1233.49 456.841V489.473M1233.49 456.841H1266.26M1233.49 489.473V522.104M1233.49 489.473H1266.26M1233.49 522.104V554.736M1233.49 522.104H1266.26M1233.49 554.736V587.367M1233.49 554.736H1266.26M1233.49 587.367V619.999M1233.49 587.367H1266.26M1233.49 619.999H1266.26M1266.26 0V32.6315M1266.26 0H1299.02M1266.26 32.6315V65.263M1266.26 32.6315H1299.02M1266.26 65.263V97.8946M1266.26 65.263H1299.02M1266.26 97.8946V130.526M1266.26 97.8946H1299.02M1266.26 130.526V163.158M1266.26 130.526H1299.02M1266.26 163.158V195.789M1266.26 163.158H1299.02M1266.26 195.789V228.421M1266.26 195.789H1299.02M1266.26 228.421V261.052M1266.26 228.421H1299.02M1266.26 261.052V293.684M1266.26 261.052H1299.02M1266.26 293.684V326.315M1266.26 293.684H1299.02M1266.26 326.315V358.947M1266.26 326.315H1299.02M1266.26 358.947V391.578M1266.26 358.947H1299.02M1266.26 391.578V424.21M1266.26 391.578H1299.02M1266.26 424.21V456.841M1266.26 424.21H1299.02M1266.26 456.841V489.473M1266.26 456.841H1299.02M1266.26 489.473V522.104M1266.26 489.473H1299.02M1266.26 522.104V554.736M1266.26 522.104H1299.02M1266.26 554.736V587.367M1266.26 554.736H1299.02M1266.26 587.367V619.999M1266.26 587.367H1299.02M1266.26 619.999H1299.02M1299.02 0V32.6315M1299.02 0H1331.78M1299.02 32.6315V65.263M1299.02 32.6315H1331.78M1299.02 65.263V97.8946M1299.02 65.263H1331.78M1299.02 97.8946V130.526M1299.02 97.8946H1331.78M1299.02 130.526V163.158M1299.02 130.526H1331.78M1299.02 163.158V195.789M1299.02 163.158H1331.78M1299.02 195.789V228.421M1299.02 195.789H1331.78M1299.02 228.421V261.052M1299.02 228.421H1331.78M1299.02 261.052V293.684M1299.02 261.052H1331.78M1299.02 293.684V326.315M1299.02 293.684H1331.78M1299.02 326.315V358.947M1299.02 326.315H1331.78M1299.02 358.947V391.578M1299.02 358.947H1331.78M1299.02 391.578V424.21M1299.02 391.578H1331.78M1299.02 424.21V456.841M1299.02 424.21H1331.78M1299.02 456.841V489.473M1299.02 456.841H1331.78M1299.02 489.473V522.104M1299.02 489.473H1331.78M1299.02 522.104V554.736M1299.02 522.104H1331.78M1299.02 554.736V587.367M1299.02 554.736H1331.78M1299.02 587.367V619.999M1299.02 587.367H1331.78M1299.02 619.999H1331.78M1331.78 0V32.6315M1331.78 0H1364.54V32.6315M1331.78 32.6315V65.263M1331.78 32.6315H1364.54M1331.78 65.263V97.8946M1331.78 65.263H1364.54M1331.78 97.8946V130.526M1331.78 97.8946H1364.54M1331.78 130.526V163.158M1331.78 130.526H1364.54M1331.78 163.158V195.789M1331.78 163.158H1364.54M1331.78 195.789V228.421M1331.78 195.789H1364.54M1331.78 228.421V261.052M1331.78 228.421H1364.54M1331.78 261.052V293.684M1331.78 261.052H1364.54M1331.78 293.684V326.315M1331.78 293.684H1364.54M1331.78 326.315V358.947M1331.78 326.315H1364.54M1331.78 358.947V391.578M1331.78 358.947H1364.54M1331.78 391.578V424.21M1331.78 391.578H1364.54M1331.78 424.21V456.841M1331.78 424.21H1364.54M1331.78 456.841V489.473M1331.78 456.841H1364.54M1331.78 489.473V522.104M1331.78 489.473H1364.54M1331.78 522.104V554.736M1331.78 522.104H1364.54M1331.78 554.736V587.367M1331.78 554.736H1364.54M1331.78 587.367V619.999M1331.78 587.367H1364.54M1331.78 619.999H1364.54V587.367M1364.54 32.6315V65.263M1364.54 65.263V97.8946M1364.54 97.8946V130.526M1364.54 130.526V163.158M1364.54 163.158V195.789M1364.54 195.789V228.421M1364.54 228.421V261.052M1364.54 261.052V293.684M1364.54 293.684V326.315M1364.54 326.315V358.947M1364.54 358.947V391.578M1364.54 391.578V424.21M1364.54 424.21V456.841M1364.54 456.841V489.473M1364.54 489.473V522.104M1364.54 522.104V554.736M1364.54 554.736V587.367" stroke="url(#paint0_radial_2275_1962)" stroke-width="0.575926"/>
<defs>
<radialGradient id="paint0_radial_2275_1962" cx="0" cy="0" r="1" gradientUnits="userSpaceOnUse" gradientTransform="translate(643.771 309.999) rotate(90) scale(309.999 582.035)">
<stop stop-color="#4B0082"/>
<stop offset="1" stop-color="#4B0082" stop-opacity="0.2"/>
</radialGradient>
</defs>
</svg>
