<svg width="475" height="396" viewBox="0 0 475 396" fill="none" xmlns="http://www.w3.org/2000/svg">
<path opacity="0.1" d="M-200.136 0H-221V20.8421M-200.136 0V20.8421M-200.136 0H-179.273M-200.136 20.8421H-221M-200.136 20.8421V41.6842M-200.136 20.8421H-179.273M-221 20.8421V41.6842M-200.136 41.6842H-221M-200.136 41.6842V62.5263M-200.136 41.6842H-179.273M-221 41.6842V62.5263M-200.136 62.5263H-221M-200.136 62.5263V83.3684M-200.136 62.5263H-179.273M-221 62.5263V83.3684M-200.136 83.3684H-221M-200.136 83.3684V104.211M-200.136 83.3684H-179.273M-221 83.3684V104.211M-200.136 104.211H-221M-200.136 104.211V125.053M-200.136 104.211H-179.273M-221 104.211V125.053M-200.136 125.053H-221M-200.136 125.053V145.895M-200.136 125.053H-179.273M-221 125.053V145.895M-200.136 145.895H-221M-200.136 145.895V166.737M-200.136 145.895H-179.273M-221 145.895V166.737M-200.136 166.737H-221M-200.136 166.737V187.579M-200.136 166.737H-179.273M-221 166.737V187.579M-200.136 187.579H-221M-200.136 187.579V208.421M-200.136 187.579H-179.273M-221 187.579V208.421M-200.136 208.421H-221M-200.136 208.421V229.263M-200.136 208.421H-179.273M-221 208.421V229.263M-200.136 229.263H-221M-200.136 229.263V250.105M-200.136 229.263H-179.273M-221 229.263V250.105M-200.136 250.105H-221M-200.136 250.105V270.947M-200.136 250.105H-179.273M-221 250.105V270.947M-200.136 270.947H-221M-200.136 270.947V291.789M-200.136 270.947H-179.273M-221 270.947V291.789M-200.136 291.789H-221M-200.136 291.789V312.632M-200.136 291.789H-179.273M-221 291.789V312.632M-200.136 312.632H-221M-200.136 312.632V333.474M-200.136 312.632H-179.273M-221 312.632V333.474M-200.136 333.474H-221M-200.136 333.474V354.316M-200.136 333.474H-179.273M-221 333.474V354.316M-200.136 354.316H-221M-200.136 354.316V375.158M-200.136 354.316H-179.273M-221 354.316V375.158M-200.136 375.158H-221M-200.136 375.158V396M-200.136 375.158H-179.273M-221 375.158V396H-200.136M-200.136 396H-179.273M-179.273 0V20.8421M-179.273 0H-158.409M-179.273 20.8421V41.6842M-179.273 20.8421H-158.409M-179.273 41.6842V62.5263M-179.273 41.6842H-158.409M-179.273 62.5263V83.3684M-179.273 62.5263H-158.409M-179.273 83.3684V104.211M-179.273 83.3684H-158.409M-179.273 104.211V125.053M-179.273 104.211H-158.409M-179.273 125.053V145.895M-179.273 125.053H-158.409M-179.273 145.895V166.737M-179.273 145.895H-158.409M-179.273 166.737V187.579M-179.273 166.737H-158.409M-179.273 187.579V208.421M-179.273 187.579H-158.409M-179.273 208.421V229.263M-179.273 208.421H-158.409M-179.273 229.263V250.105M-179.273 229.263H-158.409M-179.273 250.105V270.947M-179.273 250.105H-158.409M-179.273 270.947V291.789M-179.273 270.947H-158.409M-179.273 291.789V312.632M-179.273 291.789H-158.409M-179.273 312.632V333.474M-179.273 312.632H-158.409M-179.273 333.474V354.316M-179.273 333.474H-158.409M-179.273 354.316V375.158M-179.273 354.316H-158.409M-179.273 375.158V396M-179.273 375.158H-158.409M-179.273 396H-158.409M-158.409 0V20.8421M-158.409 0H-137.545M-158.409 20.8421V41.6842M-158.409 20.8421H-137.545M-158.409 41.6842V62.5263M-158.409 41.6842H-137.545M-158.409 62.5263V83.3684M-158.409 62.5263H-137.545M-158.409 83.3684V104.211M-158.409 83.3684H-137.545M-158.409 104.211V125.053M-158.409 104.211H-137.545M-158.409 125.053V145.895M-158.409 125.053H-137.545M-158.409 145.895V166.737M-158.409 145.895H-137.545M-158.409 166.737V187.579M-158.409 166.737H-137.545M-158.409 187.579V208.421M-158.409 187.579H-137.545M-158.409 208.421V229.263M-158.409 208.421H-137.545M-158.409 229.263V250.105M-158.409 229.263H-137.545M-158.409 250.105V270.947M-158.409 250.105H-137.545M-158.409 270.947V291.789M-158.409 270.947H-137.545M-158.409 291.789V312.632M-158.409 291.789H-137.545M-158.409 312.632V333.474M-158.409 312.632H-137.545M-158.409 333.474V354.316M-158.409 333.474H-137.545M-158.409 354.316V375.158M-158.409 354.316H-137.545M-158.409 375.158V396M-158.409 375.158H-137.545M-158.409 396H-137.545M-137.545 0V20.8421M-137.545 0H-116.682M-137.545 20.8421V41.6842M-137.545 20.8421H-116.682M-137.545 41.6842V62.5263M-137.545 41.6842H-116.682M-137.545 62.5263V83.3684M-137.545 62.5263H-116.682M-137.545 83.3684V104.211M-137.545 83.3684H-116.682M-137.545 104.211V125.053M-137.545 104.211H-116.682M-137.545 125.053V145.895M-137.545 125.053H-116.682M-137.545 145.895V166.737M-137.545 145.895H-116.682M-137.545 166.737V187.579M-137.545 166.737H-116.682M-137.545 187.579V208.421M-137.545 187.579H-116.682M-137.545 208.421V229.263M-137.545 208.421H-116.682M-137.545 229.263V250.105M-137.545 229.263H-116.682M-137.545 250.105V270.947M-137.545 250.105H-116.682M-137.545 270.947V291.789M-137.545 270.947H-116.682M-137.545 291.789V312.632M-137.545 291.789H-116.682M-137.545 312.632V333.474M-137.545 312.632H-116.682M-137.545 333.474V354.316M-137.545 333.474H-116.682M-137.545 354.316V375.158M-137.545 354.316H-116.682M-137.545 375.158V396M-137.545 375.158H-116.682M-137.545 396H-116.682M-116.682 0V20.8421M-116.682 0H-95.8182M-116.682 20.8421V41.6842M-116.682 20.8421H-95.8182M-116.682 41.6842V62.5263M-116.682 41.6842H-95.8182M-116.682 62.5263V83.3684M-116.682 62.5263H-95.8182M-116.682 83.3684V104.211M-116.682 83.3684H-95.8182M-116.682 104.211V125.053M-116.682 104.211H-95.8182M-116.682 125.053V145.895M-116.682 125.053H-95.8182M-116.682 145.895V166.737M-116.682 145.895H-95.8182M-116.682 166.737V187.579M-116.682 166.737H-95.8182M-116.682 187.579V208.421M-116.682 187.579H-95.8182M-116.682 208.421V229.263M-116.682 208.421H-95.8182M-116.682 229.263V250.105M-116.682 229.263H-95.8182M-116.682 250.105V270.947M-116.682 250.105H-95.8182M-116.682 270.947V291.789M-116.682 270.947H-95.8182M-116.682 291.789V312.632M-116.682 291.789H-95.8182M-116.682 312.632V333.474M-116.682 312.632H-95.8182M-116.682 333.474V354.316M-116.682 333.474H-95.8182M-116.682 354.316V375.158M-116.682 354.316H-95.8182M-116.682 375.158V396M-116.682 375.158H-95.8182M-116.682 396H-95.8182M-95.8182 0V20.8421M-95.8182 0H-74.9545M-95.8182 20.8421V41.6842M-95.8182 20.8421H-74.9545M-95.8182 41.6842V62.5263M-95.8182 41.6842H-74.9545M-95.8182 62.5263V83.3684M-95.8182 62.5263H-74.9545M-95.8182 83.3684V104.211M-95.8182 83.3684H-74.9545M-95.8182 104.211V125.053M-95.8182 104.211H-74.9545M-95.8182 125.053V145.895M-95.8182 125.053H-74.9545M-95.8182 145.895V166.737M-95.8182 145.895H-74.9545M-95.8182 166.737V187.579M-95.8182 166.737H-74.9545M-95.8182 187.579V208.421M-95.8182 187.579H-74.9545M-95.8182 208.421V229.263M-95.8182 208.421H-74.9545M-95.8182 229.263V250.105M-95.8182 229.263H-74.9545M-95.8182 250.105V270.947M-95.8182 250.105H-74.9545M-95.8182 270.947V291.789M-95.8182 270.947H-74.9545M-95.8182 291.789V312.632M-95.8182 291.789H-74.9545M-95.8182 312.632V333.474M-95.8182 312.632H-74.9545M-95.8182 333.474V354.316M-95.8182 333.474H-74.9545M-95.8182 354.316V375.158M-95.8182 354.316H-74.9545M-95.8182 375.158V396M-95.8182 375.158H-74.9545M-95.8182 396H-74.9545M-74.9545 0V20.8421M-74.9545 0H-54.0909M-74.9545 20.8421V41.6842M-74.9545 20.8421H-54.0909M-74.9545 41.6842V62.5263M-74.9545 41.6842H-54.0909M-74.9545 62.5263V83.3684M-74.9545 62.5263H-54.0909M-74.9545 83.3684V104.211M-74.9545 83.3684H-54.0909M-74.9545 104.211V125.053M-74.9545 104.211H-54.0909M-74.9545 125.053V145.895M-74.9545 125.053H-54.0909M-74.9545 145.895V166.737M-74.9545 145.895H-54.0909M-74.9545 166.737V187.579M-74.9545 166.737H-54.0909M-74.9545 187.579V208.421M-74.9545 187.579H-54.0909M-74.9545 208.421V229.263M-74.9545 208.421H-54.0909M-74.9545 229.263V250.105M-74.9545 229.263H-54.0909M-74.9545 250.105V270.947M-74.9545 250.105H-54.0909M-74.9545 270.947V291.789M-74.9545 270.947H-54.0909M-74.9545 291.789V312.632M-74.9545 291.789H-54.0909M-74.9545 312.632V333.474M-74.9545 312.632H-54.0909M-74.9545 333.474V354.316M-74.9545 333.474H-54.0909M-74.9545 354.316V375.158M-74.9545 354.316H-54.0909M-74.9545 375.158V396M-74.9545 375.158H-54.0909M-74.9545 396H-54.0909M-54.0909 0V20.8421M-54.0909 0H-33.2273M-54.0909 20.8421V41.6842M-54.0909 20.8421H-33.2273M-54.0909 41.6842V62.5263M-54.0909 41.6842H-33.2273M-54.0909 62.5263V83.3684M-54.0909 62.5263H-33.2273M-54.0909 83.3684V104.211M-54.0909 83.3684H-33.2273M-54.0909 104.211V125.053M-54.0909 104.211H-33.2273M-54.0909 125.053V145.895M-54.0909 125.053H-33.2273M-54.0909 145.895V166.737M-54.0909 145.895H-33.2273M-54.0909 166.737V187.579M-54.0909 166.737H-33.2273M-54.0909 187.579V208.421M-54.0909 187.579H-33.2273M-54.0909 208.421V229.263M-54.0909 208.421H-33.2273M-54.0909 229.263V250.105M-54.0909 229.263H-33.2273M-54.0909 250.105V270.947M-54.0909 250.105H-33.2273M-54.0909 270.947V291.789M-54.0909 270.947H-33.2273M-54.0909 291.789V312.632M-54.0909 291.789H-33.2273M-54.0909 312.632V333.474M-54.0909 312.632H-33.2273M-54.0909 333.474V354.316M-54.0909 333.474H-33.2273M-54.0909 354.316V375.158M-54.0909 354.316H-33.2273M-54.0909 375.158V396M-54.0909 375.158H-33.2273M-54.0909 396H-33.2273M-33.2273 0V20.8421M-33.2273 0H-12.3636M-33.2273 20.8421V41.6842M-33.2273 20.8421H-12.3636M-33.2273 41.6842V62.5263M-33.2273 41.6842H-12.3636M-33.2273 62.5263V83.3684M-33.2273 62.5263H-12.3636M-33.2273 83.3684V104.211M-33.2273 83.3684H-12.3636M-33.2273 104.211V125.053M-33.2273 104.211H-12.3636M-33.2273 125.053V145.895M-33.2273 125.053H-12.3636M-33.2273 145.895V166.737M-33.2273 145.895H-12.3636M-33.2273 166.737V187.579M-33.2273 166.737H-12.3636M-33.2273 187.579V208.421M-33.2273 187.579H-12.3636M-33.2273 208.421V229.263M-33.2273 208.421H-12.3636M-33.2273 229.263V250.105M-33.2273 229.263H-12.3636M-33.2273 250.105V270.947M-33.2273 250.105H-12.3636M-33.2273 270.947V291.789M-33.2273 270.947H-12.3636M-33.2273 291.789V312.632M-33.2273 291.789H-12.3636M-33.2273 312.632V333.474M-33.2273 312.632H-12.3636M-33.2273 333.474V354.316M-33.2273 333.474H-12.3636M-33.2273 354.316V375.158M-33.2273 354.316H-12.3636M-33.2273 375.158V396M-33.2273 375.158H-12.3636M-33.2273 396H-12.3636M-12.3636 0V20.8421M-12.3636 0H8.50001M-12.3636 20.8421V41.6842M-12.3636 20.8421H8.50001M-12.3636 41.6842V62.5263M-12.3636 41.6842H8.50001M-12.3636 62.5263V83.3684M-12.3636 62.5263H8.50001M-12.3636 83.3684V104.211M-12.3636 83.3684H8.50001M-12.3636 104.211V125.053M-12.3636 104.211H8.50001M-12.3636 125.053V145.895M-12.3636 125.053H8.50001M-12.3636 145.895V166.737M-12.3636 145.895H8.50001M-12.3636 166.737V187.579M-12.3636 166.737H8.50001M-12.3636 187.579V208.421M-12.3636 187.579H8.50001M-12.3636 208.421V229.263M-12.3636 208.421H8.50001M-12.3636 229.263V250.105M-12.3636 229.263H8.50001M-12.3636 250.105V270.947M-12.3636 250.105H8.50001M-12.3636 270.947V291.789M-12.3636 270.947H8.50001M-12.3636 291.789V312.632M-12.3636 291.789H8.50001M-12.3636 312.632V333.474M-12.3636 312.632H8.50001M-12.3636 333.474V354.316M-12.3636 333.474H8.50001M-12.3636 354.316V375.158M-12.3636 354.316H8.50001M-12.3636 375.158V396M-12.3636 375.158H8.50001M-12.3636 396H8.50001M8.50001 0V20.8421M8.50001 0H29.3637M8.50001 20.8421V41.6842M8.50001 20.8421H29.3637M8.50001 41.6842V62.5263M8.50001 41.6842H29.3637M8.50001 62.5263V83.3684M8.50001 62.5263H29.3637M8.50001 83.3684V104.211M8.50001 83.3684H29.3637M8.50001 104.211V125.053M8.50001 104.211H29.3637M8.50001 125.053V145.895M8.50001 125.053H29.3637M8.50001 145.895V166.737M8.50001 145.895H29.3637M8.50001 166.737V187.579M8.50001 166.737H29.3637M8.50001 187.579V208.421M8.50001 187.579H29.3637M8.50001 208.421V229.263M8.50001 208.421H29.3637M8.50001 229.263V250.105M8.50001 229.263H29.3637M8.50001 250.105V270.947M8.50001 250.105H29.3637M8.50001 270.947V291.789M8.50001 270.947H29.3637M8.50001 291.789V312.632M8.50001 291.789H29.3637M8.50001 312.632V333.474M8.50001 312.632H29.3637M8.50001 333.474V354.316M8.50001 333.474H29.3637M8.50001 354.316V375.158M8.50001 354.316H29.3637M8.50001 375.158V396M8.50001 375.158H29.3637M8.50001 396H29.3637M29.3637 0V20.8421M29.3637 0H50.2273M29.3637 20.8421V41.6842M29.3637 20.8421H50.2273M29.3637 41.6842V62.5263M29.3637 41.6842H50.2273M29.3637 62.5263V83.3684M29.3637 62.5263H50.2273M29.3637 83.3684V104.211M29.3637 83.3684H50.2273M29.3637 104.211V125.053M29.3637 104.211H50.2273M29.3637 125.053V145.895M29.3637 125.053H50.2273M29.3637 145.895V166.737M29.3637 145.895H50.2273M29.3637 166.737V187.579M29.3637 166.737H50.2273M29.3637 187.579V208.421M29.3637 187.579H50.2273M29.3637 208.421V229.263M29.3637 208.421H50.2273M29.3637 229.263V250.105M29.3637 229.263H50.2273M29.3637 250.105V270.947M29.3637 250.105H50.2273M29.3637 270.947V291.789M29.3637 270.947H50.2273M29.3637 291.789V312.632M29.3637 291.789H50.2273M29.3637 312.632V333.474M29.3637 312.632H50.2273M29.3637 333.474V354.316M29.3637 333.474H50.2273M29.3637 354.316V375.158M29.3637 354.316H50.2273M29.3637 375.158V396M29.3637 375.158H50.2273M29.3637 396H50.2273M50.2273 0V20.8421M50.2273 0H71.0909M50.2273 20.8421V41.6842M50.2273 20.8421H71.0909M50.2273 41.6842V62.5263M50.2273 41.6842H71.0909M50.2273 62.5263V83.3684M50.2273 62.5263H71.0909M50.2273 83.3684V104.211M50.2273 83.3684H71.0909M50.2273 104.211V125.053M50.2273 104.211H71.0909M50.2273 125.053V145.895M50.2273 125.053H71.0909M50.2273 145.895V166.737M50.2273 145.895H71.0909M50.2273 166.737V187.579M50.2273 166.737H71.0909M50.2273 187.579V208.421M50.2273 187.579H71.0909M50.2273 208.421V229.263M50.2273 208.421H71.0909M50.2273 229.263V250.105M50.2273 229.263H71.0909M50.2273 250.105V270.947M50.2273 250.105H71.0909M50.2273 270.947V291.789M50.2273 270.947H71.0909M50.2273 291.789V312.632M50.2273 291.789H71.0909M50.2273 312.632V333.474M50.2273 312.632H71.0909M50.2273 333.474V354.316M50.2273 333.474H71.0909M50.2273 354.316V375.158M50.2273 354.316H71.0909M50.2273 375.158V396M50.2273 375.158H71.0909M50.2273 396H71.0909M71.0909 0V20.8421M71.0909 0H91.9546M71.0909 20.8421V41.6842M71.0909 20.8421H91.9546M71.0909 41.6842V62.5263M71.0909 41.6842H91.9546M71.0909 62.5263V83.3684M71.0909 62.5263H91.9546M71.0909 83.3684V104.211M71.0909 83.3684H91.9546M71.0909 104.211V125.053M71.0909 104.211H91.9546M71.0909 125.053V145.895M71.0909 125.053H91.9546M71.0909 145.895V166.737M71.0909 145.895H91.9546M71.0909 166.737V187.579M71.0909 166.737H91.9546M71.0909 187.579V208.421M71.0909 187.579H91.9546M71.0909 208.421V229.263M71.0909 208.421H91.9546M71.0909 229.263V250.105M71.0909 229.263H91.9546M71.0909 250.105V270.947M71.0909 250.105H91.9546M71.0909 270.947V291.789M71.0909 270.947H91.9546M71.0909 291.789V312.632M71.0909 291.789H91.9546M71.0909 312.632V333.474M71.0909 312.632H91.9546M71.0909 333.474V354.316M71.0909 333.474H91.9546M71.0909 354.316V375.158M71.0909 354.316H91.9546M71.0909 375.158V396M71.0909 375.158H91.9546M71.0909 396H91.9546M91.9546 0V20.8421M91.9546 0H112.818M91.9546 20.8421V41.6842M91.9546 20.8421H112.818M91.9546 41.6842V62.5263M91.9546 41.6842H112.818M91.9546 62.5263V83.3684M91.9546 62.5263H112.818M91.9546 83.3684V104.211M91.9546 83.3684H112.818M91.9546 104.211V125.053M91.9546 104.211H112.818M91.9546 125.053V145.895M91.9546 125.053H112.818M91.9546 145.895V166.737M91.9546 145.895H112.818M91.9546 166.737V187.579M91.9546 166.737H112.818M91.9546 187.579V208.421M91.9546 187.579H112.818M91.9546 208.421V229.263M91.9546 208.421H112.818M91.9546 229.263V250.105M91.9546 229.263H112.818M91.9546 250.105V270.947M91.9546 250.105H112.818M91.9546 270.947V291.789M91.9546 270.947H112.818M91.9546 291.789V312.632M91.9546 291.789H112.818M91.9546 312.632V333.474M91.9546 312.632H112.818M91.9546 333.474V354.316M91.9546 333.474H112.818M91.9546 354.316V375.158M91.9546 354.316H112.818M91.9546 375.158V396M91.9546 375.158H112.818M91.9546 396H112.818M112.818 0V20.8421M112.818 0H133.682M112.818 20.8421V41.6842M112.818 20.8421H133.682M112.818 41.6842V62.5263M112.818 41.6842H133.682M112.818 62.5263V83.3684M112.818 62.5263H133.682M112.818 83.3684V104.211M112.818 83.3684H133.682M112.818 104.211V125.053M112.818 104.211H133.682M112.818 125.053V145.895M112.818 125.053H133.682M112.818 145.895V166.737M112.818 145.895H133.682M112.818 166.737V187.579M112.818 166.737H133.682M112.818 187.579V208.421M112.818 187.579H133.682M112.818 208.421V229.263M112.818 208.421H133.682M112.818 229.263V250.105M112.818 229.263H133.682M112.818 250.105V270.947M112.818 250.105H133.682M112.818 270.947V291.789M112.818 270.947H133.682M112.818 291.789V312.632M112.818 291.789H133.682M112.818 312.632V333.474M112.818 312.632H133.682M112.818 333.474V354.316M112.818 333.474H133.682M112.818 354.316V375.158M112.818 354.316H133.682M112.818 375.158V396M112.818 375.158H133.682M112.818 396H133.682M133.682 0V20.8421M133.682 0H154.545M133.682 20.8421V41.6842M133.682 20.8421H154.545M133.682 41.6842V62.5263M133.682 41.6842H154.545M133.682 62.5263V83.3684M133.682 62.5263H154.545M133.682 83.3684V104.211M133.682 83.3684H154.545M133.682 104.211V125.053M133.682 104.211H154.545M133.682 125.053V145.895M133.682 125.053H154.545M133.682 145.895V166.737M133.682 145.895H154.545M133.682 166.737V187.579M133.682 166.737H154.545M133.682 187.579V208.421M133.682 187.579H154.545M133.682 208.421V229.263M133.682 208.421H154.545M133.682 229.263V250.105M133.682 229.263H154.545M133.682 250.105V270.947M133.682 250.105H154.545M133.682 270.947V291.789M133.682 270.947H154.545M133.682 291.789V312.632M133.682 291.789H154.545M133.682 312.632V333.474M133.682 312.632H154.545M133.682 333.474V354.316M133.682 333.474H154.545M133.682 354.316V375.158M133.682 354.316H154.545M133.682 375.158V396M133.682 375.158H154.545M133.682 396H154.545M154.545 0V20.8421M154.545 0H175.409M154.545 20.8421V41.6842M154.545 20.8421H175.409M154.545 41.6842V62.5263M154.545 41.6842H175.409M154.545 62.5263V83.3684M154.545 62.5263H175.409M154.545 83.3684V104.211M154.545 83.3684H175.409M154.545 104.211V125.053M154.545 104.211H175.409M154.545 125.053V145.895M154.545 125.053H175.409M154.545 145.895V166.737M154.545 145.895H175.409M154.545 166.737V187.579M154.545 166.737H175.409M154.545 187.579V208.421M154.545 187.579H175.409M154.545 208.421V229.263M154.545 208.421H175.409M154.545 229.263V250.105M154.545 229.263H175.409M154.545 250.105V270.947M154.545 250.105H175.409M154.545 270.947V291.789M154.545 270.947H175.409M154.545 291.789V312.632M154.545 291.789H175.409M154.545 312.632V333.474M154.545 312.632H175.409M154.545 333.474V354.316M154.545 333.474H175.409M154.545 354.316V375.158M154.545 354.316H175.409M154.545 375.158V396M154.545 375.158H175.409M154.545 396H175.409M175.409 0V20.8421M175.409 0H196.273M175.409 20.8421V41.6842M175.409 20.8421H196.273M175.409 41.6842V62.5263M175.409 41.6842H196.273M175.409 62.5263V83.3684M175.409 62.5263H196.273M175.409 83.3684V104.211M175.409 83.3684H196.273M175.409 104.211V125.053M175.409 104.211H196.273M175.409 125.053V145.895M175.409 125.053H196.273M175.409 145.895V166.737M175.409 145.895H196.273M175.409 166.737V187.579M175.409 166.737H196.273M175.409 187.579V208.421M175.409 187.579H196.273M175.409 208.421V229.263M175.409 208.421H196.273M175.409 229.263V250.105M175.409 229.263H196.273M175.409 250.105V270.947M175.409 250.105H196.273M175.409 270.947V291.789M175.409 270.947H196.273M175.409 291.789V312.632M175.409 291.789H196.273M175.409 312.632V333.474M175.409 312.632H196.273M175.409 333.474V354.316M175.409 333.474H196.273M175.409 354.316V375.158M175.409 354.316H196.273M175.409 375.158V396M175.409 375.158H196.273M175.409 396H196.273M196.273 0V20.8421M196.273 0H217.136M196.273 20.8421V41.6842M196.273 20.8421H217.136M196.273 41.6842V62.5263M196.273 41.6842H217.136M196.273 62.5263V83.3684M196.273 62.5263H217.136M196.273 83.3684V104.211M196.273 83.3684H217.136M196.273 104.211V125.053M196.273 104.211H217.136M196.273 125.053V145.895M196.273 125.053H217.136M196.273 145.895V166.737M196.273 145.895H217.136M196.273 166.737V187.579M196.273 166.737H217.136M196.273 187.579V208.421M196.273 187.579H217.136M196.273 208.421V229.263M196.273 208.421H217.136M196.273 229.263V250.105M196.273 229.263H217.136M196.273 250.105V270.947M196.273 250.105H217.136M196.273 270.947V291.789M196.273 270.947H217.136M196.273 291.789V312.632M196.273 291.789H217.136M196.273 312.632V333.474M196.273 312.632H217.136M196.273 333.474V354.316M196.273 333.474H217.136M196.273 354.316V375.158M196.273 354.316H217.136M196.273 375.158V396M196.273 375.158H217.136M196.273 396H217.136M217.136 0V20.8421M217.136 0H238M217.136 20.8421V41.6842M217.136 20.8421H238M217.136 41.6842V62.5263M217.136 41.6842H238M217.136 62.5263V83.3684M217.136 62.5263H238M217.136 83.3684V104.211M217.136 83.3684H238M217.136 104.211V125.053M217.136 104.211H238M217.136 125.053V145.895M217.136 125.053H238M217.136 145.895V166.737M217.136 145.895H238M217.136 166.737V187.579M217.136 166.737H238M217.136 187.579V208.421M217.136 187.579H238M217.136 208.421V229.263M217.136 208.421H238M217.136 229.263V250.105M217.136 229.263H238M217.136 250.105V270.947M217.136 250.105H238M217.136 270.947V291.789M217.136 270.947H238M217.136 291.789V312.632M217.136 291.789H238M217.136 312.632V333.474M217.136 312.632H238M217.136 333.474V354.316M217.136 333.474H238M217.136 354.316V375.158M217.136 354.316H238M217.136 375.158V396M217.136 375.158H238M217.136 396H238M238 0V20.8421M238 0H258.864M238 20.8421V41.6842M238 20.8421H258.864M238 41.6842V62.5263M238 41.6842H258.864M238 62.5263V83.3684M238 62.5263H258.864M238 83.3684V104.211M238 83.3684H258.864M238 104.211V125.053M238 104.211H258.864M238 125.053V145.895M238 125.053H258.864M238 145.895V166.737M238 145.895H258.864M238 166.737V187.579M238 166.737H258.864M238 187.579V208.421M238 187.579H258.864M238 208.421V229.263M238 208.421H258.864M238 229.263V250.105M238 229.263H258.864M238 250.105V270.947M238 250.105H258.864M238 270.947V291.789M238 270.947H258.864M238 291.789V312.632M238 291.789H258.864M238 312.632V333.474M238 312.632H258.864M238 333.474V354.316M238 333.474H258.864M238 354.316V375.158M238 354.316H258.864M238 375.158V396M238 375.158H258.864M238 396H258.864M258.864 0V20.8421M258.864 0H279.727M258.864 20.8421V41.6842M258.864 20.8421H279.727M258.864 41.6842V62.5263M258.864 41.6842H279.727M258.864 62.5263V83.3684M258.864 62.5263H279.727M258.864 83.3684V104.211M258.864 83.3684H279.727M258.864 104.211V125.053M258.864 104.211H279.727M258.864 125.053V145.895M258.864 125.053H279.727M258.864 145.895V166.737M258.864 145.895H279.727M258.864 166.737V187.579M258.864 166.737H279.727M258.864 187.579V208.421M258.864 187.579H279.727M258.864 208.421V229.263M258.864 208.421H279.727M258.864 229.263V250.105M258.864 229.263H279.727M258.864 250.105V270.947M258.864 250.105H279.727M258.864 270.947V291.789M258.864 270.947H279.727M258.864 291.789V312.632M258.864 291.789H279.727M258.864 312.632V333.474M258.864 312.632H279.727M258.864 333.474V354.316M258.864 333.474H279.727M258.864 354.316V375.158M258.864 354.316H279.727M258.864 375.158V396M258.864 375.158H279.727M258.864 396H279.727M279.727 0V20.8421M279.727 0H300.591M279.727 20.8421V41.6842M279.727 20.8421H300.591M279.727 41.6842V62.5263M279.727 41.6842H300.591M279.727 62.5263V83.3684M279.727 62.5263H300.591M279.727 83.3684V104.211M279.727 83.3684H300.591M279.727 104.211V125.053M279.727 104.211H300.591M279.727 125.053V145.895M279.727 125.053H300.591M279.727 145.895V166.737M279.727 145.895H300.591M279.727 166.737V187.579M279.727 166.737H300.591M279.727 187.579V208.421M279.727 187.579H300.591M279.727 208.421V229.263M279.727 208.421H300.591M279.727 229.263V250.105M279.727 229.263H300.591M279.727 250.105V270.947M279.727 250.105H300.591M279.727 270.947V291.789M279.727 270.947H300.591M279.727 291.789V312.632M279.727 291.789H300.591M279.727 312.632V333.474M279.727 312.632H300.591M279.727 333.474V354.316M279.727 333.474H300.591M279.727 354.316V375.158M279.727 354.316H300.591M279.727 375.158V396M279.727 375.158H300.591M279.727 396H300.591M300.591 0V20.8421M300.591 0H321.455M300.591 20.8421V41.6842M300.591 20.8421H321.455M300.591 41.6842V62.5263M300.591 41.6842H321.455M300.591 62.5263V83.3684M300.591 62.5263H321.455M300.591 83.3684V104.211M300.591 83.3684H321.455M300.591 104.211V125.053M300.591 104.211H321.455M300.591 125.053V145.895M300.591 125.053H321.455M300.591 145.895V166.737M300.591 145.895H321.455M300.591 166.737V187.579M300.591 166.737H321.455M300.591 187.579V208.421M300.591 187.579H321.455M300.591 208.421V229.263M300.591 208.421H321.455M300.591 229.263V250.105M300.591 229.263H321.455M300.591 250.105V270.947M300.591 250.105H321.455M300.591 270.947V291.789M300.591 270.947H321.455M300.591 291.789V312.632M300.591 291.789H321.455M300.591 312.632V333.474M300.591 312.632H321.455M300.591 333.474V354.316M300.591 333.474H321.455M300.591 354.316V375.158M300.591 354.316H321.455M300.591 375.158V396M300.591 375.158H321.455M300.591 396H321.455M321.455 0V20.8421M321.455 0H342.318M321.455 20.8421V41.6842M321.455 20.8421H342.318M321.455 41.6842V62.5263M321.455 41.6842H342.318M321.455 62.5263V83.3684M321.455 62.5263H342.318M321.455 83.3684V104.211M321.455 83.3684H342.318M321.455 104.211V125.053M321.455 104.211H342.318M321.455 125.053V145.895M321.455 125.053H342.318M321.455 145.895V166.737M321.455 145.895H342.318M321.455 166.737V187.579M321.455 166.737H342.318M321.455 187.579V208.421M321.455 187.579H342.318M321.455 208.421V229.263M321.455 208.421H342.318M321.455 229.263V250.105M321.455 229.263H342.318M321.455 250.105V270.947M321.455 250.105H342.318M321.455 270.947V291.789M321.455 270.947H342.318M321.455 291.789V312.632M321.455 291.789H342.318M321.455 312.632V333.474M321.455 312.632H342.318M321.455 333.474V354.316M321.455 333.474H342.318M321.455 354.316V375.158M321.455 354.316H342.318M321.455 375.158V396M321.455 375.158H342.318M321.455 396H342.318M342.318 0V20.8421M342.318 0H363.182M342.318 20.8421V41.6842M342.318 20.8421H363.182M342.318 41.6842V62.5263M342.318 41.6842H363.182M342.318 62.5263V83.3684M342.318 62.5263H363.182M342.318 83.3684V104.211M342.318 83.3684H363.182M342.318 104.211V125.053M342.318 104.211H363.182M342.318 125.053V145.895M342.318 125.053H363.182M342.318 145.895V166.737M342.318 145.895H363.182M342.318 166.737V187.579M342.318 166.737H363.182M342.318 187.579V208.421M342.318 187.579H363.182M342.318 208.421V229.263M342.318 208.421H363.182M342.318 229.263V250.105M342.318 229.263H363.182M342.318 250.105V270.947M342.318 250.105H363.182M342.318 270.947V291.789M342.318 270.947H363.182M342.318 291.789V312.632M342.318 291.789H363.182M342.318 312.632V333.474M342.318 312.632H363.182M342.318 333.474V354.316M342.318 333.474H363.182M342.318 354.316V375.158M342.318 354.316H363.182M342.318 375.158V396M342.318 375.158H363.182M342.318 396H363.182M363.182 0V20.8421M363.182 0H384.045M363.182 20.8421V41.6842M363.182 20.8421H384.045M363.182 41.6842V62.5263M363.182 41.6842H384.045M363.182 62.5263V83.3684M363.182 62.5263H384.045M363.182 83.3684V104.211M363.182 83.3684H384.045M363.182 104.211V125.053M363.182 104.211H384.045M363.182 125.053V145.895M363.182 125.053H384.045M363.182 145.895V166.737M363.182 145.895H384.045M363.182 166.737V187.579M363.182 166.737H384.045M363.182 187.579V208.421M363.182 187.579H384.045M363.182 208.421V229.263M363.182 208.421H384.045M363.182 229.263V250.105M363.182 229.263H384.045M363.182 250.105V270.947M363.182 250.105H384.045M363.182 270.947V291.789M363.182 270.947H384.045M363.182 291.789V312.632M363.182 291.789H384.045M363.182 312.632V333.474M363.182 312.632H384.045M363.182 333.474V354.316M363.182 333.474H384.045M363.182 354.316V375.158M363.182 354.316H384.045M363.182 375.158V396M363.182 375.158H384.045M363.182 396H384.045M384.045 0V20.8421M384.045 0H404.909M384.045 20.8421V41.6842M384.045 20.8421H404.909M384.045 41.6842V62.5263M384.045 41.6842H404.909M384.045 62.5263V83.3684M384.045 62.5263H404.909M384.045 83.3684V104.211M384.045 83.3684H404.909M384.045 104.211V125.053M384.045 104.211H404.909M384.045 125.053V145.895M384.045 125.053H404.909M384.045 145.895V166.737M384.045 145.895H404.909M384.045 166.737V187.579M384.045 166.737H404.909M384.045 187.579V208.421M384.045 187.579H404.909M384.045 208.421V229.263M384.045 208.421H404.909M384.045 229.263V250.105M384.045 229.263H404.909M384.045 250.105V270.947M384.045 250.105H404.909M384.045 270.947V291.789M384.045 270.947H404.909M384.045 291.789V312.632M384.045 291.789H404.909M384.045 312.632V333.474M384.045 312.632H404.909M384.045 333.474V354.316M384.045 333.474H404.909M384.045 354.316V375.158M384.045 354.316H404.909M384.045 375.158V396M384.045 375.158H404.909M384.045 396H404.909M404.909 0V20.8421M404.909 0H425.773M404.909 20.8421V41.6842M404.909 20.8421H425.773M404.909 41.6842V62.5263M404.909 41.6842H425.773M404.909 62.5263V83.3684M404.909 62.5263H425.773M404.909 83.3684V104.211M404.909 83.3684H425.773M404.909 104.211V125.053M404.909 104.211H425.773M404.909 125.053V145.895M404.909 125.053H425.773M404.909 145.895V166.737M404.909 145.895H425.773M404.909 166.737V187.579M404.909 166.737H425.773M404.909 187.579V208.421M404.909 187.579H425.773M404.909 208.421V229.263M404.909 208.421H425.773M404.909 229.263V250.105M404.909 229.263H425.773M404.909 250.105V270.947M404.909 250.105H425.773M404.909 270.947V291.789M404.909 270.947H425.773M404.909 291.789V312.632M404.909 291.789H425.773M404.909 312.632V333.474M404.909 312.632H425.773M404.909 333.474V354.316M404.909 333.474H425.773M404.909 354.316V375.158M404.909 354.316H425.773M404.909 375.158V396M404.909 375.158H425.773M404.909 396H425.773M425.773 0V20.8421M425.773 0H446.636M425.773 20.8421V41.6842M425.773 20.8421H446.636M425.773 41.6842V62.5263M425.773 41.6842H446.636M425.773 62.5263V83.3684M425.773 62.5263H446.636M425.773 83.3684V104.211M425.773 83.3684H446.636M425.773 104.211V125.053M425.773 104.211H446.636M425.773 125.053V145.895M425.773 125.053H446.636M425.773 145.895V166.737M425.773 145.895H446.636M425.773 166.737V187.579M425.773 166.737H446.636M425.773 187.579V208.421M425.773 187.579H446.636M425.773 208.421V229.263M425.773 208.421H446.636M425.773 229.263V250.105M425.773 229.263H446.636M425.773 250.105V270.947M425.773 250.105H446.636M425.773 270.947V291.789M425.773 270.947H446.636M425.773 291.789V312.632M425.773 291.789H446.636M425.773 312.632V333.474M425.773 312.632H446.636M425.773 333.474V354.316M425.773 333.474H446.636M425.773 354.316V375.158M425.773 354.316H446.636M425.773 375.158V396M425.773 375.158H446.636M425.773 396H446.636M446.636 0V20.8421M446.636 0H467.5M446.636 20.8421V41.6842M446.636 20.8421H467.5M446.636 41.6842V62.5263M446.636 41.6842H467.5M446.636 62.5263V83.3684M446.636 62.5263H467.5M446.636 83.3684V104.211M446.636 83.3684H467.5M446.636 104.211V125.053M446.636 104.211H467.5M446.636 125.053V145.895M446.636 125.053H467.5M446.636 145.895V166.737M446.636 145.895H467.5M446.636 166.737V187.579M446.636 166.737H467.5M446.636 187.579V208.421M446.636 187.579H467.5M446.636 208.421V229.263M446.636 208.421H467.5M446.636 229.263V250.105M446.636 229.263H467.5M446.636 250.105V270.947M446.636 250.105H467.5M446.636 270.947V291.789M446.636 270.947H467.5M446.636 291.789V312.632M446.636 291.789H467.5M446.636 312.632V333.474M446.636 312.632H467.5M446.636 333.474V354.316M446.636 333.474H467.5M446.636 354.316V375.158M446.636 354.316H467.5M446.636 375.158V396M446.636 375.158H467.5M446.636 396H467.5M467.5 0V20.8421M467.5 0H488.364M467.5 20.8421V41.6842M467.5 20.8421H488.364M467.5 41.6842V62.5263M467.5 41.6842H488.364M467.5 62.5263V83.3684M467.5 62.5263H488.364M467.5 83.3684V104.211M467.5 83.3684H488.364M467.5 104.211V125.053M467.5 104.211H488.364M467.5 125.053V145.895M467.5 125.053H488.364M467.5 145.895V166.737M467.5 145.895H488.364M467.5 166.737V187.579M467.5 166.737H488.364M467.5 187.579V208.421M467.5 187.579H488.364M467.5 208.421V229.263M467.5 208.421H488.364M467.5 229.263V250.105M467.5 229.263H488.364M467.5 250.105V270.947M467.5 250.105H488.364M467.5 270.947V291.789M467.5 270.947H488.364M467.5 291.789V312.632M467.5 291.789H488.364M467.5 312.632V333.474M467.5 312.632H488.364M467.5 333.474V354.316M467.5 333.474H488.364M467.5 354.316V375.158M467.5 354.316H488.364M467.5 375.158V396M467.5 375.158H488.364M467.5 396H488.364M488.364 0V20.8421M488.364 0H509.227M488.364 20.8421V41.6842M488.364 20.8421H509.227M488.364 41.6842V62.5263M488.364 41.6842H509.227M488.364 62.5263V83.3684M488.364 62.5263H509.227M488.364 83.3684V104.211M488.364 83.3684H509.227M488.364 104.211V125.053M488.364 104.211H509.227M488.364 125.053V145.895M488.364 125.053H509.227M488.364 145.895V166.737M488.364 145.895H509.227M488.364 166.737V187.579M488.364 166.737H509.227M488.364 187.579V208.421M488.364 187.579H509.227M488.364 208.421V229.263M488.364 208.421H509.227M488.364 229.263V250.105M488.364 229.263H509.227M488.364 250.105V270.947M488.364 250.105H509.227M488.364 270.947V291.789M488.364 270.947H509.227M488.364 291.789V312.632M488.364 291.789H509.227M488.364 312.632V333.474M488.364 312.632H509.227M488.364 333.474V354.316M488.364 333.474H509.227M488.364 354.316V375.158M488.364 354.316H509.227M488.364 375.158V396M488.364 375.158H509.227M488.364 396H509.227M509.227 0V20.8421M509.227 0H530.091M509.227 20.8421V41.6842M509.227 20.8421H530.091M509.227 41.6842V62.5263M509.227 41.6842H530.091M509.227 62.5263V83.3684M509.227 62.5263H530.091M509.227 83.3684V104.211M509.227 83.3684H530.091M509.227 104.211V125.053M509.227 104.211H530.091M509.227 125.053V145.895M509.227 125.053H530.091M509.227 145.895V166.737M509.227 145.895H530.091M509.227 166.737V187.579M509.227 166.737H530.091M509.227 187.579V208.421M509.227 187.579H530.091M509.227 208.421V229.263M509.227 208.421H530.091M509.227 229.263V250.105M509.227 229.263H530.091M509.227 250.105V270.947M509.227 250.105H530.091M509.227 270.947V291.789M509.227 270.947H530.091M509.227 291.789V312.632M509.227 291.789H530.091M509.227 312.632V333.474M509.227 312.632H530.091M509.227 333.474V354.316M509.227 333.474H530.091M509.227 354.316V375.158M509.227 354.316H530.091M509.227 375.158V396M509.227 375.158H530.091M509.227 396H530.091M530.091 0V20.8421M530.091 0H550.955M530.091 20.8421V41.6842M530.091 20.8421H550.955M530.091 41.6842V62.5263M530.091 41.6842H550.955M530.091 62.5263V83.3684M530.091 62.5263H550.955M530.091 83.3684V104.211M530.091 83.3684H550.955M530.091 104.211V125.053M530.091 104.211H550.955M530.091 125.053V145.895M530.091 125.053H550.955M530.091 145.895V166.737M530.091 145.895H550.955M530.091 166.737V187.579M530.091 166.737H550.955M530.091 187.579V208.421M530.091 187.579H550.955M530.091 208.421V229.263M530.091 208.421H550.955M530.091 229.263V250.105M530.091 229.263H550.955M530.091 250.105V270.947M530.091 250.105H550.955M530.091 270.947V291.789M530.091 270.947H550.955M530.091 291.789V312.632M530.091 291.789H550.955M530.091 312.632V333.474M530.091 312.632H550.955M530.091 333.474V354.316M530.091 333.474H550.955M530.091 354.316V375.158M530.091 354.316H550.955M530.091 375.158V396M530.091 375.158H550.955M530.091 396H550.955M550.955 0V20.8421M550.955 0H571.818M550.955 20.8421V41.6842M550.955 20.8421H571.818M550.955 41.6842V62.5263M550.955 41.6842H571.818M550.955 62.5263V83.3684M550.955 62.5263H571.818M550.955 83.3684V104.211M550.955 83.3684H571.818M550.955 104.211V125.053M550.955 104.211H571.818M550.955 125.053V145.895M550.955 125.053H571.818M550.955 145.895V166.737M550.955 145.895H571.818M550.955 166.737V187.579M550.955 166.737H571.818M550.955 187.579V208.421M550.955 187.579H571.818M550.955 208.421V229.263M550.955 208.421H571.818M550.955 229.263V250.105M550.955 229.263H571.818M550.955 250.105V270.947M550.955 250.105H571.818M550.955 270.947V291.789M550.955 270.947H571.818M550.955 291.789V312.632M550.955 291.789H571.818M550.955 312.632V333.474M550.955 312.632H571.818M550.955 333.474V354.316M550.955 333.474H571.818M550.955 354.316V375.158M550.955 354.316H571.818M550.955 375.158V396M550.955 375.158H571.818M550.955 396H571.818M571.818 0V20.8421M571.818 0H592.682M571.818 20.8421V41.6842M571.818 20.8421H592.682M571.818 41.6842V62.5263M571.818 41.6842H592.682M571.818 62.5263V83.3684M571.818 62.5263H592.682M571.818 83.3684V104.211M571.818 83.3684H592.682M571.818 104.211V125.053M571.818 104.211H592.682M571.818 125.053V145.895M571.818 125.053H592.682M571.818 145.895V166.737M571.818 145.895H592.682M571.818 166.737V187.579M571.818 166.737H592.682M571.818 187.579V208.421M571.818 187.579H592.682M571.818 208.421V229.263M571.818 208.421H592.682M571.818 229.263V250.105M571.818 229.263H592.682M571.818 250.105V270.947M571.818 250.105H592.682M571.818 270.947V291.789M571.818 270.947H592.682M571.818 291.789V312.632M571.818 291.789H592.682M571.818 312.632V333.474M571.818 312.632H592.682M571.818 333.474V354.316M571.818 333.474H592.682M571.818 354.316V375.158M571.818 354.316H592.682M571.818 375.158V396M571.818 375.158H592.682M571.818 396H592.682M592.682 0V20.8421M592.682 0H613.546M592.682 20.8421V41.6842M592.682 20.8421H613.546M592.682 41.6842V62.5263M592.682 41.6842H613.546M592.682 62.5263V83.3684M592.682 62.5263H613.546M592.682 83.3684V104.211M592.682 83.3684H613.546M592.682 104.211V125.053M592.682 104.211H613.546M592.682 125.053V145.895M592.682 125.053H613.546M592.682 145.895V166.737M592.682 145.895H613.546M592.682 166.737V187.579M592.682 166.737H613.546M592.682 187.579V208.421M592.682 187.579H613.546M592.682 208.421V229.263M592.682 208.421H613.546M592.682 229.263V250.105M592.682 229.263H613.546M592.682 250.105V270.947M592.682 250.105H613.546M592.682 270.947V291.789M592.682 270.947H613.546M592.682 291.789V312.632M592.682 291.789H613.546M592.682 312.632V333.474M592.682 312.632H613.546M592.682 333.474V354.316M592.682 333.474H613.546M592.682 354.316V375.158M592.682 354.316H613.546M592.682 375.158V396M592.682 375.158H613.546M592.682 396H613.546M613.546 0V20.8421M613.546 0H634.409M613.546 20.8421V41.6842M613.546 20.8421H634.409M613.546 41.6842V62.5263M613.546 41.6842H634.409M613.546 62.5263V83.3684M613.546 62.5263H634.409M613.546 83.3684V104.211M613.546 83.3684H634.409M613.546 104.211V125.053M613.546 104.211H634.409M613.546 125.053V145.895M613.546 125.053H634.409M613.546 145.895V166.737M613.546 145.895H634.409M613.546 166.737V187.579M613.546 166.737H634.409M613.546 187.579V208.421M613.546 187.579H634.409M613.546 208.421V229.263M613.546 208.421H634.409M613.546 229.263V250.105M613.546 229.263H634.409M613.546 250.105V270.947M613.546 250.105H634.409M613.546 270.947V291.789M613.546 270.947H634.409M613.546 291.789V312.632M613.546 291.789H634.409M613.546 312.632V333.474M613.546 312.632H634.409M613.546 333.474V354.316M613.546 333.474H634.409M613.546 354.316V375.158M613.546 354.316H634.409M613.546 375.158V396M613.546 375.158H634.409M613.546 396H634.409M634.409 0V20.8421M634.409 0H655.273M634.409 20.8421V41.6842M634.409 20.8421H655.273M634.409 41.6842V62.5263M634.409 41.6842H655.273M634.409 62.5263V83.3684M634.409 62.5263H655.273M634.409 83.3684V104.211M634.409 83.3684H655.273M634.409 104.211V125.053M634.409 104.211H655.273M634.409 125.053V145.895M634.409 125.053H655.273M634.409 145.895V166.737M634.409 145.895H655.273M634.409 166.737V187.579M634.409 166.737H655.273M634.409 187.579V208.421M634.409 187.579H655.273M634.409 208.421V229.263M634.409 208.421H655.273M634.409 229.263V250.105M634.409 229.263H655.273M634.409 250.105V270.947M634.409 250.105H655.273M634.409 270.947V291.789M634.409 270.947H655.273M634.409 291.789V312.632M634.409 291.789H655.273M634.409 312.632V333.474M634.409 312.632H655.273M634.409 333.474V354.316M634.409 333.474H655.273M634.409 354.316V375.158M634.409 354.316H655.273M634.409 375.158V396M634.409 375.158H655.273M634.409 396H655.273M655.273 0V20.8421M655.273 0H676.136M655.273 20.8421V41.6842M655.273 20.8421H676.136M655.273 41.6842V62.5263M655.273 41.6842H676.136M655.273 62.5263V83.3684M655.273 62.5263H676.136M655.273 83.3684V104.211M655.273 83.3684H676.136M655.273 104.211V125.053M655.273 104.211H676.136M655.273 125.053V145.895M655.273 125.053H676.136M655.273 145.895V166.737M655.273 145.895H676.136M655.273 166.737V187.579M655.273 166.737H676.136M655.273 187.579V208.421M655.273 187.579H676.136M655.273 208.421V229.263M655.273 208.421H676.136M655.273 229.263V250.105M655.273 229.263H676.136M655.273 250.105V270.947M655.273 250.105H676.136M655.273 270.947V291.789M655.273 270.947H676.136M655.273 291.789V312.632M655.273 291.789H676.136M655.273 312.632V333.474M655.273 312.632H676.136M655.273 333.474V354.316M655.273 333.474H676.136M655.273 354.316V375.158M655.273 354.316H676.136M655.273 375.158V396M655.273 375.158H676.136M655.273 396H676.136M676.136 0V20.8421M676.136 0H697V20.8421M676.136 20.8421V41.6842M676.136 20.8421H697M676.136 41.6842V62.5263M676.136 41.6842H697M676.136 62.5263V83.3684M676.136 62.5263H697M676.136 83.3684V104.211M676.136 83.3684H697M676.136 104.211V125.053M676.136 104.211H697M676.136 125.053V145.895M676.136 125.053H697M676.136 145.895V166.737M676.136 145.895H697M676.136 166.737V187.579M676.136 166.737H697M676.136 187.579V208.421M676.136 187.579H697M676.136 208.421V229.263M676.136 208.421H697M676.136 229.263V250.105M676.136 229.263H697M676.136 250.105V270.947M676.136 250.105H697M676.136 270.947V291.789M676.136 270.947H697M676.136 291.789V312.632M676.136 291.789H697M676.136 312.632V333.474M676.136 312.632H697M676.136 333.474V354.316M676.136 333.474H697M676.136 354.316V375.158M676.136 354.316H697M676.136 375.158V396M676.136 375.158H697M676.136 396H697V375.158M697 20.8421V41.6842M697 41.6842V62.5263M697 62.5263V83.3684M697 83.3684V104.211M697 104.211V125.053M697 125.053V145.895M697 145.895V166.737M697 166.737V187.579M697 187.579V208.421M697 208.421V229.263M697 229.263V250.105M697 250.105V270.947M697 270.947V291.789M697 291.789V312.632M697 312.632V333.474M697 333.474V354.316M697 354.316V375.158" stroke="url(#paint0_radial_2275_1980)" stroke-width="0.272433"/>
<defs>
<radialGradient id="paint0_radial_2275_1980" cx="0" cy="0" r="1" gradientUnits="userSpaceOnUse" gradientTransform="translate(238 198) rotate(90) scale(198 370.65)">
<stop stop-color="#FFF8E0"/>
<stop offset="1" stop-color="#FFF8E0" stop-opacity="0.2"/>
</radialGradient>
</defs>
</svg>