<svg width="174" height="160" viewBox="0 0 174 160" fill="none" xmlns="http://www.w3.org/2000/svg">
<path d="M91.9241 47.8809C102.688 37.1202 119.139 53.391 108.545 64.2877C97.8211 75.3205 81.1081 58.6918 91.9241 47.8809Z" fill="white"/>
<path d="M69.8833 44.8913C89.1783 41.6527 88.2318 70.3128 70.8089 67.631C58.0726 65.6715 58.4035 46.8194 69.8833 44.8913Z" fill="white"/>
<path d="M71.5681 92.2218C84.9536 90.5888 89.724 110.758 76.1919 114.848C60.1553 119.697 54.9075 94.2546 71.5681 92.2218Z" fill="white"/>
<path d="M56.0634 68.7655C73.4193 65.8514 75.1805 89.7551 60.4631 91.5848C45.1427 93.4878 43.1994 70.926 56.0634 68.7655Z" fill="white"/>
<path d="M112.612 68.3523C122.479 67.1611 129.404 78.5017 123.356 86.6287C118.362 93.3384 108.111 92.9595 103.906 85.6301C99.7602 78.3991 104.449 69.3363 112.612 68.3523Z" fill="white"/>
<path d="M98.79 92.2201C114.066 90.225 116.487 113.239 102.417 115.102C85.9029 117.29 84.1941 94.1252 98.79 92.2201Z" fill="white"/>
<path d="M44.7625 96.8082C52.1736 95.7216 55.5388 106.191 49.0785 109.514C39.2048 114.595 34.6543 98.2904 44.7625 96.8082Z" fill="white"/>
<path d="M85.8235 26.0453C92.7361 25.3628 96.0553 34.9825 89.9761 38.6022C80.1967 44.4263 74.8107 27.1318 85.8235 26.0453Z" fill="white"/>
<path d="M85.4031 120.252C90.2718 119.783 94.0936 124.73 92.3869 129.363C90.341 134.915 83.0912 135.451 80.1071 130.357C77.6465 126.153 80.8002 120.695 85.4031 120.252Z" fill="white"/>
<path d="M126.438 49.4809C134 48.4383 137.168 59.7161 129.881 62.5842C120.265 66.3693 116.629 50.8333 126.438 49.4809Z" fill="white"/>
<path d="M40.8221 61.4005C34.0812 54.6615 45.5108 44.5812 51.1544 52.5366C56.0965 59.5017 46.3945 66.9713 40.8221 61.4005Z" fill="white"/>
<path d="M122.486 108.298C116.893 102.706 124.327 93.0005 131.353 97.9684C139.151 103.485 129.25 115.058 122.486 108.298Z" fill="white"/>
<path d="M115.106 21.4397C125.617 19.0322 124.477 35.4956 114.922 32.3323C109.547 30.5528 110.403 22.5179 115.106 21.4397Z" fill="white"/>
<path d="M115.534 127.38C124.227 125.578 125.243 137.389 118.267 138.49C110.676 139.688 109.016 128.73 115.534 127.38Z" fill="white"/>
<path d="M146.532 74.2022C155.118 72.8393 155.914 86.2022 146.85 85.4108C140.491 84.856 140.283 75.1924 146.532 74.2022Z" fill="white"/>
<path d="M51.7078 31.2573C46.2904 25.7932 54.9913 17.2161 60.1659 23.4296C65.1749 29.4464 56.3755 35.9635 51.7078 31.2573Z" fill="white"/>
<path d="M54.8012 127.379C62.6646 125.954 63.8917 136.942 57.8774 138.404C49.2937 140.491 47.7378 128.66 54.8012 127.379Z" fill="white"/>
<path d="M23.8091 74.6217C33.1928 72.6705 33.4043 86.8059 24.5986 85.8031C18.2451 85.0788 18.176 75.794 23.8091 74.6217Z" fill="white"/>
<path d="M82.7028 158.539C78.0288 153.641 86.3843 146.983 90.1034 152.609C93.3869 157.576 86.5183 162.54 82.7028 158.539Z" fill="white"/>
<path d="M151.149 112.712C157.39 111.86 158.234 121.67 152.253 122.254C146.224 122.842 144.959 113.557 151.149 112.712Z" fill="white"/>
<path d="M24.619 39.0779C29.4543 43.9118 20.9669 51.1135 17.2855 44.946C14.3935 40.1016 20.7847 35.2447 24.619 39.0779Z" fill="white"/>
<path d="M85.3883 0.0845894C92.0936 -1.00404 93.0109 8.76219 86.7704 9.44049C80.9195 10.0748 79.6945 1.00992 85.3883 0.0845894Z" fill="white"/>
<path d="M149.866 37.7681C157.49 36.0263 158.491 46.5232 151.857 46.9042C146.182 47.2308 145.378 38.7918 149.866 37.7681Z" fill="white"/>
<path d="M20.4725 113.132C26.9747 112.077 27.6511 121.01 23.1948 122.149C15.7084 124.065 14.6823 114.072 20.4725 113.132Z" fill="white"/>
<path d="M43.9098 4.67993C49.4445 3.45942 50.2361 11.8418 45.0406 12.1307C40.8084 12.3652 39.6567 5.61783 43.9098 4.67993Z" fill="white"/>
<path d="M172.049 77.171C175.919 81.4019 168.782 86.2275 166.15 81.6092C163.825 77.531 169.484 74.3657 172.049 77.171Z" fill="white"/>
<path d="M130.588 5.57394C134.104 9.41972 127.566 14.5007 124.668 10.031C122.063 6.01358 127.847 2.57394 130.588 5.57394Z" fill="white"/>
<path d="M127.682 147.884C132.515 147.413 133.443 155.396 127.994 155.348C123.646 155.308 123.127 148.33 127.682 147.884Z" fill="white"/>
<path d="M42.4838 149.192C45.0448 146.391 50.7031 149.537 48.3828 153.63C45.7024 158.359 38.8065 153.211 42.4838 149.192Z" fill="white"/>
<path d="M2.44633 76.7095C9.09509 75.2126 8.62182 85.6173 2.12383 83.549C-0.818374 82.6132 -0.696916 77.4171 2.44633 76.7095Z" fill="white"/>
</svg>
