<svg width="897" height="367" viewBox="0 0 897 367" fill="none" xmlns="http://www.w3.org/2000/svg">
<rect x="33.5596" y="166.073" width="200" height="200" rx="16" fill="#5438DC"/>
<path d="M89.7092 252.732V249.148H94.4972C95.3558 249.148 95.9998 248.924 96.4292 248.476C96.8585 248.028 97.0732 247.393 97.0732 246.572C97.0732 245.75 96.8585 245.125 96.4292 244.696C95.9998 244.248 95.3558 244.024 94.4972 244.024H89.7092V241.252H94.2732C95.6918 241.252 96.9518 241.429 98.0532 241.784C99.1545 242.12 100.022 242.67 100.657 243.436C101.292 244.201 101.609 245.237 101.609 246.544V246.936C101.609 248.149 101.329 249.194 100.769 250.072C100.209 250.93 99.3878 251.593 98.3052 252.06C97.2225 252.508 95.8785 252.732 94.2732 252.732H89.7092ZM85.7892 252.732V231.984H90.2692V252.732H85.7892ZM89.7092 243.296V240.552H93.7412C94.6185 240.552 95.2532 240.328 95.6452 239.88C96.0372 239.432 96.2332 238.834 96.2332 238.088C96.2332 237.304 96.0372 236.688 95.6452 236.24C95.2532 235.792 94.6185 235.568 93.7412 235.568H89.7092V231.984H93.4612C95.8132 231.984 97.6145 232.478 98.8652 233.468C100.134 234.457 100.769 235.866 100.769 237.696V238.116C100.769 239.385 100.442 240.402 99.7892 241.168C99.1545 241.933 98.2865 242.484 97.1852 242.82C96.1025 243.137 94.8612 243.296 93.4612 243.296H89.7092ZM105.12 252.592V232.152H109.628V252.592H105.12ZM103.3 235.456V232.152H109.628V235.456H103.3ZM121.232 253.124C119.888 253.124 118.693 252.918 117.648 252.508C116.603 252.078 115.716 251.5 114.988 250.772C114.279 250.044 113.737 249.213 113.364 248.28C112.991 247.328 112.804 246.329 112.804 245.284V244.64C112.804 243.576 112.991 242.568 113.364 241.616C113.756 240.645 114.316 239.796 115.044 239.068C115.791 238.34 116.687 237.77 117.732 237.36C118.777 236.93 119.944 236.716 121.232 236.716C122.557 236.716 123.733 236.93 124.76 237.36C125.805 237.77 126.692 238.34 127.42 239.068C128.148 239.796 128.708 240.645 129.1 241.616C129.492 242.568 129.688 243.576 129.688 244.64V245.284C129.688 246.329 129.501 247.328 129.128 248.28C128.755 249.213 128.204 250.044 127.476 250.772C126.767 251.5 125.889 252.078 124.844 252.508C123.799 252.918 122.595 253.124 121.232 253.124ZM121.232 249.344C122.109 249.344 122.837 249.157 123.416 248.784C123.995 248.41 124.433 247.888 124.732 247.216C125.049 246.544 125.208 245.797 125.208 244.976C125.208 244.098 125.049 243.333 124.732 242.68C124.415 242.008 123.957 241.476 123.36 241.084C122.781 240.692 122.072 240.496 121.232 240.496C120.411 240.496 119.701 240.692 119.104 241.084C118.507 241.476 118.049 242.008 117.732 242.68C117.433 243.333 117.284 244.098 117.284 244.976C117.284 245.797 117.433 246.544 117.732 247.216C118.031 247.888 118.479 248.41 119.076 248.784C119.673 249.157 120.392 249.344 121.232 249.344ZM139.703 253.124C138.377 253.124 137.22 252.909 136.231 252.48C135.26 252.032 134.448 251.434 133.795 250.688C133.141 249.941 132.656 249.101 132.339 248.168C132.021 247.216 131.863 246.236 131.863 245.228V244.696C131.863 243.65 132.031 242.652 132.367 241.7C132.703 240.729 133.197 239.87 133.851 239.124C134.504 238.377 135.316 237.789 136.287 237.36C137.276 236.93 138.405 236.716 139.675 236.716C141.056 236.716 142.279 236.986 143.343 237.528C144.407 238.05 145.256 238.788 145.891 239.74C146.525 240.692 146.88 241.784 146.955 243.016H142.559C142.484 242.325 142.204 241.746 141.719 241.28C141.252 240.794 140.571 240.552 139.675 240.552C138.928 240.552 138.303 240.738 137.799 241.112C137.313 241.485 136.949 241.998 136.707 242.652C136.464 243.305 136.343 244.08 136.343 244.976C136.343 245.797 136.455 246.544 136.679 247.216C136.903 247.869 137.257 248.382 137.743 248.756C138.247 249.11 138.9 249.288 139.703 249.288C140.3 249.288 140.804 249.185 141.215 248.98C141.644 248.756 141.98 248.457 142.223 248.084C142.484 247.692 142.643 247.244 142.699 246.74H147.067C147.011 248.009 146.656 249.129 146.003 250.1C145.349 251.052 144.481 251.798 143.399 252.34C142.316 252.862 141.084 253.124 139.703 253.124ZM160.74 252.592L155.896 245.424H153.74L159.984 237.248H164.688L158.808 244.864L158.864 242.68L165.78 252.592H160.74ZM149.932 252.592V232.152H154.412V252.592H149.932ZM176.577 252.592V235.176L177.809 236.128H172.573V232.152H181.141V252.592H176.577Z" fill="white"/>
<path d="M80.1362 309.842C78.4376 309.842 76.9909 309.562 75.7962 309.002C74.6016 308.442 73.6869 307.667 73.0522 306.678C72.4176 305.689 72.1002 304.569 72.1002 303.318H74.8442C74.8442 303.934 75.0029 304.55 75.3202 305.166C75.6562 305.782 76.2069 306.295 76.9722 306.706C77.7562 307.117 78.8109 307.322 80.1362 307.322C81.3682 307.322 82.3762 307.145 83.1602 306.79C83.9442 306.417 84.5229 305.941 84.8962 305.362C85.2696 304.765 85.4562 304.121 85.4562 303.43C85.4562 302.59 85.0922 301.899 84.3642 301.358C83.6362 300.798 82.5722 300.453 81.1722 300.322L78.9042 300.126C77.0936 299.977 75.6469 299.417 74.5642 298.446C73.4816 297.475 72.9402 296.197 72.9402 294.61C72.9402 293.359 73.2389 292.267 73.8362 291.334C74.4522 290.401 75.3016 289.673 76.3842 289.15C77.4669 288.609 78.7269 288.338 80.1642 288.338C81.5829 288.338 82.8336 288.599 83.9162 289.122C84.9989 289.645 85.8389 290.382 86.4362 291.334C87.0522 292.267 87.3602 293.387 87.3602 294.694H84.6162C84.6162 294.041 84.4576 293.425 84.1402 292.846C83.8416 292.267 83.3656 291.791 82.7122 291.418C82.0589 291.045 81.2096 290.858 80.1642 290.858C79.1562 290.858 78.3162 291.035 77.6442 291.39C76.9909 291.745 76.4962 292.211 76.1602 292.79C75.8429 293.35 75.6842 293.957 75.6842 294.61C75.6842 295.357 75.9736 296.019 76.5522 296.598C77.1309 297.177 77.9896 297.513 79.1282 297.606L81.3962 297.802C82.7962 297.914 84.0002 298.213 85.0082 298.698C86.0349 299.165 86.8189 299.799 87.3602 300.602C87.9202 301.386 88.2002 302.329 88.2002 303.43C88.2002 304.681 87.8642 305.791 87.1922 306.762C86.5202 307.733 85.5776 308.489 84.3642 309.03C83.1509 309.571 81.7416 309.842 80.1362 309.842ZM92.5809 309.338V288.898H95.2689V309.338H92.5809ZM90.5089 291.026V288.898H95.2689V291.026H90.5089ZM107.313 309.842C106.006 309.842 104.858 309.618 103.869 309.17C102.879 308.722 102.039 308.134 101.349 307.406C100.677 306.659 100.163 305.829 99.8086 304.914C99.4726 303.999 99.3046 303.066 99.3046 302.114V301.61C99.3046 300.658 99.482 299.725 99.8366 298.81C100.191 297.877 100.714 297.046 101.405 296.318C102.095 295.571 102.935 294.983 103.925 294.554C104.914 294.106 106.043 293.882 107.313 293.882C108.582 293.882 109.711 294.106 110.701 294.554C111.69 294.983 112.53 295.571 113.221 296.318C113.911 297.046 114.434 297.877 114.789 298.81C115.143 299.725 115.321 300.658 115.321 301.61V302.114C115.321 303.066 115.143 303.999 114.789 304.914C114.453 305.829 113.939 306.659 113.249 307.406C112.577 308.134 111.746 308.722 110.757 309.17C109.767 309.618 108.619 309.842 107.313 309.842ZM107.313 307.434C108.433 307.434 109.385 307.191 110.169 306.706C110.971 306.202 111.578 305.53 111.989 304.69C112.418 303.85 112.633 302.907 112.633 301.862C112.633 300.798 112.418 299.846 111.989 299.006C111.559 298.166 110.943 297.503 110.141 297.018C109.357 296.533 108.414 296.29 107.313 296.29C106.23 296.29 105.287 296.533 104.485 297.018C103.682 297.503 103.066 298.166 102.637 299.006C102.207 299.846 101.993 300.798 101.993 301.862C101.993 302.907 102.198 303.85 102.609 304.69C103.038 305.53 103.645 306.202 104.429 306.706C105.231 307.191 106.193 307.434 107.313 307.434ZM125.171 309.506C124.051 309.506 123.08 309.347 122.259 309.03C121.456 308.713 120.831 308.171 120.383 307.406C119.953 306.622 119.739 305.567 119.739 304.242V289.85H122.315V304.578C122.315 305.381 122.529 306.006 122.959 306.454C123.407 306.883 124.032 307.098 124.835 307.098H127.467V309.506H125.171ZM117.163 296.402V294.386H127.467V296.402H117.163ZM130.736 309.338V305.922H133.984V309.338H130.736ZM130.736 298.978V295.562H133.984V298.978H130.736ZM146.827 309.338V291.922L148.059 292.874H142.823V288.898H151.391V309.338H146.827ZM164.572 309.87C162.948 309.87 161.557 309.609 160.4 309.086C159.243 308.545 158.3 307.817 157.572 306.902C156.863 305.987 156.331 304.933 155.976 303.738C155.64 302.525 155.472 301.246 155.472 299.902V298.306C155.472 296.439 155.799 294.75 156.452 293.238C157.105 291.726 158.104 290.522 159.448 289.626C160.792 288.73 162.5 288.282 164.572 288.282C166.644 288.282 168.343 288.73 169.668 289.626C171.012 290.522 172.011 291.726 172.664 293.238C173.317 294.75 173.644 296.439 173.644 298.306V299.902C173.644 301.246 173.467 302.525 173.112 303.738C172.776 304.933 172.244 305.987 171.516 306.902C170.807 307.817 169.873 308.545 168.716 309.086C167.577 309.609 166.196 309.87 164.572 309.87ZM164.572 305.642C166.084 305.642 167.204 305.119 167.932 304.074C168.679 303.01 169.052 301.367 169.052 299.146C169.052 296.794 168.669 295.105 167.904 294.078C167.157 293.033 166.047 292.51 164.572 292.51C163.06 292.51 161.931 293.033 161.184 294.078C160.437 295.105 160.064 296.775 160.064 299.09C160.064 301.33 160.428 302.982 161.156 304.046C161.903 305.11 163.041 305.642 164.572 305.642ZM185.927 309.87C184.303 309.87 182.913 309.609 181.755 309.086C180.598 308.545 179.655 307.817 178.927 306.902C178.218 305.987 177.686 304.933 177.331 303.738C176.995 302.525 176.827 301.246 176.827 299.902V298.306C176.827 296.439 177.154 294.75 177.807 293.238C178.461 291.726 179.459 290.522 180.803 289.626C182.147 288.73 183.855 288.282 185.927 288.282C187.999 288.282 189.698 288.73 191.023 289.626C192.367 290.522 193.366 291.726 194.019 293.238C194.673 294.75 194.999 296.439 194.999 298.306V299.902C194.999 301.246 194.822 302.525 194.467 303.738C194.131 304.933 193.599 305.987 192.871 306.902C192.162 307.817 191.229 308.545 190.071 309.086C188.933 309.609 187.551 309.87 185.927 309.87ZM185.927 305.642C187.439 305.642 188.559 305.119 189.287 304.074C190.034 303.01 190.407 301.367 190.407 299.146C190.407 296.794 190.025 295.105 189.259 294.078C188.513 293.033 187.402 292.51 185.927 292.51C184.415 292.51 183.286 293.033 182.539 294.078C181.793 295.105 181.419 296.775 181.419 299.09C181.419 301.33 181.783 302.982 182.511 304.046C183.258 305.11 184.397 305.642 185.927 305.642Z" fill="white"/>
<rect y="166.073" width="16.7853" height="15.7684" rx="3.13113" transform="rotate(-90 0 166.073)" fill="#5438DC"/>
<rect x="7.88477" y="132.455" width="11.4254" height="10.7332" rx="3.13113" transform="rotate(-90 7.88477 132.455)" fill="#5438DC"/>
<rect x="25.4209" y="152.361" width="25.6184" height="24.0664" rx="3.13113" transform="rotate(-90 25.4209 152.361)" fill="#5438DC"/>
<rect x="364.89" y="166.07" width="200" height="200" rx="16" fill="#3B20BC"/>
<path d="M417.682 252.728V249.144H422.47C423.328 249.144 423.972 248.92 424.402 248.472C424.831 248.024 425.046 247.39 425.046 246.568C425.046 245.747 424.831 245.122 424.402 244.692C423.972 244.244 423.328 244.02 422.47 244.02H417.682V241.248H422.246C423.664 241.248 424.924 241.426 426.026 241.78C427.127 242.116 427.995 242.667 428.63 243.432C429.264 244.198 429.582 245.234 429.582 246.54V246.932C429.582 248.146 429.302 249.191 428.742 250.068C428.182 250.927 427.36 251.59 426.278 252.056C425.195 252.504 423.851 252.728 422.246 252.728H417.682ZM413.762 252.728V231.98H418.242V252.728H413.762ZM417.682 243.292V240.548H421.714C422.591 240.548 423.226 240.324 423.618 239.876C424.01 239.428 424.206 238.831 424.206 238.084C424.206 237.3 424.01 236.684 423.618 236.236C423.226 235.788 422.591 235.564 421.714 235.564H417.682V231.98H421.434C423.786 231.98 425.587 232.475 426.838 233.464C428.107 234.454 428.742 235.863 428.742 237.692V238.112C428.742 239.382 428.415 240.399 427.762 241.164C427.127 241.93 426.259 242.48 425.158 242.816C424.075 243.134 422.834 243.292 421.434 243.292H417.682ZM433.093 252.588V232.148H437.601V252.588H433.093ZM431.273 235.452V232.148H437.601V235.452H431.273ZM449.205 253.12C447.861 253.12 446.666 252.915 445.621 252.504C444.575 252.075 443.689 251.496 442.961 250.768C442.251 250.04 441.71 249.21 441.337 248.276C440.963 247.324 440.777 246.326 440.777 245.28V244.636C440.777 243.572 440.963 242.564 441.337 241.612C441.729 240.642 442.289 239.792 443.017 239.064C443.763 238.336 444.659 237.767 445.705 237.356C446.75 236.927 447.917 236.712 449.205 236.712C450.53 236.712 451.706 236.927 452.733 237.356C453.778 237.767 454.665 238.336 455.393 239.064C456.121 239.792 456.681 240.642 457.073 241.612C457.465 242.564 457.661 243.572 457.661 244.636V245.28C457.661 246.326 457.474 247.324 457.101 248.276C456.727 249.21 456.177 250.04 455.449 250.768C454.739 251.496 453.862 252.075 452.817 252.504C451.771 252.915 450.567 253.12 449.205 253.12ZM449.205 249.34C450.082 249.34 450.81 249.154 451.389 248.78C451.967 248.407 452.406 247.884 452.705 247.212C453.022 246.54 453.181 245.794 453.181 244.972C453.181 244.095 453.022 243.33 452.705 242.676C452.387 242.004 451.93 241.472 451.333 241.08C450.754 240.688 450.045 240.492 449.205 240.492C448.383 240.492 447.674 240.688 447.077 241.08C446.479 241.472 446.022 242.004 445.705 242.676C445.406 243.33 445.257 244.095 445.257 244.972C445.257 245.794 445.406 246.54 445.705 247.212C446.003 247.884 446.451 248.407 447.049 248.78C447.646 249.154 448.365 249.34 449.205 249.34ZM467.675 253.12C466.35 253.12 465.192 252.906 464.203 252.476C463.232 252.028 462.42 251.431 461.767 250.684C461.114 249.938 460.628 249.098 460.311 248.164C459.994 247.212 459.835 246.232 459.835 245.224V244.692C459.835 243.647 460.003 242.648 460.339 241.696C460.675 240.726 461.17 239.867 461.823 239.12C462.476 238.374 463.288 237.786 464.259 237.356C465.248 236.927 466.378 236.712 467.647 236.712C469.028 236.712 470.251 236.983 471.315 237.524C472.379 238.047 473.228 238.784 473.863 239.736C474.498 240.688 474.852 241.78 474.927 243.012H470.531C470.456 242.322 470.176 241.743 469.691 241.276C469.224 240.791 468.543 240.548 467.647 240.548C466.9 240.548 466.275 240.735 465.771 241.108C465.286 241.482 464.922 241.995 464.679 242.648C464.436 243.302 464.315 244.076 464.315 244.972C464.315 245.794 464.427 246.54 464.651 247.212C464.875 247.866 465.23 248.379 465.715 248.752C466.219 249.107 466.872 249.284 467.675 249.284C468.272 249.284 468.776 249.182 469.187 248.976C469.616 248.752 469.952 248.454 470.195 248.08C470.456 247.688 470.615 247.24 470.671 246.736H475.039C474.983 248.006 474.628 249.126 473.975 250.096C473.322 251.048 472.454 251.795 471.371 252.336C470.288 252.859 469.056 253.12 467.675 253.12ZM488.712 252.588L483.868 245.42H481.712L487.956 237.244H492.66L486.78 244.86L486.836 242.676L493.752 252.588H488.712ZM477.904 252.588V232.148H482.384V252.588H477.904ZM501.302 252.588V248.388C501.302 247.511 501.442 246.746 501.722 246.092C502.021 245.439 502.487 244.86 503.122 244.356C503.757 243.834 504.597 243.348 505.642 242.9L508.946 241.472C509.786 241.118 510.402 240.679 510.794 240.156C511.205 239.634 511.41 238.971 511.41 238.168C511.41 237.347 511.158 236.675 510.654 236.152C510.15 235.63 509.413 235.368 508.442 235.368C507.471 235.368 506.734 235.639 506.23 236.18C505.726 236.722 505.474 237.45 505.474 238.364H501.022C501.022 237.076 501.302 235.919 501.862 234.892C502.422 233.847 503.253 233.026 504.354 232.428C505.455 231.831 506.818 231.532 508.442 231.532C510.066 231.532 511.419 231.822 512.502 232.4C513.603 232.979 514.434 233.754 514.994 234.724C515.573 235.695 515.862 236.787 515.862 238V238.336C515.862 239.904 515.433 241.202 514.574 242.228C513.715 243.236 512.39 244.132 510.598 244.916L507.322 246.344C506.762 246.587 506.361 246.839 506.118 247.1C505.894 247.362 505.782 247.716 505.782 248.164V249.564L504.69 248.64H515.89V252.588H501.302Z" fill="white"/>
<path d="M416.156 309.839C414.457 309.839 413.01 309.559 411.816 308.999C410.621 308.439 409.706 307.664 409.072 306.675C408.437 305.686 408.12 304.566 408.12 303.315H410.864C410.864 303.931 411.022 304.547 411.34 305.163C411.676 305.779 412.226 306.292 412.992 306.703C413.776 307.114 414.83 307.319 416.156 307.319C417.388 307.319 418.396 307.142 419.18 306.787C419.964 306.414 420.542 305.938 420.916 305.359C421.289 304.762 421.476 304.118 421.476 303.427C421.476 302.587 421.112 301.896 420.384 301.355C419.656 300.795 418.592 300.45 417.192 300.319L414.924 300.123C413.113 299.974 411.666 299.414 410.584 298.443C409.501 297.472 408.96 296.194 408.96 294.607C408.96 293.356 409.258 292.264 409.856 291.331C410.472 290.398 411.321 289.67 412.404 289.147C413.486 288.606 414.746 288.335 416.184 288.335C417.602 288.335 418.853 288.596 419.936 289.119C421.018 289.642 421.858 290.379 422.456 291.331C423.072 292.264 423.38 293.384 423.38 294.691H420.636C420.636 294.038 420.477 293.422 420.16 292.843C419.861 292.264 419.385 291.788 418.732 291.415C418.078 291.042 417.229 290.855 416.184 290.855C415.176 290.855 414.336 291.032 413.664 291.387C413.01 291.742 412.516 292.208 412.18 292.787C411.862 293.347 411.704 293.954 411.704 294.607C411.704 295.354 411.993 296.016 412.572 296.595C413.15 297.174 414.009 297.51 415.148 297.603L417.416 297.799C418.816 297.911 420.02 298.21 421.028 298.695C422.054 299.162 422.838 299.796 423.38 300.599C423.94 301.383 424.22 302.326 424.22 303.427C424.22 304.678 423.884 305.788 423.212 306.759C422.54 307.73 421.597 308.486 420.384 309.027C419.17 309.568 417.761 309.839 416.156 309.839ZM428.6 309.335V288.895H431.288V309.335H428.6ZM426.528 291.023V288.895H431.288V291.023H426.528ZM443.332 309.839C442.025 309.839 440.877 309.615 439.888 309.167C438.899 308.719 438.059 308.131 437.368 307.403C436.696 306.656 436.183 305.826 435.828 304.911C435.492 303.996 435.324 303.063 435.324 302.111V301.607C435.324 300.655 435.501 299.722 435.856 298.807C436.211 297.874 436.733 297.043 437.424 296.315C438.115 295.568 438.955 294.98 439.944 294.551C440.933 294.103 442.063 293.879 443.332 293.879C444.601 293.879 445.731 294.103 446.72 294.551C447.709 294.98 448.549 295.568 449.24 296.315C449.931 297.043 450.453 297.874 450.808 298.807C451.163 299.722 451.34 300.655 451.34 301.607V302.111C451.34 303.063 451.163 303.996 450.808 304.911C450.472 305.826 449.959 306.656 449.268 307.403C448.596 308.131 447.765 308.719 446.776 309.167C445.787 309.615 444.639 309.839 443.332 309.839ZM443.332 307.431C444.452 307.431 445.404 307.188 446.188 306.703C446.991 306.199 447.597 305.527 448.008 304.687C448.437 303.847 448.652 302.904 448.652 301.859C448.652 300.795 448.437 299.843 448.008 299.003C447.579 298.163 446.963 297.5 446.16 297.015C445.376 296.53 444.433 296.287 443.332 296.287C442.249 296.287 441.307 296.53 440.504 297.015C439.701 297.5 439.085 298.163 438.656 299.003C438.227 299.843 438.012 300.795 438.012 301.859C438.012 302.904 438.217 303.847 438.628 304.687C439.057 305.527 439.664 306.199 440.448 306.703C441.251 307.188 442.212 307.431 443.332 307.431ZM461.19 309.503C460.07 309.503 459.099 309.344 458.278 309.027C457.475 308.71 456.85 308.168 456.402 307.403C455.973 306.619 455.758 305.564 455.758 304.239V289.847H458.334V304.575C458.334 305.378 458.549 306.003 458.978 306.451C459.426 306.88 460.051 307.095 460.854 307.095H463.486V309.503H461.19ZM453.182 296.399V294.383H463.486V296.399H453.182ZM466.756 309.335V305.919H470.004V309.335H466.756ZM466.756 298.975V295.559H470.004V298.975H466.756ZM482.847 309.335V291.919L484.079 292.871H478.843V288.895H487.411V309.335H482.847ZM500.592 309.867C498.968 309.867 497.577 309.606 496.42 309.083C495.262 308.542 494.32 307.814 493.592 306.899C492.882 305.984 492.35 304.93 491.996 303.735C491.66 302.522 491.492 301.243 491.492 299.899V298.303C491.492 296.436 491.818 294.747 492.472 293.235C493.125 291.723 494.124 290.519 495.468 289.623C496.812 288.727 498.52 288.279 500.592 288.279C502.664 288.279 504.362 288.727 505.688 289.623C507.032 290.519 508.03 291.723 508.684 293.235C509.337 294.747 509.664 296.436 509.664 298.303V299.899C509.664 301.243 509.486 302.522 509.132 303.735C508.796 304.93 508.264 305.984 507.536 306.899C506.826 307.814 505.893 308.542 504.736 309.083C503.597 309.606 502.216 309.867 500.592 309.867ZM500.592 305.639C502.104 305.639 503.224 305.116 503.952 304.071C504.698 303.007 505.072 301.364 505.072 299.143C505.072 296.791 504.689 295.102 503.924 294.075C503.177 293.03 502.066 292.507 500.592 292.507C499.08 292.507 497.95 293.03 497.204 294.075C496.457 295.102 496.084 296.772 496.084 299.087C496.084 301.327 496.448 302.979 497.176 304.043C497.922 305.107 499.061 305.639 500.592 305.639ZM516.179 309.335V291.919L517.411 292.871H512.175V288.895H520.743V309.335H516.179Z" fill="white"/>
<rect x="331.304" y="166.07" width="16.7853" height="15.7684" rx="3.13113" transform="rotate(-90 331.304 166.07)" fill="#3B20BC"/>
<rect x="339.188" y="132.452" width="11.4254" height="10.7332" rx="3.13113" transform="rotate(-90 339.188 132.452)" fill="#3B20BC"/>
<rect x="356.725" y="152.357" width="25.6184" height="24.0664" rx="3.13113" transform="rotate(-90 356.725 152.357)" fill="#3B20BC"/>
<rect x="696.219" y="166.071" width="200" height="200" rx="16" fill="#29138F"/>
<path d="M749.011 252.73V249.146H753.799C754.658 249.146 755.302 248.922 755.731 248.474C756.16 248.026 756.375 247.391 756.375 246.57C756.375 245.749 756.16 245.123 755.731 244.694C755.302 244.246 754.658 244.022 753.799 244.022H749.011V241.25H753.575C754.994 241.25 756.254 241.427 757.355 241.782C758.456 242.118 759.324 242.669 759.959 243.434C760.594 244.199 760.911 245.235 760.911 246.542V246.934C760.911 248.147 760.631 249.193 760.071 250.07C759.511 250.929 758.69 251.591 757.607 252.058C756.524 252.506 755.18 252.73 753.575 252.73H749.011ZM745.091 252.73V231.982H749.571V252.73H745.091ZM749.011 243.294V240.55H753.043C753.92 240.55 754.555 240.326 754.947 239.878C755.339 239.43 755.535 238.833 755.535 238.086C755.535 237.302 755.339 236.686 754.947 236.238C754.555 235.79 753.92 235.566 753.043 235.566H749.011V231.982H752.763C755.115 231.982 756.916 232.477 758.167 233.466C759.436 234.455 760.071 235.865 760.071 237.694V238.114C760.071 239.383 759.744 240.401 759.091 241.166C758.456 241.931 757.588 242.482 756.487 242.818C755.404 243.135 754.163 243.294 752.763 243.294H749.011ZM764.422 252.59V232.15H768.93V252.59H764.422ZM762.602 235.454V232.15H768.93V235.454H762.602ZM780.534 253.122C779.19 253.122 777.995 252.917 776.95 252.506C775.904 252.077 775.018 251.498 774.29 250.77C773.58 250.042 773.039 249.211 772.666 248.278C772.292 247.326 772.106 246.327 772.106 245.282V244.638C772.106 243.574 772.292 242.566 772.666 241.614C773.058 240.643 773.618 239.794 774.346 239.066C775.092 238.338 775.988 237.769 777.034 237.358C778.079 236.929 779.246 236.714 780.534 236.714C781.859 236.714 783.035 236.929 784.062 237.358C785.107 237.769 785.994 238.338 786.722 239.066C787.45 239.794 788.01 240.643 788.402 241.614C788.794 242.566 788.99 243.574 788.99 244.638V245.282C788.99 246.327 788.803 247.326 788.43 248.278C788.056 249.211 787.506 250.042 786.778 250.77C786.068 251.498 785.191 252.077 784.146 252.506C783.1 252.917 781.896 253.122 780.534 253.122ZM780.534 249.342C781.411 249.342 782.139 249.155 782.718 248.782C783.296 248.409 783.735 247.886 784.034 247.214C784.351 246.542 784.51 245.795 784.51 244.974C784.51 244.097 784.351 243.331 784.034 242.678C783.716 242.006 783.259 241.474 782.662 241.082C782.083 240.69 781.374 240.494 780.534 240.494C779.712 240.494 779.003 240.69 778.406 241.082C777.808 241.474 777.351 242.006 777.034 242.678C776.735 243.331 776.586 244.097 776.586 244.974C776.586 245.795 776.735 246.542 777.034 247.214C777.332 247.886 777.78 248.409 778.378 248.782C778.975 249.155 779.694 249.342 780.534 249.342ZM799.004 253.122C797.679 253.122 796.522 252.907 795.532 252.478C794.562 252.03 793.75 251.433 793.096 250.686C792.443 249.939 791.958 249.099 791.64 248.166C791.323 247.214 791.164 246.234 791.164 245.226V244.694C791.164 243.649 791.332 242.65 791.668 241.698C792.004 240.727 792.499 239.869 793.152 239.122C793.806 238.375 794.618 237.787 795.588 237.358C796.578 236.929 797.707 236.714 798.976 236.714C800.358 236.714 801.58 236.985 802.644 237.526C803.708 238.049 804.558 238.786 805.192 239.738C805.827 240.69 806.182 241.782 806.256 243.014H801.86C801.786 242.323 801.506 241.745 801.02 241.278C800.554 240.793 799.872 240.55 798.976 240.55C798.23 240.55 797.604 240.737 797.1 241.11C796.615 241.483 796.251 241.997 796.008 242.65C795.766 243.303 795.644 244.078 795.644 244.974C795.644 245.795 795.756 246.542 795.98 247.214C796.204 247.867 796.559 248.381 797.044 248.754C797.548 249.109 798.202 249.286 799.004 249.286C799.602 249.286 800.106 249.183 800.516 248.978C800.946 248.754 801.282 248.455 801.524 248.082C801.786 247.69 801.944 247.242 802 246.738H806.368C806.312 248.007 805.958 249.127 805.304 250.098C804.651 251.05 803.783 251.797 802.7 252.338C801.618 252.861 800.386 253.122 799.004 253.122ZM820.041 252.59L815.197 245.422H813.041L819.285 237.246H823.989L818.109 244.862L818.165 242.678L825.081 252.59H820.041ZM809.233 252.59V232.15H813.713V252.59H809.233ZM839.631 253.122C838.045 253.122 836.663 252.833 835.487 252.254C834.33 251.657 833.443 250.854 832.827 249.846C832.211 248.838 831.903 247.699 831.903 246.43H836.327C836.327 247.289 836.617 247.989 837.195 248.53C837.774 249.053 838.586 249.314 839.631 249.314C840.322 249.314 840.91 249.183 841.395 248.922C841.881 248.661 842.254 248.306 842.515 247.858C842.777 247.391 842.907 246.869 842.907 246.29C842.907 245.394 842.618 244.657 842.039 244.078C841.479 243.499 840.677 243.21 839.631 243.21C839.071 243.21 838.577 243.294 838.147 243.462C837.737 243.63 837.382 243.835 837.083 244.078L835.011 240.578L841.199 236.546L840.947 236.07H832.743V232.15H846.519V236.406L839.379 240.942L837.139 240.326C837.513 240.214 837.905 240.13 838.315 240.074C838.745 239.999 839.202 239.962 839.687 239.962C841.274 239.962 842.637 240.223 843.775 240.746C844.914 241.269 845.791 242.006 846.407 242.958C847.042 243.891 847.359 244.983 847.359 246.234V246.57C847.359 247.821 847.042 248.941 846.407 249.93C845.791 250.919 844.905 251.703 843.747 252.282C842.609 252.842 841.237 253.122 839.631 253.122Z" fill="white"/>
<path d="M744.627 309.84C742.929 309.84 741.482 309.56 740.287 309C739.093 308.44 738.178 307.666 737.543 306.676C736.909 305.687 736.591 304.567 736.591 303.316H739.335C739.335 303.932 739.494 304.548 739.811 305.164C740.147 305.78 740.698 306.294 741.463 306.704C742.247 307.115 743.302 307.32 744.627 307.32C745.859 307.32 746.867 307.143 747.651 306.788C748.435 306.415 749.014 305.939 749.387 305.36C749.761 304.763 749.947 304.119 749.947 303.428C749.947 302.588 749.583 301.898 748.855 301.356C748.127 300.796 747.063 300.451 745.663 300.32L743.395 300.124C741.585 299.975 740.138 299.415 739.055 298.444C737.973 297.474 737.431 296.195 737.431 294.608C737.431 293.358 737.73 292.266 738.327 291.332C738.943 290.399 739.793 289.671 740.875 289.148C741.958 288.607 743.218 288.336 744.655 288.336C746.074 288.336 747.325 288.598 748.407 289.12C749.49 289.643 750.33 290.38 750.927 291.332C751.543 292.266 751.851 293.386 751.851 294.692H749.107C749.107 294.039 748.949 293.423 748.631 292.844C748.333 292.266 747.857 291.79 747.203 291.416C746.55 291.043 745.701 290.856 744.655 290.856C743.647 290.856 742.807 291.034 742.135 291.388C741.482 291.743 740.987 292.21 740.651 292.788C740.334 293.348 740.175 293.955 740.175 294.608C740.175 295.355 740.465 296.018 741.043 296.596C741.622 297.175 742.481 297.511 743.619 297.604L745.887 297.8C747.287 297.912 748.491 298.211 749.499 298.696C750.526 299.163 751.31 299.798 751.851 300.6C752.411 301.384 752.691 302.327 752.691 303.428C752.691 304.679 752.355 305.79 751.683 306.76C751.011 307.731 750.069 308.487 748.855 309.028C747.642 309.57 746.233 309.84 744.627 309.84ZM757.072 309.336V288.896H759.76V309.336H757.072ZM755 291.024V288.896H759.76V291.024H755ZM771.804 309.84C770.497 309.84 769.349 309.616 768.36 309.168C767.371 308.72 766.531 308.132 765.84 307.404C765.168 306.658 764.655 305.827 764.3 304.912C763.964 303.998 763.796 303.064 763.796 302.112V301.608C763.796 300.656 763.973 299.723 764.328 298.808C764.683 297.875 765.205 297.044 765.896 296.316C766.587 295.57 767.427 294.982 768.416 294.552C769.405 294.104 770.535 293.88 771.804 293.88C773.073 293.88 774.203 294.104 775.192 294.552C776.181 294.982 777.021 295.57 777.712 296.316C778.403 297.044 778.925 297.875 779.28 298.808C779.635 299.723 779.812 300.656 779.812 301.608V302.112C779.812 303.064 779.635 303.998 779.28 304.912C778.944 305.827 778.431 306.658 777.74 307.404C777.068 308.132 776.237 308.72 775.248 309.168C774.259 309.616 773.111 309.84 771.804 309.84ZM771.804 307.432C772.924 307.432 773.876 307.19 774.66 306.704C775.463 306.2 776.069 305.528 776.48 304.688C776.909 303.848 777.124 302.906 777.124 301.86C777.124 300.796 776.909 299.844 776.48 299.004C776.051 298.164 775.435 297.502 774.632 297.016C773.848 296.531 772.905 296.288 771.804 296.288C770.721 296.288 769.779 296.531 768.976 297.016C768.173 297.502 767.557 298.164 767.128 299.004C766.699 299.844 766.484 300.796 766.484 301.86C766.484 302.906 766.689 303.848 767.1 304.688C767.529 305.528 768.136 306.2 768.92 306.704C769.723 307.19 770.684 307.432 771.804 307.432ZM789.662 309.504C788.542 309.504 787.571 309.346 786.75 309.028C785.947 308.711 785.322 308.17 784.874 307.404C784.444 306.62 784.23 305.566 784.23 304.24V289.848H786.806V304.576C786.806 305.379 787.02 306.004 787.45 306.452C787.898 306.882 788.523 307.096 789.326 307.096H791.958V309.504H789.662ZM781.654 296.4V294.384H791.958V296.4H781.654ZM795.228 309.336V305.92H798.476V309.336H795.228ZM795.228 298.976V295.56H798.476V298.976H795.228ZM811.319 309.336V291.92L812.551 292.872H807.315V288.896H815.883V309.336H811.319ZM829.063 309.868C827.439 309.868 826.049 309.607 824.891 309.084C823.734 308.543 822.791 307.815 822.063 306.9C821.354 305.986 820.822 304.931 820.467 303.736C820.131 302.523 819.963 301.244 819.963 299.9V298.304C819.963 296.438 820.29 294.748 820.943 293.236C821.597 291.724 822.595 290.52 823.939 289.624C825.283 288.728 826.991 288.28 829.063 288.28C831.135 288.28 832.834 288.728 834.159 289.624C835.503 290.52 836.502 291.724 837.155 293.236C837.809 294.748 838.135 296.438 838.135 298.304V299.9C838.135 301.244 837.958 302.523 837.603 303.736C837.267 304.931 836.735 305.986 836.007 306.9C835.298 307.815 834.365 308.543 833.207 309.084C832.069 309.607 830.687 309.868 829.063 309.868ZM829.063 305.64C830.575 305.64 831.695 305.118 832.423 304.072C833.17 303.008 833.543 301.366 833.543 299.144C833.543 296.792 833.161 295.103 832.395 294.076C831.649 293.031 830.538 292.508 829.063 292.508C827.551 292.508 826.422 293.031 825.675 294.076C824.929 295.103 824.555 296.774 824.555 299.088C824.555 301.328 824.919 302.98 825.647 304.044C826.394 305.108 827.533 305.64 829.063 305.64ZM841.403 309.336V305.136C841.403 304.259 841.543 303.494 841.823 302.84C842.121 302.187 842.588 301.608 843.223 301.104C843.857 300.582 844.697 300.096 845.743 299.648L849.047 298.22C849.887 297.866 850.503 297.427 850.895 296.904C851.305 296.382 851.511 295.719 851.511 294.916C851.511 294.095 851.259 293.423 850.755 292.9C850.251 292.378 849.513 292.116 848.543 292.116C847.572 292.116 846.835 292.387 846.331 292.928C845.827 293.47 845.575 294.198 845.575 295.112H841.123C841.123 293.824 841.403 292.667 841.963 291.64C842.523 290.595 843.353 289.774 844.455 289.176C845.556 288.579 846.919 288.28 848.543 288.28C850.167 288.28 851.52 288.57 852.603 289.148C853.704 289.727 854.535 290.502 855.095 291.472C855.673 292.443 855.963 293.535 855.963 294.748V295.084C855.963 296.652 855.533 297.95 854.675 298.976C853.816 299.984 852.491 300.88 850.699 301.664L847.423 303.092C846.863 303.335 846.461 303.587 846.219 303.848C845.995 304.11 845.883 304.464 845.883 304.912V306.312L844.791 305.388H855.991V309.336H841.403Z" fill="white"/>
<rect x="671.476" y="166.07" width="16.7853" height="15.7684" rx="3.13113" transform="rotate(-90 671.476 166.07)" fill="#28138F"/>
<rect x="679.36" y="132.452" width="11.4254" height="10.7332" rx="3.13113" transform="rotate(-90 679.36 132.452)" fill="#28138F"/>
<rect x="696.896" y="152.357" width="25.6184" height="24.0664" rx="3.13113" transform="rotate(-90 696.896 152.357)" fill="#28138F"/>
<path d="M554.676 264.738C553.895 265.519 553.895 266.624 554.676 267.405L563.556 276.285C564.337 277.066 565.442 277.066 566.223 276.285L576.437 266.071L566.223 255.858C565.442 255.077 564.337 255.077 563.556 255.858L554.676 264.738ZM672.909 274.952C672.909 276.056 674.262 276.837 675.218 276.285L690.599 267.405C691.556 266.852 691.556 265.29 690.599 264.738L675.218 255.858C674.262 255.305 672.909 256.086 672.909 257.191V274.952ZM564.89 266.071V268.071H674.909V266.071V264.071H564.89V266.071Z" fill="white"/>
<path d="M223.346 264.736C222.565 265.518 222.565 266.622 223.346 267.403L232.226 276.283C233.007 277.065 234.112 277.065 234.893 276.283L245.107 266.07L234.893 255.856C234.112 255.075 233.007 255.075 232.226 255.856L223.346 264.736ZM341.58 274.95C341.58 276.055 342.932 276.836 343.889 276.283L359.27 267.403C360.227 266.851 360.227 265.289 359.27 264.736L343.889 255.856C342.932 255.304 341.58 256.085 341.58 257.189V274.95ZM233.56 266.07V268.07H343.58V266.07V264.07H233.56V266.07Z" fill="white"/>
<path d="M219.891 31.2V26.08H226.731C227.957 26.08 228.877 25.76 229.491 25.12C230.104 24.48 230.411 23.5733 230.411 22.4C230.411 21.2267 230.104 20.3333 229.491 19.72C228.877 19.08 227.957 18.76 226.731 18.76H219.891V14.8H226.411C228.437 14.8 230.237 15.0533 231.811 15.56C233.384 16.04 234.624 16.8267 235.531 17.92C236.437 19.0133 236.891 20.4933 236.891 22.36V22.92C236.891 24.6533 236.491 26.1467 235.691 27.4C234.891 28.6267 233.717 29.5733 232.171 30.24C230.624 30.88 228.704 31.2 226.411 31.2H219.891ZM214.291 31.2V1.56H220.691V31.2H214.291ZM219.891 17.72V13.8H225.651C226.904 13.8 227.811 13.48 228.371 12.84C228.931 12.2 229.211 11.3467 229.211 10.28C229.211 9.16 228.931 8.28 228.371 7.64C227.811 7 226.904 6.68 225.651 6.68H219.891V1.56H225.251C228.611 1.56 231.184 2.26666 232.971 3.68C234.784 5.09333 235.691 7.10667 235.691 9.72V10.32C235.691 12.1333 235.224 13.5867 234.291 14.68C233.384 15.7733 232.144 16.56 230.571 17.04C229.024 17.4933 227.251 17.72 225.251 17.72H219.891ZM241.906 31V1.8H248.346V31H241.906ZM239.306 6.52V1.8H248.346V6.52H239.306ZM264.923 31.76C263.003 31.76 261.297 31.4667 259.803 30.88C258.31 30.2667 257.043 29.44 256.003 28.4C254.99 27.36 254.217 26.1733 253.683 24.84C253.15 23.48 252.883 22.0533 252.883 20.56V19.64C252.883 18.12 253.15 16.68 253.683 15.32C254.243 13.9333 255.043 12.72 256.083 11.68C257.15 10.64 258.43 9.82667 259.923 9.24C261.417 8.62667 263.083 8.32 264.923 8.32C266.817 8.32 268.497 8.62667 269.963 9.24C271.457 9.82667 272.723 10.64 273.763 11.68C274.803 12.72 275.603 13.9333 276.163 15.32C276.723 16.68 277.003 18.12 277.003 19.64V20.56C277.003 22.0533 276.737 23.48 276.203 24.84C275.67 26.1733 274.883 27.36 273.843 28.4C272.83 29.44 271.577 30.2667 270.083 30.88C268.59 31.4667 266.87 31.76 264.923 31.76ZM264.923 26.36C266.177 26.36 267.217 26.0933 268.043 25.56C268.87 25.0267 269.497 24.28 269.923 23.32C270.377 22.36 270.603 21.2933 270.603 20.12C270.603 18.8667 270.377 17.7733 269.923 16.84C269.47 15.88 268.817 15.12 267.963 14.56C267.137 14 266.123 13.72 264.923 13.72C263.75 13.72 262.737 14 261.883 14.56C261.03 15.12 260.377 15.88 259.923 16.84C259.497 17.7733 259.283 18.8667 259.283 20.12C259.283 21.2933 259.497 22.36 259.923 23.32C260.35 24.28 260.99 25.0267 261.843 25.56C262.697 26.0933 263.723 26.36 264.923 26.36ZM291.31 31.76C289.416 31.76 287.763 31.4533 286.35 30.84C284.963 30.2 283.803 29.3467 282.87 28.28C281.936 27.2133 281.243 26.0133 280.79 24.68C280.336 23.32 280.11 21.92 280.11 20.48V19.72C280.11 18.2267 280.35 16.8 280.83 15.44C281.31 14.0533 282.016 12.8267 282.95 11.76C283.883 10.6933 285.043 9.85333 286.43 9.24C287.843 8.62667 289.456 8.32 291.27 8.32C293.243 8.32 294.99 8.70667 296.51 9.48C298.03 10.2267 299.243 11.28 300.15 12.64C301.056 14 301.563 15.56 301.67 17.32H295.39C295.283 16.3333 294.883 15.5067 294.19 14.84C293.523 14.1467 292.55 13.8 291.27 13.8C290.203 13.8 289.31 14.0667 288.59 14.6C287.896 15.1333 287.376 15.8667 287.03 16.8C286.683 17.7333 286.51 18.84 286.51 20.12C286.51 21.2933 286.67 22.36 286.99 23.32C287.31 24.2533 287.816 24.9867 288.51 25.52C289.23 26.0267 290.163 26.28 291.31 26.28C292.163 26.28 292.883 26.1333 293.47 25.84C294.083 25.52 294.563 25.0933 294.91 24.56C295.283 24 295.51 23.36 295.59 22.64H301.83C301.75 24.4533 301.243 26.0533 300.31 27.44C299.376 28.8 298.136 29.8667 296.59 30.64C295.043 31.3867 293.283 31.76 291.31 31.76ZM321.363 31L314.443 20.76H311.363L320.283 9.08H327.003L318.603 19.96L318.683 16.84L328.563 31H321.363ZM305.923 31V1.8H312.323V31H305.923ZM340.489 31.76C338.596 31.76 336.943 31.4533 335.529 30.84C334.143 30.2 332.983 29.3467 332.049 28.28C331.116 27.2133 330.423 26.0133 329.969 24.68C329.516 23.32 329.289 21.92 329.289 20.48V19.72C329.289 18.2267 329.529 16.8 330.009 15.44C330.489 14.0533 331.196 12.8267 332.129 11.76C333.063 10.6933 334.223 9.85333 335.609 9.24C337.023 8.62667 338.636 8.32 340.449 8.32C342.423 8.32 344.169 8.70667 345.689 9.48C347.209 10.2267 348.423 11.28 349.329 12.64C350.236 14 350.743 15.56 350.849 17.32H344.569C344.463 16.3333 344.063 15.5067 343.369 14.84C342.703 14.1467 341.729 13.8 340.449 13.8C339.383 13.8 338.489 14.0667 337.769 14.6C337.076 15.1333 336.556 15.8667 336.209 16.8C335.863 17.7333 335.689 18.84 335.689 20.12C335.689 21.2933 335.849 22.36 336.169 23.32C336.489 24.2533 336.996 24.9867 337.689 25.52C338.409 26.0267 339.343 26.28 340.489 26.28C341.343 26.28 342.063 26.1333 342.649 25.84C343.263 25.52 343.743 25.0933 344.089 24.56C344.463 24 344.689 23.36 344.769 22.64H351.009C350.929 24.4533 350.423 26.0533 349.489 27.44C348.556 28.8 347.316 29.8667 345.769 30.64C344.223 31.3867 342.463 31.76 340.489 31.76ZM355.103 31V1.8H361.503V18.64H360.543C360.543 16.4267 360.823 14.56 361.383 13.04C361.943 11.52 362.769 10.3733 363.863 9.6C364.956 8.8 366.329 8.4 367.983 8.4H368.263C370.689 8.4 372.543 9.26667 373.823 11C375.103 12.7067 375.743 15.2133 375.743 18.52V31H369.343V18.12C369.343 16.92 368.983 15.96 368.263 15.24C367.569 14.4933 366.649 14.12 365.503 14.12C364.303 14.12 363.329 14.5067 362.583 15.28C361.863 16.0533 361.503 17.08 361.503 18.36V31H355.103ZM394.436 31V24.52H393.356V17.48C393.356 16.36 393.09 15.52 392.556 14.96C392.023 14.4 391.17 14.12 389.996 14.12C389.41 14.12 388.636 14.1333 387.676 14.16C386.716 14.1867 385.73 14.2267 384.716 14.28C383.703 14.3333 382.783 14.3867 381.956 14.44V9.04C382.57 8.98667 383.29 8.93333 384.116 8.88C384.943 8.82667 385.796 8.78667 386.676 8.76C387.556 8.73333 388.383 8.72 389.156 8.72C391.396 8.72 393.276 9.04 394.796 9.68C396.343 10.32 397.516 11.2933 398.316 12.6C399.116 13.88 399.516 15.5333 399.516 17.56V31H394.436ZM387.436 31.56C385.863 31.56 384.476 31.28 383.276 30.72C382.103 30.16 381.183 29.36 380.516 28.32C379.85 27.2533 379.516 25.9867 379.516 24.52C379.516 22.92 379.93 21.6133 380.756 20.6C381.583 19.56 382.743 18.8 384.236 18.32C385.73 17.8133 387.45 17.56 389.396 17.56H394.076V21.12H389.356C388.236 21.12 387.37 21.4 386.756 21.96C386.17 22.4933 385.876 23.2267 385.876 24.16C385.876 25.04 386.17 25.76 386.756 26.32C387.37 26.8533 388.236 27.12 389.356 27.12C390.076 27.12 390.716 27 391.276 26.76C391.863 26.4933 392.343 26.0533 392.716 25.44C393.09 24.8267 393.303 23.9733 393.356 22.88L394.876 24.48C394.743 26 394.37 27.28 393.756 28.32C393.17 29.36 392.343 30.16 391.276 30.72C390.236 31.28 388.956 31.56 387.436 31.56ZM405.986 31V9.08H412.386V31H405.986ZM403.066 13.8V9.08H412.386V13.8H403.066ZM408.466 6.92C407.266 6.92 406.373 6.61333 405.786 6C405.226 5.36 404.946 4.56 404.946 3.6C404.946 2.61333 405.226 1.81333 405.786 1.2C406.373 0.559998 407.266 0.239998 408.466 0.239998C409.666 0.239998 410.546 0.559998 411.106 1.2C411.693 1.81333 411.986 2.61333 411.986 3.6C411.986 4.56 411.693 5.36 411.106 6C410.546 6.61333 409.666 6.92 408.466 6.92ZM418.306 31V9.08H423.386V18.48H423.026C423.026 16.24 423.306 14.3733 423.866 12.88C424.452 11.3867 425.332 10.2667 426.506 9.52C427.679 8.77333 429.106 8.4 430.786 8.4H431.066C433.626 8.4 435.572 9.24 436.906 10.92C438.266 12.5733 438.946 15.0933 438.946 18.48V31H432.546V18.12C432.546 16.9467 432.199 15.9867 431.506 15.24C430.812 14.4933 429.879 14.12 428.706 14.12C427.506 14.12 426.532 14.5067 425.786 15.28C425.066 16.0267 424.706 17.0133 424.706 18.24V31H418.306ZM459.598 31L450.718 1.8H457.478L464.518 26.44L462.998 25.68H467.078L465.478 26.44L471.998 1.8H478.558L470.278 31H459.598ZM482.783 31V9.08H489.183V31H482.783ZM479.863 13.8V9.08H489.183V13.8H479.863ZM485.263 6.92C484.063 6.92 483.17 6.61333 482.583 6C482.023 5.36 481.743 4.56 481.743 3.6C481.743 2.61333 482.023 1.81333 482.583 1.2C483.17 0.559998 484.063 0.239998 485.263 0.239998C486.463 0.239998 487.343 0.559998 487.903 1.2C488.49 1.81333 488.783 2.61333 488.783 3.6C488.783 4.56 488.49 5.36 487.903 6C487.343 6.61333 486.463 6.92 485.263 6.92ZM503.423 31.68C500.303 31.68 497.863 31.04 496.103 29.76C494.343 28.48 493.409 26.68 493.303 24.36H498.983C499.089 25.0533 499.503 25.68 500.223 26.24C500.969 26.7733 502.076 27.04 503.543 27.04C504.663 27.04 505.583 26.8533 506.303 26.48C507.049 26.08 507.423 25.52 507.423 24.8C507.423 24.16 507.143 23.6533 506.583 23.28C506.023 22.88 505.023 22.6 503.583 22.44L501.863 22.28C499.223 22.0133 497.236 21.28 495.903 20.08C494.596 18.88 493.943 17.3467 493.943 15.48C493.943 13.9333 494.329 12.64 495.103 11.6C495.876 10.56 496.943 9.77333 498.303 9.24C499.689 8.70667 501.263 8.44 503.023 8.44C505.849 8.44 508.129 9.06667 509.863 10.32C511.596 11.5467 512.503 13.3333 512.583 15.68H506.903C506.796 14.96 506.423 14.36 505.783 13.88C505.143 13.3733 504.196 13.12 502.943 13.12C501.956 13.12 501.169 13.3067 500.583 13.68C499.996 14.0533 499.703 14.56 499.703 15.2C499.703 15.8133 499.956 16.28 500.463 16.6C500.969 16.92 501.796 17.1467 502.943 17.28L504.663 17.44C507.356 17.7333 509.449 18.48 510.943 19.68C512.436 20.88 513.183 22.4933 513.183 24.52C513.183 25.9867 512.783 27.2667 511.983 28.36C511.183 29.4267 510.049 30.2533 508.583 30.84C507.116 31.4 505.396 31.68 503.423 31.68ZM524.729 31.68C522.196 31.68 520.249 30.8667 518.889 29.24C517.529 27.5867 516.849 25.1067 516.849 21.8V9.08H523.249V22.12C523.249 23.2933 523.583 24.2267 524.249 24.92C524.916 25.6133 525.809 25.96 526.929 25.96C528.076 25.96 529.009 25.6 529.729 24.88C530.449 24.16 530.809 23.1867 530.809 21.96V9.08H537.209V31H532.129V21.76H532.569C532.569 23.9733 532.276 25.8267 531.689 27.32C531.129 28.7867 530.289 29.88 529.169 30.6C528.049 31.32 526.663 31.68 525.009 31.68H524.729ZM556.35 31V24.52H555.27V17.48C555.27 16.36 555.004 15.52 554.47 14.96C553.937 14.4 553.084 14.12 551.91 14.12C551.324 14.12 550.55 14.1333 549.59 14.16C548.63 14.1867 547.644 14.2267 546.63 14.28C545.617 14.3333 544.697 14.3867 543.87 14.44V9.04C544.484 8.98667 545.204 8.93333 546.03 8.88C546.857 8.82667 547.71 8.78667 548.59 8.76C549.47 8.73333 550.297 8.72 551.07 8.72C553.31 8.72 555.19 9.04 556.71 9.68C558.257 10.32 559.43 11.2933 560.23 12.6C561.03 13.88 561.43 15.5333 561.43 17.56V31H556.35ZM549.35 31.56C547.777 31.56 546.39 31.28 545.19 30.72C544.017 30.16 543.097 29.36 542.43 28.32C541.764 27.2533 541.43 25.9867 541.43 24.52C541.43 22.92 541.844 21.6133 542.67 20.6C543.497 19.56 544.657 18.8 546.15 18.32C547.644 17.8133 549.364 17.56 551.31 17.56H555.99V21.12H551.27C550.15 21.12 549.284 21.4 548.67 21.96C548.084 22.4933 547.79 23.2267 547.79 24.16C547.79 25.04 548.084 25.76 548.67 26.32C549.284 26.8533 550.15 27.12 551.27 27.12C551.99 27.12 552.63 27 553.19 26.76C553.777 26.4933 554.257 26.0533 554.63 25.44C555.004 24.8267 555.217 23.9733 555.27 22.88L556.79 24.48C556.657 26 556.284 27.28 555.67 28.32C555.084 29.36 554.257 30.16 553.19 30.72C552.15 31.28 550.87 31.56 549.35 31.56ZM567.14 31V1.8H573.58V31H567.14ZM564.54 6.52V1.8H573.58V6.52H564.54ZM580.518 31V9.08H586.918V31H580.518ZM577.598 13.8V9.08H586.918V13.8H577.598ZM582.998 6.92C581.798 6.92 580.904 6.61333 580.318 6C579.758 5.36 579.478 4.56 579.478 3.6C579.478 2.61333 579.758 1.81333 580.318 1.2C580.904 0.559998 581.798 0.239998 582.998 0.239998C584.198 0.239998 585.078 0.559998 585.638 1.2C586.224 1.81333 586.518 2.61333 586.518 3.6C586.518 4.56 586.224 5.36 585.638 6C585.078 6.61333 584.198 6.92 582.998 6.92ZM591.397 31V26.52L601.677 14.2V14.84L600.717 13.64L601.437 14H591.437V9.08H608.677V13.56L598.397 25.88V25.28L599.357 26.48L598.637 26.08H608.997V31H591.397ZM626.155 31V24.52H625.075V17.48C625.075 16.36 624.808 15.52 624.275 14.96C623.742 14.4 622.888 14.12 621.715 14.12C621.128 14.12 620.355 14.1333 619.395 14.16C618.435 14.1867 617.448 14.2267 616.435 14.28C615.422 14.3333 614.502 14.3867 613.675 14.44V9.04C614.288 8.98667 615.008 8.93333 615.835 8.88C616.662 8.82667 617.515 8.78667 618.395 8.76C619.275 8.73333 620.102 8.72 620.875 8.72C623.115 8.72 624.995 9.04 626.515 9.68C628.062 10.32 629.235 11.2933 630.035 12.6C630.835 13.88 631.235 15.5333 631.235 17.56V31H626.155ZM619.155 31.56C617.582 31.56 616.195 31.28 614.995 30.72C613.822 30.16 612.902 29.36 612.235 28.32C611.568 27.2533 611.235 25.9867 611.235 24.52C611.235 22.92 611.648 21.6133 612.475 20.6C613.302 19.56 614.462 18.8 615.955 18.32C617.448 17.8133 619.168 17.56 621.115 17.56H625.795V21.12H621.075C619.955 21.12 619.088 21.4 618.475 21.96C617.888 22.4933 617.595 23.2267 617.595 24.16C617.595 25.04 617.888 25.76 618.475 26.32C619.088 26.8533 619.955 27.12 621.075 27.12C621.795 27.12 622.435 27 622.995 26.76C623.582 26.4933 624.062 26.0533 624.435 25.44C624.808 24.8267 625.022 23.9733 625.075 22.88L626.595 24.48C626.462 26 626.088 27.28 625.475 28.32C624.888 29.36 624.062 30.16 622.995 30.72C621.955 31.28 620.675 31.56 619.155 31.56ZM646.625 31.28C644.412 31.28 642.625 31.0133 641.265 30.48C639.905 29.92 638.905 29 638.265 27.72C637.652 26.4133 637.345 24.6533 637.345 22.44V3.16H643.305V22.68C643.305 23.72 643.572 24.52 644.105 25.08C644.665 25.6133 645.452 25.88 646.465 25.88H649.705V31.28H646.625ZM634.025 13.76V9.08H649.705V13.76H634.025ZM655.049 31V9.08H661.449V31H655.049ZM652.129 13.8V9.08H661.449V13.8H652.129ZM657.529 6.92C656.329 6.92 655.436 6.61333 654.849 6C654.289 5.36 654.009 4.56 654.009 3.6C654.009 2.61333 654.289 1.81333 654.849 1.2C655.436 0.559998 656.329 0.239998 657.529 0.239998C658.729 0.239998 659.609 0.559998 660.169 1.2C660.756 1.81333 661.049 2.61333 661.049 3.6C661.049 4.56 660.756 5.36 660.169 6C659.609 6.61333 658.729 6.92 657.529 6.92ZM678.048 31.76C676.128 31.76 674.422 31.4667 672.928 30.88C671.435 30.2667 670.168 29.44 669.128 28.4C668.115 27.36 667.342 26.1733 666.808 24.84C666.275 23.48 666.008 22.0533 666.008 20.56V19.64C666.008 18.12 666.275 16.68 666.808 15.32C667.368 13.9333 668.168 12.72 669.208 11.68C670.275 10.64 671.555 9.82667 673.048 9.24C674.542 8.62667 676.208 8.32 678.048 8.32C679.942 8.32 681.622 8.62667 683.088 9.24C684.582 9.82667 685.848 10.64 686.888 11.68C687.928 12.72 688.728 13.9333 689.288 15.32C689.848 16.68 690.128 18.12 690.128 19.64V20.56C690.128 22.0533 689.862 23.48 689.328 24.84C688.795 26.1733 688.008 27.36 686.968 28.4C685.955 29.44 684.702 30.2667 683.208 30.88C681.715 31.4667 679.995 31.76 678.048 31.76ZM678.048 26.36C679.302 26.36 680.342 26.0933 681.168 25.56C681.995 25.0267 682.622 24.28 683.048 23.32C683.502 22.36 683.728 21.2933 683.728 20.12C683.728 18.8667 683.502 17.7733 683.048 16.84C682.595 15.88 681.942 15.12 681.088 14.56C680.262 14 679.248 13.72 678.048 13.72C676.875 13.72 675.862 14 675.008 14.56C674.155 15.12 673.502 15.88 673.048 16.84C672.622 17.7733 672.408 18.8667 672.408 20.12C672.408 21.2933 672.622 22.36 673.048 23.32C673.475 24.28 674.115 25.0267 674.968 25.56C675.822 26.0933 676.848 26.36 678.048 26.36ZM694.595 31V9.08H699.675V18.48H699.315C699.315 16.24 699.595 14.3733 700.155 12.88C700.741 11.3867 701.621 10.2667 702.795 9.52C703.968 8.77333 705.395 8.4 707.075 8.4H707.355C709.915 8.4 711.861 9.24 713.195 10.92C714.555 12.5733 715.235 15.0933 715.235 18.48V31H708.835V18.12C708.835 16.9467 708.488 15.9867 707.795 15.24C707.101 14.4933 706.168 14.12 704.995 14.12C703.795 14.12 702.821 14.5067 702.075 15.28C701.355 16.0267 700.995 17.0133 700.995 18.24V31H694.595Z" fill="white"/>
</svg>
