<svg width="699" height="571" viewBox="0 0 699 571" fill="none" xmlns="http://www.w3.org/2000/svg">
<rect x="0.201172" y="111.374" width="284.135" height="219.047" rx="16" fill="#5438DC"/>
<path d="M98.1772 233.787V213.347H102.769V233.787H98.1772ZM107.166 233.787V218.443H110.722V225.023H110.47C110.47 223.455 110.666 222.148 111.058 221.103C111.469 220.057 112.085 219.273 112.906 218.751C113.727 218.228 114.726 217.967 115.902 217.967H116.098C117.89 217.967 119.253 218.555 120.186 219.731C121.138 220.888 121.614 222.652 121.614 225.023V233.787H117.134V224.771C117.134 223.949 116.891 223.277 116.406 222.755C115.921 222.232 115.267 221.971 114.446 221.971C113.606 221.971 112.925 222.241 112.402 222.783C111.898 223.305 111.646 223.996 111.646 224.855V233.787H107.166ZM125.432 239.387V218.443H128.988V225.079L128.512 225.051C128.586 223.52 128.904 222.232 129.464 221.187C130.024 220.123 130.78 219.329 131.732 218.807C132.684 218.265 133.757 217.995 134.952 217.995C136.016 217.995 136.977 218.191 137.836 218.583C138.713 218.975 139.46 219.525 140.076 220.235C140.71 220.925 141.186 221.747 141.504 222.699C141.84 223.632 142.008 224.659 142.008 225.779V226.423C142.008 227.524 141.849 228.56 141.532 229.531C141.214 230.483 140.748 231.313 140.132 232.023C139.534 232.732 138.797 233.292 137.92 233.703C137.061 234.095 136.072 234.291 134.952 234.291C133.794 234.291 132.749 234.057 131.816 233.591C130.901 233.105 130.164 232.377 129.604 231.407C129.044 230.417 128.736 229.167 128.68 227.655L129.912 229.335V239.387H125.432ZM133.692 230.539C134.457 230.539 135.12 230.352 135.68 229.979C136.258 229.605 136.706 229.083 137.024 228.411C137.341 227.739 137.5 226.964 137.5 226.087C137.5 225.209 137.341 224.444 137.024 223.791C136.706 223.137 136.268 222.633 135.708 222.279C135.148 221.905 134.476 221.719 133.692 221.719C133.02 221.719 132.385 221.877 131.788 222.195C131.19 222.512 130.705 222.969 130.332 223.567C129.977 224.145 129.8 224.855 129.8 225.695V226.731C129.8 227.533 129.986 228.224 130.36 228.803C130.752 229.363 131.246 229.792 131.844 230.091C132.441 230.389 133.057 230.539 133.692 230.539ZM150.299 234.263C148.526 234.263 147.163 233.693 146.211 232.555C145.259 231.397 144.783 229.661 144.783 227.347V218.443H149.263V227.571C149.263 228.392 149.497 229.045 149.963 229.531C150.43 230.016 151.055 230.259 151.839 230.259C152.642 230.259 153.295 230.007 153.799 229.503C154.303 228.999 154.555 228.317 154.555 227.459V218.443H159.035V233.787H155.479V227.319H155.787C155.787 228.868 155.582 230.165 155.171 231.211C154.779 232.237 154.191 233.003 153.407 233.507C152.623 234.011 151.653 234.263 150.495 234.263H150.299ZM170.138 233.983C168.589 233.983 167.338 233.796 166.386 233.423C165.434 233.031 164.734 232.387 164.286 231.491C163.857 230.576 163.642 229.344 163.642 227.795V214.299H167.814V227.963C167.814 228.691 168.001 229.251 168.374 229.643C168.766 230.016 169.317 230.203 170.026 230.203H172.294V233.983H170.138ZM161.318 221.719V218.443H172.294V221.719H161.318ZM181.021 234.263C178.837 234.263 177.129 233.815 175.897 232.919C174.665 232.023 174.012 230.763 173.937 229.139H177.913C177.988 229.624 178.277 230.063 178.781 230.455C179.304 230.828 180.079 231.015 181.105 231.015C181.889 231.015 182.533 230.884 183.037 230.623C183.56 230.343 183.821 229.951 183.821 229.447C183.821 228.999 183.625 228.644 183.233 228.383C182.841 228.103 182.141 227.907 181.133 227.795L179.929 227.683C178.081 227.496 176.691 226.983 175.757 226.143C174.843 225.303 174.385 224.229 174.385 222.923C174.385 221.84 174.656 220.935 175.197 220.207C175.739 219.479 176.485 218.928 177.437 218.555C178.408 218.181 179.509 217.995 180.741 217.995C182.72 217.995 184.316 218.433 185.529 219.311C186.743 220.169 187.377 221.42 187.433 223.063H183.457C183.383 222.559 183.121 222.139 182.673 221.803C182.225 221.448 181.563 221.271 180.685 221.271C179.995 221.271 179.444 221.401 179.033 221.663C178.623 221.924 178.417 222.279 178.417 222.727C178.417 223.156 178.595 223.483 178.949 223.707C179.304 223.931 179.883 224.089 180.685 224.183L181.889 224.295C183.775 224.5 185.24 225.023 186.285 225.863C187.331 226.703 187.853 227.832 187.853 229.251C187.853 230.277 187.573 231.173 187.013 231.939C186.453 232.685 185.66 233.264 184.633 233.675C183.607 234.067 182.403 234.263 181.021 234.263Z" fill="white"/>
<path d="M46.6748 279.047C45.6855 277.908 44.8081 276.667 44.0428 275.323C43.2961 273.997 42.7175 272.532 42.3068 270.927C41.8961 269.303 41.6908 267.501 41.6908 265.523C41.6908 263.544 41.8961 261.752 42.3068 260.147C42.7361 258.541 43.3241 257.085 44.0708 255.779C44.8361 254.472 45.7041 253.287 46.6748 252.223H49.7548C48.5975 253.473 47.6081 254.771 46.7868 256.115C45.9841 257.459 45.3681 258.905 44.9388 260.455C44.5281 261.985 44.3228 263.675 44.3228 265.523C44.3228 267.371 44.5281 269.079 44.9388 270.647C45.3495 272.196 45.9561 273.652 46.7588 275.015C47.5801 276.396 48.5788 277.74 49.7548 279.047H46.6748ZM60.9887 274.455C59.1407 274.455 57.582 274.1 56.3127 273.391C55.062 272.663 54.11 271.655 53.4567 270.367C52.822 269.06 52.5047 267.548 52.5047 265.831V253.511H55.2487V266.167C55.2487 267.305 55.4634 268.313 55.8927 269.191C56.3407 270.049 56.994 270.721 57.8527 271.207C58.7114 271.692 59.7567 271.935 60.9887 271.935C62.2207 271.935 63.2567 271.701 64.0967 271.235C64.9554 270.749 65.5994 270.077 66.0287 269.219C66.4767 268.341 66.7007 267.324 66.7007 266.167V253.511H69.4447V265.831C69.4447 267.548 69.1274 269.06 68.4927 270.367C67.858 271.655 66.9154 272.663 65.6647 273.391C64.414 274.1 62.8554 274.455 60.9887 274.455ZM78.9118 273.951V255.415H81.6558V273.951H78.9118ZM72.6958 255.975V253.511H87.8718V255.975H72.6958ZM88.4744 273.951L93.8224 266.083L93.7384 266.643L88.7264 258.999H91.6944L95.3064 264.627H95.6984L99.1144 258.999H101.886L97.1544 266.447L97.2384 265.943L102.838 273.951H99.8704L95.6704 267.875H95.2784L91.2464 273.951H88.4744ZM115.482 274.455C113.653 274.455 112.076 274.128 110.75 273.475C109.425 272.821 108.333 271.963 107.474 270.899C106.616 269.835 105.972 268.696 105.542 267.483C105.132 266.269 104.926 265.103 104.926 263.983V263.367C104.926 262.153 105.141 260.931 105.57 259.699C106 258.467 106.653 257.347 107.53 256.339C108.408 255.312 109.5 254.491 110.806 253.875C112.132 253.259 113.69 252.951 115.482 252.951C117.274 252.951 118.824 253.259 120.13 253.875C121.456 254.491 122.557 255.312 123.434 256.339C124.312 257.347 124.965 258.467 125.394 259.699C125.824 260.931 126.038 262.153 126.038 263.367V263.983C126.038 265.103 125.824 266.269 125.394 267.483C124.984 268.696 124.349 269.835 123.49 270.899C122.632 271.963 121.54 272.821 120.214 273.475C118.889 274.128 117.312 274.455 115.482 274.455ZM115.482 271.935C116.677 271.935 117.75 271.711 118.702 271.263C119.673 270.815 120.494 270.208 121.166 269.443C121.838 268.659 122.352 267.781 122.706 266.811C123.061 265.821 123.238 264.785 123.238 263.703C123.238 262.564 123.061 261.5 122.706 260.511C122.352 259.521 121.838 258.653 121.166 257.907C120.494 257.141 119.673 256.544 118.702 256.115C117.75 255.685 116.677 255.471 115.482 255.471C114.288 255.471 113.205 255.685 112.234 256.115C111.282 256.544 110.47 257.141 109.798 257.907C109.126 258.653 108.613 259.521 108.258 260.511C107.904 261.5 107.726 262.564 107.726 263.703C107.726 264.785 107.904 265.821 108.258 266.811C108.613 267.781 109.126 268.659 109.798 269.443C110.47 270.208 111.282 270.815 112.234 271.263C113.205 271.711 114.288 271.935 115.482 271.935ZM135.061 274.399C133.101 274.399 131.58 273.979 130.497 273.139C129.433 272.299 128.882 271.151 128.845 269.695H131.365C131.402 270.273 131.692 270.824 132.233 271.347C132.793 271.851 133.736 272.103 135.061 272.103C136.256 272.103 137.17 271.869 137.805 271.403C138.44 270.917 138.757 270.329 138.757 269.639C138.757 269.023 138.524 268.547 138.057 268.211C137.59 267.856 136.834 267.623 135.789 267.511L134.165 267.343C132.746 267.193 131.589 266.773 130.693 266.083C129.797 265.373 129.349 264.384 129.349 263.115C129.349 262.163 129.592 261.351 130.077 260.679C130.562 259.988 131.234 259.465 132.093 259.111C132.952 258.737 133.941 258.551 135.061 258.551C136.741 258.551 138.104 258.924 139.149 259.671C140.194 260.417 140.736 261.528 140.773 263.003H138.253C138.234 262.405 137.954 261.901 137.413 261.491C136.89 261.061 136.106 260.847 135.061 260.847C134.016 260.847 133.222 261.061 132.681 261.491C132.14 261.92 131.869 262.461 131.869 263.115C131.869 263.675 132.056 264.123 132.429 264.459C132.821 264.795 133.456 265.009 134.333 265.103L135.957 265.271C137.562 265.439 138.85 265.887 139.821 266.615C140.792 267.324 141.277 268.332 141.277 269.639C141.277 270.572 141.006 271.403 140.465 272.131C139.942 272.84 139.214 273.4 138.281 273.811C137.348 274.203 136.274 274.399 135.061 274.399ZM158.572 274.455C156.873 274.455 155.426 274.175 154.232 273.615C153.037 273.055 152.122 272.28 151.488 271.291C150.853 270.301 150.536 269.181 150.536 267.931H153.28C153.28 268.547 153.438 269.163 153.756 269.779C154.092 270.395 154.642 270.908 155.408 271.319C156.192 271.729 157.246 271.935 158.572 271.935C159.804 271.935 160.812 271.757 161.596 271.403C162.38 271.029 162.958 270.553 163.332 269.975C163.705 269.377 163.892 268.733 163.892 268.043C163.892 267.203 163.528 266.512 162.8 265.971C162.072 265.411 161.008 265.065 159.608 264.935L157.34 264.739C155.529 264.589 154.082 264.029 153 263.059C151.917 262.088 151.376 260.809 151.376 259.223C151.376 257.972 151.674 256.88 152.272 255.947C152.888 255.013 153.737 254.285 154.82 253.763C155.902 253.221 157.162 252.951 158.6 252.951C160.018 252.951 161.269 253.212 162.352 253.735C163.434 254.257 164.274 254.995 164.872 255.947C165.488 256.88 165.796 258 165.796 259.307H163.052C163.052 258.653 162.893 258.037 162.576 257.459C162.277 256.88 161.801 256.404 161.148 256.031C160.494 255.657 159.645 255.471 158.6 255.471C157.592 255.471 156.752 255.648 156.08 256.003C155.426 256.357 154.932 256.824 154.596 257.403C154.278 257.963 154.12 258.569 154.12 259.223C154.12 259.969 154.409 260.632 154.988 261.211C155.566 261.789 156.425 262.125 157.564 262.219L159.832 262.415C161.232 262.527 162.436 262.825 163.444 263.311C164.47 263.777 165.254 264.412 165.796 265.215C166.356 265.999 166.636 266.941 166.636 268.043C166.636 269.293 166.3 270.404 165.628 271.375C164.956 272.345 164.013 273.101 162.8 273.643C161.586 274.184 160.177 274.455 158.572 274.455ZM170.848 279.551V258.999H172.976V265.467L172.472 265.411C172.566 263.805 172.902 262.499 173.48 261.491C174.078 260.464 174.852 259.708 175.804 259.223C176.756 258.737 177.792 258.495 178.912 258.495C179.995 258.495 180.975 258.7 181.852 259.111C182.748 259.521 183.514 260.081 184.148 260.791C184.783 261.5 185.268 262.321 185.604 263.255C185.94 264.188 186.108 265.177 186.108 266.223V266.727C186.108 267.772 185.931 268.761 185.576 269.695C185.222 270.628 184.718 271.449 184.064 272.159C183.43 272.868 182.664 273.428 181.768 273.839C180.891 274.249 179.92 274.455 178.856 274.455C177.792 274.455 176.775 274.221 175.804 273.755C174.834 273.288 174.031 272.532 173.396 271.487C172.762 270.441 172.398 269.069 172.304 267.371L173.536 269.611V279.551H170.848ZM178.436 272.103C179.444 272.103 180.322 271.869 181.068 271.403C181.815 270.917 182.394 270.255 182.804 269.415C183.215 268.556 183.42 267.576 183.42 266.475C183.42 265.355 183.215 264.375 182.804 263.535C182.394 262.695 181.815 262.041 181.068 261.575C180.322 261.089 179.444 260.847 178.436 260.847C177.54 260.847 176.71 261.052 175.944 261.463C175.179 261.855 174.563 262.433 174.096 263.199C173.648 263.945 173.424 264.851 173.424 265.915V267.203C173.424 268.229 173.658 269.107 174.124 269.835C174.591 270.563 175.207 271.123 175.972 271.515C176.738 271.907 177.559 272.103 178.436 272.103ZM196.509 274.455C195.202 274.455 194.073 274.231 193.121 273.783C192.169 273.335 191.394 272.747 190.797 272.019C190.2 271.272 189.752 270.441 189.453 269.527C189.173 268.612 189.033 267.679 189.033 266.727V266.223C189.033 265.252 189.173 264.309 189.453 263.395C189.752 262.48 190.2 261.659 190.797 260.931C191.394 260.184 192.15 259.596 193.065 259.167C193.998 258.719 195.09 258.495 196.341 258.495C197.965 258.495 199.3 258.849 200.345 259.559C201.409 260.249 202.193 261.145 202.697 262.247C203.22 263.348 203.481 264.524 203.481 265.775V266.979H190.209V264.963H201.521L200.905 266.055C200.905 264.991 200.737 264.076 200.401 263.311C200.065 262.527 199.561 261.92 198.889 261.491C198.217 261.061 197.368 260.847 196.341 260.847C195.277 260.847 194.39 261.089 193.681 261.575C192.99 262.06 192.468 262.723 192.113 263.563C191.777 264.403 191.609 265.373 191.609 266.475C191.609 267.539 191.777 268.5 192.113 269.359C192.468 270.199 193.009 270.871 193.737 271.375C194.465 271.86 195.389 272.103 196.509 272.103C197.685 272.103 198.637 271.841 199.365 271.319C200.112 270.796 200.56 270.189 200.709 269.499H203.229C203.024 270.525 202.613 271.412 201.997 272.159C201.381 272.905 200.606 273.475 199.673 273.867C198.74 274.259 197.685 274.455 196.509 274.455ZM207.298 273.951V258.999H209.426V265.411H209.09C209.09 263.936 209.286 262.695 209.678 261.687C210.088 260.66 210.704 259.885 211.526 259.363C212.347 258.821 213.383 258.551 214.634 258.551H214.746C216.631 258.551 218.022 259.139 218.918 260.315C219.832 261.491 220.29 263.189 220.29 265.411V273.951H217.602V264.851C217.602 263.693 217.275 262.769 216.622 262.079C215.968 261.369 215.072 261.015 213.934 261.015C212.758 261.015 211.806 261.379 211.078 262.107C210.35 262.835 209.986 263.805 209.986 265.019V273.951H207.298ZM231.032 274.119C229.912 274.119 228.941 273.96 228.12 273.643C227.317 273.325 226.692 272.784 226.244 272.019C225.815 271.235 225.6 270.18 225.6 268.855V254.463H228.176V269.191C228.176 269.993 228.391 270.619 228.82 271.067C229.268 271.496 229.893 271.711 230.696 271.711H233.328V274.119H231.032ZM223.024 261.015V258.999H233.328V261.015H223.024ZM237.863 279.047H234.783C235.959 277.74 236.948 276.396 237.751 275.015C238.572 273.652 239.188 272.196 239.599 270.647C240.01 269.079 240.215 267.371 240.215 265.523C240.215 263.675 240 261.985 239.571 260.455C239.16 258.905 238.544 257.459 237.723 256.115C236.92 254.771 235.94 253.473 234.783 252.223H237.863C238.834 253.287 239.692 254.472 240.439 255.779C241.204 257.085 241.792 258.541 242.203 260.147C242.632 261.752 242.847 263.544 242.847 265.523C242.847 267.501 242.642 269.303 242.231 270.927C241.82 272.532 241.232 273.997 240.467 275.323C239.72 276.667 238.852 277.908 237.863 279.047Z" fill="white"/>
<rect x="414.336" y="111.374" width="284.135" height="219.047" rx="16" fill="#3B20BC"/>
<path d="M509.144 234.319C507.296 234.319 505.681 234.001 504.3 233.367C502.937 232.713 501.808 231.864 500.912 230.819C500.016 229.755 499.344 228.607 498.896 227.375C498.467 226.143 498.252 224.957 498.252 223.819V223.203C498.252 221.933 498.476 220.683 498.924 219.451C499.391 218.2 500.081 217.071 500.996 216.063C501.911 215.055 503.049 214.252 504.412 213.655C505.775 213.039 507.352 212.731 509.144 212.731C510.936 212.731 512.513 213.039 513.876 213.655C515.239 214.252 516.377 215.055 517.292 216.063C518.207 217.071 518.897 218.2 519.364 219.451C519.831 220.683 520.064 221.933 520.064 223.203V223.819C520.064 224.957 519.84 226.143 519.392 227.375C518.944 228.607 518.272 229.755 517.376 230.819C516.48 231.864 515.341 232.713 513.96 233.367C512.597 234.001 510.992 234.319 509.144 234.319ZM509.144 230.035C510.115 230.035 510.983 229.867 511.748 229.531C512.532 229.195 513.195 228.728 513.736 228.131C514.296 227.533 514.716 226.843 514.996 226.059C515.276 225.275 515.416 224.435 515.416 223.539C515.416 222.587 515.267 221.719 514.968 220.935C514.688 220.132 514.268 219.441 513.708 218.863C513.167 218.265 512.513 217.808 511.748 217.491C510.983 217.173 510.115 217.015 509.144 217.015C508.173 217.015 507.305 217.173 506.54 217.491C505.775 217.808 505.112 218.265 504.552 218.863C504.011 219.441 503.6 220.132 503.32 220.935C503.04 221.719 502.9 222.587 502.9 223.539C502.9 224.435 503.04 225.275 503.32 226.059C503.6 226.843 504.011 227.533 504.552 228.131C505.112 228.728 505.775 229.195 506.54 229.531C507.305 229.867 508.173 230.035 509.144 230.035ZM528.471 234.263C526.698 234.263 525.335 233.693 524.383 232.555C523.431 231.397 522.955 229.661 522.955 227.347V218.443H527.435V227.571C527.435 228.392 527.668 229.045 528.135 229.531C528.602 230.016 529.227 230.259 530.011 230.259C530.814 230.259 531.467 230.007 531.971 229.503C532.475 228.999 532.727 228.317 532.727 227.459V218.443H537.207V233.787H533.651V227.319H533.959C533.959 228.868 533.754 230.165 533.343 231.211C532.951 232.237 532.363 233.003 531.579 233.507C530.795 234.011 529.824 234.263 528.667 234.263H528.471ZM548.31 233.983C546.761 233.983 545.51 233.796 544.558 233.423C543.606 233.031 542.906 232.387 542.458 231.491C542.029 230.576 541.814 229.344 541.814 227.795V214.299H545.986V227.963C545.986 228.691 546.173 229.251 546.546 229.643C546.938 230.016 547.489 230.203 548.198 230.203H550.466V233.983H548.31ZM539.49 221.719V218.443H550.466V221.719H539.49ZM553.479 239.387V218.443H557.035V225.079L556.559 225.051C556.633 223.52 556.951 222.232 557.511 221.187C558.071 220.123 558.827 219.329 559.779 218.807C560.731 218.265 561.804 217.995 562.999 217.995C564.063 217.995 565.024 218.191 565.883 218.583C566.76 218.975 567.507 219.525 568.123 220.235C568.757 220.925 569.233 221.747 569.551 222.699C569.887 223.632 570.055 224.659 570.055 225.779V226.423C570.055 227.524 569.896 228.56 569.579 229.531C569.261 230.483 568.795 231.313 568.179 232.023C567.581 232.732 566.844 233.292 565.967 233.703C565.108 234.095 564.119 234.291 562.999 234.291C561.841 234.291 560.796 234.057 559.863 233.591C558.948 233.105 558.211 232.377 557.651 231.407C557.091 230.417 556.783 229.167 556.727 227.655L557.959 229.335V239.387H553.479ZM561.739 230.539C562.504 230.539 563.167 230.352 563.727 229.979C564.305 229.605 564.753 229.083 565.071 228.411C565.388 227.739 565.547 226.964 565.547 226.087C565.547 225.209 565.388 224.444 565.071 223.791C564.753 223.137 564.315 222.633 563.755 222.279C563.195 221.905 562.523 221.719 561.739 221.719C561.067 221.719 560.432 221.877 559.835 222.195C559.237 222.512 558.752 222.969 558.379 223.567C558.024 224.145 557.847 224.855 557.847 225.695V226.731C557.847 227.533 558.033 228.224 558.407 228.803C558.799 229.363 559.293 229.792 559.891 230.091C560.488 230.389 561.104 230.539 561.739 230.539ZM578.346 234.263C576.573 234.263 575.21 233.693 574.258 232.555C573.306 231.397 572.83 229.661 572.83 227.347V218.443H577.31V227.571C577.31 228.392 577.543 229.045 578.01 229.531C578.477 230.016 579.102 230.259 579.886 230.259C580.689 230.259 581.342 230.007 581.846 229.503C582.35 228.999 582.602 228.317 582.602 227.459V218.443H587.082V233.787H583.526V227.319H583.834C583.834 228.868 583.629 230.165 583.218 231.211C582.826 232.237 582.238 233.003 581.454 233.507C580.67 234.011 579.699 234.263 578.542 234.263H578.346ZM598.185 233.983C596.636 233.983 595.385 233.796 594.433 233.423C593.481 233.031 592.781 232.387 592.333 231.491C591.904 230.576 591.689 229.344 591.689 227.795V214.299H595.861V227.963C595.861 228.691 596.048 229.251 596.421 229.643C596.813 230.016 597.364 230.203 598.073 230.203H600.341V233.983H598.185ZM589.365 221.719V218.443H600.341V221.719H589.365ZM609.068 234.263C606.884 234.263 605.176 233.815 603.944 232.919C602.712 232.023 602.059 230.763 601.984 229.139H605.96C606.035 229.624 606.324 230.063 606.828 230.455C607.351 230.828 608.126 231.015 609.152 231.015C609.936 231.015 610.58 230.884 611.084 230.623C611.607 230.343 611.868 229.951 611.868 229.447C611.868 228.999 611.672 228.644 611.28 228.383C610.888 228.103 610.188 227.907 609.18 227.795L607.976 227.683C606.128 227.496 604.738 226.983 603.804 226.143C602.89 225.303 602.432 224.229 602.432 222.923C602.432 221.84 602.703 220.935 603.244 220.207C603.786 219.479 604.532 218.928 605.484 218.555C606.455 218.181 607.556 217.995 608.788 217.995C610.767 217.995 612.363 218.433 613.576 219.311C614.79 220.169 615.424 221.42 615.48 223.063H611.504C611.43 222.559 611.168 222.139 610.72 221.803C610.272 221.448 609.61 221.271 608.732 221.271C608.042 221.271 607.491 221.401 607.08 221.663C606.67 221.924 606.464 222.279 606.464 222.727C606.464 223.156 606.642 223.483 606.996 223.707C607.351 223.931 607.93 224.089 608.732 224.183L609.936 224.295C611.822 224.5 613.287 225.023 614.332 225.863C615.378 226.703 615.9 227.832 615.9 229.251C615.9 230.277 615.62 231.173 615.06 231.939C614.5 232.685 613.707 233.264 612.68 233.675C611.654 234.067 610.45 234.263 609.068 234.263Z" fill="white"/>
<path d="M446.448 279.047C445.459 277.908 444.582 276.667 443.816 275.323C443.07 273.997 442.491 272.532 442.08 270.927C441.67 269.303 441.464 267.501 441.464 265.523C441.464 263.544 441.67 261.752 442.08 260.147C442.51 258.541 443.098 257.085 443.844 255.779C444.61 254.472 445.478 253.287 446.448 252.223H449.528C448.371 253.473 447.382 254.771 446.56 256.115C445.758 257.459 445.142 258.905 444.712 260.455C444.302 261.985 444.096 263.675 444.096 265.523C444.096 267.371 444.302 269.079 444.712 270.647C445.123 272.196 445.73 273.652 446.532 275.015C447.354 276.396 448.352 277.74 449.528 279.047H446.448ZM460.762 274.455C458.914 274.455 457.355 274.1 456.086 273.391C454.835 272.663 453.883 271.655 453.23 270.367C452.595 269.06 452.278 267.548 452.278 265.831V253.511H455.022V266.167C455.022 267.305 455.237 268.313 455.666 269.191C456.114 270.049 456.767 270.721 457.626 271.207C458.485 271.692 459.53 271.935 460.762 271.935C461.994 271.935 463.03 271.701 463.87 271.235C464.729 270.749 465.373 270.077 465.802 269.219C466.25 268.341 466.474 267.324 466.474 266.167V253.511H469.218V265.831C469.218 267.548 468.901 269.06 468.266 270.367C467.631 271.655 466.689 272.663 465.438 273.391C464.187 274.1 462.629 274.455 460.762 274.455ZM478.685 273.951V255.415H481.429V273.951H478.685ZM472.469 255.975V253.511H487.645V255.975H472.469ZM488.248 273.951L493.596 266.083L493.512 266.643L488.5 258.999H491.468L495.08 264.627H495.472L498.888 258.999H501.66L496.928 266.447L497.012 265.943L502.612 273.951H499.644L495.444 267.875H495.052L491.02 273.951H488.248ZM515.256 274.455C513.427 274.455 511.849 274.128 510.524 273.475C509.199 272.821 508.107 271.963 507.248 270.899C506.389 269.835 505.745 268.696 505.316 267.483C504.905 266.269 504.7 265.103 504.7 263.983V263.367C504.7 262.153 504.915 260.931 505.344 259.699C505.773 258.467 506.427 257.347 507.304 256.339C508.181 255.312 509.273 254.491 510.58 253.875C511.905 253.259 513.464 252.951 515.256 252.951C517.048 252.951 518.597 253.259 519.904 253.875C521.229 254.491 522.331 255.312 523.208 256.339C524.085 257.347 524.739 258.467 525.168 259.699C525.597 260.931 525.812 262.153 525.812 263.367V263.983C525.812 265.103 525.597 266.269 525.168 267.483C524.757 268.696 524.123 269.835 523.264 270.899C522.405 271.963 521.313 272.821 519.988 273.475C518.663 274.128 517.085 274.455 515.256 274.455ZM515.256 271.935C516.451 271.935 517.524 271.711 518.476 271.263C519.447 270.815 520.268 270.208 520.94 269.443C521.612 268.659 522.125 267.781 522.48 266.811C522.835 265.821 523.012 264.785 523.012 263.703C523.012 262.564 522.835 261.5 522.48 260.511C522.125 259.521 521.612 258.653 520.94 257.907C520.268 257.141 519.447 256.544 518.476 256.115C517.524 255.685 516.451 255.471 515.256 255.471C514.061 255.471 512.979 255.685 512.008 256.115C511.056 256.544 510.244 257.141 509.572 257.907C508.9 258.653 508.387 259.521 508.032 260.511C507.677 261.5 507.5 262.564 507.5 263.703C507.5 264.785 507.677 265.821 508.032 266.811C508.387 267.781 508.9 268.659 509.572 269.443C510.244 270.208 511.056 270.815 512.008 271.263C512.979 271.711 514.061 271.935 515.256 271.935ZM534.834 274.399C532.874 274.399 531.353 273.979 530.27 273.139C529.206 272.299 528.656 271.151 528.618 269.695H531.138C531.176 270.273 531.465 270.824 532.006 271.347C532.566 271.851 533.509 272.103 534.834 272.103C536.029 272.103 536.944 271.869 537.578 271.403C538.213 270.917 538.53 270.329 538.53 269.639C538.53 269.023 538.297 268.547 537.83 268.211C537.364 267.856 536.608 267.623 535.562 267.511L533.938 267.343C532.52 267.193 531.362 266.773 530.466 266.083C529.57 265.373 529.122 264.384 529.122 263.115C529.122 262.163 529.365 261.351 529.85 260.679C530.336 259.988 531.008 259.465 531.866 259.111C532.725 258.737 533.714 258.551 534.834 258.551C536.514 258.551 537.877 258.924 538.922 259.671C539.968 260.417 540.509 261.528 540.546 263.003H538.026C538.008 262.405 537.728 261.901 537.186 261.491C536.664 261.061 535.88 260.847 534.834 260.847C533.789 260.847 532.996 261.061 532.454 261.491C531.913 261.92 531.642 262.461 531.642 263.115C531.642 263.675 531.829 264.123 532.202 264.459C532.594 264.795 533.229 265.009 534.106 265.103L535.73 265.271C537.336 265.439 538.624 265.887 539.594 266.615C540.565 267.324 541.05 268.332 541.05 269.639C541.05 270.572 540.78 271.403 540.238 272.131C539.716 272.84 538.988 273.4 538.054 273.811C537.121 274.203 536.048 274.399 534.834 274.399ZM560.585 274.455C558.719 274.455 557.123 274.128 555.797 273.475C554.491 272.821 553.436 271.972 552.633 270.927C551.831 269.881 551.243 268.752 550.869 267.539C550.496 266.307 550.309 265.121 550.309 263.983V263.367C550.309 262.135 550.496 260.903 550.869 259.671C551.261 258.439 551.859 257.319 552.661 256.311C553.464 255.303 554.509 254.491 555.797 253.875C557.085 253.259 558.625 252.951 560.417 252.951C562.247 252.951 563.815 253.268 565.121 253.903C566.428 254.537 567.464 255.424 568.229 256.563C568.995 257.701 569.461 259.045 569.629 260.595H566.829C566.68 259.437 566.307 258.485 565.709 257.739C565.112 256.973 564.356 256.404 563.441 256.031C562.545 255.657 561.537 255.471 560.417 255.471C559.204 255.471 558.14 255.685 557.225 256.115C556.311 256.525 555.545 257.113 554.929 257.879C554.332 258.625 553.875 259.493 553.557 260.483C553.259 261.472 553.109 262.545 553.109 263.703C553.109 264.804 553.259 265.849 553.557 266.839C553.875 267.828 554.341 268.705 554.957 269.471C555.592 270.236 556.376 270.843 557.309 271.291C558.243 271.72 559.335 271.935 560.585 271.935C562.34 271.935 563.815 271.496 565.009 270.619C566.204 269.741 566.932 268.472 567.193 266.811H569.993C569.807 268.211 569.331 269.489 568.565 270.647C567.819 271.804 566.773 272.728 565.429 273.419C564.104 274.109 562.489 274.455 560.585 274.455ZM573.575 273.951V258.999H575.703V265.159H575.591C575.591 262.975 576.067 261.379 577.019 260.371C577.99 259.344 579.436 258.831 581.359 258.831H581.863V261.239H580.911C579.418 261.239 578.27 261.64 577.467 262.443C576.664 263.227 576.263 264.365 576.263 265.859V273.951H573.575ZM591.251 274.455C589.945 274.455 588.815 274.231 587.863 273.783C586.911 273.335 586.137 272.747 585.539 272.019C584.942 271.272 584.494 270.441 584.195 269.527C583.915 268.612 583.775 267.679 583.775 266.727V266.223C583.775 265.252 583.915 264.309 584.195 263.395C584.494 262.48 584.942 261.659 585.539 260.931C586.137 260.184 586.893 259.596 587.807 259.167C588.741 258.719 589.833 258.495 591.083 258.495C592.707 258.495 594.042 258.849 595.087 259.559C596.151 260.249 596.935 261.145 597.439 262.247C597.962 263.348 598.223 264.524 598.223 265.775V266.979H584.951V264.963H596.263L595.647 266.055C595.647 264.991 595.479 264.076 595.143 263.311C594.807 262.527 594.303 261.92 593.631 261.491C592.959 261.061 592.11 260.847 591.083 260.847C590.019 260.847 589.133 261.089 588.423 261.575C587.733 262.06 587.21 262.723 586.855 263.563C586.519 264.403 586.351 265.373 586.351 266.475C586.351 267.539 586.519 268.5 586.855 269.359C587.21 270.199 587.751 270.871 588.479 271.375C589.207 271.86 590.131 272.103 591.251 272.103C592.427 272.103 593.379 271.841 594.107 271.319C594.854 270.796 595.302 270.189 595.451 269.499H597.971C597.766 270.525 597.355 271.412 596.739 272.159C596.123 272.905 595.349 273.475 594.415 273.867C593.482 274.259 592.427 274.455 591.251 274.455ZM611.084 273.951V269.471H610.636V264.291C610.636 263.264 610.365 262.489 609.824 261.967C609.301 261.444 608.527 261.183 607.5 261.183C606.921 261.183 606.324 261.192 605.708 261.211C605.092 261.229 604.504 261.248 603.944 261.267C603.384 261.285 602.899 261.313 602.488 261.351V258.999C602.899 258.961 603.328 258.933 603.776 258.915C604.243 258.877 604.719 258.859 605.204 258.859C605.689 258.84 606.156 258.831 606.604 258.831C608.135 258.831 609.385 259.017 610.356 259.391C611.327 259.745 612.045 260.333 612.512 261.155C612.979 261.976 613.212 263.087 613.212 264.487V273.951H611.084ZM606.184 274.343C605.064 274.343 604.093 274.156 603.272 273.783C602.469 273.391 601.844 272.831 601.396 272.103C600.967 271.375 600.752 270.497 600.752 269.471C600.752 268.407 600.985 267.52 601.452 266.811C601.937 266.101 602.637 265.569 603.552 265.215C604.467 264.841 605.568 264.655 606.856 264.655H610.916V266.671H606.744C605.661 266.671 604.831 266.932 604.252 267.455C603.673 267.977 603.384 268.649 603.384 269.471C603.384 270.292 603.673 270.955 604.252 271.459C604.831 271.963 605.661 272.215 606.744 272.215C607.379 272.215 607.985 272.103 608.564 271.879C609.143 271.636 609.619 271.244 609.992 270.703C610.384 270.143 610.599 269.377 610.636 268.407L611.364 269.471C611.271 270.535 611.009 271.431 610.58 272.159C610.169 272.868 609.591 273.409 608.844 273.783C608.116 274.156 607.229 274.343 606.184 274.343ZM623.969 274.119C622.849 274.119 621.879 273.96 621.057 273.643C620.255 273.325 619.629 272.784 619.181 272.019C618.752 271.235 618.537 270.18 618.537 268.855V254.463H621.113V269.191C621.113 269.993 621.328 270.619 621.757 271.067C622.205 271.496 622.831 271.711 623.633 271.711H626.265V274.119H623.969ZM615.961 261.015V258.999H626.265V261.015H615.961ZM636.314 274.455C635.007 274.455 633.878 274.231 632.926 273.783C631.974 273.335 631.199 272.747 630.602 272.019C630.005 271.272 629.557 270.441 629.258 269.527C628.978 268.612 628.838 267.679 628.838 266.727V266.223C628.838 265.252 628.978 264.309 629.258 263.395C629.557 262.48 630.005 261.659 630.602 260.931C631.199 260.184 631.955 259.596 632.87 259.167C633.803 258.719 634.895 258.495 636.146 258.495C637.77 258.495 639.105 258.849 640.15 259.559C641.214 260.249 641.998 261.145 642.502 262.247C643.025 263.348 643.286 264.524 643.286 265.775V266.979H630.014V264.963H641.326L640.71 266.055C640.71 264.991 640.542 264.076 640.206 263.311C639.87 262.527 639.366 261.92 638.694 261.491C638.022 261.061 637.173 260.847 636.146 260.847C635.082 260.847 634.195 261.089 633.486 261.575C632.795 262.06 632.273 262.723 631.918 263.563C631.582 264.403 631.414 265.373 631.414 266.475C631.414 267.539 631.582 268.5 631.918 269.359C632.273 270.199 632.814 270.871 633.542 271.375C634.27 271.86 635.194 272.103 636.314 272.103C637.49 272.103 638.442 271.841 639.17 271.319C639.917 270.796 640.365 270.189 640.514 269.499H643.034C642.829 270.525 642.418 271.412 641.802 272.159C641.186 272.905 640.411 273.475 639.478 273.867C638.545 274.259 637.49 274.455 636.314 274.455ZM653.346 274.455C652.282 274.455 651.302 274.259 650.406 273.867C649.51 273.475 648.726 272.924 648.054 272.215C647.401 271.505 646.888 270.684 646.514 269.751C646.16 268.817 645.982 267.809 645.982 266.727V266.223C645.982 265.159 646.16 264.16 646.514 263.227C646.869 262.293 647.364 261.472 647.998 260.763C648.652 260.053 649.417 259.503 650.294 259.111C651.19 258.7 652.18 258.495 653.262 258.495C654.401 258.495 655.437 258.737 656.37 259.223C657.304 259.689 658.069 260.427 658.666 261.435C659.264 262.443 659.6 263.749 659.674 265.355L658.554 263.563V253.511H661.242V273.951H659.114V267.315H659.898C659.824 269.013 659.469 270.395 658.834 271.459C658.2 272.504 657.397 273.269 656.426 273.755C655.474 274.221 654.448 274.455 653.346 274.455ZM653.71 272.103C654.625 272.103 655.456 271.897 656.202 271.487C656.949 271.076 657.546 270.488 657.994 269.723C658.442 268.939 658.666 268.024 658.666 266.979V265.691C658.666 264.664 658.433 263.796 657.966 263.087C657.518 262.359 656.912 261.808 656.146 261.435C655.4 261.043 654.578 260.847 653.682 260.847C652.693 260.847 651.816 261.08 651.05 261.547C650.304 262.013 649.716 262.667 649.286 263.507C648.876 264.347 648.67 265.336 648.67 266.475C648.67 267.613 648.885 268.612 649.314 269.471C649.744 270.311 650.341 270.964 651.106 271.431C651.872 271.879 652.74 272.103 653.71 272.103ZM667.359 279.047H664.279C665.455 277.74 666.444 276.396 667.247 275.015C668.068 273.652 668.684 272.196 669.095 270.647C669.506 269.079 669.711 267.371 669.711 265.523C669.711 263.675 669.496 261.985 669.067 260.455C668.656 258.905 668.04 257.459 667.219 256.115C666.416 254.771 665.436 253.473 664.279 252.223H667.359C668.33 253.287 669.188 254.472 669.935 255.779C670.7 257.085 671.288 258.541 671.699 260.147C672.128 261.752 672.343 263.544 672.343 265.523C672.343 267.501 672.138 269.303 671.727 270.927C671.316 272.532 670.728 273.997 669.963 275.323C669.216 276.667 668.348 277.908 667.359 279.047Z" fill="white"/>
<path d="M142.268 177.819C141.961 177.819 141.672 177.771 141.403 177.674C141.134 177.578 140.885 177.415 140.654 177.184L132.353 168.883C131.892 168.422 131.671 167.884 131.69 167.269C131.709 166.654 131.93 166.116 132.353 165.655C132.814 165.194 133.362 164.954 133.996 164.935C134.63 164.915 135.178 165.136 135.639 165.598L139.962 169.921V153.434C139.962 152.781 140.183 152.233 140.625 151.791C141.067 151.349 141.615 151.128 142.268 151.128C142.921 151.128 143.469 151.349 143.911 151.791C144.353 152.233 144.574 152.781 144.574 153.434V169.921L148.897 165.598C149.359 165.136 149.906 164.915 150.54 164.935C151.174 164.954 151.722 165.194 152.183 165.655C152.606 166.116 152.827 166.654 152.846 167.269C152.865 167.884 152.644 168.422 152.183 168.883L143.882 177.184C143.652 177.415 143.402 177.578 143.133 177.674C142.864 177.771 142.576 177.819 142.268 177.819ZM128.433 188.022C127.165 188.022 126.079 187.57 125.176 186.667C124.273 185.764 123.821 184.678 123.821 183.41V178.799C123.821 178.145 124.042 177.598 124.484 177.156C124.926 176.714 125.474 176.493 126.127 176.493C126.78 176.493 127.328 176.714 127.77 177.156C128.212 177.598 128.433 178.145 128.433 178.799V183.41H156.103V178.799C156.103 178.145 156.324 177.598 156.766 177.156C157.208 176.714 157.756 176.493 158.409 176.493C159.062 176.493 159.61 176.714 160.052 177.156C160.494 177.598 160.715 178.145 160.715 178.799V183.41C160.715 184.678 160.263 185.764 159.36 186.667C158.457 187.57 157.371 188.022 156.103 188.022H128.433Z" fill="white"/>
<path d="M554.174 167.886L549.851 172.209C549.389 172.67 548.842 172.891 548.208 172.872C547.574 172.852 547.026 172.612 546.565 172.151C546.142 171.69 545.921 171.152 545.902 170.537C545.883 169.922 546.104 169.384 546.565 168.923L554.865 160.623C555.096 160.392 555.346 160.229 555.615 160.133C555.884 160.037 556.172 159.989 556.479 159.989C556.787 159.989 557.075 160.037 557.344 160.133C557.613 160.229 557.863 160.392 558.093 160.623L566.393 168.923C566.854 169.384 567.075 169.922 567.056 170.537C567.037 171.152 566.816 171.69 566.393 172.151C565.932 172.612 565.385 172.852 564.751 172.872C564.117 172.891 563.569 172.67 563.108 172.209L558.785 167.886V184.371C558.785 185.024 558.564 185.572 558.122 186.014C557.68 186.456 557.132 186.677 556.479 186.677C555.826 186.677 555.278 186.456 554.836 186.014C554.395 185.572 554.174 185.024 554.174 184.371V167.886ZM538.034 159.009V154.398C538.034 153.13 538.486 152.044 539.389 151.141C540.292 150.238 541.377 149.787 542.645 149.787H570.313C571.581 149.787 572.667 150.238 573.57 151.141C574.473 152.044 574.924 153.13 574.924 154.398V159.009C574.924 159.662 574.703 160.21 574.261 160.652C573.819 161.094 573.272 161.315 572.619 161.315C571.965 161.315 571.418 161.094 570.976 160.652C570.534 160.21 570.313 159.662 570.313 159.009V154.398H542.645V159.009C542.645 159.662 542.424 160.21 541.983 160.652C541.541 161.094 540.993 161.315 540.34 161.315C539.687 161.315 539.139 161.094 538.697 160.652C538.255 160.21 538.034 159.662 538.034 159.009Z" fill="white"/>
<path d="M134.08 31.2676V6.98758H140.64V31.2676H134.08ZM125.88 7.78758V2.06758H148.88V7.78758H125.88ZM151.318 31.2676V9.34758H156.398V18.7476H156.278C156.278 15.6542 156.932 13.2676 158.238 11.5876C159.572 9.90758 161.492 9.06758 163.998 9.06758H164.838V14.5876H163.238C161.478 14.5876 160.118 15.0676 159.158 16.0276C158.198 16.9609 157.718 18.3209 157.718 20.1076V31.2676H151.318ZM181.238 31.2676V24.7876H180.158V17.7476C180.158 16.6276 179.891 15.7876 179.358 15.2276C178.825 14.6676 177.971 14.3876 176.798 14.3876C176.211 14.3876 175.438 14.4009 174.478 14.4276C173.518 14.4542 172.531 14.4942 171.518 14.5476C170.505 14.6009 169.585 14.6542 168.758 14.7076V9.30758C169.371 9.25424 170.091 9.20091 170.918 9.14758C171.745 9.09424 172.598 9.05424 173.478 9.02758C174.358 9.00091 175.185 8.98758 175.958 8.98758C178.198 8.98758 180.078 9.30758 181.598 9.94758C183.145 10.5876 184.318 11.5609 185.118 12.8676C185.918 14.1476 186.318 15.8009 186.318 17.8276V31.2676H181.238ZM174.238 31.8276C172.665 31.8276 171.278 31.5476 170.078 30.9876C168.905 30.4276 167.985 29.6276 167.318 28.5876C166.651 27.5209 166.318 26.2542 166.318 24.7876C166.318 23.1876 166.731 21.8809 167.558 20.8676C168.385 19.8276 169.545 19.0676 171.038 18.5876C172.531 18.0809 174.251 17.8276 176.198 17.8276H180.878V21.3876H176.158C175.038 21.3876 174.171 21.6676 173.558 22.2276C172.971 22.7609 172.678 23.4942 172.678 24.4276C172.678 25.3076 172.971 26.0276 173.558 26.5876C174.171 27.1209 175.038 27.3876 176.158 27.3876C176.878 27.3876 177.518 27.2676 178.078 27.0276C178.665 26.7609 179.145 26.3209 179.518 25.7076C179.891 25.0942 180.105 24.2409 180.158 23.1476L181.678 24.7476C181.545 26.2676 181.171 27.5476 180.558 28.5876C179.971 29.6276 179.145 30.4276 178.078 30.9876C177.038 31.5476 175.758 31.8276 174.238 31.8276ZM191.748 31.2676V9.34758H196.828V18.7476H196.468C196.468 16.5076 196.748 14.6409 197.308 13.1476C197.895 11.6542 198.775 10.5342 199.948 9.78758C201.121 9.04091 202.548 8.66758 204.228 8.66758H204.508C207.068 8.66758 209.015 9.50758 210.348 11.1876C211.708 12.8409 212.388 15.3609 212.388 18.7476V31.2676H205.988V18.3876C205.988 17.2142 205.641 16.2542 204.948 15.5076C204.255 14.7609 203.321 14.3876 202.148 14.3876C200.948 14.3876 199.975 14.7742 199.228 15.5476C198.508 16.2942 198.148 17.2809 198.148 18.5076V31.2676H191.748ZM226.162 31.9476C223.042 31.9476 220.602 31.3076 218.842 30.0276C217.082 28.7476 216.149 26.9476 216.042 24.6276H221.722C221.829 25.3209 222.242 25.9476 222.962 26.5076C223.709 27.0409 224.815 27.3076 226.282 27.3076C227.402 27.3076 228.322 27.1209 229.042 26.7476C229.789 26.3476 230.162 25.7876 230.162 25.0676C230.162 24.4276 229.882 23.9209 229.322 23.5476C228.762 23.1476 227.762 22.8676 226.322 22.7076L224.602 22.5476C221.962 22.2809 219.975 21.5476 218.642 20.3476C217.335 19.1476 216.682 17.6142 216.682 15.7476C216.682 14.2009 217.069 12.9076 217.842 11.8676C218.615 10.8276 219.682 10.0409 221.042 9.50758C222.429 8.97424 224.002 8.70758 225.762 8.70758C228.589 8.70758 230.869 9.33424 232.602 10.5876C234.335 11.8142 235.242 13.6009 235.322 15.9476H229.642C229.535 15.2276 229.162 14.6276 228.522 14.1476C227.882 13.6409 226.935 13.3876 225.682 13.3876C224.695 13.3876 223.909 13.5742 223.322 13.9476C222.735 14.3209 222.442 14.8276 222.442 15.4676C222.442 16.0809 222.695 16.5476 223.202 16.8676C223.709 17.1876 224.535 17.4142 225.682 17.5476L227.402 17.7076C230.095 18.0009 232.189 18.7476 233.682 19.9476C235.175 21.1476 235.922 22.7609 235.922 24.7876C235.922 26.2542 235.522 27.5342 234.722 28.6276C233.922 29.6942 232.789 30.5209 231.322 31.1076C229.855 31.6676 228.135 31.9476 226.162 31.9476ZM253.308 31.2676V24.7876H252.228V17.7476C252.228 16.6276 251.962 15.7876 251.428 15.2276C250.895 14.6676 250.042 14.3876 248.868 14.3876C248.282 14.3876 247.508 14.4009 246.548 14.4276C245.588 14.4542 244.602 14.4942 243.588 14.5476C242.575 14.6009 241.655 14.6542 240.828 14.7076V9.30758C241.442 9.25424 242.162 9.20091 242.988 9.14758C243.815 9.09424 244.668 9.05424 245.548 9.02758C246.428 9.00091 247.255 8.98758 248.028 8.98758C250.268 8.98758 252.148 9.30758 253.668 9.94758C255.215 10.5876 256.388 11.5609 257.188 12.8676C257.988 14.1476 258.388 15.8009 258.388 17.8276V31.2676H253.308ZM246.308 31.8276C244.735 31.8276 243.348 31.5476 242.148 30.9876C240.975 30.4276 240.055 29.6276 239.388 28.5876C238.722 27.5209 238.388 26.2542 238.388 24.7876C238.388 23.1876 238.802 21.8809 239.628 20.8676C240.455 19.8276 241.615 19.0676 243.108 18.5876C244.602 18.0809 246.322 17.8276 248.268 17.8276H252.948V21.3876H248.228C247.108 21.3876 246.242 21.6676 245.628 22.2276C245.042 22.7609 244.748 23.4942 244.748 24.4276C244.748 25.3076 245.042 26.0276 245.628 26.5876C246.242 27.1209 247.108 27.3876 248.228 27.3876C248.948 27.3876 249.588 27.2676 250.148 27.0276C250.735 26.7609 251.215 26.3209 251.588 25.7076C251.962 25.0942 252.175 24.2409 252.228 23.1476L253.748 24.7476C253.615 26.2676 253.242 27.5476 252.628 28.5876C252.042 29.6276 251.215 30.4276 250.148 30.9876C249.108 31.5476 247.828 31.8276 246.308 31.8276ZM273.658 32.0276C271.765 32.0276 270.112 31.7209 268.698 31.1076C267.312 30.4676 266.152 29.6142 265.218 28.5476C264.285 27.4809 263.592 26.2809 263.138 24.9476C262.685 23.5876 262.458 22.1876 262.458 20.7476V19.9876C262.458 18.4942 262.698 17.0676 263.178 15.7076C263.658 14.3209 264.365 13.0942 265.298 12.0276C266.232 10.9609 267.392 10.1209 268.778 9.50758C270.192 8.89424 271.805 8.58758 273.618 8.58758C275.592 8.58758 277.338 8.97424 278.858 9.74758C280.378 10.4942 281.592 11.5476 282.498 12.9076C283.405 14.2676 283.912 15.8276 284.018 17.5876H277.738C277.632 16.6009 277.232 15.7742 276.538 15.1076C275.872 14.4142 274.898 14.0676 273.618 14.0676C272.552 14.0676 271.658 14.3342 270.938 14.8676C270.245 15.4009 269.725 16.1342 269.378 17.0676C269.032 18.0009 268.858 19.1076 268.858 20.3876C268.858 21.5609 269.018 22.6276 269.338 23.5876C269.658 24.5209 270.165 25.2542 270.858 25.7876C271.578 26.2942 272.512 26.5476 273.658 26.5476C274.512 26.5476 275.232 26.4009 275.818 26.1076C276.432 25.7876 276.912 25.3609 277.258 24.8276C277.632 24.2676 277.858 23.6276 277.938 22.9076H284.178C284.098 24.7209 283.592 26.3209 282.658 27.7076C281.725 29.0676 280.485 30.1342 278.938 30.9076C277.392 31.6542 275.632 32.0276 273.658 32.0276ZM298.232 31.5476C296.018 31.5476 294.232 31.2809 292.872 30.7476C291.512 30.1876 290.512 29.2676 289.872 27.9876C289.258 26.6809 288.952 24.9209 288.952 22.7076V3.42758H294.912V22.9476C294.912 23.9876 295.178 24.7876 295.712 25.3476C296.272 25.8809 297.058 26.1476 298.072 26.1476H301.312V31.5476H298.232ZM285.632 14.0276V9.34758H301.312V14.0276H285.632ZM306.655 31.2676V9.34758H313.055V31.2676H306.655ZM303.735 14.0676V9.34758H313.055V14.0676H303.735ZM309.135 7.18758C307.935 7.18758 307.042 6.88091 306.455 6.26758C305.895 5.62758 305.615 4.82758 305.615 3.86758C305.615 2.88091 305.895 2.08091 306.455 1.46758C307.042 0.827576 307.935 0.507576 309.135 0.507576C310.335 0.507576 311.215 0.827576 311.775 1.46758C312.362 2.08091 312.655 2.88091 312.655 3.86758C312.655 4.82758 312.362 5.62758 311.775 6.26758C311.215 6.88091 310.335 7.18758 309.135 7.18758ZM329.655 32.0276C327.735 32.0276 326.028 31.7342 324.535 31.1476C323.041 30.5342 321.775 29.7076 320.735 28.6676C319.721 27.6276 318.948 26.4409 318.415 25.1076C317.881 23.7476 317.615 22.3209 317.615 20.8276V19.9076C317.615 18.3876 317.881 16.9476 318.415 15.5876C318.975 14.2009 319.775 12.9876 320.815 11.9476C321.881 10.9076 323.161 10.0942 324.655 9.50758C326.148 8.89424 327.815 8.58758 329.655 8.58758C331.548 8.58758 333.228 8.89424 334.695 9.50758C336.188 10.0942 337.455 10.9076 338.495 11.9476C339.535 12.9876 340.335 14.2009 340.895 15.5876C341.455 16.9476 341.735 18.3876 341.735 19.9076V20.8276C341.735 22.3209 341.468 23.7476 340.935 25.1076C340.401 26.4409 339.615 27.6276 338.575 28.6676C337.561 29.7076 336.308 30.5342 334.815 31.1476C333.321 31.7342 331.601 32.0276 329.655 32.0276ZM329.655 26.6276C330.908 26.6276 331.948 26.3609 332.775 25.8276C333.601 25.2942 334.228 24.5476 334.655 23.5876C335.108 22.6276 335.335 21.5609 335.335 20.3876C335.335 19.1342 335.108 18.0409 334.655 17.1076C334.201 16.1476 333.548 15.3876 332.695 14.8276C331.868 14.2676 330.855 13.9876 329.655 13.9876C328.481 13.9876 327.468 14.2676 326.615 14.8276C325.761 15.3876 325.108 16.1476 324.655 17.1076C324.228 18.0409 324.015 19.1342 324.015 20.3876C324.015 21.5609 324.228 22.6276 324.655 23.5876C325.081 24.5476 325.721 25.2942 326.575 25.8276C327.428 26.3609 328.455 26.6276 329.655 26.6276ZM346.201 31.2676V9.34758H351.281V18.7476H350.921C350.921 16.5076 351.201 14.6409 351.761 13.1476C352.348 11.6542 353.228 10.5342 354.401 9.78758C355.575 9.04091 357.001 8.66758 358.681 8.66758H358.961C361.521 8.66758 363.468 9.50758 364.801 11.1876C366.161 12.8409 366.841 15.3609 366.841 18.7476V31.2676H360.441V18.3876C360.441 17.2142 360.095 16.2542 359.401 15.5076C358.708 14.7609 357.775 14.3876 356.601 14.3876C355.401 14.3876 354.428 14.7742 353.681 15.5476C352.961 16.2942 352.601 17.2809 352.601 18.5076V31.2676H346.201ZM391.213 32.0276C388.573 32.0276 386.347 31.6142 384.533 30.7876C382.72 29.9342 381.347 28.7876 380.413 27.3476C379.48 25.8809 379.013 24.2009 379.013 22.3076H385.373C385.373 23.0542 385.573 23.7476 385.973 24.3876C386.4 25.0276 387.04 25.5476 387.893 25.9476C388.747 26.3209 389.853 26.5076 391.213 26.5076C392.44 26.5076 393.467 26.3476 394.293 26.0276C395.12 25.7076 395.747 25.2676 396.173 24.7076C396.6 24.1209 396.813 23.4542 396.813 22.7076C396.813 21.7742 396.413 21.0409 395.613 20.5076C394.813 19.9476 393.52 19.5876 391.733 19.4276L389.533 19.2276C386.627 18.9876 384.307 18.0809 382.573 16.5076C380.84 14.9342 379.973 12.8542 379.973 10.2676C379.973 8.40091 380.413 6.78758 381.293 5.42758C382.2 4.06758 383.453 3.02758 385.053 2.30758C386.653 1.56091 388.547 1.18758 390.733 1.18758C393.027 1.18758 394.987 1.58758 396.613 2.38758C398.267 3.16091 399.533 4.26758 400.413 5.70758C401.293 7.12091 401.733 8.78758 401.733 10.7076H395.333C395.333 9.98758 395.16 9.33424 394.813 8.74758C394.467 8.13424 393.947 7.64091 393.253 7.26758C392.587 6.89424 391.747 6.70758 390.733 6.70758C389.773 6.70758 388.96 6.86758 388.293 7.18758C387.653 7.50758 387.173 7.94758 386.853 8.50758C386.533 9.04091 386.373 9.62758 386.373 10.2676C386.373 11.0942 386.667 11.8142 387.253 12.4276C387.84 13.0409 388.8 13.4009 390.133 13.5076L392.373 13.7076C394.507 13.8942 396.387 14.3609 398.013 15.1076C399.64 15.8276 400.907 16.8276 401.813 18.1076C402.747 19.3609 403.213 20.8942 403.213 22.7076C403.213 24.5742 402.72 26.2142 401.733 27.6276C400.773 29.0142 399.4 30.0942 397.613 30.8676C395.827 31.6409 393.693 32.0276 391.213 32.0276ZM417.333 31.5476C415.12 31.5476 413.333 31.2809 411.973 30.7476C410.613 30.1876 409.613 29.2676 408.973 27.9876C408.36 26.6809 408.053 24.9209 408.053 22.7076V3.42758H414.013V22.9476C414.013 23.9876 414.28 24.7876 414.813 25.3476C415.373 25.8809 416.16 26.1476 417.173 26.1476H420.413V31.5476H417.333ZM404.733 14.0276V9.34758H420.413V14.0276H404.733ZM424.717 31.2676V9.34758H429.797V18.7476H429.677C429.677 15.6542 430.33 13.2676 431.637 11.5876C432.97 9.90758 434.89 9.06758 437.397 9.06758H438.237V14.5876H436.637C434.877 14.5876 433.517 15.0676 432.557 16.0276C431.597 16.9609 431.117 18.3209 431.117 20.1076V31.2676H424.717ZM448.953 31.9476C446.419 31.9476 444.473 31.1342 443.113 29.5076C441.753 27.8542 441.073 25.3742 441.073 22.0676V9.34758H447.473V22.3876C447.473 23.5609 447.806 24.4942 448.473 25.1876C449.139 25.8809 450.033 26.2276 451.153 26.2276C452.299 26.2276 453.233 25.8676 453.953 25.1476C454.673 24.4276 455.033 23.4542 455.033 22.2276V9.34758H461.433V31.2676H456.353V22.0276H456.793C456.793 24.2409 456.499 26.0942 455.913 27.5876C455.353 29.0542 454.513 30.1476 453.393 30.8676C452.273 31.5876 450.886 31.9476 449.233 31.9476H448.953ZM477.174 32.0276C475.281 32.0276 473.627 31.7209 472.214 31.1076C470.827 30.4676 469.667 29.6142 468.734 28.5476C467.801 27.4809 467.107 26.2809 466.654 24.9476C466.201 23.5876 465.974 22.1876 465.974 20.7476V19.9876C465.974 18.4942 466.214 17.0676 466.694 15.7076C467.174 14.3209 467.881 13.0942 468.814 12.0276C469.747 10.9609 470.907 10.1209 472.294 9.50758C473.707 8.89424 475.321 8.58758 477.134 8.58758C479.107 8.58758 480.854 8.97424 482.374 9.74758C483.894 10.4942 485.107 11.5476 486.014 12.9076C486.921 14.2676 487.427 15.8276 487.534 17.5876H481.254C481.147 16.6009 480.747 15.7742 480.054 15.1076C479.387 14.4142 478.414 14.0676 477.134 14.0676C476.067 14.0676 475.174 14.3342 474.454 14.8676C473.761 15.4009 473.241 16.1342 472.894 17.0676C472.547 18.0009 472.374 19.1076 472.374 20.3876C472.374 21.5609 472.534 22.6276 472.854 23.5876C473.174 24.5209 473.681 25.2542 474.374 25.7876C475.094 26.2942 476.027 26.5476 477.174 26.5476C478.027 26.5476 478.747 26.4009 479.334 26.1076C479.947 25.7876 480.427 25.3609 480.774 24.8276C481.147 24.2676 481.374 23.6276 481.454 22.9076H487.694C487.614 24.7209 487.107 26.3209 486.174 27.7076C485.241 29.0676 484.001 30.1342 482.454 30.9076C480.907 31.6542 479.147 32.0276 477.174 32.0276ZM501.747 31.5476C499.534 31.5476 497.747 31.2809 496.387 30.7476C495.027 30.1876 494.027 29.2676 493.387 27.9876C492.774 26.6809 492.467 24.9209 492.467 22.7076V3.42758H498.427V22.9476C498.427 23.9876 498.694 24.7876 499.227 25.3476C499.787 25.8809 500.574 26.1476 501.587 26.1476H504.827V31.5476H501.747ZM489.147 14.0276V9.34758H504.827V14.0276H489.147ZM516.531 31.9476C513.998 31.9476 512.051 31.1342 510.691 29.5076C509.331 27.8542 508.651 25.3742 508.651 22.0676V9.34758H515.051V22.3876C515.051 23.5609 515.384 24.4942 516.051 25.1876C516.718 25.8809 517.611 26.2276 518.731 26.2276C519.878 26.2276 520.811 25.8676 521.531 25.1476C522.251 24.4276 522.611 23.4542 522.611 22.2276V9.34758H529.011V31.2676H523.931V22.0276H524.371C524.371 24.2409 524.078 26.0942 523.491 27.5876C522.931 29.0542 522.091 30.1476 520.971 30.8676C519.851 31.5876 518.464 31.9476 516.811 31.9476H516.531ZM534.912 31.2676V9.34758H539.992V18.7476H539.872C539.872 15.6542 540.526 13.2676 541.832 11.5876C543.166 9.90758 545.086 9.06758 547.592 9.06758H548.432V14.5876H546.832C545.072 14.5876 543.712 15.0676 542.752 16.0276C541.792 16.9609 541.312 18.3209 541.312 20.1076V31.2676H534.912ZM561.671 32.0276C559.804 32.0276 558.151 31.7076 556.711 31.0676C555.298 30.4276 554.111 29.5742 553.151 28.5076C552.218 27.4142 551.498 26.2009 550.991 24.8676C550.511 23.5076 550.271 22.1209 550.271 20.7076V19.9076C550.271 18.4409 550.511 17.0409 550.991 15.7076C551.498 14.3476 552.218 13.1342 553.151 12.0676C554.084 11.0009 555.244 10.1609 556.631 9.54758C558.044 8.90758 559.644 8.58758 561.431 8.58758C563.778 8.58758 565.751 9.12091 567.351 10.1876C568.978 11.2276 570.218 12.6009 571.071 14.3076C571.924 15.9876 572.351 17.8276 572.351 19.8276V21.9876H552.951V18.3476H568.471L566.391 20.0276C566.391 18.7209 566.204 17.6009 565.831 16.6676C565.458 15.7342 564.898 15.0276 564.151 14.5476C563.431 14.0409 562.524 13.7876 561.431 13.7876C560.311 13.7876 559.364 14.0409 558.591 14.5476C557.818 15.0542 557.231 15.8009 556.831 16.7876C556.431 17.7476 556.231 18.9342 556.231 20.3476C556.231 21.6542 556.418 22.8009 556.791 23.7876C557.164 24.7476 557.751 25.4942 558.551 26.0276C559.351 26.5609 560.391 26.8276 561.671 26.8276C562.844 26.8276 563.804 26.6009 564.551 26.1476C565.298 25.6942 565.804 25.1342 566.071 24.4676H571.951C571.631 25.9342 571.004 27.2409 570.071 28.3876C569.138 29.5342 567.964 30.4276 566.551 31.0676C565.138 31.7076 563.511 32.0276 561.671 32.0276Z" fill="white"/>
<rect x="208.305" y="372.521" width="282.063" height="196.604" rx="14.5" stroke="#1231AF" stroke-width="3"/>
<path d="M243.228 429.823V406.463H246.364V429.823H243.228ZM245.724 419.423V416.607L255.74 416.575V419.391L245.724 419.423ZM245.724 409.279V406.463H256.284V409.279H245.724ZM267.638 430.399C266.144 430.399 264.854 430.143 263.766 429.631C262.678 429.119 261.792 428.447 261.11 427.615C260.427 426.762 259.915 425.813 259.574 424.767C259.254 423.722 259.094 422.655 259.094 421.567V420.991C259.094 419.882 259.254 418.805 259.574 417.759C259.915 416.714 260.427 415.775 261.11 414.943C261.792 414.09 262.656 413.418 263.702 412.927C264.768 412.415 266.016 412.159 267.446 412.159C269.302 412.159 270.827 412.565 272.022 413.375C273.238 414.165 274.134 415.189 274.71 416.447C275.307 417.706 275.606 419.05 275.606 420.479V421.855H260.438V419.551H273.366L272.662 420.799C272.662 419.583 272.47 418.538 272.086 417.663C271.702 416.767 271.126 416.074 270.358 415.583C269.59 415.093 268.619 414.847 267.446 414.847C266.23 414.847 265.216 415.125 264.406 415.679C263.616 416.234 263.019 416.991 262.614 417.951C262.23 418.911 262.038 420.021 262.038 421.279C262.038 422.495 262.23 423.594 262.614 424.575C263.019 425.535 263.638 426.303 264.47 426.879C265.302 427.434 266.358 427.711 267.638 427.711C268.982 427.711 270.07 427.413 270.902 426.815C271.755 426.218 272.267 425.525 272.438 424.735H275.318C275.083 425.909 274.614 426.922 273.91 427.775C273.206 428.629 272.32 429.279 271.254 429.727C270.187 430.175 268.982 430.399 267.638 430.399ZM287.231 430.399C285.738 430.399 284.447 430.143 283.359 429.631C282.271 429.119 281.386 428.447 280.703 427.615C280.021 426.762 279.509 425.813 279.167 424.767C278.847 423.722 278.687 422.655 278.687 421.567V420.991C278.687 419.882 278.847 418.805 279.167 417.759C279.509 416.714 280.021 415.775 280.703 414.943C281.386 414.09 282.25 413.418 283.295 412.927C284.362 412.415 285.61 412.159 287.039 412.159C288.895 412.159 290.421 412.565 291.615 413.375C292.831 414.165 293.727 415.189 294.303 416.447C294.901 417.706 295.199 419.05 295.199 420.479V421.855H280.031V419.551H292.959L292.255 420.799C292.255 419.583 292.063 418.538 291.679 417.663C291.295 416.767 290.719 416.074 289.951 415.583C289.183 415.093 288.213 414.847 287.039 414.847C285.823 414.847 284.81 415.125 283.999 415.679C283.21 416.234 282.613 416.991 282.207 417.951C281.823 418.911 281.631 420.021 281.631 421.279C281.631 422.495 281.823 423.594 282.207 424.575C282.613 425.535 283.231 426.303 284.063 426.879C284.895 427.434 285.951 427.711 287.231 427.711C288.575 427.711 289.663 427.413 290.495 426.815C291.349 426.218 291.861 425.525 292.031 424.735H294.911C294.677 425.909 294.207 426.922 293.503 427.775C292.799 428.629 291.914 429.279 290.847 429.727C289.781 430.175 288.575 430.399 287.231 430.399ZM298.953 429.823V425.919H302.665V429.823H298.953ZM298.953 417.983V414.079H302.665V417.983H298.953ZM324.177 430.399C322.428 430.399 320.935 430.101 319.697 429.503C318.481 428.885 317.489 428.053 316.721 427.007C315.975 425.962 315.431 424.757 315.089 423.391C314.748 422.005 314.577 420.543 314.577 419.007V417.279C314.577 415.125 314.908 413.183 315.569 411.455C316.252 409.727 317.297 408.362 318.705 407.359C320.135 406.335 321.959 405.823 324.177 405.823C326.396 405.823 328.209 406.335 329.617 407.359C331.025 408.362 332.06 409.727 332.721 411.455C333.404 413.183 333.745 415.125 333.745 417.279V419.007C333.745 420.543 333.575 422.005 333.233 423.391C332.892 424.757 332.337 425.962 331.569 427.007C330.823 428.053 329.841 428.885 328.625 429.503C327.409 430.101 325.927 430.399 324.177 430.399ZM324.177 427.583C326.396 427.583 328.017 426.837 329.041 425.343C330.087 423.829 330.609 421.439 330.609 418.175C330.609 414.762 330.076 412.319 329.009 410.847C327.964 409.375 326.353 408.639 324.177 408.639C321.98 408.639 320.348 409.375 319.281 410.847C318.236 412.319 317.713 414.741 317.713 418.111C317.713 421.397 318.236 423.797 319.281 425.311C320.327 426.826 321.959 427.583 324.177 427.583ZM338.391 429.823V425.919H342.103V429.823H338.391ZM350.958 429.823V407.999L352.366 409.087H345.774V406.463H354.03V429.823H350.958ZM362.475 429.823L372.363 409.375L372.171 409.087H359.403V406.463H375.083V410.175L365.675 429.823H362.475ZM359.403 412.799V406.463H361.963V412.799H359.403ZM384.419 429.823L392.835 406.463H398.147L406.819 429.823H403.587L395.747 408.511L397.283 409.279H393.507L395.139 408.511L387.555 429.823H384.419ZM389.443 422.847L390.499 420.031H400.579L401.635 422.847H389.443ZM413.599 429.951V427.071H419.423C420.831 427.071 422.079 426.847 423.167 426.399C424.276 425.93 425.215 425.29 425.983 424.479C426.772 423.669 427.37 422.719 427.775 421.631C428.18 420.543 428.383 419.37 428.383 418.111C428.383 416.789 428.18 415.594 427.775 414.527C427.37 413.439 426.772 412.501 425.983 411.711C425.215 410.901 424.276 410.282 423.167 409.855C422.079 409.429 420.831 409.215 419.423 409.215H413.599V406.335H419.103C421.215 406.335 423.05 406.666 424.607 407.327C426.164 407.967 427.455 408.842 428.479 409.951C429.524 411.039 430.303 412.266 430.815 413.631C431.327 414.975 431.583 416.351 431.583 417.759V418.463C431.583 419.829 431.327 421.194 430.815 422.559C430.303 423.925 429.524 425.162 428.479 426.271C427.455 427.381 426.164 428.277 424.607 428.959C423.05 429.621 421.215 429.951 419.103 429.951H413.599ZM411.103 429.951V406.335H414.239V429.951H411.103ZM433.169 429.823L441.585 406.463H446.897L455.569 429.823H452.337L444.497 408.511L446.033 409.279H442.257L443.889 408.511L436.305 429.823H433.169ZM438.193 422.847L439.249 420.031H449.329L450.385 422.847H438.193ZM243.228 481.823V458.463H247.388L254.3 474.047H254.812L261.692 458.463H265.884V481.823H262.748V461.887L262.972 461.951L256.348 476.991H252.508L245.852 461.951L246.108 461.887V481.823H243.228ZM279.481 482.399C277.988 482.399 276.697 482.143 275.609 481.631C274.521 481.119 273.636 480.447 272.953 479.615C272.271 478.762 271.759 477.813 271.417 476.767C271.097 475.722 270.937 474.655 270.937 473.567V472.991C270.937 471.882 271.097 470.805 271.417 469.759C271.759 468.714 272.271 467.775 272.953 466.943C273.636 466.09 274.5 465.418 275.545 464.927C276.612 464.415 277.86 464.159 279.289 464.159C281.145 464.159 282.671 464.565 283.865 465.375C285.081 466.165 285.977 467.189 286.553 468.447C287.151 469.706 287.449 471.05 287.449 472.479V473.855H272.281V471.551H285.209L284.505 472.799C284.505 471.583 284.313 470.538 283.929 469.663C283.545 468.767 282.969 468.074 282.201 467.583C281.433 467.093 280.463 466.847 279.289 466.847C278.073 466.847 277.06 467.125 276.249 467.679C275.46 468.234 274.863 468.991 274.457 469.951C274.073 470.911 273.881 472.021 273.881 473.279C273.881 474.495 274.073 475.594 274.457 476.575C274.863 477.535 275.481 478.303 276.313 478.879C277.145 479.434 278.201 479.711 279.481 479.711C280.825 479.711 281.913 479.413 282.745 478.815C283.599 478.218 284.111 477.525 284.281 476.735H287.161C286.927 477.909 286.457 478.922 285.753 479.775C285.049 480.629 284.164 481.279 283.097 481.727C282.031 482.175 280.825 482.399 279.481 482.399ZM298.467 482.015C297.187 482.015 296.078 481.834 295.139 481.471C294.222 481.109 293.507 480.49 292.995 479.615C292.505 478.719 292.259 477.514 292.259 475.999V459.551H295.203V476.383C295.203 477.301 295.449 478.015 295.939 478.527C296.451 479.018 297.166 479.263 298.083 479.263H301.091V482.015H298.467ZM289.315 467.039V464.735H301.091V467.039H289.315ZM315.71 481.823V476.703H315.198V470.783C315.198 469.61 314.888 468.725 314.27 468.127C313.672 467.53 312.787 467.231 311.614 467.231C310.952 467.231 310.27 467.242 309.566 467.263C308.862 467.285 308.19 467.306 307.55 467.327C306.91 467.349 306.355 467.381 305.886 467.423V464.735C306.355 464.693 306.846 464.661 307.358 464.639C307.891 464.597 308.435 464.575 308.99 464.575C309.544 464.554 310.078 464.543 310.59 464.543C312.339 464.543 313.768 464.757 314.878 465.183C315.987 465.589 316.808 466.261 317.342 467.199C317.875 468.138 318.142 469.407 318.142 471.007V481.823H315.71ZM310.11 482.271C308.83 482.271 307.72 482.058 306.782 481.631C305.864 481.183 305.15 480.543 304.638 479.711C304.147 478.879 303.902 477.877 303.902 476.703C303.902 475.487 304.168 474.474 304.702 473.663C305.256 472.853 306.056 472.245 307.102 471.839C308.147 471.413 309.406 471.199 310.878 471.199H315.518V473.503H310.75C309.512 473.503 308.563 473.802 307.902 474.399C307.24 474.997 306.91 475.765 306.91 476.703C306.91 477.642 307.24 478.399 307.902 478.975C308.563 479.551 309.512 479.839 310.75 479.839C311.475 479.839 312.168 479.711 312.83 479.455C313.491 479.178 314.035 478.73 314.462 478.111C314.91 477.471 315.155 476.597 315.198 475.487L316.03 476.703C315.923 477.919 315.624 478.943 315.134 479.775C314.664 480.586 314.003 481.205 313.15 481.631C312.318 482.058 311.304 482.271 310.11 482.271ZM330.916 482.399C329.7 482.399 328.58 482.175 327.556 481.727C326.532 481.279 325.636 480.65 324.868 479.839C324.121 479.029 323.535 478.09 323.108 477.023C322.703 475.957 322.5 474.805 322.5 473.567V472.991C322.5 471.775 322.703 470.634 323.108 469.567C323.513 468.501 324.079 467.562 324.804 466.751C325.551 465.941 326.425 465.311 327.428 464.863C328.452 464.394 329.583 464.159 330.82 464.159C332.121 464.159 333.305 464.437 334.372 464.991C335.439 465.525 336.313 466.367 336.996 467.519C337.679 468.671 338.063 470.165 338.148 471.999L336.868 469.951V458.463H339.94V481.823H337.508V474.239H338.404C338.319 476.181 337.913 477.759 337.188 478.975C336.463 480.17 335.545 481.045 334.436 481.599C333.348 482.133 332.175 482.399 330.916 482.399ZM331.332 479.711C332.377 479.711 333.327 479.477 334.18 479.007C335.033 478.538 335.716 477.866 336.228 476.991C336.74 476.095 336.996 475.05 336.996 473.855V472.383C336.996 471.21 336.729 470.218 336.196 469.407C335.684 468.575 334.991 467.946 334.116 467.519C333.263 467.071 332.324 466.847 331.3 466.847C330.169 466.847 329.167 467.114 328.292 467.647C327.439 468.181 326.767 468.927 326.276 469.887C325.807 470.847 325.572 471.978 325.572 473.279C325.572 474.581 325.817 475.722 326.308 476.703C326.799 477.663 327.481 478.41 328.356 478.943C329.231 479.455 330.223 479.711 331.332 479.711ZM356.178 481.823V476.703H355.666V470.783C355.666 469.61 355.357 468.725 354.738 468.127C354.141 467.53 353.256 467.231 352.082 467.231C351.421 467.231 350.738 467.242 350.034 467.263C349.33 467.285 348.658 467.306 348.018 467.327C347.378 467.349 346.824 467.381 346.354 467.423V464.735C346.824 464.693 347.314 464.661 347.826 464.639C348.36 464.597 348.904 464.575 349.458 464.575C350.013 464.554 350.546 464.543 351.058 464.543C352.808 464.543 354.237 464.757 355.346 465.183C356.456 465.589 357.277 466.261 357.81 467.199C358.344 468.138 358.61 469.407 358.61 471.007V481.823H356.178ZM350.578 482.271C349.298 482.271 348.189 482.058 347.25 481.631C346.333 481.183 345.618 480.543 345.106 479.711C344.616 478.879 344.37 477.877 344.37 476.703C344.37 475.487 344.637 474.474 345.17 473.663C345.725 472.853 346.525 472.245 347.57 471.839C348.616 471.413 349.874 471.199 351.346 471.199H355.986V473.503H351.218C349.981 473.503 349.032 473.802 348.37 474.399C347.709 474.997 347.378 475.765 347.378 476.703C347.378 477.642 347.709 478.399 348.37 478.975C349.032 479.551 349.981 479.839 351.218 479.839C351.944 479.839 352.637 479.711 353.298 479.455C353.96 479.178 354.504 478.73 354.93 478.111C355.378 477.471 355.624 476.597 355.666 475.487L356.498 476.703C356.392 477.919 356.093 478.943 355.602 479.775C355.133 480.586 354.472 481.205 353.618 481.631C352.786 482.058 351.773 482.271 350.578 482.271ZM370.905 482.015C369.625 482.015 368.515 481.834 367.577 481.471C366.659 481.109 365.945 480.49 365.433 479.615C364.942 478.719 364.697 477.514 364.697 475.999V459.551H367.641V476.383C367.641 477.301 367.886 478.015 368.377 478.527C368.889 479.018 369.603 479.263 370.521 479.263H373.529V482.015H370.905ZM361.753 467.039V464.735H373.529V467.039H361.753ZM388.147 481.823V476.703H387.635V470.783C387.635 469.61 387.326 468.725 386.707 468.127C386.11 467.53 385.225 467.231 384.051 467.231C383.39 467.231 382.707 467.242 382.003 467.263C381.299 467.285 380.627 467.306 379.987 467.327C379.347 467.349 378.793 467.381 378.323 467.423V464.735C378.793 464.693 379.283 464.661 379.795 464.639C380.329 464.597 380.873 464.575 381.427 464.575C381.982 464.554 382.515 464.543 383.027 464.543C384.777 464.543 386.206 464.757 387.315 465.183C388.425 465.589 389.246 466.261 389.779 467.199C390.313 468.138 390.579 469.407 390.579 471.007V481.823H388.147ZM382.547 482.271C381.267 482.271 380.158 482.058 379.219 481.631C378.302 481.183 377.587 480.543 377.075 479.711C376.585 478.879 376.339 477.877 376.339 476.703C376.339 475.487 376.606 474.474 377.139 473.663C377.694 472.853 378.494 472.245 379.539 471.839C380.585 471.413 381.843 471.199 383.315 471.199H387.955V473.503H383.187C381.95 473.503 381.001 473.802 380.339 474.399C379.678 474.997 379.347 475.765 379.347 476.703C379.347 477.642 379.678 478.399 380.339 478.975C381.001 479.551 381.95 479.839 383.187 479.839C383.913 479.839 384.606 479.711 385.267 479.455C385.929 479.178 386.473 478.73 386.899 478.111C387.347 477.471 387.593 476.597 387.635 475.487L388.467 476.703C388.361 477.919 388.062 478.943 387.571 479.775C387.102 480.586 386.441 481.205 385.587 481.631C384.755 482.058 383.742 482.271 382.547 482.271ZM395.609 481.823V477.919H399.321V481.823H395.609ZM395.609 469.983V466.079H399.321V469.983H395.609ZM418.786 487.647C417.036 487.647 415.618 487.125 414.53 486.079C413.442 485.034 412.898 483.551 412.898 481.631V475.743C412.898 475.082 412.695 474.581 412.29 474.239C411.884 473.877 411.362 473.695 410.722 473.695V470.815C411.362 470.815 411.884 470.645 412.29 470.303C412.695 469.941 412.898 469.429 412.898 468.767V463.007C412.898 461.087 413.442 459.605 414.53 458.559C415.618 457.514 417.036 456.991 418.786 456.991H419.49V459.423H418.786C417.847 459.423 417.122 459.722 416.61 460.319C416.098 460.895 415.842 461.749 415.842 462.879V468.447C415.842 469.557 415.586 470.421 415.074 471.039C414.562 471.637 413.815 471.999 412.834 472.127V472.383C413.815 472.511 414.562 472.874 415.074 473.471C415.586 474.069 415.842 474.933 415.842 476.063V481.759C415.842 482.89 416.098 483.743 416.61 484.319C417.122 484.917 417.847 485.215 418.786 485.215H419.49V487.647H418.786ZM423.297 481.823V477.919H427.009V481.823H423.297ZM431.672 481.823V477.919H435.384V481.823H431.672ZM440.047 481.823V477.919H443.759V481.823H440.047ZM448.262 487.647H447.558V485.215H448.262C449.201 485.215 449.926 484.917 450.438 484.319C450.95 483.743 451.206 482.89 451.206 481.759V476.063C451.206 474.933 451.462 474.069 451.974 473.471C452.486 472.874 453.233 472.511 454.214 472.383V472.127C453.233 471.999 452.486 471.637 451.974 471.039C451.462 470.421 451.206 469.557 451.206 468.447V462.879C451.206 461.749 450.95 460.895 450.438 460.319C449.926 459.722 449.201 459.423 448.262 459.423H447.558V456.991H448.262C450.011 456.991 451.43 457.514 452.518 458.559C453.606 459.605 454.15 461.087 454.15 463.007V468.767C454.15 469.429 454.353 469.941 454.758 470.303C455.163 470.645 455.686 470.815 456.326 470.815V473.695C455.686 473.695 455.163 473.877 454.758 474.239C454.353 474.581 454.15 475.082 454.15 475.743V481.631C454.15 483.551 453.606 485.034 452.518 486.079C451.43 487.125 450.011 487.647 448.262 487.647ZM250.812 534.399C248.871 534.399 247.217 534.079 245.852 533.439C244.487 532.799 243.441 531.914 242.716 530.783C241.991 529.653 241.628 528.373 241.628 526.943H244.764C244.764 527.647 244.945 528.351 245.308 529.055C245.692 529.759 246.321 530.346 247.196 530.815C248.092 531.285 249.297 531.519 250.812 531.519C252.22 531.519 253.372 531.317 254.268 530.911C255.164 530.485 255.825 529.941 256.252 529.279C256.679 528.597 256.892 527.861 256.892 527.071C256.892 526.111 256.476 525.322 255.644 524.703C254.812 524.063 253.596 523.669 251.996 523.519L249.404 523.295C247.335 523.125 245.681 522.485 244.444 521.375C243.207 520.266 242.588 518.805 242.588 516.991C242.588 515.562 242.929 514.314 243.612 513.247C244.316 512.181 245.287 511.349 246.524 510.751C247.761 510.133 249.201 509.823 250.844 509.823C252.465 509.823 253.895 510.122 255.132 510.719C256.369 511.317 257.329 512.159 258.012 513.247C258.716 514.314 259.068 515.594 259.068 517.087H255.932C255.932 516.341 255.751 515.637 255.388 514.975C255.047 514.314 254.503 513.77 253.756 513.343C253.009 512.917 252.039 512.703 250.844 512.703C249.692 512.703 248.732 512.906 247.964 513.311C247.217 513.717 246.652 514.25 246.268 514.911C245.905 515.551 245.724 516.245 245.724 516.991C245.724 517.845 246.055 518.602 246.716 519.263C247.377 519.925 248.359 520.309 249.66 520.415L252.252 520.639C253.852 520.767 255.228 521.109 256.38 521.663C257.553 522.197 258.449 522.922 259.068 523.839C259.708 524.735 260.028 525.813 260.028 527.071C260.028 528.501 259.644 529.77 258.876 530.879C258.108 531.989 257.031 532.853 255.644 533.471C254.257 534.09 252.647 534.399 250.812 534.399ZM272.17 534.399C270.698 534.399 269.418 534.143 268.33 533.631C267.264 533.119 266.378 532.437 265.674 531.583C264.97 530.709 264.437 529.749 264.074 528.703C263.733 527.658 263.562 526.613 263.562 525.567V524.991C263.562 523.903 263.733 522.837 264.074 521.791C264.437 520.746 264.97 519.807 265.674 518.975C266.4 518.122 267.296 517.439 268.362 516.927C269.429 516.415 270.677 516.159 272.106 516.159C273.536 516.159 274.816 516.426 275.946 516.959C277.098 517.493 278.016 518.25 278.698 519.231C279.402 520.191 279.797 521.333 279.882 522.655H276.938C276.789 521.589 276.298 520.703 275.466 519.999C274.634 519.274 273.514 518.911 272.106 518.911C270.89 518.911 269.877 519.189 269.066 519.743C268.256 520.298 267.648 521.055 267.242 522.015C266.837 522.975 266.634 524.063 266.634 525.279C266.634 526.453 266.837 527.53 267.242 528.511C267.648 529.471 268.256 530.239 269.066 530.815C269.898 531.37 270.933 531.647 272.17 531.647C273.13 531.647 273.962 531.477 274.666 531.135C275.37 530.794 275.936 530.335 276.362 529.759C276.789 529.183 277.045 528.533 277.13 527.807H280.074C280.01 529.151 279.616 530.314 278.89 531.295C278.186 532.277 277.248 533.045 276.074 533.599C274.922 534.133 273.621 534.399 272.17 534.399ZM284.249 533.823V516.735H286.681V523.775H286.553C286.553 521.279 287.097 519.455 288.185 518.303C289.294 517.13 290.947 516.543 293.145 516.543H293.721V519.295H292.633C290.926 519.295 289.614 519.754 288.697 520.671C287.779 521.567 287.321 522.869 287.321 524.575V533.823H284.249ZM298.206 533.823V516.735H301.278V533.823H298.206ZM295.582 519.167V516.735H301.278V519.167H295.582ZM299.07 513.983C298.387 513.983 297.875 513.802 297.534 513.439C297.214 513.077 297.054 512.618 297.054 512.063C297.054 511.509 297.214 511.05 297.534 510.687C297.875 510.325 298.387 510.143 299.07 510.143C299.752 510.143 300.254 510.325 300.574 510.687C300.915 511.05 301.086 511.509 301.086 512.063C301.086 512.618 300.915 513.077 300.574 513.439C300.254 513.802 299.752 513.983 299.07 513.983ZM307.217 540.223V516.735H309.649V524.127L309.073 524.063C309.18 522.229 309.564 520.735 310.225 519.583C310.908 518.41 311.793 517.546 312.881 516.991C313.969 516.437 315.153 516.159 316.433 516.159C317.671 516.159 318.791 516.394 319.793 516.863C320.817 517.333 321.692 517.973 322.417 518.783C323.143 519.594 323.697 520.533 324.081 521.599C324.465 522.666 324.657 523.797 324.657 524.991V525.567C324.657 526.762 324.455 527.893 324.049 528.959C323.644 530.026 323.068 530.965 322.321 531.775C321.596 532.586 320.721 533.226 319.697 533.695C318.695 534.165 317.585 534.399 316.369 534.399C315.153 534.399 313.991 534.133 312.881 533.599C311.772 533.066 310.855 532.202 310.129 531.007C309.404 529.813 308.988 528.245 308.881 526.303L310.289 528.863V540.223H307.217ZM315.889 531.711C317.041 531.711 318.044 531.445 318.897 530.911C319.751 530.357 320.412 529.599 320.881 528.639C321.351 527.658 321.585 526.538 321.585 525.279C321.585 523.999 321.351 522.879 320.881 521.919C320.412 520.959 319.751 520.213 318.897 519.679C318.044 519.125 317.041 518.847 315.889 518.847C314.865 518.847 313.916 519.082 313.041 519.551C312.167 519.999 311.463 520.661 310.929 521.535C310.417 522.389 310.161 523.423 310.161 524.639V526.111C310.161 527.285 310.428 528.287 310.961 529.119C311.495 529.951 312.199 530.591 313.073 531.039C313.948 531.487 314.887 531.711 315.889 531.711ZM335.936 534.015C334.656 534.015 333.547 533.834 332.608 533.471C331.691 533.109 330.976 532.49 330.464 531.615C329.973 530.719 329.728 529.514 329.728 527.999V511.551H332.672V528.383C332.672 529.301 332.917 530.015 333.408 530.527C333.92 531.018 334.635 531.263 335.552 531.263H338.56V534.015H335.936ZM326.784 519.039V516.735H338.56V519.039H326.784ZM348.38 534.335C346.14 534.335 344.401 533.855 343.164 532.895C341.948 531.935 341.319 530.623 341.276 528.959H344.156C344.199 529.621 344.529 530.25 345.148 530.847C345.788 531.423 346.865 531.711 348.38 531.711C349.745 531.711 350.791 531.445 351.516 530.911C352.241 530.357 352.604 529.685 352.604 528.895C352.604 528.191 352.337 527.647 351.804 527.263C351.271 526.858 350.407 526.591 349.212 526.463L347.356 526.271C345.735 526.101 344.412 525.621 343.388 524.831C342.364 524.021 341.852 522.89 341.852 521.439C341.852 520.351 342.129 519.423 342.684 518.655C343.239 517.866 344.007 517.269 344.988 516.863C345.969 516.437 347.1 516.223 348.38 516.223C350.3 516.223 351.857 516.65 353.052 517.503C354.247 518.357 354.865 519.626 354.908 521.311H352.028C352.007 520.629 351.687 520.053 351.068 519.583C350.471 519.093 349.575 518.847 348.38 518.847C347.185 518.847 346.279 519.093 345.66 519.583C345.041 520.074 344.732 520.693 344.732 521.439C344.732 522.079 344.945 522.591 345.372 522.975C345.82 523.359 346.545 523.605 347.548 523.711L349.404 523.903C351.239 524.095 352.711 524.607 353.82 525.439C354.929 526.25 355.484 527.402 355.484 528.895C355.484 529.962 355.175 530.911 354.556 531.743C353.959 532.554 353.127 533.194 352.06 533.663C350.993 534.111 349.767 534.335 348.38 534.335ZM359.328 533.823V529.919H363.04V533.823H359.328ZM359.328 521.983V518.079H363.04V521.983H359.328ZM382.504 539.647C380.755 539.647 379.336 539.125 378.248 538.079C377.16 537.034 376.616 535.551 376.616 533.631V527.743C376.616 527.082 376.414 526.581 376.008 526.239C375.603 525.877 375.08 525.695 374.44 525.695V522.815C375.08 522.815 375.603 522.645 376.008 522.303C376.414 521.941 376.616 521.429 376.616 520.767V515.007C376.616 513.087 377.16 511.605 378.248 510.559C379.336 509.514 380.755 508.991 382.504 508.991H383.208V511.423H382.504C381.566 511.423 380.84 511.722 380.328 512.319C379.816 512.895 379.56 513.749 379.56 514.879V520.447C379.56 521.557 379.304 522.421 378.792 523.039C378.28 523.637 377.534 523.999 376.552 524.127V524.383C377.534 524.511 378.28 524.874 378.792 525.471C379.304 526.069 379.56 526.933 379.56 528.063V533.759C379.56 534.89 379.816 535.743 380.328 536.319C380.84 536.917 381.566 537.215 382.504 537.215H383.208V539.647H382.504ZM387.016 533.823V529.919H390.728V533.823H387.016ZM395.391 533.823V529.919H399.103V533.823H395.391ZM403.766 533.823V529.919H407.478V533.823H403.766ZM411.981 539.647H411.277V537.215H411.981C412.919 537.215 413.645 536.917 414.157 536.319C414.669 535.743 414.925 534.89 414.925 533.759V528.063C414.925 526.933 415.181 526.069 415.693 525.471C416.205 524.874 416.951 524.511 417.933 524.383V524.127C416.951 523.999 416.205 523.637 415.693 523.039C415.181 522.421 414.925 521.557 414.925 520.447V514.879C414.925 513.749 414.669 512.895 414.157 512.319C413.645 511.722 412.919 511.423 411.981 511.423H411.277V508.991H411.981C413.73 508.991 415.149 509.514 416.237 510.559C417.325 511.605 417.869 513.087 417.869 515.007V520.767C417.869 521.429 418.071 521.941 418.477 522.303C418.882 522.645 419.405 522.815 420.045 522.815V525.695C419.405 525.695 418.882 525.877 418.477 526.239C418.071 526.581 417.869 527.082 417.869 527.743V533.631C417.869 535.551 417.325 537.034 416.237 538.079C415.149 539.125 413.73 539.647 411.981 539.647Z" fill="white"/>
</svg>
