<svg width="52" height="52" viewBox="0 0 52 52" fill="none" xmlns="http://www.w3.org/2000/svg">
<rect x="1.18253" y="0.961831" width="49.5814" height="49.5814" rx="24.7907" stroke="white" stroke-width="1.27132"/>
<g clip-path="url(#clip0_886_6999)">
<path d="M22.6498 23.2754C21.2619 23.2754 20.1328 24.5193 20.1328 26.0483C20.1328 27.5773 21.2619 28.8212 22.6498 28.8212C24.0376 28.8212 25.1668 27.5773 25.1668 26.0483C25.1668 24.5193 24.0376 23.2754 22.6498 23.2754ZM22.6498 27.4149C22.0373 27.4149 21.5391 26.8018 21.5391 26.0483C21.5391 25.2947 22.0373 24.6816 22.6498 24.6816C23.2622 24.6816 23.7606 25.2947 23.7606 26.0483C23.7606 26.8018 23.2622 27.4149 22.6498 27.4149Z" fill="white"/>
<path d="M29.2944 23.2754C27.9065 23.2754 26.7773 24.5193 26.7773 26.0483C26.7773 27.5773 27.9065 28.8212 29.2944 28.8212C30.6822 28.8212 31.8113 27.5773 31.8113 26.0483C31.8113 24.5193 30.6822 23.2754 29.2944 23.2754ZM29.2944 27.4149C28.6819 27.4149 28.1836 26.8018 28.1836 26.0483C28.1836 25.2947 28.6819 24.6816 29.2944 24.6816C29.9068 24.6816 30.4051 25.2947 30.4051 26.0483C30.4051 26.8018 29.9068 27.4149 29.2944 27.4149Z" fill="white"/>
<path d="M37.9716 30.7485C37.955 30.4512 37.5345 23.4192 34.8642 19.2127C34.8096 19.1267 34.7369 19.0535 34.6513 18.9984C31.3494 16.8722 29.1003 16.8783 29.0062 16.8779C28.7334 16.8815 28.4986 17.0402 28.385 17.2694L27.2507 19.4432C26.8282 19.4155 26.4016 19.4012 25.9727 19.4012C25.5439 19.4012 25.1172 19.4155 24.6947 19.4432L23.5616 17.2719C23.4486 17.0414 23.213 16.8816 22.9392 16.878C22.8445 16.8774 20.5957 16.8724 17.2942 18.9985C17.2085 19.0536 17.1358 19.1268 17.0812 19.2128C14.4109 23.4192 13.9903 30.4512 13.9738 30.7485C13.9633 30.9349 14.0275 31.1178 14.152 31.2568C14.2759 31.395 17.2177 34.6276 21.284 34.6276C21.3021 34.6276 21.3208 34.6275 21.3391 34.6274C21.5528 34.6258 21.7541 34.5272 21.8863 34.3594L23.762 31.9792C24.4823 32.0614 25.2222 32.1043 25.9727 32.1043C26.7231 32.1043 27.4631 32.0614 28.1834 31.9792L30.059 34.3594C30.1912 34.5272 30.3926 34.6258 30.6063 34.6274C30.6248 34.6275 30.6429 34.6276 30.6614 34.6276C34.7273 34.6276 37.6696 31.395 37.7933 31.2568C37.9178 31.1178 37.982 30.9349 37.9716 30.7485ZM30.9474 33.2147L29.7747 31.7265C31.5597 31.3593 33.1619 30.7345 34.4124 29.8954C34.7349 29.6791 34.821 29.2423 34.6046 28.9198C34.3883 28.5973 33.9514 28.5112 33.629 28.7276C31.7625 29.9799 28.9719 30.698 25.9727 30.698C22.9736 30.698 20.183 29.9799 18.3163 28.7278C17.9938 28.5115 17.5571 28.5976 17.3407 28.92C17.1244 29.2425 17.2105 29.6793 17.533 29.8956C18.7836 30.7345 20.3857 31.3594 22.1706 31.7266L20.9981 33.2147C18.245 33.0869 16.054 31.1616 15.3998 30.5227C15.509 29.1603 16.0757 23.5413 18.1871 20.0968C20.2604 18.7881 21.8251 18.4241 22.5239 18.3229L23.191 19.6013C21.6225 19.8303 20.153 20.2512 18.9013 20.8405C18.55 21.0059 18.3993 21.4248 18.5647 21.7762C18.7301 22.1275 19.149 22.2781 19.5003 22.1128C21.2884 21.271 23.587 20.8074 25.9727 20.8074C28.3585 20.8074 30.6571 21.2711 32.4451 22.113C32.5419 22.1586 32.6438 22.1802 32.7442 22.1802C33.008 22.1802 33.2609 22.0309 33.3808 21.7764C33.5462 21.4251 33.3955 21.0062 33.0441 20.8407C31.7924 20.2514 30.3229 19.8304 28.7543 19.6014L29.4214 18.323C30.1202 18.4242 31.6849 18.7882 33.7583 20.0969C35.8673 23.5377 36.4359 29.1626 36.5455 30.524C35.893 31.1643 33.7118 33.088 30.9474 33.2147Z" fill="white"/>
</g>
<defs>
<clipPath id="clip0_886_6999">
<rect width="24" height="24" fill="white" transform="translate(13.9727 13.7529)"/>
</clipPath>
</defs>
</svg>
