<svg width="392" height="407" viewBox="0 0 392 407" fill="none" xmlns="http://www.w3.org/2000/svg">
<g opacity="0.5">
<g opacity="0.2">
<path d="M1.29343 66.2093L0.447266 67.0488L336.544 405.664L337.39 404.824L1.29343 66.2093Z" fill="#5438DC"/>
<path d="M38.5627 64.8155L37.7197 65.6583L336.107 365.272L336.949 364.429L38.5627 64.8155Z" fill="#5438DC"/>
<path d="M172.329 218.716L172.99 219.378L391.446 0.839936L390.784 0.178483L172.329 218.716Z" fill="#5438DC"/>
<path d="M74.872 405.652L75.7148 406.495L216.933 265.223L216.09 264.38L74.872 405.652Z" fill="#5438DC"/>
<path d="M52.8848 183.677L52.8848 184.869L192.399 184.843L192.399 183.651L52.8848 183.677Z" fill="#5438DC"/>
<path d="M52.8848 362.435L52.8848 363.627L338.808 363.573L338.808 362.381L52.8848 362.435Z" fill="#5438DC"/>
<path d="M155.795 333.27L155.795 334.462L356.313 334.424L356.313 333.232L155.795 333.27Z" fill="#5438DC"/>
<path d="M155.795 84.4818L155.795 85.6738L356.313 85.6359L356.313 84.4439L155.795 84.4818Z" fill="#5438DC"/>
<path d="M172.342 218.729L172.98 219.367L383.777 8.49052L383.139 7.85225L172.342 218.729Z" fill="#5438DC"/>
</g>
<path d="M64.9932 221.798C64.9934 189.383 103.981 173.068 127.074 195.522L127.616 196.061L179.544 248.495C193.495 262.597 193.675 285.159 180.087 299.45L179.43 300.125L127.502 352.05C104.405 375.108 64.9932 358.752 64.9932 326.159V221.798Z" fill="white" stroke="#5438DC" stroke-width="1.6424"/>
<path d="M291.344 101.441C323.291 69.1442 378.323 91.8054 378.323 137.208V138.029H378.362V281.332C378.362 326.656 323.601 349.321 291.536 317.292H291.537L219.835 245.582C200.181 225.926 199.951 194.243 219.184 174.324L219.642 173.856L291.344 101.441Z" fill="white" stroke="#5438DC" stroke-width="1.6424"/>
</g>
</svg>
