<svg width="80" height="81" viewBox="0 0 80 81" fill="none" xmlns="http://www.w3.org/2000/svg">
<path d="M69.0744 0.649414H10.7478C5.08809 0.649414 0.5 5.31197 0.5 11.0635V70.3368C0.5 76.0883 5.08809 80.7509 10.7478 80.7509H69.0744C74.7341 80.7509 79.3222 76.0883 79.3222 70.3368V11.0635C79.3222 5.31197 74.7341 0.649414 69.0744 0.649414Z" fill="url(#paint0_linear_885_503)"/>
<path d="M14.0234 40.2231V57.6555C14.0234 63.2256 20.6499 66.0145 24.5245 62.077L33.0599 53.4031C35.4527 50.9714 35.464 47.0301 33.0826 44.5832L24.5472 35.8247C20.6802 31.8565 14.0234 34.6377 14.0234 40.2231Z" fill="white"/>
<path d="M65.7995 26.1298V50.2002C65.7995 57.8907 56.6517 61.7399 51.2991 56.3042L39.5166 44.3305C36.2128 40.9731 36.1977 35.5298 39.4864 32.1532L51.2689 20.0604C56.6064 14.5825 65.7995 18.4239 65.7995 26.1336V26.1298Z" fill="#D5D4FF"/>
<defs>
<linearGradient id="paint0_linear_885_503" x1="75.0545" y1="76.5561" x2="1.20406" y2="3.59779" gradientUnits="userSpaceOnUse">
<stop stop-color="#6F03E0"/>
<stop offset="1" stop-color="#2D11A5"/>
</linearGradient>
</defs>
</svg>
