<svg width="391" height="407" viewBox="0 0 391 407" fill="none" xmlns="http://www.w3.org/2000/svg">
<g opacity="0.5">
<g opacity="0.2">
<path d="M0.846159 66.2093L0 67.0488L336.096 405.664L336.943 404.824L0.846159 66.2093Z" fill="#C2B8FF"/>
<path d="M38.1154 64.8155L37.2725 65.6583L335.659 365.272L336.502 364.429L38.1154 64.8155Z" fill="#C2B8FF"/>
<path d="M171.882 218.716L172.543 219.378L390.998 0.839936L390.337 0.178483L171.882 218.716Z" fill="#C2B8FF"/>
<path d="M74.4247 405.652L75.2676 406.495L216.486 265.223L215.643 264.38L74.4247 405.652Z" fill="#C2B8FF"/>
<path d="M52.4375 183.677L52.4375 184.869L191.951 184.843L191.951 183.651L52.4375 183.677Z" fill="#C2B8FF"/>
<path d="M52.4375 362.435L52.4375 363.627L338.361 363.573L338.361 362.381L52.4375 362.435Z" fill="#C2B8FF"/>
<path d="M155.348 333.27L155.348 334.462L355.866 334.424L355.866 333.232L155.348 333.27Z" fill="#C2B8FF"/>
<path d="M155.348 84.4818L155.348 85.6738L355.866 85.6359L355.866 84.4439L155.348 84.4818Z" fill="#C2B8FF"/>
<path d="M171.895 218.729L172.533 219.367L383.33 8.49052L382.692 7.85225L171.895 218.729Z" fill="#C2B8FF"/>
</g>
<path d="M64.5459 221.798C64.5461 189.383 103.534 173.068 126.627 195.522L127.169 196.061L179.097 248.495C193.048 262.597 193.228 285.159 179.64 299.45L178.982 300.125L127.055 352.05C103.958 375.108 64.5459 358.752 64.5459 326.159V221.798Z" fill="#2C1A53" stroke="#C2B8FF" stroke-width="1.6424"/>
<path d="M290.896 101.441C322.843 69.1442 377.876 91.8054 377.876 137.208V138.029H377.915V281.332C377.915 326.656 323.154 349.321 291.089 317.292H291.09L219.388 245.582C199.733 225.926 199.504 194.243 218.736 174.324L219.194 173.856L290.896 101.441Z" fill="#2C1A53" stroke="#C2B8FF" stroke-width="1.6424"/>
</g>
</svg>
