<svg width="213" height="211" viewBox="0 0 213 211" fill="none" xmlns="http://www.w3.org/2000/svg">
<g clip-path="url(#clip0_1401_342)">
<path d="M160.9 121.759C168.84 121.759 175.278 115.353 175.278 107.451C175.278 99.5493 168.84 93.1436 160.9 93.1436C152.959 93.1436 146.521 99.5493 146.521 107.451C146.521 115.353 152.959 121.759 160.9 121.759Z" fill="#C2B8FF"/>
<path d="M176.188 116.305L212.439 106.87L176.188 97.6553C176.188 97.6553 179.027 102.528 178.834 106.992C178.612 112.09 176.188 116.305 176.188 116.305Z" fill="#C2B8FF"/>
<path d="M168.706 124.979C165.23 123.341 161.121 123.988 158.394 124.251C155.875 124.495 150.837 125.838 146.564 128.645C142.29 131.452 138.332 131.471 136.431 131.128C134.53 130.785 128.27 115.239 126.492 114.182C120.171 110.413 119.727 120.059 125.426 130.931C131.124 141.802 134.568 143.455 140.389 142.276C144.233 141.497 146.823 141.108 148.182 141.45L138.379 196.667H148.903C148.851 202.103 148.818 205.675 148.818 205.675C148.818 205.675 145.851 206.44 144.186 207.858C142.521 209.275 152.38 210.444 154.635 209.148C156.781 207.919 160.498 197.676 160.861 196.662H163.423L166.984 205.44C166.984 205.44 162.517 207.144 162.022 208.679C161.522 210.214 169.716 210.791 171.975 209.144C172.56 208.717 173.183 203.821 173.725 196.657H191.396C191.401 196.667 183.245 128.293 168.706 124.979Z" fill="#C2B8FF"/>
</g>
<path d="M28.248 119.403L30.1812 117.338L32.0399 119.403L30.1812 121.759L28.248 119.403Z" fill="#C2B8FF"/>
<path d="M171.486 12.8578L173.419 10.793L175.278 12.8578L173.419 15.2137L171.486 12.8578Z" fill="#C2B8FF"/>
<path d="M3.56055 123.121L5.4937 121.056L7.35241 123.121L5.4937 125.476L3.56055 123.121Z" fill="#C2B8FF"/>
<path d="M0 92.8618L3.74895 88.8574L7.35352 92.8618L3.74895 97.4304L0 92.8618Z" fill="#C2B8FF"/>
<path d="M139.512 3.1043L142.418 0L145.212 3.1043L142.418 6.64604L139.512 3.1043Z" fill="#C2B8FF"/>
<path d="M156.414 45.7109L162.397 39.3203L168.15 45.7109L162.397 53.002L156.414 45.7109Z" fill="#C2B8FF"/>
<defs>
<clipPath id="clip0_1401_342">
<rect width="91" height="117" fill="white" transform="translate(121.436 93.1436)"/>
</clipPath>
</defs>
</svg>
