<svg width="62" height="56" viewBox="0 0 62 56" fill="none" xmlns="http://www.w3.org/2000/svg">
<path d="M32.673 16.7582C36.4403 12.992 42.1983 18.6867 38.4904 22.5006C34.737 26.3621 28.8874 20.542 32.673 16.7582Z" fill="white"/>
<path d="M24.9583 15.712C31.7116 14.5785 31.3803 24.6095 25.2822 23.6709C20.8245 22.9851 20.9403 16.3869 24.9583 15.712Z" fill="white"/>
<path d="M25.5473 32.278C30.2322 31.7064 31.9018 38.7655 27.1656 40.1973C21.5528 41.8943 19.7161 32.9894 25.5473 32.278Z" fill="white"/>
<path d="M20.1206 24.068C26.1951 23.0481 26.8115 31.4144 21.6604 32.0548C16.2983 32.7208 15.6181 24.8242 20.1206 24.068Z" fill="white"/>
<path d="M39.913 23.9239C43.3666 23.507 45.7904 27.4762 43.6737 30.3206C41.9257 32.669 38.3379 32.5364 36.8662 29.9711C35.415 27.4403 37.056 24.2683 39.913 23.9239Z" fill="white"/>
<path d="M35.0761 32.2768C40.4229 31.5785 41.2701 39.6334 36.3456 40.2855C30.5656 41.0512 29.9675 32.9435 35.0761 32.2768Z" fill="white"/>
<path d="M16.1681 33.8825C18.7619 33.5022 19.9398 37.1666 17.6786 38.3295C14.2229 40.1078 12.6302 34.4013 16.1681 33.8825Z" fill="white"/>
<path d="M30.5366 9.1156C32.956 8.87673 34.1177 12.2436 31.99 13.5105C28.5672 15.549 26.6821 9.49589 30.5366 9.1156Z" fill="white"/>
<path d="M30.3906 42.0885C32.0947 41.9243 33.4323 43.6558 32.8349 45.2773C32.1189 47.2205 29.5814 47.4081 28.537 45.6253C27.6758 44.154 28.7796 42.2438 30.3906 42.0885Z" fill="white"/>
<path d="M44.7524 17.3177C47.3991 16.9528 48.508 20.9 45.9574 21.9038C42.5918 23.2286 41.3194 17.791 44.7524 17.3177Z" fill="white"/>
<path d="M14.7876 21.4898C12.4283 19.1311 16.4287 15.603 18.4039 18.3874C20.1337 20.8252 16.738 23.4396 14.7876 21.4898Z" fill="white"/>
<path d="M43.3706 37.9045C41.4129 35.9474 44.0148 32.5504 46.4738 34.2892C49.2033 36.2199 45.738 40.2705 43.3706 37.9045Z" fill="white"/>
<path d="M40.7883 7.50395C44.4669 6.66131 44.0682 12.4235 40.7238 11.3163C38.8424 10.6935 39.1421 7.88131 40.7883 7.50395Z" fill="white"/>
<path d="M40.9358 44.5829C43.9782 43.9521 44.3337 48.0861 41.8923 48.4715C39.2354 48.8907 38.6542 45.0556 40.9358 44.5829Z" fill="white"/>
<path d="M51.7874 25.9707C54.7924 25.4937 55.0709 30.1707 51.8988 29.8937C49.6729 29.6996 49.6003 26.3173 51.7874 25.9707Z" fill="white"/>
<path d="M18.5978 10.94C16.7017 9.02757 19.7471 6.02558 21.5582 8.20032C23.3113 10.3062 20.2315 12.5872 18.5978 10.94Z" fill="white"/>
<path d="M19.6812 44.5831C22.4334 44.0841 22.8629 47.9302 20.7579 48.4417C17.7536 49.1722 17.209 45.0316 19.6812 44.5831Z" fill="white"/>
<path d="M8.83164 26.1175C12.1159 25.4346 12.19 30.382 9.10796 30.031C6.88423 29.7775 6.86004 26.5279 8.83164 26.1175Z" fill="white"/>
<path d="M29.4455 55.4888C27.8096 53.7742 30.734 51.4441 32.0357 53.4129C33.1849 55.1517 30.7809 56.889 29.4455 55.4888Z" fill="white"/>
<path d="M53.4021 39.449C55.5863 39.1508 55.8817 42.5844 53.7884 42.7888C51.6783 42.9947 51.2356 39.745 53.4021 39.449Z" fill="white"/>
<path d="M9.11676 13.6774C10.8091 15.3693 7.83852 17.8899 6.55002 15.7312C5.53783 14.0357 7.77475 12.3358 9.11676 13.6774Z" fill="white"/>
<path d="M30.3863 0.0296063C32.7332 -0.351413 33.0542 3.06677 30.87 3.30417C28.8222 3.52619 28.3935 0.353473 30.3863 0.0296063Z" fill="white"/>
<path d="M52.9539 13.2186C55.6225 12.609 55.9728 16.2829 53.6509 16.4162C51.6647 16.5305 51.3832 13.5769 52.9539 13.2186Z" fill="white"/>
<path d="M7.66606 39.5957C9.94183 39.2264 10.1786 42.3529 8.61888 42.7515C5.99863 43.422 5.6395 39.9247 7.66606 39.5957Z" fill="white"/>
<path d="M15.8674 1.63817C17.8045 1.21099 18.0816 4.14484 16.2631 4.24595C14.7819 4.32802 14.3788 1.96643 15.8674 1.63817Z" fill="white"/>
<path d="M60.7175 27.0095C62.072 28.4903 59.5742 30.1793 58.6529 28.5629C57.8393 27.1355 59.8197 26.0276 60.7175 27.0095Z" fill="white"/>
<path d="M46.2047 1.95083C47.4353 3.29685 45.1471 5.07519 44.1327 3.51081C43.221 2.1047 45.2453 0.900829 46.2047 1.95083Z" fill="white"/>
<path d="M45.1886 51.7595C46.8802 51.5946 47.2049 54.3885 45.2978 54.3716C43.7762 54.3577 43.5945 51.9155 45.1886 51.7595Z" fill="white"/>
<path d="M15.3696 52.2162C16.266 51.2358 18.2464 52.3371 17.4343 53.7696C16.4961 55.4248 14.0826 53.623 15.3696 52.2162Z" fill="white"/>
<path d="M1.35622 26.8477C3.68329 26.3238 3.51764 29.9654 1.24334 29.2415C0.213568 28.914 0.256079 27.0953 1.35622 26.8477Z" fill="white"/>
</svg>
