<svg width="800" height="587" viewBox="0 0 800 587" fill="none" xmlns="http://www.w3.org/2000/svg">
<path d="M16.002 0.21582C7.16544 0.215873 0.00195338 7.3793 0.00195312 16.2158V571C0.00195312 579.837 7.16545 587 16.002 587H784.002C792.839 587 800.002 579.837 800.002 571V16.2158C800.002 7.37927 792.838 0.215834 784.002 0.21582H486.849C480.47 0.21582 474.869 4.13397 471.285 9.41112C461.212 24.2433 444.207 33.9873 424.927 33.9873H377.39C358.109 33.9873 341.105 24.2433 331.031 9.4111C327.447 4.13396 321.846 0.21582 315.467 0.21582H16.002Z" fill="#5438DC"/>
<g opacity="0.2">
<mask id="mask0_596_494" style="mask-type:alpha" maskUnits="userSpaceOnUse" x="2" y="0" width="798" height="587">
<path d="M18.3086 0.21582C9.47212 0.215911 2.30859 7.37932 2.30859 16.2158V571C2.30859 579.836 9.47212 587 18.3086 587H783.996C792.833 587 799.996 579.837 799.996 571V16.2158C799.996 7.37926 792.833 0.21582 783.996 0.21582H487.767C481.388 0.21582 475.787 4.13396 472.203 9.4111C462.13 24.2433 445.125 33.9873 425.845 33.9873H378.769C359.488 33.9873 342.483 24.2433 332.41 9.41113C328.826 4.13398 323.225 0.21582 316.846 0.21582H18.3086Z" fill="#5438DC"/>
</mask>
<g mask="url(#mask0_596_494)">
<path d="M727.676 273.533V-560.077" stroke="#C8BDFF" stroke-width="0.622868" stroke-dasharray="3.74 3.74"/>
<path d="M647.318 273.533V-560.077" stroke="#C8BDFF" stroke-width="0.622868" stroke-dasharray="3.74 3.74"/>
<path d="M565.225 273.533V-560.077" stroke="#C8BDFF" stroke-width="0.622868" stroke-dasharray="3.74 3.74"/>
<path d="M484.863 273.533V-560.077" stroke="#C8BDFF" stroke-width="0.622868" stroke-dasharray="3.74 3.74"/>
<path d="M402.758 273.533V-560.077" stroke="#C8BDFF" stroke-width="0.622868" stroke-dasharray="3.74 3.74"/>
<path d="M322.408 273.533V-560.077" stroke="#C8BDFF" stroke-width="0.622868" stroke-dasharray="3.74 3.74"/>
<path d="M240.307 273.533V-560.077" stroke="#C8BDFF" stroke-width="0.622868" stroke-dasharray="3.74 3.74"/>
<path d="M159.945 273.533V-560.077" stroke="#C8BDFF" stroke-width="0.622868" stroke-dasharray="3.74 3.74"/>
<path d="M77.8398 273.533V-560.077" stroke="#C8BDFF" stroke-width="0.622868" stroke-dasharray="3.74 3.74"/>
<path d="M-80.9277 236.312H869.361" stroke="#C8BDFF" stroke-width="0.622868" stroke-dasharray="3.74 3.74"/>
<path d="M-80.9277 190.28H869.361" stroke="#C8BDFF" stroke-width="0.622868" stroke-dasharray="3.74 3.74"/>
<path d="M-80.9277 144.244H869.361" stroke="#C8BDFF" stroke-width="0.622868" stroke-dasharray="3.74 3.74"/>
<path d="M-80.9277 98.2119H869.361" stroke="#C8BDFF" stroke-width="0.622868" stroke-dasharray="3.74 3.74"/>
<path d="M-80.9277 53.1768H869.361" stroke="#C8BDFF" stroke-width="0.622868" stroke-dasharray="3.74 3.74"/>
<path d="M-80.9277 7.14551H869.361" stroke="#C8BDFF" stroke-width="0.622868" stroke-dasharray="3.74 3.74"/>
<path d="M727.676 1097.42V263.807" stroke="#C8BDFF" stroke-width="0.622868" stroke-dasharray="3.74 3.74"/>
<path d="M647.318 1097.42V263.807" stroke="#C8BDFF" stroke-width="0.622868" stroke-dasharray="3.74 3.74"/>
<path d="M565.225 1097.42V263.807" stroke="#C8BDFF" stroke-width="0.622868" stroke-dasharray="3.74 3.74"/>
<path d="M484.863 1097.42V263.807" stroke="#C8BDFF" stroke-width="0.622868" stroke-dasharray="3.74 3.74"/>
<path d="M402.758 1097.42V263.807" stroke="#C8BDFF" stroke-width="0.622868" stroke-dasharray="3.74 3.74"/>
<path d="M322.408 1097.42V263.807" stroke="#C8BDFF" stroke-width="0.622868" stroke-dasharray="3.74 3.74"/>
<path d="M240.307 1097.42V263.807" stroke="#C8BDFF" stroke-width="0.622868" stroke-dasharray="3.74 3.74"/>
<path d="M159.945 1097.42V263.807" stroke="#C8BDFF" stroke-width="0.622868" stroke-dasharray="3.74 3.74"/>
<path d="M77.8398 1097.42V263.807" stroke="#C8BDFF" stroke-width="0.622868" stroke-dasharray="3.74 3.74"/>
<path d="M-80.9277 555.826H869.361" stroke="#C8BDFF" stroke-width="0.622868" stroke-dasharray="3.74 3.74"/>
<path d="M-80.9277 510.794H869.361" stroke="#C8BDFF" stroke-width="0.622868" stroke-dasharray="3.74 3.74"/>
<path d="M-80.9277 464.76H869.361" stroke="#C8BDFF" stroke-width="0.622868" stroke-dasharray="3.74 3.74"/>
<path d="M-80.9277 418.726H869.361" stroke="#C8BDFF" stroke-width="0.622868" stroke-dasharray="3.74 3.74"/>
<path d="M-80.9277 372.693H869.361" stroke="#C8BDFF" stroke-width="0.622868" stroke-dasharray="3.74 3.74"/>
<path d="M-80.9277 327.659H869.361" stroke="#C8BDFF" stroke-width="0.622868" stroke-dasharray="3.74 3.74"/>
<path d="M-80.9277 281.627H869.361" stroke="#C8BDFF" stroke-width="0.622868" stroke-dasharray="3.74 3.74"/>
</g>
</g>
</svg>
