<svg width="761" height="811" viewBox="0 0 761 811" fill="none" xmlns="http://www.w3.org/2000/svg">
<rect width="339" height="216" rx="16" fill="#20164E"/>
<path d="M161.31 100.767C165.516 104.531 169.286 104.397 173.241 100.767C177.842 96.654 182.195 92.204 186.33 87.6097C189.554 84.027 189.276 78.9318 186.232 75.888C183.312 72.9698 178.737 72.8249 174.934 75.5414C171.341 78.1092 169.305 79.3466 167.266 79.3865C165.234 79.3372 163.195 78.0989 159.617 75.5414C155.813 72.8249 151.238 72.9698 148.319 75.888C145.275 78.9318 144.996 84.027 148.221 87.6097C152.356 92.204 156.709 96.654 161.31 100.767Z" fill="url(#paint0_linear_2012_1646)"/>
<g style="mix-blend-mode:overlay" filter="url(#filter0_f_2012_1646)">
<circle cx="155.089" cy="81.705" r="7.4042" fill="black"/>
</g>
<path d="M134.81 62.3384C131.046 66.5447 131.18 70.3146 134.81 74.2689C138.923 78.8703 143.373 83.2234 147.967 87.3582C151.55 90.5826 156.645 90.3042 159.689 87.2604C162.607 84.3408 162.752 79.7657 160.035 75.962C157.467 72.3689 156.23 70.3335 156.19 68.2942C156.24 66.2626 157.478 64.2233 160.035 60.6453C162.752 56.8416 162.607 52.2665 159.689 49.3469C156.645 46.3031 151.55 46.0247 147.967 49.2491C143.373 53.3839 138.923 57.737 134.81 62.3384Z" fill="url(#paint1_linear_2012_1646)"/>
<g style="mix-blend-mode:overlay" filter="url(#filter1_f_2012_1646)">
<circle cx="153.035" cy="56.2326" r="7.40495" fill="black"/>
</g>
<path d="M173.239 35.8412C169.032 32.0774 165.263 32.2114 161.308 35.8412C156.707 39.9539 152.354 44.4039 148.219 48.9982C144.995 52.5809 145.273 57.6761 148.317 60.7199C151.236 63.6381 155.811 63.783 159.615 61.0665C163.208 58.4987 165.244 57.2613 167.283 57.2214C169.315 57.2708 171.354 58.509 174.932 61.0665C178.736 63.783 183.311 63.6381 186.23 60.7199C189.274 57.6762 189.552 52.5809 186.328 48.9982C182.193 44.4039 177.84 39.9539 173.239 35.8412Z" fill="url(#paint2_linear_2012_1646)"/>
<g style="mix-blend-mode:overlay" filter="url(#filter2_f_2012_1646)">
<circle cx="179.266" cy="54.903" r="7.404" fill="black"/>
</g>
<path d="M199.74 74.2685C203.504 70.0622 203.37 66.2923 199.74 62.338C195.627 57.7366 191.177 53.3836 186.583 49.2487C183 46.0243 177.905 46.3028 174.861 49.3465C171.943 52.2661 171.798 56.8412 174.515 60.645C177.082 64.238 178.32 66.2735 178.36 68.3127C178.31 70.3444 177.072 72.3836 174.515 75.9616C171.798 79.7654 171.943 84.3404 174.861 87.26C177.905 90.3038 183 90.5822 186.583 87.3579C191.177 83.223 195.627 78.8699 199.74 74.2685Z" fill="url(#paint3_linear_2012_1646)"/>
<g style="mix-blend-mode:overlay" filter="url(#filter3_f_2012_1646)">
<circle cx="180.451" cy="80.3886" r="7.41885" fill="black"/>
</g>
<mask id="mask0_2012_1646" style="mask-type:alpha" maskUnits="userSpaceOnUse" x="166" y="73" width="23" height="31">
<rect x="166.089" y="73.5972" width="22.5417" height="29.9418" fill="#D9D9D9"/>
</mask>
<g mask="url(#mask0_2012_1646)">
<path d="M161.306 100.767C165.513 104.531 169.282 104.397 173.237 100.767C177.838 96.654 182.191 92.204 186.326 87.6097C189.55 84.027 189.272 78.9318 186.228 75.888C183.309 72.9698 178.734 72.8249 174.93 75.5414C171.337 78.1092 169.301 79.3466 167.262 79.3865C165.23 79.3372 163.191 78.0989 159.613 75.5414C155.809 72.8249 151.234 72.9698 148.315 75.888C145.271 78.9318 144.992 84.027 148.217 87.6097C152.352 92.204 156.705 96.654 161.306 100.767Z" fill="url(#paint4_linear_2012_1646)"/>
</g>
<circle cx="167.276" cy="68.3028" r="11.1246" fill="white"/>
<circle cx="167.274" cy="68.304" r="5.99691" fill="#160033"/>
<path d="M81.8343 149L87.8103 131.48H93.3783L99.5223 149H96.0183L90.8103 133.808L92.0343 134.336H89.0343L90.2823 133.808L85.2423 149H81.8343ZM86.0103 144.344L87.0903 141.464H94.1943L95.2503 144.344H86.0103ZM101.861 149V135.968H104.501V141.488H104.429C104.429 139.616 104.829 138.2 105.629 137.24C106.429 136.28 107.605 135.8 109.157 135.8H109.637V138.704H108.725C107.605 138.704 106.733 139.008 106.109 139.616C105.501 140.208 105.197 141.072 105.197 142.208V149H101.861ZM116.863 154.136C116.239 154.136 115.599 154.112 114.943 154.064C114.303 154.016 113.703 153.952 113.143 153.872V151.088C113.719 151.152 114.335 151.208 114.991 151.256C115.647 151.32 116.263 151.352 116.839 151.352C117.911 151.352 118.775 151.224 119.431 150.968C120.103 150.712 120.591 150.304 120.895 149.744C121.215 149.2 121.375 148.504 121.375 147.656V145.088L122.095 143.456C122.047 144.656 121.799 145.68 121.351 146.528C120.903 147.36 120.295 148 119.527 148.448C118.759 148.88 117.871 149.096 116.863 149.096C115.967 149.096 115.151 148.928 114.415 148.592C113.695 148.256 113.071 147.792 112.543 147.2C112.031 146.608 111.631 145.912 111.343 145.112C111.055 144.312 110.911 143.456 110.911 142.544V142.04C110.911 141.128 111.055 140.28 111.343 139.496C111.647 138.696 112.071 138 112.615 137.408C113.159 136.816 113.807 136.36 114.559 136.04C115.311 135.72 116.143 135.56 117.055 135.56C118.127 135.56 119.055 135.792 119.839 136.256C120.639 136.72 121.263 137.392 121.711 138.272C122.159 139.152 122.407 140.232 122.455 141.512L121.879 141.608V135.968H124.519V147.464C124.519 149.048 124.247 150.328 123.703 151.304C123.159 152.28 122.319 152.992 121.183 153.44C120.063 153.904 118.623 154.136 116.863 154.136ZM117.823 146.24C118.463 146.24 119.047 146.096 119.575 145.808C120.103 145.52 120.527 145.104 120.847 144.56C121.167 144.016 121.327 143.36 121.327 142.592V141.752C121.327 141.016 121.159 140.392 120.823 139.88C120.503 139.368 120.079 138.984 119.551 138.728C119.023 138.456 118.447 138.32 117.823 138.32C117.119 138.32 116.495 138.488 115.951 138.824C115.423 139.144 115.007 139.6 114.703 140.192C114.399 140.784 114.247 141.488 114.247 142.304C114.247 143.104 114.399 143.8 114.703 144.392C115.007 144.984 115.423 145.44 115.951 145.76C116.495 146.08 117.119 146.24 117.823 146.24ZM132.598 149.408C131.094 149.408 129.926 148.912 129.094 147.92C128.278 146.928 127.87 145.456 127.87 143.504V135.944H131.206V143.792C131.206 144.592 131.43 145.232 131.878 145.712C132.326 146.176 132.934 146.408 133.702 146.408C134.47 146.408 135.094 146.16 135.574 145.664C136.07 145.168 136.318 144.496 136.318 143.648V135.944H139.654V149H137.014V143.456H137.278C137.278 144.768 137.11 145.864 136.774 146.744C136.438 147.624 135.934 148.288 135.262 148.736C134.59 149.184 133.75 149.408 132.742 149.408H132.598ZM148.214 149.408C146.422 149.408 145.014 149.032 143.99 148.28C142.982 147.512 142.454 146.456 142.406 145.112H145.406C145.454 145.56 145.702 145.968 146.15 146.336C146.598 146.704 147.302 146.888 148.262 146.888C149.062 146.888 149.694 146.744 150.158 146.456C150.638 146.168 150.878 145.776 150.878 145.28C150.878 144.848 150.694 144.504 150.326 144.248C149.974 143.992 149.366 143.824 148.502 143.744L147.35 143.624C145.894 143.464 144.774 143.048 143.99 142.376C143.206 141.704 142.814 140.808 142.814 139.688C142.814 138.792 143.038 138.04 143.486 137.432C143.934 136.824 144.55 136.368 145.334 136.064C146.134 135.744 147.046 135.584 148.07 135.584C149.67 135.584 150.966 135.936 151.958 136.64C152.95 137.344 153.47 138.376 153.518 139.736H150.518C150.486 139.288 150.262 138.904 149.846 138.584C149.43 138.264 148.83 138.104 148.046 138.104C147.342 138.104 146.798 138.24 146.414 138.512C146.03 138.784 145.838 139.136 145.838 139.568C145.838 139.984 145.99 140.304 146.294 140.528C146.614 140.752 147.126 140.904 147.83 140.984L148.982 141.104C150.518 141.264 151.718 141.688 152.582 142.376C153.462 143.064 153.902 143.992 153.902 145.16C153.902 146.024 153.662 146.776 153.182 147.416C152.718 148.04 152.062 148.528 151.214 148.88C150.366 149.232 149.366 149.408 148.214 149.408ZM162.149 149V131.48H165.557V149H162.149ZM169.666 149V135.968H172.306V141.56H172.066C172.066 140.232 172.242 139.128 172.594 138.248C172.946 137.352 173.466 136.68 174.154 136.232C174.858 135.784 175.73 135.56 176.77 135.56H176.914C178.466 135.56 179.642 136.064 180.442 137.072C181.242 138.064 181.642 139.552 181.642 141.536V149H178.306V141.248C178.306 140.448 178.074 139.8 177.61 139.304C177.162 138.808 176.538 138.56 175.738 138.56C174.922 138.56 174.258 138.816 173.746 139.328C173.25 139.824 173.002 140.496 173.002 141.344V149H169.666ZM190.628 149.432C189.716 149.432 188.876 149.264 188.108 148.928C187.34 148.592 186.676 148.12 186.116 147.512C185.556 146.904 185.124 146.2 184.82 145.4C184.516 144.584 184.364 143.704 184.364 142.76V142.256C184.364 141.328 184.508 140.456 184.796 139.64C185.1 138.824 185.516 138.112 186.044 137.504C186.588 136.896 187.236 136.424 187.988 136.088C188.756 135.736 189.604 135.56 190.532 135.56C191.556 135.56 192.452 135.784 193.22 136.232C194.004 136.664 194.628 137.32 195.092 138.2C195.556 139.08 195.812 140.184 195.86 141.512L194.876 140.36V131.48H198.212V149H195.572V143.456H196.148C196.1 144.784 195.828 145.896 195.332 146.792C194.836 147.672 194.18 148.336 193.364 148.784C192.564 149.216 191.652 149.432 190.628 149.432ZM191.372 146.624C192.028 146.624 192.628 146.48 193.172 146.192C193.716 145.888 194.148 145.456 194.468 144.896C194.804 144.32 194.972 143.648 194.972 142.88V141.92C194.972 141.152 194.804 140.512 194.468 140C194.132 139.472 193.692 139.072 193.148 138.8C192.604 138.512 192.012 138.368 191.372 138.368C190.652 138.368 190.012 138.544 189.452 138.896C188.908 139.232 188.476 139.712 188.156 140.336C187.852 140.96 187.7 141.688 187.7 142.52C187.7 143.352 187.86 144.08 188.18 144.704C188.5 145.312 188.932 145.784 189.476 146.12C190.036 146.456 190.668 146.624 191.372 146.624ZM207.841 149.456C206.721 149.456 205.737 149.264 204.889 148.88C204.057 148.496 203.361 147.984 202.801 147.344C202.257 146.688 201.841 145.96 201.553 145.16C201.281 144.36 201.145 143.544 201.145 142.712V142.256C201.145 141.392 201.281 140.56 201.553 139.76C201.841 138.944 202.257 138.224 202.801 137.6C203.361 136.96 204.049 136.456 204.865 136.088C205.681 135.704 206.625 135.512 207.697 135.512C209.105 135.512 210.281 135.824 211.225 136.448C212.185 137.056 212.905 137.864 213.385 138.872C213.865 139.864 214.105 140.936 214.105 142.088V143.288H202.561V141.248H212.017L210.985 142.256C210.985 141.424 210.865 140.712 210.625 140.12C210.385 139.528 210.017 139.072 209.521 138.752C209.041 138.432 208.433 138.272 207.697 138.272C206.961 138.272 206.337 138.44 205.825 138.776C205.313 139.112 204.921 139.6 204.649 140.24C204.393 140.864 204.265 141.616 204.265 142.496C204.265 143.312 204.393 144.04 204.649 144.68C204.905 145.304 205.297 145.8 205.825 146.168C206.353 146.52 207.025 146.696 207.841 146.696C208.657 146.696 209.321 146.536 209.833 146.216C210.345 145.88 210.673 145.472 210.817 144.992H213.889C213.697 145.888 213.329 146.672 212.785 147.344C212.241 148.016 211.545 148.536 210.697 148.904C209.865 149.272 208.913 149.456 207.841 149.456ZM215.334 149L219.582 142.04L219.51 142.592L215.502 135.968H219.126L221.742 140.552H222.102L224.574 135.968H227.982L224.19 142.568L224.262 142.088L228.75 149H225.126L222.03 144.08H221.67L218.742 149H215.334ZM236.435 149.456C235.315 149.456 234.331 149.264 233.483 148.88C232.651 148.496 231.955 147.984 231.395 147.344C230.851 146.688 230.435 145.96 230.147 145.16C229.875 144.36 229.739 143.544 229.739 142.712V142.256C229.739 141.392 229.875 140.56 230.147 139.76C230.435 138.944 230.851 138.224 231.395 137.6C231.955 136.96 232.643 136.456 233.459 136.088C234.275 135.704 235.219 135.512 236.291 135.512C237.699 135.512 238.875 135.824 239.819 136.448C240.779 137.056 241.499 137.864 241.979 138.872C242.459 139.864 242.699 140.936 242.699 142.088V143.288H231.155V141.248H240.611L239.579 142.256C239.579 141.424 239.459 140.712 239.219 140.12C238.979 139.528 238.611 139.072 238.115 138.752C237.635 138.432 237.027 138.272 236.291 138.272C235.555 138.272 234.931 138.44 234.419 138.776C233.907 139.112 233.515 139.6 233.243 140.24C232.987 140.864 232.859 141.616 232.859 142.496C232.859 143.312 232.987 144.04 233.243 144.68C233.499 145.304 233.891 145.8 234.419 146.168C234.947 146.52 235.619 146.696 236.435 146.696C237.251 146.696 237.915 146.536 238.427 146.216C238.939 145.88 239.267 145.472 239.411 144.992H242.483C242.291 145.888 241.923 146.672 241.379 147.344C240.835 148.016 240.139 148.536 239.291 148.904C238.459 149.272 237.507 149.456 236.435 149.456ZM245.486 149V135.968H248.126V141.488H248.054C248.054 139.616 248.454 138.2 249.254 137.24C250.054 136.28 251.23 135.8 252.782 135.8H253.262V138.704H252.35C251.23 138.704 250.358 139.008 249.734 139.616C249.126 140.208 248.822 141.072 248.822 142.208V149H245.486ZM94.9359 179L100.912 161.48H106.48L112.624 179H109.12L103.912 163.808L105.136 164.336H102.136L103.384 163.808L98.3439 179H94.9359ZM99.1119 174.344L100.192 171.464H107.296L108.352 174.344H99.1119ZM114.962 183.8V165.968H117.602V171.584L117.194 171.56C117.258 170.232 117.53 169.12 118.01 168.224C118.506 167.328 119.162 166.664 119.978 166.232C120.794 165.784 121.706 165.56 122.714 165.56C123.642 165.56 124.474 165.728 125.21 166.064C125.962 166.4 126.602 166.872 127.13 167.48C127.674 168.088 128.09 168.8 128.378 169.616C128.666 170.416 128.81 171.28 128.81 172.208V172.712C128.81 173.656 128.666 174.536 128.378 175.352C128.106 176.152 127.698 176.864 127.154 177.488C126.626 178.096 125.986 178.576 125.234 178.928C124.482 179.264 123.642 179.432 122.714 179.432C121.738 179.432 120.842 179.232 120.026 178.832C119.226 178.416 118.578 177.784 118.082 176.936C117.586 176.072 117.306 174.96 117.242 173.6L118.298 175.208V183.8H114.962ZM121.874 176.624C122.594 176.624 123.218 176.448 123.746 176.096C124.29 175.744 124.714 175.256 125.018 174.632C125.322 173.992 125.474 173.272 125.474 172.472C125.474 171.64 125.322 170.92 125.018 170.312C124.714 169.704 124.29 169.232 123.746 168.896C123.218 168.544 122.594 168.368 121.874 168.368C121.218 168.368 120.61 168.512 120.05 168.8C119.506 169.088 119.058 169.512 118.706 170.072C118.37 170.632 118.202 171.304 118.202 172.088V173.048C118.202 173.8 118.378 174.44 118.73 174.968C119.082 175.496 119.538 175.904 120.098 176.192C120.658 176.48 121.25 176.624 121.874 176.624ZM131.744 183.8V165.968H134.384V171.584L133.976 171.56C134.04 170.232 134.312 169.12 134.792 168.224C135.288 167.328 135.944 166.664 136.76 166.232C137.576 165.784 138.488 165.56 139.496 165.56C140.424 165.56 141.256 165.728 141.992 166.064C142.744 166.4 143.384 166.872 143.912 167.48C144.456 168.088 144.872 168.8 145.16 169.616C145.448 170.416 145.592 171.28 145.592 172.208V172.712C145.592 173.656 145.448 174.536 145.16 175.352C144.888 176.152 144.48 176.864 143.936 177.488C143.408 178.096 142.768 178.576 142.016 178.928C141.264 179.264 140.424 179.432 139.496 179.432C138.52 179.432 137.624 179.232 136.808 178.832C136.008 178.416 135.36 177.784 134.864 176.936C134.368 176.072 134.088 174.96 134.024 173.6L135.08 175.208V183.8H131.744ZM138.656 176.624C139.376 176.624 140 176.448 140.528 176.096C141.072 175.744 141.496 175.256 141.8 174.632C142.104 173.992 142.256 173.272 142.256 172.472C142.256 171.64 142.104 170.92 141.8 170.312C141.496 169.704 141.072 169.232 140.528 168.896C140 168.544 139.376 168.368 138.656 168.368C138 168.368 137.392 168.512 136.832 168.8C136.288 169.088 135.84 169.512 135.488 170.072C135.152 170.632 134.984 171.304 134.984 172.088V173.048C134.984 173.8 135.16 174.44 135.512 174.968C135.864 175.496 136.32 175.904 136.88 176.192C137.44 176.48 138.032 176.624 138.656 176.624ZM148.693 179V161.48H152.029V179H148.693ZM147.061 163.976V161.48H152.029V163.976H147.061ZM156.461 179V165.968H159.797V179H156.461ZM154.637 168.464V165.968H159.797V168.464H154.637ZM157.685 164.408C157.029 164.408 156.541 164.24 156.221 163.904C155.917 163.552 155.765 163.12 155.765 162.608C155.765 162.064 155.917 161.624 156.221 161.288C156.541 160.952 157.029 160.784 157.685 160.784C158.341 160.784 158.821 160.952 159.125 161.288C159.429 161.624 159.581 162.064 159.581 162.608C159.581 163.12 159.429 163.552 159.125 163.904C158.821 164.24 158.341 164.408 157.685 164.408ZM169.426 179.456C168.29 179.456 167.306 179.264 166.474 178.88C165.658 178.496 164.97 177.984 164.41 177.344C163.866 176.704 163.458 175.984 163.186 175.184C162.914 174.384 162.778 173.568 162.778 172.736V172.28C162.778 171.4 162.914 170.56 163.186 169.76C163.474 168.944 163.898 168.224 164.458 167.6C165.018 166.96 165.706 166.456 166.522 166.088C167.354 165.704 168.314 165.512 169.402 165.512C170.538 165.512 171.554 165.736 172.45 166.184C173.346 166.616 174.058 167.224 174.586 168.008C175.13 168.792 175.434 169.704 175.498 170.744H172.258C172.178 170.072 171.89 169.512 171.394 169.064C170.914 168.616 170.25 168.392 169.402 168.392C168.666 168.392 168.05 168.568 167.554 168.92C167.074 169.272 166.714 169.76 166.474 170.384C166.234 170.992 166.114 171.696 166.114 172.496C166.114 173.264 166.226 173.96 166.45 174.584C166.69 175.208 167.05 175.696 167.53 176.048C168.026 176.4 168.658 176.576 169.426 176.576C170.002 176.576 170.498 176.472 170.914 176.264C171.33 176.056 171.658 175.768 171.898 175.4C172.154 175.032 172.314 174.616 172.378 174.152H175.618C175.554 175.208 175.242 176.136 174.682 176.936C174.138 177.72 173.41 178.336 172.498 178.784C171.602 179.232 170.578 179.456 169.426 179.456ZM186.187 179V175.136H185.635V170.84C185.635 170.088 185.451 169.528 185.083 169.16C184.715 168.792 184.147 168.608 183.379 168.608C182.979 168.608 182.499 168.616 181.939 168.632C181.379 168.648 180.811 168.672 180.235 168.704C179.675 168.72 179.171 168.744 178.723 168.776V165.944C179.091 165.912 179.507 165.88 179.971 165.848C180.435 165.816 180.907 165.8 181.387 165.8C181.883 165.784 182.347 165.776 182.779 165.776C184.123 165.776 185.235 165.952 186.115 166.304C187.011 166.656 187.683 167.208 188.131 167.96C188.595 168.712 188.827 169.696 188.827 170.912V179H186.187ZM181.987 179.336C181.043 179.336 180.211 179.168 179.491 178.832C178.787 178.496 178.235 178.016 177.835 177.392C177.451 176.768 177.259 176.016 177.259 175.136C177.259 174.176 177.491 173.392 177.955 172.784C178.435 172.176 179.099 171.72 179.947 171.416C180.811 171.112 181.819 170.96 182.971 170.96H185.995V172.952H182.923C182.155 172.952 181.563 173.144 181.147 173.528C180.747 173.896 180.547 174.376 180.547 174.968C180.547 175.56 180.747 176.04 181.147 176.408C181.563 176.776 182.155 176.96 182.923 176.96C183.387 176.96 183.811 176.88 184.195 176.72C184.595 176.544 184.923 176.256 185.179 175.856C185.451 175.44 185.603 174.88 185.635 174.176L186.451 175.112C186.371 176.024 186.147 176.792 185.779 177.416C185.427 178.04 184.931 178.52 184.291 178.856C183.667 179.176 182.899 179.336 181.987 179.336ZM198.064 179.168C196.864 179.168 195.872 179.016 195.088 178.712C194.32 178.392 193.744 177.864 193.36 177.128C192.976 176.376 192.784 175.368 192.784 174.104L192.808 162.296H195.928L195.904 174.32C195.904 174.96 196.072 175.456 196.408 175.808C196.76 176.144 197.256 176.312 197.896 176.312H199.936V179.168H198.064ZM190.72 168.416V165.968H199.936V168.416H190.72ZM203.36 179V165.968H206.696V179H203.36ZM201.536 168.464V165.968H206.696V168.464H201.536ZM204.584 164.408C203.928 164.408 203.44 164.24 203.12 163.904C202.816 163.552 202.664 163.12 202.664 162.608C202.664 162.064 202.816 161.624 203.12 161.288C203.44 160.952 203.928 160.784 204.584 160.784C205.24 160.784 205.72 160.952 206.024 161.288C206.328 161.624 206.48 162.064 206.48 162.608C206.48 163.12 206.328 163.552 206.024 163.904C205.72 164.24 205.24 164.408 204.584 164.408ZM216.805 179.456C215.653 179.456 214.637 179.272 213.757 178.904C212.877 178.536 212.133 178.04 211.525 177.416C210.917 176.776 210.453 176.056 210.133 175.256C209.829 174.456 209.677 173.624 209.677 172.76V172.256C209.677 171.36 209.837 170.512 210.157 169.712C210.493 168.896 210.965 168.176 211.573 167.552C212.197 166.912 212.949 166.416 213.829 166.064C214.709 165.696 215.701 165.512 216.805 165.512C217.909 165.512 218.901 165.696 219.781 166.064C220.661 166.416 221.405 166.912 222.013 167.552C222.637 168.176 223.109 168.896 223.429 169.712C223.749 170.512 223.909 171.36 223.909 172.256V172.76C223.909 173.624 223.749 174.456 223.429 175.256C223.125 176.056 222.669 176.776 222.061 177.416C221.453 178.04 220.709 178.536 219.829 178.904C218.949 179.272 217.941 179.456 216.805 179.456ZM216.805 176.6C217.621 176.6 218.309 176.424 218.869 176.072C219.429 175.704 219.853 175.216 220.141 174.608C220.429 173.984 220.573 173.28 220.573 172.496C220.573 171.696 220.421 170.992 220.117 170.384C219.829 169.76 219.397 169.272 218.821 168.92C218.261 168.552 217.589 168.368 216.805 168.368C216.021 168.368 215.341 168.552 214.765 168.92C214.205 169.272 213.773 169.76 213.469 170.384C213.165 170.992 213.013 171.696 213.013 172.496C213.013 173.28 213.157 173.984 213.445 174.608C213.749 175.216 214.181 175.704 214.741 176.072C215.301 176.424 215.989 176.6 216.805 176.6ZM226.83 179V165.968H229.47V171.56H229.23C229.23 170.232 229.406 169.128 229.758 168.248C230.11 167.352 230.63 166.68 231.318 166.232C232.022 165.784 232.894 165.56 233.934 165.56H234.078C235.63 165.56 236.806 166.064 237.606 167.072C238.406 168.064 238.806 169.552 238.806 171.536V179H235.47V171.248C235.47 170.448 235.238 169.8 234.774 169.304C234.326 168.808 233.702 168.56 232.902 168.56C232.086 168.56 231.422 168.816 230.91 169.328C230.414 169.824 230.166 170.496 230.166 171.344V179H226.83Z" fill="white"/>
<rect x="419.01" width="339" height="216" rx="16" fill="#20164E"/>
<path d="M587.519 77.6748L577.844 67.9998L587.519 58.3248L597.194 67.9998L587.519 77.6748ZM581.144 52.3998L573.719 44.9748L582.569 36.1998C583.269 35.4998 584.044 34.9873 584.894 34.6623C585.744 34.3373 586.619 34.1748 587.519 34.1748C588.419 34.1748 589.294 34.3373 590.144 34.6623C590.994 34.9873 591.769 35.4998 592.469 36.1998L601.319 44.9748L593.894 52.3998L587.519 46.0248L581.144 52.3998ZM564.569 81.7998L555.719 72.9498C555.019 72.2498 554.507 71.4748 554.182 70.6248C553.857 69.7748 553.694 68.8998 553.694 67.9998C553.694 67.0998 553.857 66.2248 554.182 65.3748C554.507 64.5248 555.019 63.7498 555.719 63.0498L564.569 54.1998L571.919 61.6248L565.544 67.9998L571.919 74.3748L564.569 81.7998ZM610.544 81.7998L603.119 74.3748L609.494 67.9998L603.119 61.6248L610.544 54.1998L619.319 63.0498C620.019 63.7498 620.532 64.5248 620.857 65.3748C621.182 66.2248 621.344 67.0998 621.344 67.9998C621.344 68.8998 621.182 69.7748 620.857 70.6248C620.532 71.4748 620.019 72.2498 619.319 72.9498L610.544 81.7998ZM582.569 99.7998L573.719 90.9498L581.144 83.5998L587.519 89.9748L593.894 83.5998L601.319 90.9498L592.469 99.7998C591.769 100.5 590.994 101.012 590.144 101.337C589.294 101.662 588.419 101.825 587.519 101.825C586.619 101.825 585.744 101.662 584.894 101.337C584.044 101.012 583.269 100.5 582.569 99.7998Z" fill="white"/>
<path d="M517.862 149L523.838 131.48H529.406L535.55 149H532.046L526.838 133.808L528.062 134.336H525.062L526.31 133.808L521.27 149H517.862ZM522.038 144.344L523.118 141.464H530.222L531.278 144.344H522.038ZM541.08 143.624V140.672H544.488C545.176 140.672 545.752 140.536 546.216 140.264C546.696 139.992 547.056 139.616 547.296 139.136C547.552 138.656 547.68 138.104 547.68 137.48C547.68 136.856 547.552 136.304 547.296 135.824C547.056 135.344 546.696 134.976 546.216 134.72C545.752 134.448 545.176 134.312 544.488 134.312H541.08V131.36H544.2C545.672 131.36 546.92 131.6 547.944 132.08C548.984 132.56 549.776 133.248 550.32 134.144C550.864 135.024 551.136 136.072 551.136 137.288V137.672C551.136 138.888 550.864 139.944 550.32 140.84C549.776 141.72 548.984 142.408 547.944 142.904C546.92 143.384 545.672 143.624 544.2 143.624H541.08ZM538.152 149V131.36H541.56V149H538.152ZM553.997 149V131.48H557.405V149H553.997ZM572.933 149.456C571.381 149.456 570.069 149.208 568.997 148.712C567.941 148.216 567.133 147.536 566.573 146.672C566.013 145.792 565.733 144.8 565.733 143.696H569.069C569.069 144.16 569.197 144.616 569.453 145.064C569.709 145.496 570.117 145.848 570.677 146.12C571.253 146.392 572.005 146.528 572.933 146.528C573.765 146.528 574.461 146.408 575.021 146.168C575.581 145.928 575.997 145.616 576.269 145.232C576.541 144.832 576.677 144.384 576.677 143.888C576.677 143.264 576.413 142.768 575.885 142.4C575.357 142.016 574.541 141.776 573.437 141.68L571.901 141.56C570.221 141.416 568.877 140.896 567.869 140C566.877 139.088 566.381 137.888 566.381 136.4C566.381 135.28 566.645 134.32 567.173 133.52C567.701 132.704 568.437 132.08 569.381 131.648C570.341 131.2 571.461 130.976 572.741 130.976C574.069 130.976 575.213 131.208 576.173 131.672C577.133 132.136 577.877 132.792 578.405 133.64C578.933 134.472 579.197 135.456 579.197 136.592H575.861C575.861 136.112 575.741 135.672 575.501 135.272C575.277 134.856 574.933 134.528 574.469 134.288C574.021 134.032 573.445 133.904 572.741 133.904C572.069 133.904 571.509 134.016 571.061 134.24C570.613 134.464 570.277 134.768 570.053 135.152C569.829 135.536 569.717 135.952 569.717 136.4C569.717 136.944 569.917 137.424 570.317 137.84C570.717 138.24 571.349 138.472 572.213 138.536L573.749 138.68C574.997 138.776 576.093 139.04 577.037 139.472C577.981 139.904 578.709 140.488 579.221 141.224C579.749 141.96 580.013 142.848 580.013 143.888C580.013 144.992 579.725 145.968 579.149 146.816C578.573 147.648 577.749 148.296 576.677 148.76C575.621 149.224 574.373 149.456 572.933 149.456ZM588.697 149.456C587.577 149.456 586.593 149.264 585.745 148.88C584.913 148.496 584.217 147.984 583.657 147.344C583.113 146.688 582.697 145.96 582.409 145.16C582.137 144.36 582.001 143.544 582.001 142.712V142.256C582.001 141.392 582.137 140.56 582.409 139.76C582.697 138.944 583.113 138.224 583.657 137.6C584.217 136.96 584.905 136.456 585.721 136.088C586.537 135.704 587.481 135.512 588.553 135.512C589.961 135.512 591.137 135.824 592.081 136.448C593.041 137.056 593.761 137.864 594.241 138.872C594.721 139.864 594.961 140.936 594.961 142.088V143.288H583.417V141.248H592.873L591.841 142.256C591.841 141.424 591.721 140.712 591.481 140.12C591.241 139.528 590.873 139.072 590.377 138.752C589.897 138.432 589.289 138.272 588.553 138.272C587.817 138.272 587.193 138.44 586.681 138.776C586.169 139.112 585.777 139.6 585.505 140.24C585.249 140.864 585.121 141.616 585.121 142.496C585.121 143.312 585.249 144.04 585.505 144.68C585.761 145.304 586.153 145.8 586.681 146.168C587.209 146.52 587.881 146.696 588.697 146.696C589.513 146.696 590.177 146.536 590.689 146.216C591.201 145.88 591.529 145.472 591.673 144.992H594.745C594.553 145.888 594.185 146.672 593.641 147.344C593.097 148.016 592.401 148.536 591.553 148.904C590.721 149.272 589.769 149.456 588.697 149.456ZM597.748 149V135.968H600.388V141.488H600.316C600.316 139.616 600.716 138.2 601.516 137.24C602.316 136.28 603.492 135.8 605.044 135.8H605.524V138.704H604.612C603.492 138.704 602.62 139.008 601.996 139.616C601.388 140.208 601.084 141.072 601.084 142.208V149H597.748ZM610.77 149L606.69 135.968H610.122L614.034 149H610.77ZM611.754 149V146.264H615.282V149H611.754ZM613.074 149L616.434 135.968H619.65L616.122 149H613.074ZM622.793 149V135.968H626.129V149H622.793ZM620.969 138.464V135.968H626.129V138.464H620.969ZM624.017 134.408C623.361 134.408 622.873 134.24 622.553 133.904C622.249 133.552 622.097 133.12 622.097 132.608C622.097 132.064 622.249 131.624 622.553 131.288C622.873 130.952 623.361 130.784 624.017 130.784C624.673 130.784 625.153 130.952 625.457 131.288C625.761 131.624 625.913 132.064 625.913 132.608C625.913 133.12 625.761 133.552 625.457 133.904C625.153 134.24 624.673 134.408 624.017 134.408ZM635.758 149.456C634.622 149.456 633.638 149.264 632.806 148.88C631.99 148.496 631.302 147.984 630.742 147.344C630.198 146.704 629.79 145.984 629.518 145.184C629.246 144.384 629.11 143.568 629.11 142.736V142.28C629.11 141.4 629.246 140.56 629.518 139.76C629.806 138.944 630.23 138.224 630.79 137.6C631.35 136.96 632.038 136.456 632.854 136.088C633.686 135.704 634.646 135.512 635.734 135.512C636.87 135.512 637.886 135.736 638.782 136.184C639.678 136.616 640.39 137.224 640.918 138.008C641.462 138.792 641.766 139.704 641.83 140.744H638.59C638.51 140.072 638.222 139.512 637.726 139.064C637.246 138.616 636.582 138.392 635.734 138.392C634.998 138.392 634.382 138.568 633.886 138.92C633.406 139.272 633.046 139.76 632.806 140.384C632.566 140.992 632.446 141.696 632.446 142.496C632.446 143.264 632.558 143.96 632.782 144.584C633.022 145.208 633.382 145.696 633.862 146.048C634.358 146.4 634.99 146.576 635.758 146.576C636.334 146.576 636.83 146.472 637.246 146.264C637.662 146.056 637.99 145.768 638.23 145.4C638.486 145.032 638.646 144.616 638.71 144.152H641.95C641.886 145.208 641.574 146.136 641.014 146.936C640.47 147.72 639.742 148.336 638.83 148.784C637.934 149.232 636.91 149.456 635.758 149.456ZM650.455 149.456C649.335 149.456 648.351 149.264 647.503 148.88C646.671 148.496 645.975 147.984 645.415 147.344C644.871 146.688 644.455 145.96 644.167 145.16C643.895 144.36 643.759 143.544 643.759 142.712V142.256C643.759 141.392 643.895 140.56 644.167 139.76C644.455 138.944 644.871 138.224 645.415 137.6C645.975 136.96 646.663 136.456 647.479 136.088C648.295 135.704 649.239 135.512 650.311 135.512C651.719 135.512 652.895 135.824 653.839 136.448C654.799 137.056 655.519 137.864 655.999 138.872C656.479 139.864 656.719 140.936 656.719 142.088V143.288H645.175V141.248H654.631L653.599 142.256C653.599 141.424 653.479 140.712 653.239 140.12C652.999 139.528 652.631 139.072 652.135 138.752C651.655 138.432 651.047 138.272 650.311 138.272C649.575 138.272 648.951 138.44 648.439 138.776C647.927 139.112 647.535 139.6 647.263 140.24C647.007 140.864 646.879 141.616 646.879 142.496C646.879 143.312 647.007 144.04 647.263 144.68C647.519 145.304 647.911 145.8 648.439 146.168C648.967 146.52 649.639 146.696 650.455 146.696C651.271 146.696 651.935 146.536 652.447 146.216C652.959 145.88 653.287 145.472 653.431 144.992H656.503C656.311 145.888 655.943 146.672 655.399 147.344C654.855 148.016 654.159 148.536 653.311 148.904C652.479 149.272 651.527 149.456 650.455 149.456ZM514.955 179L520.931 161.48H526.499L532.643 179H529.139L523.931 163.808L525.155 164.336H522.155L523.403 163.808L518.363 179H514.955ZM519.131 174.344L520.211 171.464H527.315L528.371 174.344H519.131ZM534.982 183.8V165.968H537.622V171.584L537.214 171.56C537.278 170.232 537.55 169.12 538.03 168.224C538.526 167.328 539.182 166.664 539.998 166.232C540.814 165.784 541.726 165.56 542.734 165.56C543.662 165.56 544.494 165.728 545.23 166.064C545.982 166.4 546.622 166.872 547.15 167.48C547.694 168.088 548.11 168.8 548.398 169.616C548.686 170.416 548.83 171.28 548.83 172.208V172.712C548.83 173.656 548.686 174.536 548.398 175.352C548.126 176.152 547.718 176.864 547.174 177.488C546.646 178.096 546.006 178.576 545.254 178.928C544.502 179.264 543.662 179.432 542.734 179.432C541.758 179.432 540.862 179.232 540.046 178.832C539.246 178.416 538.598 177.784 538.102 176.936C537.606 176.072 537.326 174.96 537.262 173.6L538.318 175.208V183.8H534.982ZM541.894 176.624C542.614 176.624 543.238 176.448 543.766 176.096C544.31 175.744 544.734 175.256 545.038 174.632C545.342 173.992 545.494 173.272 545.494 172.472C545.494 171.64 545.342 170.92 545.038 170.312C544.734 169.704 544.31 169.232 543.766 168.896C543.238 168.544 542.614 168.368 541.894 168.368C541.238 168.368 540.63 168.512 540.07 168.8C539.526 169.088 539.078 169.512 538.726 170.072C538.39 170.632 538.222 171.304 538.222 172.088V173.048C538.222 173.8 538.398 174.44 538.75 174.968C539.102 175.496 539.558 175.904 540.118 176.192C540.678 176.48 541.27 176.624 541.894 176.624ZM551.763 183.8V165.968H554.403V171.584L553.995 171.56C554.059 170.232 554.331 169.12 554.811 168.224C555.307 167.328 555.963 166.664 556.779 166.232C557.595 165.784 558.507 165.56 559.515 165.56C560.443 165.56 561.275 165.728 562.011 166.064C562.763 166.4 563.403 166.872 563.931 167.48C564.475 168.088 564.891 168.8 565.179 169.616C565.467 170.416 565.611 171.28 565.611 172.208V172.712C565.611 173.656 565.467 174.536 565.179 175.352C564.907 176.152 564.499 176.864 563.955 177.488C563.427 178.096 562.787 178.576 562.035 178.928C561.283 179.264 560.443 179.432 559.515 179.432C558.539 179.432 557.643 179.232 556.827 178.832C556.027 178.416 555.379 177.784 554.883 176.936C554.387 176.072 554.107 174.96 554.043 173.6L555.099 175.208V183.8H551.763ZM558.675 176.624C559.395 176.624 560.019 176.448 560.547 176.096C561.091 175.744 561.515 175.256 561.819 174.632C562.123 173.992 562.275 173.272 562.275 172.472C562.275 171.64 562.123 170.92 561.819 170.312C561.515 169.704 561.091 169.232 560.547 168.896C560.019 168.544 559.395 168.368 558.675 168.368C558.019 168.368 557.411 168.512 556.851 168.8C556.307 169.088 555.859 169.512 555.507 170.072C555.171 170.632 555.003 171.304 555.003 172.088V173.048C555.003 173.8 555.179 174.44 555.531 174.968C555.883 175.496 556.339 175.904 556.899 176.192C557.459 176.48 558.051 176.624 558.675 176.624ZM568.712 179V161.48H572.048V179H568.712ZM567.08 163.976V161.48H572.048V163.976H567.08ZM576.481 179V165.968H579.817V179H576.481ZM574.657 168.464V165.968H579.817V168.464H574.657ZM577.705 164.408C577.049 164.408 576.561 164.24 576.241 163.904C575.937 163.552 575.785 163.12 575.785 162.608C575.785 162.064 575.937 161.624 576.241 161.288C576.561 160.952 577.049 160.784 577.705 160.784C578.361 160.784 578.841 160.952 579.145 161.288C579.449 161.624 579.601 162.064 579.601 162.608C579.601 163.12 579.449 163.552 579.145 163.904C578.841 164.24 578.361 164.408 577.705 164.408ZM589.446 179.456C588.31 179.456 587.326 179.264 586.494 178.88C585.678 178.496 584.99 177.984 584.43 177.344C583.886 176.704 583.478 175.984 583.206 175.184C582.934 174.384 582.798 173.568 582.798 172.736V172.28C582.798 171.4 582.934 170.56 583.206 169.76C583.494 168.944 583.918 168.224 584.478 167.6C585.038 166.96 585.726 166.456 586.542 166.088C587.374 165.704 588.334 165.512 589.422 165.512C590.558 165.512 591.574 165.736 592.47 166.184C593.366 166.616 594.078 167.224 594.606 168.008C595.15 168.792 595.454 169.704 595.518 170.744H592.278C592.198 170.072 591.91 169.512 591.414 169.064C590.934 168.616 590.27 168.392 589.422 168.392C588.686 168.392 588.07 168.568 587.574 168.92C587.094 169.272 586.734 169.76 586.494 170.384C586.254 170.992 586.134 171.696 586.134 172.496C586.134 173.264 586.246 173.96 586.47 174.584C586.71 175.208 587.07 175.696 587.55 176.048C588.046 176.4 588.678 176.576 589.446 176.576C590.022 176.576 590.518 176.472 590.934 176.264C591.35 176.056 591.678 175.768 591.918 175.4C592.174 175.032 592.334 174.616 592.398 174.152H595.638C595.574 175.208 595.262 176.136 594.702 176.936C594.158 177.72 593.43 178.336 592.518 178.784C591.622 179.232 590.598 179.456 589.446 179.456ZM606.206 179V175.136H605.654V170.84C605.654 170.088 605.47 169.528 605.102 169.16C604.734 168.792 604.166 168.608 603.398 168.608C602.998 168.608 602.518 168.616 601.958 168.632C601.398 168.648 600.83 168.672 600.254 168.704C599.694 168.72 599.19 168.744 598.742 168.776V165.944C599.11 165.912 599.526 165.88 599.99 165.848C600.454 165.816 600.926 165.8 601.406 165.8C601.902 165.784 602.366 165.776 602.798 165.776C604.142 165.776 605.254 165.952 606.134 166.304C607.03 166.656 607.702 167.208 608.15 167.96C608.614 168.712 608.846 169.696 608.846 170.912V179H606.206ZM602.006 179.336C601.062 179.336 600.23 179.168 599.51 178.832C598.806 178.496 598.254 178.016 597.854 177.392C597.47 176.768 597.278 176.016 597.278 175.136C597.278 174.176 597.51 173.392 597.974 172.784C598.454 172.176 599.118 171.72 599.966 171.416C600.83 171.112 601.838 170.96 602.99 170.96H606.014V172.952H602.942C602.174 172.952 601.582 173.144 601.166 173.528C600.766 173.896 600.566 174.376 600.566 174.968C600.566 175.56 600.766 176.04 601.166 176.408C601.582 176.776 602.174 176.96 602.942 176.96C603.406 176.96 603.83 176.88 604.214 176.72C604.614 176.544 604.942 176.256 605.198 175.856C605.47 175.44 605.622 174.88 605.654 174.176L606.47 175.112C606.39 176.024 606.166 176.792 605.798 177.416C605.446 178.04 604.95 178.52 604.31 178.856C603.686 179.176 602.918 179.336 602.006 179.336ZM618.083 179.168C616.883 179.168 615.891 179.016 615.107 178.712C614.339 178.392 613.763 177.864 613.379 177.128C612.995 176.376 612.803 175.368 612.803 174.104L612.827 162.296H615.947L615.923 174.32C615.923 174.96 616.091 175.456 616.427 175.808C616.779 176.144 617.275 176.312 617.915 176.312H619.955V179.168H618.083ZM610.739 168.416V165.968H619.955V168.416H610.739ZM623.379 179V165.968H626.715V179H623.379ZM621.555 168.464V165.968H626.715V168.464H621.555ZM624.603 164.408C623.947 164.408 623.459 164.24 623.139 163.904C622.835 163.552 622.683 163.12 622.683 162.608C622.683 162.064 622.835 161.624 623.139 161.288C623.459 160.952 623.947 160.784 624.603 160.784C625.259 160.784 625.739 160.952 626.043 161.288C626.347 161.624 626.499 162.064 626.499 162.608C626.499 163.12 626.347 163.552 626.043 163.904C625.739 164.24 625.259 164.408 624.603 164.408ZM636.824 179.456C635.672 179.456 634.656 179.272 633.776 178.904C632.896 178.536 632.152 178.04 631.544 177.416C630.936 176.776 630.472 176.056 630.152 175.256C629.848 174.456 629.696 173.624 629.696 172.76V172.256C629.696 171.36 629.856 170.512 630.176 169.712C630.512 168.896 630.984 168.176 631.592 167.552C632.216 166.912 632.968 166.416 633.848 166.064C634.728 165.696 635.72 165.512 636.824 165.512C637.928 165.512 638.92 165.696 639.8 166.064C640.68 166.416 641.424 166.912 642.032 167.552C642.656 168.176 643.128 168.896 643.448 169.712C643.768 170.512 643.928 171.36 643.928 172.256V172.76C643.928 173.624 643.768 174.456 643.448 175.256C643.144 176.056 642.688 176.776 642.08 177.416C641.472 178.04 640.728 178.536 639.848 178.904C638.968 179.272 637.96 179.456 636.824 179.456ZM636.824 176.6C637.64 176.6 638.328 176.424 638.888 176.072C639.448 175.704 639.872 175.216 640.16 174.608C640.448 173.984 640.592 173.28 640.592 172.496C640.592 171.696 640.44 170.992 640.136 170.384C639.848 169.76 639.416 169.272 638.84 168.92C638.28 168.552 637.608 168.368 636.824 168.368C636.04 168.368 635.36 168.552 634.784 168.92C634.224 169.272 633.792 169.76 633.488 170.384C633.184 170.992 633.032 171.696 633.032 172.496C633.032 173.28 633.176 173.984 633.464 174.608C633.768 175.216 634.2 175.704 634.76 176.072C635.32 176.424 636.008 176.6 636.824 176.6ZM646.849 179V165.968H649.489V171.56H649.249C649.249 170.232 649.425 169.128 649.777 168.248C650.129 167.352 650.649 166.68 651.337 166.232C652.041 165.784 652.913 165.56 653.953 165.56H654.097C655.649 165.56 656.825 166.064 657.625 167.072C658.425 168.064 658.825 169.552 658.825 171.536V179H655.489V171.248C655.489 170.448 655.257 169.8 654.793 169.304C654.345 168.808 653.721 168.56 652.921 168.56C652.105 168.56 651.441 168.816 650.929 169.328C650.433 169.824 650.185 170.496 650.185 171.344V179H646.849Z" fill="white"/>
<rect x="108.01" y="336" width="540" height="216" rx="16" fill="#458C7C"/>
<rect width="258" height="138" transform="translate(249 368)" fill="#458C7C"/>
<path d="M362.25 435.06C359.68 435.06 357.486 434.215 355.668 432.526C353.85 430.836 352.94 428.724 352.94 426.19V384.272C352.94 382.076 353.606 380.129 354.938 378.432C356.27 376.734 358 375.664 360.128 375.223L381.277 370.804C383.129 370.391 384.789 370.793 386.257 372.01C387.724 373.226 388.457 374.78 388.457 376.671V411.996C388.457 413.397 388.019 414.642 387.143 415.729C386.267 416.816 385.135 417.513 383.746 417.82L361.811 422.587C360.888 422.774 360.119 423.203 359.506 423.875C358.892 424.548 358.585 425.324 358.585 426.204C358.585 427.145 358.952 427.915 359.685 428.515C360.419 429.115 361.275 429.415 362.253 429.415H397.457V381.742C397.457 380.954 397.732 380.283 398.282 379.729C398.831 379.175 399.496 378.898 400.276 378.898C401.056 378.898 401.722 379.175 402.274 379.729C402.826 380.283 403.103 380.954 403.103 381.742V429.118C403.103 430.781 402.524 432.187 401.366 433.336C400.209 434.485 398.793 435.06 397.118 435.06H362.25ZM368.729 415.671L382.813 412.57V376.247L368.729 379.198V415.671ZM363.085 416.883V380.385L361.645 380.685C360.755 380.885 360.022 381.312 359.447 381.966C358.872 382.619 358.585 383.388 358.585 384.272V418.282C359.054 417.994 359.562 417.76 360.109 417.579C360.656 417.398 361.219 417.243 361.797 417.115L363.085 416.883Z" fill="white"/>
<path d="M260.886 479.456C259.334 479.456 258.022 479.208 256.95 478.712C255.894 478.216 255.086 477.536 254.526 476.672C253.966 475.792 253.686 474.8 253.686 473.696H257.022C257.022 474.16 257.15 474.616 257.406 475.064C257.662 475.496 258.07 475.848 258.63 476.12C259.206 476.392 259.958 476.528 260.886 476.528C261.718 476.528 262.414 476.408 262.974 476.168C263.534 475.928 263.95 475.616 264.222 475.232C264.494 474.832 264.63 474.384 264.63 473.888C264.63 473.264 264.366 472.768 263.838 472.4C263.31 472.016 262.494 471.776 261.39 471.68L259.854 471.56C258.174 471.416 256.83 470.896 255.822 470C254.83 469.088 254.334 467.888 254.334 466.4C254.334 465.28 254.598 464.32 255.126 463.52C255.654 462.704 256.39 462.08 257.334 461.648C258.294 461.2 259.414 460.976 260.694 460.976C262.022 460.976 263.166 461.208 264.126 461.672C265.086 462.136 265.83 462.792 266.358 463.64C266.886 464.472 267.15 465.456 267.15 466.592H263.814C263.814 466.112 263.694 465.672 263.454 465.272C263.23 464.856 262.886 464.528 262.422 464.288C261.974 464.032 261.398 463.904 260.694 463.904C260.022 463.904 259.462 464.016 259.014 464.24C258.566 464.464 258.23 464.768 258.006 465.152C257.782 465.536 257.67 465.952 257.67 466.4C257.67 466.944 257.87 467.424 258.27 467.84C258.67 468.24 259.302 468.472 260.166 468.536L261.702 468.68C262.95 468.776 264.046 469.04 264.99 469.472C265.934 469.904 266.662 470.488 267.174 471.224C267.702 471.96 267.966 472.848 267.966 473.888C267.966 474.992 267.678 475.968 267.102 476.816C266.526 477.648 265.702 478.296 264.63 478.76C263.574 479.224 262.326 479.456 260.886 479.456ZM270.818 479V461.48H274.154V471.704H273.578C273.578 470.392 273.746 469.28 274.082 468.368C274.418 467.456 274.914 466.76 275.57 466.28C276.242 465.8 277.09 465.56 278.114 465.56H278.258C279.746 465.56 280.874 466.072 281.642 467.096C282.41 468.12 282.794 469.608 282.794 471.56V479H279.458V471.248C279.458 470.416 279.218 469.76 278.738 469.28C278.274 468.8 277.658 468.56 276.89 468.56C276.074 468.56 275.41 468.832 274.898 469.376C274.402 469.904 274.154 470.6 274.154 471.464V479H270.818ZM294.276 479V475.136H293.724V470.84C293.724 470.088 293.54 469.528 293.172 469.16C292.804 468.792 292.236 468.608 291.468 468.608C291.068 468.608 290.588 468.616 290.028 468.632C289.468 468.648 288.9 468.672 288.324 468.704C287.764 468.72 287.26 468.744 286.812 468.776V465.944C287.18 465.912 287.596 465.88 288.06 465.848C288.524 465.816 288.996 465.8 289.476 465.8C289.972 465.784 290.436 465.776 290.868 465.776C292.212 465.776 293.324 465.952 294.204 466.304C295.1 466.656 295.772 467.208 296.22 467.96C296.684 468.712 296.916 469.696 296.916 470.912V479H294.276ZM290.076 479.336C289.132 479.336 288.3 479.168 287.58 478.832C286.876 478.496 286.324 478.016 285.924 477.392C285.54 476.768 285.348 476.016 285.348 475.136C285.348 474.176 285.58 473.392 286.044 472.784C286.524 472.176 287.188 471.72 288.036 471.416C288.9 471.112 289.908 470.96 291.06 470.96H294.084V472.952H291.012C290.244 472.952 289.652 473.144 289.236 473.528C288.836 473.896 288.636 474.376 288.636 474.968C288.636 475.56 288.836 476.04 289.236 476.408C289.652 476.776 290.244 476.96 291.012 476.96C291.476 476.96 291.9 476.88 292.284 476.72C292.684 476.544 293.012 476.256 293.268 475.856C293.54 475.44 293.692 474.88 293.724 474.176L294.54 475.112C294.46 476.024 294.236 476.792 293.868 477.416C293.516 478.04 293.02 478.52 292.38 478.856C291.756 479.176 290.988 479.336 290.076 479.336ZM300.49 479V465.968H303.13V471.488H303.058C303.058 469.616 303.458 468.2 304.258 467.24C305.058 466.28 306.234 465.8 307.786 465.8H308.266V468.704H307.354C306.234 468.704 305.362 469.008 304.738 469.616C304.13 470.208 303.826 471.072 303.826 472.208V479H300.49ZM316.236 479.456C315.116 479.456 314.132 479.264 313.284 478.88C312.452 478.496 311.756 477.984 311.196 477.344C310.652 476.688 310.236 475.96 309.948 475.16C309.676 474.36 309.54 473.544 309.54 472.712V472.256C309.54 471.392 309.676 470.56 309.948 469.76C310.236 468.944 310.652 468.224 311.196 467.6C311.756 466.96 312.444 466.456 313.26 466.088C314.076 465.704 315.02 465.512 316.092 465.512C317.5 465.512 318.676 465.824 319.62 466.448C320.58 467.056 321.3 467.864 321.78 468.872C322.26 469.864 322.5 470.936 322.5 472.088V473.288H310.956V471.248H320.412L319.38 472.256C319.38 471.424 319.26 470.712 319.02 470.12C318.78 469.528 318.412 469.072 317.916 468.752C317.436 468.432 316.828 468.272 316.092 468.272C315.356 468.272 314.732 468.44 314.22 468.776C313.708 469.112 313.316 469.6 313.044 470.24C312.788 470.864 312.66 471.616 312.66 472.496C312.66 473.312 312.788 474.04 313.044 474.68C313.3 475.304 313.692 475.8 314.22 476.168C314.748 476.52 315.42 476.696 316.236 476.696C317.052 476.696 317.716 476.536 318.228 476.216C318.74 475.88 319.068 475.472 319.212 474.992H322.284C322.092 475.888 321.724 476.672 321.18 477.344C320.636 478.016 319.94 478.536 319.092 478.904C318.26 479.272 317.308 479.456 316.236 479.456ZM330.687 479.432C329.775 479.432 328.935 479.264 328.167 478.928C327.399 478.592 326.735 478.12 326.175 477.512C325.615 476.904 325.183 476.2 324.879 475.4C324.575 474.584 324.423 473.704 324.423 472.76V472.256C324.423 471.328 324.567 470.456 324.855 469.64C325.159 468.824 325.575 468.112 326.103 467.504C326.647 466.896 327.295 466.424 328.047 466.088C328.815 465.736 329.663 465.56 330.591 465.56C331.615 465.56 332.511 465.784 333.279 466.232C334.063 466.664 334.687 467.32 335.151 468.2C335.615 469.08 335.871 470.184 335.919 471.512L334.935 470.36V461.48H338.271V479H335.631V473.456H336.207C336.159 474.784 335.887 475.896 335.391 476.792C334.895 477.672 334.239 478.336 333.423 478.784C332.623 479.216 331.711 479.432 330.687 479.432ZM331.431 476.624C332.087 476.624 332.687 476.48 333.231 476.192C333.775 475.888 334.207 475.456 334.527 474.896C334.863 474.32 335.031 473.648 335.031 472.88V471.92C335.031 471.152 334.863 470.512 334.527 470C334.191 469.472 333.751 469.072 333.207 468.8C332.663 468.512 332.071 468.368 331.431 468.368C330.711 468.368 330.071 468.544 329.511 468.896C328.967 469.232 328.535 469.712 328.215 470.336C327.911 470.96 327.759 471.688 327.759 472.52C327.759 473.352 327.919 474.08 328.239 474.704C328.559 475.312 328.991 475.784 329.535 476.12C330.095 476.456 330.727 476.624 331.431 476.624ZM355.408 479.456C353.824 479.456 352.464 479.176 351.328 478.616C350.192 478.056 349.264 477.328 348.544 476.432C347.84 475.536 347.32 474.56 346.984 473.504C346.648 472.448 346.48 471.432 346.48 470.456V469.928C346.48 468.84 346.648 467.768 346.984 466.712C347.336 465.656 347.872 464.696 348.592 463.832C349.312 462.968 350.224 462.28 351.328 461.768C352.448 461.24 353.768 460.976 355.288 460.976C356.872 460.976 358.248 461.264 359.416 461.84C360.6 462.4 361.544 463.2 362.248 464.24C362.952 465.264 363.376 466.464 363.52 467.84H360.088C359.96 467.04 359.672 466.368 359.224 465.824C358.792 465.264 358.24 464.848 357.568 464.576C356.896 464.288 356.136 464.144 355.288 464.144C354.424 464.144 353.656 464.296 352.984 464.6C352.312 464.888 351.752 465.304 351.304 465.848C350.856 466.392 350.512 467.032 350.272 467.768C350.048 468.504 349.936 469.32 349.936 470.216C349.936 471.08 350.048 471.88 350.272 472.616C350.512 473.352 350.864 474 351.328 474.56C351.792 475.104 352.36 475.528 353.032 475.832C353.72 476.136 354.512 476.288 355.408 476.288C356.72 476.288 357.824 475.968 358.72 475.328C359.632 474.672 360.184 473.76 360.376 472.592H363.808C363.648 473.84 363.224 474.984 362.536 476.024C361.848 477.064 360.904 477.896 359.704 478.52C358.504 479.144 357.072 479.456 355.408 479.456ZM366.587 479V461.48H369.923V479H366.587ZM364.955 463.976V461.48H369.923V463.976H364.955ZM381.628 479V475.136H381.076V470.84C381.076 470.088 380.892 469.528 380.524 469.16C380.156 468.792 379.588 468.608 378.82 468.608C378.42 468.608 377.94 468.616 377.38 468.632C376.82 468.648 376.252 468.672 375.676 468.704C375.116 468.72 374.612 468.744 374.164 468.776V465.944C374.532 465.912 374.948 465.88 375.412 465.848C375.876 465.816 376.348 465.8 376.828 465.8C377.324 465.784 377.788 465.776 378.22 465.776C379.564 465.776 380.676 465.952 381.556 466.304C382.452 466.656 383.124 467.208 383.572 467.96C384.036 468.712 384.268 469.696 384.268 470.912V479H381.628ZM377.428 479.336C376.484 479.336 375.652 479.168 374.932 478.832C374.228 478.496 373.676 478.016 373.276 477.392C372.892 476.768 372.7 476.016 372.7 475.136C372.7 474.176 372.932 473.392 373.396 472.784C373.876 472.176 374.54 471.72 375.388 471.416C376.252 471.112 377.26 470.96 378.412 470.96H381.436V472.952H378.364C377.596 472.952 377.004 473.144 376.588 473.528C376.188 473.896 375.988 474.376 375.988 474.968C375.988 475.56 376.188 476.04 376.588 476.408C377.004 476.776 377.596 476.96 378.364 476.96C378.828 476.96 379.252 476.88 379.636 476.72C380.036 476.544 380.364 476.256 380.62 475.856C380.892 475.44 381.044 474.88 381.076 474.176L381.892 475.112C381.812 476.024 381.588 476.792 381.22 477.416C380.868 478.04 380.372 478.52 379.732 478.856C379.108 479.176 378.34 479.336 377.428 479.336ZM392.569 479.408C390.777 479.408 389.369 479.032 388.345 478.28C387.337 477.512 386.809 476.456 386.761 475.112H389.761C389.809 475.56 390.057 475.968 390.505 476.336C390.953 476.704 391.657 476.888 392.617 476.888C393.417 476.888 394.049 476.744 394.513 476.456C394.993 476.168 395.233 475.776 395.233 475.28C395.233 474.848 395.049 474.504 394.681 474.248C394.329 473.992 393.721 473.824 392.857 473.744L391.705 473.624C390.249 473.464 389.129 473.048 388.345 472.376C387.561 471.704 387.169 470.808 387.169 469.688C387.169 468.792 387.393 468.04 387.841 467.432C388.289 466.824 388.905 466.368 389.689 466.064C390.489 465.744 391.401 465.584 392.425 465.584C394.025 465.584 395.321 465.936 396.313 466.64C397.305 467.344 397.825 468.376 397.873 469.736H394.873C394.841 469.288 394.617 468.904 394.201 468.584C393.785 468.264 393.185 468.104 392.401 468.104C391.697 468.104 391.153 468.24 390.769 468.512C390.385 468.784 390.193 469.136 390.193 469.568C390.193 469.984 390.345 470.304 390.649 470.528C390.969 470.752 391.481 470.904 392.185 470.984L393.337 471.104C394.873 471.264 396.073 471.688 396.937 472.376C397.817 473.064 398.257 473.992 398.257 475.16C398.257 476.024 398.017 476.776 397.537 477.416C397.073 478.04 396.417 478.528 395.569 478.88C394.721 479.232 393.721 479.408 392.569 479.408ZM405.741 479.408C403.949 479.408 402.541 479.032 401.517 478.28C400.509 477.512 399.981 476.456 399.933 475.112H402.933C402.981 475.56 403.229 475.968 403.677 476.336C404.125 476.704 404.829 476.888 405.789 476.888C406.589 476.888 407.221 476.744 407.685 476.456C408.165 476.168 408.405 475.776 408.405 475.28C408.405 474.848 408.221 474.504 407.853 474.248C407.501 473.992 406.893 473.824 406.029 473.744L404.877 473.624C403.421 473.464 402.301 473.048 401.517 472.376C400.733 471.704 400.341 470.808 400.341 469.688C400.341 468.792 400.565 468.04 401.013 467.432C401.461 466.824 402.077 466.368 402.861 466.064C403.661 465.744 404.573 465.584 405.597 465.584C407.197 465.584 408.493 465.936 409.485 466.64C410.477 467.344 410.997 468.376 411.045 469.736H408.045C408.013 469.288 407.789 468.904 407.373 468.584C406.957 468.264 406.357 468.104 405.573 468.104C404.869 468.104 404.325 468.24 403.941 468.512C403.557 468.784 403.365 469.136 403.365 469.568C403.365 469.984 403.517 470.304 403.821 470.528C404.141 470.752 404.653 470.904 405.357 470.984L406.509 471.104C408.045 471.264 409.245 471.688 410.109 472.376C410.989 473.064 411.429 473.992 411.429 475.16C411.429 476.024 411.189 476.776 410.709 477.416C410.245 478.04 409.589 478.528 408.741 478.88C407.893 479.232 406.893 479.408 405.741 479.408ZM419.629 479V461.48H423.037V479H419.629ZM422.557 479V476H430.117V479H422.557ZM433.254 479V465.968H436.59V479H433.254ZM431.43 468.464V465.968H436.59V468.464H431.43ZM434.478 464.408C433.822 464.408 433.334 464.24 433.014 463.904C432.71 463.552 432.558 463.12 432.558 462.608C432.558 462.064 432.71 461.624 433.014 461.288C433.334 460.952 433.822 460.784 434.478 460.784C435.134 460.784 435.614 460.952 435.918 461.288C436.222 461.624 436.374 462.064 436.374 462.608C436.374 463.12 436.222 463.552 435.918 463.904C435.614 464.24 435.134 464.408 434.478 464.408ZM448.091 479.432C447.019 479.432 446.075 479.208 445.259 478.76C444.443 478.296 443.803 477.624 443.339 476.744C442.875 475.864 442.619 474.8 442.571 473.552H443.075V479H440.435V461.48H443.771V470.24L442.883 471.608C442.947 470.264 443.211 469.144 443.675 468.248C444.155 467.352 444.795 466.68 445.595 466.232C446.395 465.784 447.299 465.56 448.307 465.56C449.203 465.56 450.019 465.728 450.755 466.064C451.491 466.4 452.123 466.872 452.651 467.48C453.179 468.072 453.579 468.768 453.851 469.568C454.139 470.368 454.283 471.24 454.283 472.184V472.688C454.283 473.632 454.139 474.512 453.851 475.328C453.563 476.144 453.147 476.864 452.603 477.488C452.059 478.096 451.403 478.576 450.635 478.928C449.883 479.264 449.035 479.432 448.091 479.432ZM447.347 476.624C448.067 476.624 448.691 476.448 449.219 476.096C449.763 475.728 450.187 475.232 450.491 474.608C450.795 473.984 450.947 473.264 450.947 472.448C450.947 471.616 450.795 470.896 450.491 470.288C450.187 469.68 449.763 469.208 449.219 468.872C448.691 468.536 448.067 468.368 447.347 468.368C446.691 468.368 446.083 468.512 445.523 468.8C444.979 469.088 444.531 469.512 444.179 470.072C443.843 470.632 443.675 471.304 443.675 472.088V473.048C443.675 473.8 443.851 474.44 444.203 474.968C444.555 475.496 445.011 475.904 445.571 476.192C446.131 476.48 446.723 476.624 447.347 476.624ZM457.216 479V465.968H459.856V471.488H459.784C459.784 469.616 460.184 468.2 460.984 467.24C461.784 466.28 462.96 465.8 464.512 465.8H464.992V468.704H464.08C462.96 468.704 462.088 469.008 461.464 469.616C460.856 470.208 460.552 471.072 460.552 472.208V479H457.216ZM475.05 479V475.136H474.498V470.84C474.498 470.088 474.314 469.528 473.946 469.16C473.578 468.792 473.01 468.608 472.242 468.608C471.842 468.608 471.362 468.616 470.802 468.632C470.242 468.648 469.674 468.672 469.098 468.704C468.538 468.72 468.034 468.744 467.586 468.776V465.944C467.954 465.912 468.37 465.88 468.834 465.848C469.298 465.816 469.77 465.8 470.25 465.8C470.746 465.784 471.21 465.776 471.642 465.776C472.986 465.776 474.098 465.952 474.978 466.304C475.874 466.656 476.546 467.208 476.994 467.96C477.458 468.712 477.69 469.696 477.69 470.912V479H475.05ZM470.85 479.336C469.906 479.336 469.074 479.168 468.354 478.832C467.65 478.496 467.098 478.016 466.698 477.392C466.314 476.768 466.122 476.016 466.122 475.136C466.122 474.176 466.354 473.392 466.818 472.784C467.298 472.176 467.962 471.72 468.81 471.416C469.674 471.112 470.682 470.96 471.834 470.96H474.858V472.952H471.786C471.018 472.952 470.426 473.144 470.01 473.528C469.61 473.896 469.41 474.376 469.41 474.968C469.41 475.56 469.61 476.04 470.01 476.408C470.426 476.776 471.018 476.96 471.786 476.96C472.25 476.96 472.674 476.88 473.058 476.72C473.458 476.544 473.786 476.256 474.042 475.856C474.314 475.44 474.466 474.88 474.498 474.176L475.314 475.112C475.234 476.024 475.01 476.792 474.642 477.416C474.29 478.04 473.794 478.52 473.154 478.856C472.53 479.176 471.762 479.336 470.85 479.336ZM481.263 479V465.968H483.903V471.488H483.831C483.831 469.616 484.231 468.2 485.031 467.24C485.831 466.28 487.007 465.8 488.559 465.8H489.039V468.704H488.127C487.007 468.704 486.135 469.008 485.511 469.616C484.903 470.208 484.599 471.072 484.599 472.208V479H481.263ZM491.285 484.136V481.28H493.733C494.197 481.28 494.581 481.216 494.885 481.088C495.205 480.976 495.469 480.784 495.677 480.512C495.885 480.256 496.045 479.896 496.157 479.432L499.661 465.968H502.853L498.989 480.152C498.733 481.128 498.373 481.904 497.909 482.48C497.445 483.072 496.845 483.496 496.109 483.752C495.389 484.008 494.493 484.136 493.421 484.136H491.285ZM495.341 478.712V476.072H498.125V478.712H495.341ZM494.213 478.712L489.989 465.968H493.349L497.357 478.712H494.213ZM254.69 513.368C253.906 512.392 253.218 511.336 252.626 510.2C252.034 509.064 251.578 507.808 251.258 506.432C250.938 505.04 250.778 503.48 250.778 501.752C250.778 500.008 250.946 498.456 251.282 497.096C251.618 495.72 252.09 494.488 252.698 493.4C253.306 492.296 253.994 491.288 254.762 490.376H258.482C257.618 491.432 256.85 492.536 256.178 493.688C255.506 494.84 254.986 496.08 254.618 497.408C254.25 498.736 254.066 500.184 254.066 501.752C254.066 503.304 254.218 504.752 254.522 506.096C254.842 507.44 255.33 508.712 255.986 509.912C256.642 511.112 257.474 512.264 258.482 513.368H254.69ZM260.875 509V491.48H265.531L269.923 501.944H270.355L274.723 491.48H279.451V509H276.067V494.048L276.499 494.096L271.771 505.424H268.291L263.539 494.096L263.995 494.048V509H260.875ZM289.773 509.456C288.621 509.456 287.605 509.272 286.725 508.904C285.845 508.536 285.101 508.04 284.493 507.416C283.885 506.776 283.421 506.056 283.101 505.256C282.797 504.456 282.645 503.624 282.645 502.76V502.256C282.645 501.36 282.805 500.512 283.125 499.712C283.461 498.896 283.933 498.176 284.541 497.552C285.165 496.912 285.917 496.416 286.797 496.064C287.677 495.696 288.669 495.512 289.773 495.512C290.877 495.512 291.869 495.696 292.749 496.064C293.629 496.416 294.373 496.912 294.981 497.552C295.605 498.176 296.077 498.896 296.397 499.712C296.717 500.512 296.877 501.36 296.877 502.256V502.76C296.877 503.624 296.717 504.456 296.397 505.256C296.093 506.056 295.637 506.776 295.029 507.416C294.421 508.04 293.677 508.536 292.797 508.904C291.917 509.272 290.909 509.456 289.773 509.456ZM289.773 506.6C290.589 506.6 291.277 506.424 291.837 506.072C292.397 505.704 292.821 505.216 293.109 504.608C293.397 503.984 293.541 503.28 293.541 502.496C293.541 501.696 293.389 500.992 293.085 500.384C292.797 499.76 292.365 499.272 291.789 498.92C291.229 498.552 290.557 498.368 289.773 498.368C288.989 498.368 288.309 498.552 287.733 498.92C287.173 499.272 286.741 499.76 286.437 500.384C286.133 500.992 285.981 501.696 285.981 502.496C285.981 503.28 286.125 503.984 286.413 504.608C286.717 505.216 287.149 505.704 287.709 506.072C288.269 506.424 288.957 506.6 289.773 506.6ZM305.198 509.432C304.286 509.432 303.446 509.264 302.678 508.928C301.91 508.592 301.246 508.12 300.686 507.512C300.126 506.904 299.694 506.2 299.39 505.4C299.086 504.584 298.934 503.704 298.934 502.76V502.256C298.934 501.328 299.078 500.456 299.366 499.64C299.67 498.824 300.086 498.112 300.614 497.504C301.158 496.896 301.806 496.424 302.558 496.088C303.326 495.736 304.174 495.56 305.102 495.56C306.126 495.56 307.022 495.784 307.79 496.232C308.574 496.664 309.198 497.32 309.662 498.2C310.126 499.08 310.382 500.184 310.43 501.512L309.446 500.36V491.48H312.782V509H310.142V503.456H310.718C310.67 504.784 310.398 505.896 309.902 506.792C309.406 507.672 308.75 508.336 307.934 508.784C307.134 509.216 306.222 509.432 305.198 509.432ZM305.942 506.624C306.598 506.624 307.198 506.48 307.742 506.192C308.286 505.888 308.718 505.456 309.038 504.896C309.374 504.32 309.542 503.648 309.542 502.88V501.92C309.542 501.152 309.374 500.512 309.038 500C308.702 499.472 308.262 499.072 307.718 498.8C307.174 498.512 306.582 498.368 305.942 498.368C305.222 498.368 304.582 498.544 304.022 498.896C303.478 499.232 303.046 499.712 302.726 500.336C302.422 500.96 302.27 501.688 302.27 502.52C302.27 503.352 302.43 504.08 302.75 504.704C303.07 505.312 303.502 505.784 304.046 506.12C304.606 506.456 305.238 506.624 305.942 506.624ZM322.412 509.456C321.292 509.456 320.308 509.264 319.46 508.88C318.628 508.496 317.932 507.984 317.372 507.344C316.828 506.688 316.412 505.96 316.124 505.16C315.852 504.36 315.716 503.544 315.716 502.712V502.256C315.716 501.392 315.852 500.56 316.124 499.76C316.412 498.944 316.828 498.224 317.372 497.6C317.932 496.96 318.62 496.456 319.436 496.088C320.252 495.704 321.196 495.512 322.268 495.512C323.676 495.512 324.852 495.824 325.796 496.448C326.756 497.056 327.476 497.864 327.956 498.872C328.436 499.864 328.676 500.936 328.676 502.088V503.288H317.132V501.248H326.588L325.556 502.256C325.556 501.424 325.436 500.712 325.196 500.12C324.956 499.528 324.588 499.072 324.092 498.752C323.612 498.432 323.004 498.272 322.268 498.272C321.532 498.272 320.908 498.44 320.396 498.776C319.884 499.112 319.492 499.6 319.22 500.24C318.964 500.864 318.836 501.616 318.836 502.496C318.836 503.312 318.964 504.04 319.22 504.68C319.476 505.304 319.868 505.8 320.396 506.168C320.924 506.52 321.596 506.696 322.412 506.696C323.228 506.696 323.892 506.536 324.404 506.216C324.916 505.88 325.244 505.472 325.388 504.992H328.46C328.268 505.888 327.9 506.672 327.356 507.344C326.812 508.016 326.116 508.536 325.268 508.904C324.436 509.272 323.484 509.456 322.412 509.456ZM331.63 509V491.48H334.966V509H331.63ZM329.998 493.976V491.48H334.966V493.976H329.998ZM343.503 509.408C341.711 509.408 340.303 509.032 339.279 508.28C338.271 507.512 337.743 506.456 337.695 505.112H340.695C340.743 505.56 340.991 505.968 341.439 506.336C341.887 506.704 342.591 506.888 343.551 506.888C344.351 506.888 344.983 506.744 345.447 506.456C345.927 506.168 346.167 505.776 346.167 505.28C346.167 504.848 345.983 504.504 345.615 504.248C345.263 503.992 344.655 503.824 343.791 503.744L342.639 503.624C341.183 503.464 340.063 503.048 339.279 502.376C338.495 501.704 338.103 500.808 338.103 499.688C338.103 498.792 338.327 498.04 338.775 497.432C339.223 496.824 339.839 496.368 340.623 496.064C341.423 495.744 342.335 495.584 343.359 495.584C344.959 495.584 346.255 495.936 347.247 496.64C348.239 497.344 348.759 498.376 348.807 499.736H345.807C345.775 499.288 345.551 498.904 345.135 498.584C344.719 498.264 344.119 498.104 343.335 498.104C342.631 498.104 342.087 498.24 341.703 498.512C341.319 498.784 341.127 499.136 341.127 499.568C341.127 499.984 341.279 500.304 341.583 500.528C341.903 500.752 342.415 500.904 343.119 500.984L344.271 501.104C345.807 501.264 347.007 501.688 347.871 502.376C348.751 503.064 349.191 503.992 349.191 505.16C349.191 506.024 348.951 506.776 348.471 507.416C348.007 508.04 347.351 508.528 346.503 508.88C345.655 509.232 344.655 509.408 343.503 509.408ZM352.744 512.984L350.152 512L352.6 505.04L355.384 506.072L352.744 512.984ZM366.553 509.096V505.928H370.177C371.089 505.928 371.897 505.792 372.601 505.52C373.321 505.232 373.929 504.832 374.425 504.32C374.921 503.808 375.297 503.208 375.553 502.52C375.825 501.816 375.961 501.04 375.961 500.192C375.961 499.312 375.825 498.528 375.553 497.84C375.297 497.136 374.921 496.536 374.425 496.04C373.929 495.544 373.321 495.168 372.601 494.912C371.897 494.656 371.089 494.528 370.177 494.528H366.553V491.36H369.961C371.545 491.36 372.929 491.592 374.113 492.056C375.297 492.52 376.281 493.16 377.065 493.976C377.849 494.776 378.433 495.696 378.817 496.736C379.217 497.76 379.417 498.824 379.417 499.928V500.456C379.417 501.512 379.217 502.552 378.817 503.576C378.433 504.6 377.849 505.528 377.065 506.36C376.281 507.192 375.297 507.856 374.113 508.352C372.929 508.848 371.545 509.096 369.961 509.096H366.553ZM363.625 509.096V491.36H367.033V509.096H363.625ZM389.861 509.432C388.789 509.432 387.845 509.208 387.029 508.76C386.213 508.296 385.573 507.624 385.109 506.744C384.645 505.864 384.389 504.8 384.341 503.552H384.845V509H382.205V491.48H385.541V500.24L384.653 501.608C384.717 500.264 384.981 499.144 385.445 498.248C385.925 497.352 386.565 496.68 387.365 496.232C388.165 495.784 389.069 495.56 390.077 495.56C390.973 495.56 391.789 495.728 392.525 496.064C393.261 496.4 393.893 496.872 394.421 497.48C394.949 498.072 395.349 498.768 395.621 499.568C395.909 500.368 396.053 501.24 396.053 502.184V502.688C396.053 503.632 395.909 504.512 395.621 505.328C395.333 506.144 394.917 506.864 394.373 507.488C393.829 508.096 393.173 508.576 392.405 508.928C391.653 509.264 390.805 509.432 389.861 509.432ZM389.117 506.624C389.837 506.624 390.461 506.448 390.989 506.096C391.533 505.728 391.957 505.232 392.261 504.608C392.565 503.984 392.717 503.264 392.717 502.448C392.717 501.616 392.565 500.896 392.261 500.288C391.957 499.68 391.533 499.208 390.989 498.872C390.461 498.536 389.837 498.368 389.117 498.368C388.461 498.368 387.853 498.512 387.293 498.8C386.749 499.088 386.301 499.512 385.949 500.072C385.613 500.632 385.445 501.304 385.445 502.088V503.048C385.445 503.8 385.621 504.44 385.973 504.968C386.325 505.496 386.781 505.904 387.341 506.192C387.901 506.48 388.493 506.624 389.117 506.624ZM407.146 509.456C405.562 509.456 404.202 509.176 403.066 508.616C401.93 508.056 401.002 507.328 400.282 506.432C399.578 505.536 399.058 504.56 398.722 503.504C398.386 502.448 398.218 501.432 398.218 500.456V499.928C398.218 498.84 398.386 497.768 398.722 496.712C399.074 495.656 399.61 494.696 400.33 493.832C401.05 492.968 401.962 492.28 403.066 491.768C404.186 491.24 405.506 490.976 407.026 490.976C408.61 490.976 409.986 491.264 411.154 491.84C412.338 492.4 413.282 493.2 413.986 494.24C414.69 495.264 415.114 496.464 415.258 497.84H411.826C411.698 497.04 411.41 496.368 410.962 495.824C410.53 495.264 409.978 494.848 409.306 494.576C408.634 494.288 407.874 494.144 407.026 494.144C406.162 494.144 405.394 494.296 404.722 494.6C404.05 494.888 403.49 495.304 403.042 495.848C402.594 496.392 402.25 497.032 402.01 497.768C401.786 498.504 401.674 499.32 401.674 500.216C401.674 501.08 401.786 501.88 402.01 502.616C402.25 503.352 402.602 504 403.066 504.56C403.53 505.104 404.098 505.528 404.77 505.832C405.458 506.136 406.25 506.288 407.146 506.288C408.458 506.288 409.562 505.968 410.458 505.328C411.37 504.672 411.922 503.76 412.114 502.592H415.546C415.386 503.84 414.962 504.984 414.274 506.024C413.586 507.064 412.642 507.896 411.442 508.52C410.242 509.144 408.81 509.456 407.146 509.456ZM424.422 509.456C423.27 509.456 422.254 509.272 421.374 508.904C420.494 508.536 419.75 508.04 419.142 507.416C418.534 506.776 418.07 506.056 417.75 505.256C417.446 504.456 417.294 503.624 417.294 502.76V502.256C417.294 501.36 417.454 500.512 417.774 499.712C418.11 498.896 418.582 498.176 419.19 497.552C419.814 496.912 420.566 496.416 421.446 496.064C422.326 495.696 423.318 495.512 424.422 495.512C425.526 495.512 426.518 495.696 427.398 496.064C428.278 496.416 429.022 496.912 429.63 497.552C430.254 498.176 430.726 498.896 431.046 499.712C431.366 500.512 431.526 501.36 431.526 502.256V502.76C431.526 503.624 431.366 504.456 431.046 505.256C430.742 506.056 430.286 506.776 429.678 507.416C429.07 508.04 428.326 508.536 427.446 508.904C426.566 509.272 425.558 509.456 424.422 509.456ZM424.422 506.6C425.238 506.6 425.926 506.424 426.486 506.072C427.046 505.704 427.47 505.216 427.758 504.608C428.046 503.984 428.19 503.28 428.19 502.496C428.19 501.696 428.038 500.992 427.734 500.384C427.446 499.76 427.014 499.272 426.438 498.92C425.878 498.552 425.206 498.368 424.422 498.368C423.638 498.368 422.958 498.552 422.382 498.92C421.822 499.272 421.39 499.76 421.086 500.384C420.782 500.992 420.63 501.696 420.63 502.496C420.63 503.28 420.774 503.984 421.062 504.608C421.366 505.216 421.798 505.704 422.358 506.072C422.918 506.424 423.606 506.6 424.422 506.6ZM434.447 509V495.968H437.087V501.56H436.847C436.847 500.232 437.023 499.128 437.375 498.248C437.727 497.352 438.247 496.68 438.935 496.232C439.639 495.784 440.511 495.56 441.551 495.56H441.695C443.247 495.56 444.423 496.064 445.223 497.072C446.023 498.064 446.423 499.552 446.423 501.536V509H443.087V501.248C443.087 500.448 442.855 499.8 442.391 499.304C441.943 498.808 441.319 498.56 440.519 498.56C439.703 498.56 439.039 498.816 438.527 499.328C438.031 499.824 437.783 500.496 437.783 501.344V509H434.447ZM455.673 509.168C454.473 509.168 453.481 509.016 452.697 508.712C451.929 508.392 451.353 507.864 450.969 507.128C450.585 506.376 450.393 505.368 450.393 504.104L450.417 492.296H453.537L453.513 504.32C453.513 504.96 453.681 505.456 454.017 505.808C454.369 506.144 454.865 506.312 455.505 506.312H457.545V509.168H455.673ZM448.329 498.416V495.968H457.545V498.416H448.329ZM466.107 509.456C464.987 509.456 464.003 509.264 463.155 508.88C462.323 508.496 461.627 507.984 461.067 507.344C460.523 506.688 460.107 505.96 459.819 505.16C459.547 504.36 459.411 503.544 459.411 502.712V502.256C459.411 501.392 459.547 500.56 459.819 499.76C460.107 498.944 460.523 498.224 461.067 497.6C461.627 496.96 462.315 496.456 463.131 496.088C463.947 495.704 464.891 495.512 465.963 495.512C467.371 495.512 468.547 495.824 469.491 496.448C470.451 497.056 471.171 497.864 471.651 498.872C472.131 499.864 472.371 500.936 472.371 502.088V503.288H460.827V501.248H470.283L469.251 502.256C469.251 501.424 469.131 500.712 468.891 500.12C468.651 499.528 468.283 499.072 467.787 498.752C467.307 498.432 466.699 498.272 465.963 498.272C465.227 498.272 464.603 498.44 464.091 498.776C463.579 499.112 463.187 499.6 462.915 500.24C462.659 500.864 462.531 501.616 462.531 502.496C462.531 503.312 462.659 504.04 462.915 504.68C463.171 505.304 463.563 505.8 464.091 506.168C464.619 506.52 465.291 506.696 466.107 506.696C466.923 506.696 467.587 506.536 468.099 506.216C468.611 505.88 468.939 505.472 469.083 504.992H472.155C471.963 505.888 471.595 506.672 471.051 507.344C470.507 508.016 469.811 508.536 468.963 508.904C468.131 509.272 467.179 509.456 466.107 509.456ZM473.599 509L477.847 502.04L477.775 502.592L473.767 495.968H477.391L480.007 500.552H480.367L482.839 495.968H486.247L482.455 502.568L482.527 502.088L487.015 509H483.391L480.295 504.08H479.935L477.007 509H473.599ZM494.744 509.168C493.544 509.168 492.552 509.016 491.768 508.712C491 508.392 490.424 507.864 490.04 507.128C489.656 506.376 489.464 505.368 489.464 504.104L489.488 492.296H492.608L492.584 504.32C492.584 504.96 492.752 505.456 493.088 505.808C493.44 506.144 493.936 506.312 494.576 506.312H496.616V509.168H494.744ZM487.4 498.416V495.968H496.616V498.416H487.4ZM501.317 513.368H497.525C498.533 512.264 499.365 511.112 500.021 509.912C500.677 508.712 501.157 507.44 501.461 506.096C501.781 504.752 501.941 503.304 501.941 501.752C501.941 500.184 501.757 498.736 501.389 497.408C501.021 496.08 500.501 494.84 499.829 493.688C499.157 492.536 498.389 491.432 497.525 490.376H501.245C502.013 491.288 502.701 492.296 503.309 493.4C503.917 494.488 504.389 495.72 504.725 497.096C505.061 498.456 505.229 500.008 505.229 501.752C505.229 503.48 505.069 505.04 504.749 506.432C504.429 507.808 503.973 509.064 503.381 510.2C502.789 511.336 502.101 512.392 501.317 513.368Z" fill="white"/>
<path d="M589.843 205.786C589.062 205.005 587.957 205.005 587.176 205.786L578.296 214.667C577.515 215.448 577.515 216.552 578.296 217.333L588.51 227.547L598.723 217.333C599.504 216.552 599.504 215.448 598.723 214.667L589.843 205.786ZM369.129 312.69C368.025 312.69 367.244 314.043 367.796 314.999L376.676 330.381C377.229 331.337 378.791 331.337 379.343 330.381L388.223 314.999C388.776 314.043 387.995 312.69 386.89 312.69H369.129ZM588.51 216H586.51V252H588.51H590.51V216H588.51ZM564.51 276V274H402.01V276V278H564.51V276ZM378.01 300H376.01V314.69H378.01H380.01V300H378.01ZM402.01 276V274C387.65 274 376.01 285.641 376.01 300H378.01H380.01C380.01 287.85 389.86 278 402.01 278V276ZM588.51 252H586.51C586.51 264.15 576.66 274 564.51 274V276V278C578.869 278 590.51 266.359 590.51 252H588.51Z" fill="white"/>
<path d="M169.343 205.786C168.562 205.005 167.457 205.005 166.676 205.786L157.796 214.667C157.015 215.448 157.015 216.552 157.796 217.333L168.01 227.547L178.223 217.333C179.004 216.552 179.004 215.448 178.223 214.667L169.343 205.786ZM84.6998 452.88C84.6998 453.985 86.0526 454.766 87.0092 454.214L102.39 445.333C103.347 444.781 103.347 443.219 102.39 442.667L87.0092 433.786C86.0526 433.234 84.6998 434.015 84.6998 435.12V452.88ZM168.01 216H166.01V243H168.01H170.01V216H168.01ZM144.01 267V265H31.0098V267V269H144.01V267ZM7.00977 291H5.00977V420H7.00977H9.00977V291H7.00977ZM31.0098 444V446H86.6998V444V442H31.0098V444ZM7.00977 420H5.00977C5.00977 434.359 16.6504 446 31.0098 446V444V442C18.8595 442 9.00977 432.15 9.00977 420H7.00977ZM31.0098 267V265C16.6504 265 5.00977 276.641 5.00977 291H7.00977H9.00977C9.00977 278.85 18.8595 269 31.0098 269V267ZM168.01 243H166.01C166.01 255.15 156.16 265 144.01 265V267V269C158.369 269 170.01 257.359 170.01 243H168.01Z" fill="white"/>
<rect x="108.01" y="595" width="540" height="216" rx="16" fill="#DB6E00"/>
<rect width="188" height="116" transform="translate(284 627)" fill="#DB6E00"/>
<path d="M378.021 698.177C369.273 698.177 361.886 696.776 355.861 693.972C349.835 691.17 346.822 687.734 346.822 683.667V650.333C346.822 646.33 349.863 642.904 355.944 640.052C362.024 637.201 369.373 635.775 377.99 635.775C386.574 635.775 393.926 637.201 400.046 640.052C406.165 642.904 409.225 646.33 409.225 650.333V683.667C409.225 687.734 406.203 691.17 400.161 693.972C394.118 696.776 386.739 698.177 378.021 698.177ZM378 656.286C382.756 656.286 387.623 655.558 392.598 654.102C397.574 652.645 400.831 651 402.369 649.167C400.775 647.389 397.472 645.758 392.46 644.273C387.448 642.789 382.62 642.047 377.976 642.047C373.166 642.047 368.296 642.77 363.367 644.214C358.439 645.659 355.181 647.309 353.594 649.167C355.181 651.111 358.401 652.784 363.252 654.185C368.104 655.585 373.02 656.286 378 656.286ZM377.916 674.072C380.218 674.072 382.514 673.94 384.805 673.674C387.095 673.408 389.297 673.017 391.41 672.502C393.522 671.986 395.561 671.351 397.528 670.597C399.495 669.844 401.303 669.007 402.952 668.087V656.725C401.278 657.614 399.461 658.419 397.501 659.142C395.541 659.864 393.494 660.467 391.358 660.951C389.223 661.435 387.032 661.809 384.786 662.071C382.539 662.333 380.244 662.464 377.9 662.464C375.618 662.464 373.329 662.333 371.031 662.071C368.735 661.809 366.52 661.427 364.387 660.927C362.254 660.427 360.222 659.824 358.29 659.117C356.358 658.411 354.626 657.614 353.094 656.725V668.087C354.594 669.007 356.304 669.836 358.225 670.574C360.145 671.312 362.174 671.947 364.313 672.478C366.452 673.009 368.675 673.408 370.981 673.674C373.289 673.94 375.6 674.072 377.916 674.072ZM378 691.906C380.604 691.937 383.291 691.724 386.061 691.268C388.832 690.812 391.398 690.202 393.759 689.44C396.12 688.678 398.136 687.817 399.806 686.857C401.476 685.897 402.525 684.917 402.952 683.917V674.537C401.334 675.457 399.561 676.28 397.632 677.006C395.703 677.731 393.666 678.344 391.521 678.844C389.377 679.344 387.164 679.719 384.884 679.969C382.603 680.219 380.281 680.344 377.916 680.344C375.569 680.344 373.241 680.211 370.935 679.946C368.628 679.68 366.413 679.297 364.29 678.797C362.166 678.297 360.153 677.684 358.248 676.958C356.344 676.233 354.626 675.425 353.094 674.537V683.997C353.466 684.944 354.473 685.895 356.116 686.852C357.758 687.808 359.766 688.661 362.139 689.411C364.512 690.161 367.084 690.764 369.855 691.221C372.625 691.677 375.34 691.906 378 691.906Z" fill="white"/>
<path d="M289.455 739.624V736.672H292.863C293.551 736.672 294.127 736.536 294.591 736.264C295.071 735.992 295.431 735.616 295.671 735.136C295.927 734.656 296.055 734.104 296.055 733.48C296.055 732.856 295.927 732.304 295.671 731.824C295.431 731.344 295.071 730.976 294.591 730.72C294.127 730.448 293.551 730.312 292.863 730.312H289.455V727.36H292.575C294.047 727.36 295.295 727.6 296.319 728.08C297.359 728.56 298.151 729.248 298.695 730.144C299.239 731.024 299.511 732.072 299.511 733.288V733.672C299.511 734.888 299.239 735.944 298.695 736.84C298.151 737.72 297.359 738.408 296.319 738.904C295.295 739.384 294.047 739.624 292.575 739.624H289.455ZM286.527 745V727.36H289.935V745H286.527ZM308.137 745.456C306.985 745.456 305.969 745.272 305.089 744.904C304.209 744.536 303.465 744.04 302.857 743.416C302.249 742.776 301.785 742.056 301.465 741.256C301.161 740.456 301.009 739.624 301.009 738.76V738.256C301.009 737.36 301.169 736.512 301.489 735.712C301.825 734.896 302.297 734.176 302.905 733.552C303.529 732.912 304.281 732.416 305.161 732.064C306.041 731.696 307.033 731.512 308.137 731.512C309.241 731.512 310.233 731.696 311.113 732.064C311.993 732.416 312.737 732.912 313.345 733.552C313.969 734.176 314.441 734.896 314.761 735.712C315.081 736.512 315.241 737.36 315.241 738.256V738.76C315.241 739.624 315.081 740.456 314.761 741.256C314.457 742.056 314.001 742.776 313.393 743.416C312.785 744.04 312.041 744.536 311.161 744.904C310.281 745.272 309.273 745.456 308.137 745.456ZM308.137 742.6C308.953 742.6 309.641 742.424 310.201 742.072C310.761 741.704 311.185 741.216 311.473 740.608C311.761 739.984 311.905 739.28 311.905 738.496C311.905 737.696 311.753 736.992 311.449 736.384C311.161 735.76 310.729 735.272 310.153 734.92C309.593 734.552 308.921 734.368 308.137 734.368C307.353 734.368 306.673 734.552 306.097 734.92C305.537 735.272 305.105 735.76 304.801 736.384C304.497 736.992 304.345 737.696 304.345 738.496C304.345 739.28 304.489 739.984 304.777 740.608C305.081 741.216 305.513 741.704 306.073 742.072C306.633 742.424 307.321 742.6 308.137 742.6ZM322.89 745.408C321.098 745.408 319.69 745.032 318.666 744.28C317.658 743.512 317.13 742.456 317.082 741.112H320.082C320.13 741.56 320.378 741.968 320.826 742.336C321.274 742.704 321.978 742.888 322.938 742.888C323.738 742.888 324.37 742.744 324.834 742.456C325.314 742.168 325.554 741.776 325.554 741.28C325.554 740.848 325.37 740.504 325.002 740.248C324.65 739.992 324.042 739.824 323.178 739.744L322.026 739.624C320.57 739.464 319.45 739.048 318.666 738.376C317.882 737.704 317.49 736.808 317.49 735.688C317.49 734.792 317.714 734.04 318.162 733.432C318.61 732.824 319.226 732.368 320.01 732.064C320.81 731.744 321.722 731.584 322.746 731.584C324.346 731.584 325.642 731.936 326.634 732.64C327.626 733.344 328.146 734.376 328.194 735.736H325.194C325.162 735.288 324.938 734.904 324.522 734.584C324.106 734.264 323.506 734.104 322.722 734.104C322.018 734.104 321.474 734.24 321.09 734.512C320.706 734.784 320.514 735.136 320.514 735.568C320.514 735.984 320.666 736.304 320.97 736.528C321.29 736.752 321.802 736.904 322.506 736.984L323.658 737.104C325.194 737.264 326.394 737.688 327.258 738.376C328.138 739.064 328.578 739.992 328.578 741.16C328.578 742.024 328.338 742.776 327.858 743.416C327.394 744.04 326.738 744.528 325.89 744.88C325.042 745.232 324.042 745.408 322.89 745.408ZM336.998 745.168C335.798 745.168 334.806 745.016 334.022 744.712C333.254 744.392 332.678 743.864 332.294 743.128C331.91 742.376 331.718 741.368 331.718 740.104L331.742 728.296H334.862L334.838 740.32C334.838 740.96 335.006 741.456 335.342 741.808C335.694 742.144 336.19 742.312 336.83 742.312H338.87V745.168H336.998ZM329.654 734.416V731.968H338.87V734.416H329.654ZM346.687 750.136C346.063 750.136 345.423 750.112 344.767 750.064C344.127 750.016 343.527 749.952 342.967 749.872V747.088C343.543 747.152 344.159 747.208 344.815 747.256C345.471 747.32 346.087 747.352 346.663 747.352C347.735 747.352 348.599 747.224 349.255 746.968C349.927 746.712 350.415 746.304 350.719 745.744C351.039 745.2 351.199 744.504 351.199 743.656V741.088L351.919 739.456C351.871 740.656 351.623 741.68 351.175 742.528C350.727 743.36 350.119 744 349.351 744.448C348.583 744.88 347.695 745.096 346.687 745.096C345.791 745.096 344.975 744.928 344.239 744.592C343.519 744.256 342.895 743.792 342.367 743.2C341.855 742.608 341.455 741.912 341.167 741.112C340.879 740.312 340.735 739.456 340.735 738.544V738.04C340.735 737.128 340.879 736.28 341.167 735.496C341.471 734.696 341.895 734 342.439 733.408C342.983 732.816 343.631 732.36 344.383 732.04C345.135 731.72 345.967 731.56 346.879 731.56C347.951 731.56 348.879 731.792 349.663 732.256C350.463 732.72 351.087 733.392 351.535 734.272C351.983 735.152 352.231 736.232 352.279 737.512L351.703 737.608V731.968H354.343V743.464C354.343 745.048 354.071 746.328 353.527 747.304C352.983 748.28 352.143 748.992 351.007 749.44C349.887 749.904 348.447 750.136 346.687 750.136ZM347.647 742.24C348.287 742.24 348.871 742.096 349.399 741.808C349.927 741.52 350.351 741.104 350.671 740.56C350.991 740.016 351.151 739.36 351.151 738.592V737.752C351.151 737.016 350.983 736.392 350.647 735.88C350.327 735.368 349.903 734.984 349.375 734.728C348.847 734.456 348.271 734.32 347.647 734.32C346.943 734.32 346.319 734.488 345.775 734.824C345.247 735.144 344.831 735.6 344.527 736.192C344.223 736.784 344.071 737.488 344.071 738.304C344.071 739.104 344.223 739.8 344.527 740.392C344.831 740.984 345.247 741.44 345.775 741.76C346.319 742.08 346.943 742.24 347.647 742.24ZM357.982 745V731.968H360.622V737.488H360.55C360.55 735.616 360.95 734.2 361.75 733.24C362.55 732.28 363.726 731.8 365.278 731.8H365.758V734.704H364.846C363.726 734.704 362.854 735.008 362.23 735.616C361.622 736.208 361.318 737.072 361.318 738.208V745H357.982ZM373.728 745.456C372.608 745.456 371.624 745.264 370.776 744.88C369.944 744.496 369.248 743.984 368.688 743.344C368.144 742.688 367.728 741.96 367.44 741.16C367.168 740.36 367.032 739.544 367.032 738.712V738.256C367.032 737.392 367.168 736.56 367.44 735.76C367.728 734.944 368.144 734.224 368.688 733.6C369.248 732.96 369.936 732.456 370.752 732.088C371.568 731.704 372.512 731.512 373.584 731.512C374.992 731.512 376.168 731.824 377.112 732.448C378.072 733.056 378.792 733.864 379.272 734.872C379.752 735.864 379.992 736.936 379.992 738.088V739.288H368.448V737.248H377.904L376.872 738.256C376.872 737.424 376.752 736.712 376.512 736.12C376.272 735.528 375.904 735.072 375.408 734.752C374.928 734.432 374.32 734.272 373.584 734.272C372.848 734.272 372.224 734.44 371.712 734.776C371.2 735.112 370.808 735.6 370.536 736.24C370.28 736.864 370.152 737.616 370.152 738.496C370.152 739.312 370.28 740.04 370.536 740.68C370.792 741.304 371.184 741.8 371.712 742.168C372.24 742.52 372.912 742.696 373.728 742.696C374.544 742.696 375.208 742.536 375.72 742.216C376.232 741.88 376.56 741.472 376.704 740.992H379.776C379.584 741.888 379.216 742.672 378.672 743.344C378.128 744.016 377.432 744.536 376.584 744.904C375.752 745.272 374.8 745.456 373.728 745.456ZM389.019 745.456C387.467 745.456 386.155 745.208 385.083 744.712C384.027 744.216 383.219 743.536 382.659 742.672C382.099 741.792 381.819 740.8 381.819 739.696H385.155C385.155 740.16 385.283 740.616 385.539 741.064C385.795 741.496 386.203 741.848 386.763 742.12C387.339 742.392 388.091 742.528 389.019 742.528C389.851 742.528 390.547 742.408 391.107 742.168C391.667 741.928 392.083 741.616 392.355 741.232C392.627 740.832 392.763 740.384 392.763 739.888C392.763 739.264 392.499 738.768 391.971 738.4C391.443 738.016 390.627 737.776 389.523 737.68L387.987 737.56C386.307 737.416 384.963 736.896 383.955 736C382.963 735.088 382.467 733.888 382.467 732.4C382.467 731.28 382.731 730.32 383.259 729.52C383.787 728.704 384.523 728.08 385.467 727.648C386.427 727.2 387.547 726.976 388.827 726.976C390.155 726.976 391.299 727.208 392.259 727.672C393.219 728.136 393.963 728.792 394.491 729.64C395.019 730.472 395.283 731.456 395.283 732.592H391.947C391.947 732.112 391.827 731.672 391.587 731.272C391.363 730.856 391.019 730.528 390.555 730.288C390.107 730.032 389.531 729.904 388.827 729.904C388.155 729.904 387.595 730.016 387.147 730.24C386.699 730.464 386.363 730.768 386.139 731.152C385.915 731.536 385.803 731.952 385.803 732.4C385.803 732.944 386.003 733.424 386.403 733.84C386.803 734.24 387.435 734.472 388.299 734.536L389.835 734.68C391.083 734.776 392.179 735.04 393.123 735.472C394.067 735.904 394.795 736.488 395.307 737.224C395.835 737.96 396.099 738.848 396.099 739.888C396.099 740.992 395.811 741.968 395.235 742.816C394.659 743.648 393.835 744.296 392.763 744.76C391.707 745.224 390.459 745.456 389.019 745.456ZM410.807 750.16C409.799 750.16 408.919 750.032 408.167 749.776C407.431 749.536 406.855 749.088 406.439 748.432C406.023 747.792 405.815 746.88 405.815 745.696V743.2H408.983V745.912C408.983 746.408 409.119 746.784 409.391 747.04C409.679 747.312 410.063 747.448 410.543 747.448H413.279V750.16H410.807ZM407.447 745.456C405.863 745.456 404.487 745.176 403.319 744.616C402.167 744.056 401.207 743.328 400.439 742.432C399.687 741.52 399.119 740.544 398.735 739.504C398.367 738.448 398.183 737.432 398.183 736.456V735.928C398.183 734.856 398.375 733.792 398.759 732.736C399.143 731.664 399.719 730.696 400.487 729.832C401.271 728.968 402.239 728.28 403.391 727.768C404.543 727.24 405.895 726.976 407.447 726.976C408.983 726.976 410.327 727.24 411.479 727.768C412.631 728.28 413.591 728.968 414.359 729.832C415.143 730.696 415.727 731.664 416.111 732.736C416.495 733.792 416.687 734.856 416.687 735.928V736.456C416.687 737.432 416.495 738.448 416.111 739.504C415.743 740.544 415.175 741.52 414.407 742.432C413.655 743.328 412.695 744.056 411.527 744.616C410.375 745.176 409.015 745.456 407.447 745.456ZM407.447 742.288C408.343 742.288 409.143 742.128 409.847 741.808C410.567 741.488 411.175 741.048 411.671 740.488C412.183 739.912 412.567 739.264 412.823 738.544C413.095 737.808 413.231 737.032 413.231 736.216C413.231 735.336 413.095 734.528 412.823 733.792C412.567 733.056 412.183 732.416 411.671 731.872C411.175 731.328 410.567 730.904 409.847 730.6C409.127 730.296 408.327 730.144 407.447 730.144C406.551 730.144 405.743 730.296 405.023 730.6C404.303 730.904 403.687 731.328 403.175 731.872C402.679 732.416 402.295 733.056 402.023 733.792C401.767 734.528 401.639 735.336 401.639 736.216C401.639 737.032 401.767 737.808 402.023 738.544C402.295 739.264 402.679 739.912 403.175 740.488C403.687 741.048 404.303 741.488 405.023 741.808C405.743 742.128 406.551 742.288 407.447 742.288ZM419.98 745V727.48H423.388V745H419.98ZM422.908 745V742H430.468V745H422.908ZM441.354 745.096V741.928H444.978C445.89 741.928 446.698 741.792 447.402 741.52C448.122 741.232 448.73 740.832 449.226 740.32C449.722 739.808 450.098 739.208 450.354 738.52C450.626 737.816 450.762 737.04 450.762 736.192C450.762 735.312 450.626 734.528 450.354 733.84C450.098 733.136 449.722 732.536 449.226 732.04C448.73 731.544 448.122 731.168 447.402 730.912C446.698 730.656 445.89 730.528 444.978 730.528H441.354V727.36H444.762C446.346 727.36 447.73 727.592 448.914 728.056C450.098 728.52 451.082 729.16 451.866 729.976C452.65 730.776 453.234 731.696 453.618 732.736C454.018 733.76 454.218 734.824 454.218 735.928V736.456C454.218 737.512 454.018 738.552 453.618 739.576C453.234 740.6 452.65 741.528 451.866 742.36C451.082 743.192 450.098 743.856 448.914 744.352C447.73 744.848 446.346 745.096 444.762 745.096H441.354ZM438.426 745.096V727.36H441.834V745.096H438.426ZM460.125 745.12V742.384H464.517C465.317 742.384 465.925 742.168 466.341 741.736C466.757 741.288 466.965 740.68 466.965 739.912C466.965 739.144 466.757 738.552 466.341 738.136C465.925 737.704 465.317 737.488 464.517 737.488H460.125V735.4H464.277C465.445 735.4 466.485 735.544 467.397 735.832C468.325 736.104 469.045 736.568 469.557 737.224C470.085 737.88 470.349 738.76 470.349 739.864V740.2C470.349 741.24 470.117 742.128 469.653 742.864C469.205 743.584 468.525 744.144 467.613 744.544C466.717 744.928 465.605 745.12 464.277 745.12H460.125ZM457.269 745.12V727.36H460.605V745.12H457.269ZM460.125 736.936V734.848H463.869C464.685 734.848 465.285 734.632 465.669 734.2C466.053 733.768 466.245 733.192 466.245 732.472C466.245 731.752 466.053 731.176 465.669 730.744C465.285 730.312 464.685 730.096 463.869 730.096H460.125V727.36H463.557C465.541 727.36 467.045 727.776 468.069 728.608C469.109 729.44 469.629 730.632 469.629 732.184V732.52C469.629 733.608 469.365 734.48 468.837 735.136C468.325 735.776 467.613 736.24 466.701 736.528C465.789 736.8 464.741 736.936 463.557 736.936H460.125Z" fill="white"/>
<path d="M637.796 701.667C637.015 702.448 637.015 703.552 637.796 704.333L646.676 713.214C647.457 713.995 648.562 713.995 649.343 713.214L659.557 703L649.343 692.786C648.562 692.005 647.457 692.005 646.676 692.786L637.796 701.667ZM671.32 435.12C671.32 434.015 669.967 433.234 669.01 433.786L653.629 442.667C652.673 443.219 652.673 444.781 653.629 445.333L669.01 454.214C669.967 454.766 671.32 453.985 671.32 452.88V435.12ZM648.01 703V705H735.01V703V701H648.01V703ZM759.01 679H761.01V468H759.01H757.01V679H759.01ZM735.01 444V442H669.32V444V446H735.01V444ZM759.01 468H761.01C761.01 453.641 749.369 442 735.01 442V444V446C747.16 446 757.01 455.85 757.01 468H759.01ZM735.01 703V705C749.369 705 761.01 693.359 761.01 679H759.01H757.01C757.01 691.15 747.16 701 735.01 701V703Z" fill="white"/>
<path d="M169.343 205.786C168.562 205.005 167.457 205.005 166.676 205.786L157.796 214.667C157.015 215.448 157.015 216.552 157.796 217.333L168.01 227.547L178.223 217.333C179.004 216.552 179.004 215.448 178.223 214.667L169.343 205.786ZM84.6998 711.88C84.6998 712.985 86.0526 713.766 87.0092 713.214L102.39 704.333C103.347 703.781 103.347 702.219 102.39 701.667L87.0092 692.786C86.0526 692.234 84.6998 693.015 84.6998 694.12V711.88ZM168.01 216H166.01V243H168.01H170.01V216H168.01ZM144.01 267V265H31.0098V267V269H144.01V267ZM7.00977 291H5.00977V679H7.00977H9.00977V291H7.00977ZM31.0098 703V705H86.6998V703V701H31.0098V703ZM7.00977 679H5.00977C5.00977 693.359 16.6504 705 31.0098 705V703V701C18.8595 701 9.00977 691.15 9.00977 679H7.00977ZM31.0098 267V265C16.6504 265 5.00977 276.641 5.00977 291H7.00977H9.00977C9.00977 278.85 18.8595 269 31.0098 269V267ZM168.01 243H166.01C166.01 255.15 156.16 265 144.01 265V267V269C158.369 269 170.01 257.359 170.01 243H168.01Z" fill="white"/>
<defs>
<filter id="filter0_f_2012_1646" x="145.421" y="72.0374" width="19.3353" height="19.3353" filterUnits="userSpaceOnUse" color-interpolation-filters="sRGB">
<feFlood flood-opacity="0" result="BackgroundImageFix"/>
<feBlend mode="normal" in="SourceGraphic" in2="BackgroundImageFix" result="shape"/>
<feGaussianBlur stdDeviation="1.13167" result="effect1_foregroundBlur_2012_1646"/>
</filter>
<filter id="filter1_f_2012_1646" x="143.367" y="46.5643" width="19.3362" height="19.3367" filterUnits="userSpaceOnUse" color-interpolation-filters="sRGB">
<feFlood flood-opacity="0" result="BackgroundImageFix"/>
<feBlend mode="normal" in="SourceGraphic" in2="BackgroundImageFix" result="shape"/>
<feGaussianBlur stdDeviation="1.13167" result="effect1_foregroundBlur_2012_1646"/>
</filter>
<filter id="filter2_f_2012_1646" x="169.599" y="45.2357" width="19.3343" height="19.3348" filterUnits="userSpaceOnUse" color-interpolation-filters="sRGB">
<feFlood flood-opacity="0" result="BackgroundImageFix"/>
<feBlend mode="normal" in="SourceGraphic" in2="BackgroundImageFix" result="shape"/>
<feGaussianBlur stdDeviation="1.13167" result="effect1_foregroundBlur_2012_1646"/>
</filter>
<filter id="filter3_f_2012_1646" x="170.769" y="70.7064" width="19.3646" height="19.3646" filterUnits="userSpaceOnUse" color-interpolation-filters="sRGB">
<feFlood flood-opacity="0" result="BackgroundImageFix"/>
<feBlend mode="normal" in="SourceGraphic" in2="BackgroundImageFix" result="shape"/>
<feGaussianBlur stdDeviation="1.13167" result="effect1_foregroundBlur_2012_1646"/>
</filter>
<linearGradient id="paint0_linear_2012_1646" x1="145.917" y1="88.5686" x2="188.634" y2="88.5686" gradientUnits="userSpaceOnUse">
<stop stop-color="#4B00AD"/>
<stop offset="1" stop-color="#A561FF"/>
</linearGradient>
<linearGradient id="paint1_linear_2012_1646" x1="142.473" y1="46.9453" x2="142.473" y2="89.662" gradientUnits="userSpaceOnUse">
<stop stop-color="#4B00AD"/>
<stop offset="1" stop-color="#A561FF"/>
</linearGradient>
<linearGradient id="paint2_linear_2012_1646" x1="188.632" y1="43.504" x2="145.915" y2="43.504" gradientUnits="userSpaceOnUse">
<stop stop-color="#4B00AD"/>
<stop offset="1" stop-color="#A561FF"/>
</linearGradient>
<linearGradient id="paint3_linear_2012_1646" x1="187.542" y1="89.6616" x2="187.542" y2="46.9449" gradientUnits="userSpaceOnUse">
<stop stop-color="#4B00AD"/>
<stop offset="1" stop-color="#A561FF"/>
</linearGradient>
<linearGradient id="paint4_linear_2012_1646" x1="145.913" y1="88.5686" x2="188.63" y2="88.5686" gradientUnits="userSpaceOnUse">
<stop stop-color="#4B00AD"/>
<stop offset="1" stop-color="#A561FF"/>
</linearGradient>
</defs>
</svg>
