<svg width="129" height="128" viewBox="0 0 129 128" fill="none" xmlns="http://www.w3.org/2000/svg">
<path d="M125.299 104.537C125.299 107.327 123.034 109.593 120.23 109.593H59.4305V114.662C59.4305 120.268 54.8992 124.799 49.3056 124.799H34.0992C28.5056 124.799 23.9617 120.268 23.9617 114.662V109.593H8.76797C5.96484 109.593 3.69922 107.327 3.69922 104.537C3.69922 101.734 5.96484 99.4681 8.76797 99.4681H23.9617V94.3994C23.9617 88.8058 28.5056 84.2617 34.0992 84.2617H49.3056C54.8992 84.2617 59.4305 88.8058 59.4305 94.3994V99.4681H120.23C123.034 99.4681 125.299 101.734 125.299 104.537Z" fill="#5438DC"/>
<path d="M125.299 64.0017C125.299 66.8049 123.034 69.0704 120.23 69.0704H105.037V74.1393C105.037 79.7328 100.493 84.264 94.8992 84.264H79.6928C74.0992 84.264 69.568 79.7328 69.568 74.1393V69.0704H8.76797C5.96484 69.0704 3.69922 66.8049 3.69922 64.0017C3.69922 61.1985 5.96484 58.9329 8.76797 58.9329H69.568V53.864C69.568 48.2704 74.0992 43.7393 79.6928 43.7393H94.8992C100.493 43.7393 105.037 48.2704 105.037 53.864V58.9329H120.23C123.034 58.9329 125.299 61.1985 125.299 64.0017Z" fill="#5438DC"/>
<path d="M3.69922 23.4625C3.69922 20.6721 5.96484 18.3938 8.76797 18.3938H23.9617V13.3378C23.9617 7.73137 28.5056 3.2002 34.0992 3.2002H49.3056C54.8992 3.2002 59.4305 7.73137 59.4305 13.3378V18.3938H120.23C123.034 18.3938 125.299 20.6721 125.299 23.4625C125.299 26.2657 123.034 28.5314 120.23 28.5314H59.4305V33.6002C59.4305 39.1938 54.8992 43.7378 49.3056 43.7378H34.0992C28.5056 43.7378 23.9617 39.1938 23.9617 33.6002V28.5314H8.76797C5.96484 28.5314 3.69922 26.2657 3.69922 23.4625Z" fill="#5438DC"/>
</svg>
