<svg width="129" height="128" viewBox="0 0 129 128" fill="none" xmlns="http://www.w3.org/2000/svg">
<g clip-path="url(#clip0_886_5959)">
<path d="M64.5 8.82812C29.116 8.82812 0.5 37.5049 0.5 72.8281C0.5 89.9131 7.16025 105.982 19.2537 118.075C19.9858 118.807 20.9458 119.173 21.9053 119.173C22.865 119.173 23.8247 118.807 24.557 118.074L35.9155 106.715C37.3797 105.251 37.3797 102.876 35.9155 101.412C32.7048 98.2011 24.1215 88.6521 24.0667 72.8251C24.0682 50.3386 42.3283 32.3946 64.5 32.3946C86.975 32.3946 104.932 50.6396 104.933 72.8251C104.901 82.2394 101.793 90.8639 96.2292 97.8811C90.4495 88.9174 77.547 69.2111 72.8317 64.4969C68.1885 59.8534 60.7278 59.9369 56.1678 64.4969C51.5155 69.1489 51.6175 76.6094 56.1678 81.1594C61.8022 86.7951 88.85 104.124 93.3808 107.012L104.443 118.074C105.175 118.807 106.135 119.173 107.094 119.173C108.054 119.173 109.014 118.807 109.746 118.075C121.84 105.982 128.5 89.9131 128.5 72.8281C128.5 37.4401 99.8172 8.82812 64.5 8.82812ZM28.062 103.962L21.991 110.034C13.7645 100.664 8.93225 89.0079 8.12175 76.5781H16.7108C17.493 86.7194 21.44 96.2366 28.062 103.962ZM16.7105 69.0781H8.12175C8.932 56.6481 13.7642 44.9921 21.991 35.6224L28.062 41.6936C21.4338 49.4231 17.4915 58.9346 16.7105 69.0781ZM60.75 25.0384C50.6063 25.8194 41.0938 29.7626 33.365 36.3901L27.2945 30.3191C36.6653 22.0926 48.321 17.2601 60.75 16.4499V25.0384ZM61.4715 75.8561C59.7873 74.1721 59.8112 71.4599 61.4712 69.8001C63.1423 68.1291 65.8592 68.1306 67.5287 69.8001C67.5287 69.8001 67.5287 69.8004 67.529 69.8004C70.2185 72.4894 76.8845 82.1574 82.924 91.2519C73.8295 85.2124 64.161 78.5464 61.4715 75.8561ZM68.25 25.0384V16.4499C80.679 17.2601 92.3347 22.0926 101.705 30.3194L95.635 36.3904C87.9062 29.7626 78.3938 25.8194 68.25 25.0384ZM100.938 41.6936L107.009 35.6224C115.236 44.9921 120.068 56.6481 120.878 69.0781H112.29C111.508 58.9346 107.566 49.4231 100.938 41.6936ZM107.009 110.034L100.938 103.962C107.56 96.2366 111.507 86.7194 112.289 76.5779H120.878C120.068 89.0079 115.236 100.664 107.009 110.034Z" fill="#5438DC"/>
</g>
<defs>
<clipPath id="clip0_886_5959">
<rect width="128" height="128" fill="white" transform="translate(0.5)"/>
</clipPath>
</defs>
</svg>
