<svg width="295" height="389" viewBox="0 0 295 389" fill="none" xmlns="http://www.w3.org/2000/svg">
<path d="M291.069 169.178C284.51 154.898 270.602 146.026 254.775 146.026H196.111L248.755 53.4327C255.152 42.5739 255.257 29.5657 249.026 18.5948C242.761 7.56533 231.45 0.980469 218.766 0.980469C210.823 0.980469 203.048 3.73226 196.874 8.72983C196.562 8.98119 196.26 9.24409 195.969 9.51771L17.6434 176.715C5.8162 187.006 -0.382144 201.723 0.628249 217.153C2.37212 243.79 23.7181 263.876 50.2792 263.876H105.999L49.5944 372.185C49.5375 372.294 49.4815 372.404 49.4271 372.515C41.7585 388.082 46.2327 406.042 60.3082 416.193C66.5774 420.714 73.7136 422.94 80.7946 422.939C89.6104 422.939 98.3396 419.489 105.188 412.729C105.364 412.556 105.535 412.378 105.703 412.197L233.443 274.251C239.628 267.572 239.227 257.143 232.548 250.958C225.868 244.773 215.44 245.174 209.255 251.853L81.8091 389.482C81.2783 389.977 80.7319 390.281 79.5905 389.457C78.3757 388.581 78.5842 387.941 78.9271 387.231L147.787 255.008C150.447 249.898 150.248 243.77 147.26 238.845C144.271 233.919 138.928 230.911 133.168 230.911H50.2809C39.9643 230.911 34.0421 222.907 33.5245 215C33.2847 211.336 34.1088 206.016 39.3982 201.484C39.5844 201.323 39.7682 201.159 39.9478 200.99L217.849 34.1907C218.127 34.0308 218.444 33.9451 218.766 33.9451C219.086 33.9451 219.833 33.9451 220.361 34.8731C220.888 35.8011 220.505 36.4431 220.342 36.7175C220.283 36.8156 220.225 36.9145 220.169 37.0142L153.451 154.362C150.55 159.465 150.581 165.725 153.533 170.797C156.484 175.871 161.91 178.992 167.78 178.992H254.774C258.712 178.992 260.435 181.464 261.112 182.938C261.805 184.447 262.575 187.437 259.94 190.504C254.009 197.41 254.799 207.817 261.704 213.747C268.61 219.678 279.016 218.888 284.947 211.983C295.31 199.918 297.655 183.517 291.069 169.178Z" fill="#5438DC"/>
</svg>
