<svg width="408" height="585" viewBox="0 0 408 585" fill="none" xmlns="http://www.w3.org/2000/svg">
<path d="M402.813 233.188C393.719 213.39 374.438 201.09 352.495 201.09H271.164L344.15 72.7194C353.017 57.6648 353.164 39.6303 344.525 24.4203C335.84 9.1292 320.158 0 302.573 0C291.56 0 280.781 3.81507 272.221 10.7437C271.789 11.0922 271.371 11.4566 270.966 11.836L23.7377 243.637C7.34055 257.905 -1.25278 278.308 0.148017 299.701C2.56571 336.63 32.1596 364.477 68.9838 364.477H146.234L68.0343 514.636C67.9555 514.786 67.8778 514.94 67.8024 515.093C57.1707 536.675 63.3737 561.575 82.8878 575.648C91.5794 581.916 101.473 585.001 111.29 585C123.512 585 135.614 580.217 145.109 570.845C145.353 570.605 145.59 570.358 145.823 570.108L322.921 378.861C331.496 369.6 330.939 355.142 321.68 346.567C312.419 337.993 297.961 338.548 289.386 347.808L112.697 538.616C111.961 539.303 111.203 539.723 109.621 538.582C107.937 537.366 108.226 536.479 108.701 535.496L204.168 352.182C207.856 345.098 207.58 336.601 203.437 329.773C199.294 322.944 191.886 318.775 183.9 318.775H68.9861C54.6833 318.775 46.4727 307.677 45.7552 296.715C45.4227 291.635 46.5653 284.26 53.8983 277.977C54.1566 277.754 54.4114 277.527 54.6604 277.292L301.302 46.0425C301.687 45.8208 302.126 45.702 302.573 45.702C303.016 45.702 304.052 45.702 304.783 46.9885C305.515 48.2751 304.983 49.1651 304.757 49.5456C304.676 49.6816 304.596 49.8187 304.518 49.957L212.021 212.648C207.999 219.721 208.041 228.4 212.134 235.433C216.226 242.467 223.748 246.793 231.886 246.793H352.494C357.953 246.793 360.342 250.221 361.28 252.264C362.241 254.356 363.309 258.502 359.656 262.754C351.434 272.328 352.528 286.756 362.102 294.978C371.676 303.2 386.103 302.106 394.326 292.532C408.693 275.806 411.944 253.067 402.813 233.188Z" fill="#5438DC"/>
</svg>
